<?xml version="1.0" encoding="UTF-8" standalone="no"?>
<!DOCTYPE svg PUBLIC "-//W3C//DTD SVG 1.1//EN"
 "http://www.w3.org/Graphics/SVG/1.1/DTD/svg11.dtd">
<!-- Generated by graphviz version 2.30.1 (20201013.1554)
 -->
<!-- Title: G Pages: 1 -->
<svg width="3206pt" height="44pt"
 viewBox="0.00 0.00 3206.00 44.00" xmlns="http://www.w3.org/2000/svg" xmlns:xlink="http://www.w3.org/1999/xlink">
<g id="graph0" class="graph" transform="scale(1 1) rotate(0) translate(4 40)">
<title>G</title>
<polygon fill="white" stroke="white" points="-4,5 -4,-40 3203,-40 3203,5 -4,5"/>
<!-- element0 -->
<g id="node1" class="node"><title>element0</title>
<path fill="none" stroke="black" d="M12.5,-0C12.5,-0 255.5,-0 255.5,-0 261.5,-0 267.5,-6 267.5,-12 267.5,-12 267.5,-24 267.5,-24 267.5,-30 261.5,-36 255.5,-36 255.5,-36 12.5,-36 12.5,-36 6.5,-36 0.5,-30 0.5,-24 0.5,-24 0.5,-12 0.5,-12 0.5,-6 6.5,-0 12.5,-0"/>
<text text-anchor="middle" x="45" y="-14.3" font-family="Times,serif" font-size="14.00">data = [0]</text>
<polyline fill="none" stroke="black" points="89.5,-0 89.5,-36 "/>
<text text-anchor="middle" x="134" y="-14.3" font-family="Times,serif" font-size="14.00">next = [0]</text>
<polyline fill="none" stroke="black" points="178.5,-0 178.5,-36 "/>
<text text-anchor="middle" x="223" y="-14.3" font-family="Times,serif" font-size="14.00">prev = [0]</text>
</g>
<!-- element1 -->
<g id="node2" class="node"><title>element1</title>
<path fill="none" stroke="black" d="M316,-0C316,-0 582,-0 582,-0 588,-0 594,-6 594,-12 594,-12 594,-24 594,-24 594,-30 588,-36 582,-36 582,-36 316,-36 316,-36 310,-36 304,-30 304,-24 304,-24 304,-12 304,-12 304,-6 310,-0 316,-0"/>
<text text-anchor="middle" x="357.5" y="-14.3" font-family="Times,serif" font-size="14.00">data = [666]</text>
<polyline fill="none" stroke="black" points="411,-0 411,-36 "/>
<text text-anchor="middle" x="455.5" y="-14.3" font-family="Times,serif" font-size="14.00">next = [2]</text>
<polyline fill="none" stroke="black" points="500,-0 500,-36 "/>
<text text-anchor="middle" x="547" y="-14.3" font-family="Times,serif" font-size="14.00">prev = [&#45;1]</text>
</g>
<!-- element0&#45;&gt;element1 -->
<!-- element2 -->
<g id="node3" class="node"><title>element2</title>
<path fill="none" stroke="black" d="M642,-0C642,-0 908,-0 908,-0 914,-0 920,-6 920,-12 920,-12 920,-24 920,-24 920,-30 914,-36 908,-36 908,-36 642,-36 642,-36 636,-36 630,-30 630,-24 630,-24 630,-12 630,-12 630,-6 636,-0 642,-0"/>
<text text-anchor="middle" x="683.5" y="-14.3" font-family="Times,serif" font-size="14.00">data = [666]</text>
<polyline fill="none" stroke="black" points="737,-0 737,-36 "/>
<text text-anchor="middle" x="781.5" y="-14.3" font-family="Times,serif" font-size="14.00">next = [3]</text>
<polyline fill="none" stroke="black" points="826,-0 826,-36 "/>
<text text-anchor="middle" x="873" y="-14.3" font-family="Times,serif" font-size="14.00">prev = [&#45;1]</text>
</g>
<!-- element1&#45;&gt;element2 -->
<!-- element1&#45;&gt;element2 -->
<g id="edge10" class="edge"><title>element1&#45;&gt;element2</title>
<path fill="none" stroke="green" d="M594.47,-24.7147C602.808,-24.7484 611.209,-24.758 619.582,-24.7434"/>
<polygon fill="green" stroke="green" points="619.787,-28.2429 629.777,-24.7137 619.766,-21.243 619.787,-28.2429"/>
</g>
<!-- element3 -->
<g id="node4" class="node"><title>element3</title>
<path fill="none" stroke="black" d="M968,-0C968,-0 1234,-0 1234,-0 1240,-0 1246,-6 1246,-12 1246,-12 1246,-24 1246,-24 1246,-30 1240,-36 1234,-36 1234,-36 968,-36 968,-36 962,-36 956,-30 956,-24 956,-24 956,-12 956,-12 956,-6 962,-0 968,-0"/>
<text text-anchor="middle" x="1009.5" y="-14.3" font-family="Times,serif" font-size="14.00">data = [666]</text>
<polyline fill="none" stroke="black" points="1063,-0 1063,-36 "/>
<text text-anchor="middle" x="1107.5" y="-14.3" font-family="Times,serif" font-size="14.00">next = [4]</text>
<polyline fill="none" stroke="black" points="1152,-0 1152,-36 "/>
<text text-anchor="middle" x="1199" y="-14.3" font-family="Times,serif" font-size="14.00">prev = [&#45;1]</text>
</g>
<!-- element2&#45;&gt;element3 -->
<!-- element2&#45;&gt;element3 -->
<g id="edge11" class="edge"><title>element2&#45;&gt;element3</title>
<path fill="none" stroke="green" d="M920.47,-24.7147C928.808,-24.7484 937.209,-24.758 945.582,-24.7434"/>
<polygon fill="green" stroke="green" points="945.787,-28.2429 955.777,-24.7137 945.766,-21.243 945.787,-28.2429"/>
</g>
<!-- element4 -->
<g id="node5" class="node"><title>element4</title>
<path fill="none" stroke="black" d="M1294,-0C1294,-0 1560,-0 1560,-0 1566,-0 1572,-6 1572,-12 1572,-12 1572,-24 1572,-24 1572,-30 1566,-36 1560,-36 1560,-36 1294,-36 1294,-36 1288,-36 1282,-30 1282,-24 1282,-24 1282,-12 1282,-12 1282,-6 1288,-0 1294,-0"/>
<text text-anchor="middle" x="1335.5" y="-14.3" font-family="Times,serif" font-size="14.00">data = [666]</text>
<polyline fill="none" stroke="black" points="1389,-0 1389,-36 "/>
<text text-anchor="middle" x="1433.5" y="-14.3" font-family="Times,serif" font-size="14.00">next = [5]</text>
<polyline fill="none" stroke="black" points="1478,-0 1478,-36 "/>
<text text-anchor="middle" x="1525" y="-14.3" font-family="Times,serif" font-size="14.00">prev = [&#45;1]</text>
</g>
<!-- element3&#45;&gt;element4 -->
<!-- element3&#45;&gt;element4 -->
<g id="edge12" class="edge"><title>element3&#45;&gt;element4</title>
<path fill="none" stroke="green" d="M1246.47,-24.7147C1254.81,-24.7484 1263.21,-24.758 1271.58,-24.7434"/>
<polygon fill="green" stroke="green" points="1271.79,-28.2429 1281.78,-24.7137 1271.77,-21.243 1271.79,-28.2429"/>
</g>
<!-- element5 -->
<g id="node6" class="node"><title>element5</title>
<path fill="none" stroke="black" d="M1620,-0C1620,-0 1886,-0 1886,-0 1892,-0 1898,-6 1898,-12 1898,-12 1898,-24 1898,-24 1898,-30 1892,-36 1886,-36 1886,-36 1620,-36 1620,-36 1614,-36 1608,-30 1608,-24 1608,-24 1608,-12 1608,-12 1608,-6 1614,-0 1620,-0"/>
<text text-anchor="middle" x="1661.5" y="-14.3" font-family="Times,serif" font-size="14.00">data = [666]</text>
<polyline fill="none" stroke="black" points="1715,-0 1715,-36 "/>
<text text-anchor="middle" x="1759.5" y="-14.3" font-family="Times,serif" font-size="14.00">next = [6]</text>
<polyline fill="none" stroke="black" points="1804,-0 1804,-36 "/>
<text text-anchor="middle" x="1851" y="-14.3" font-family="Times,serif" font-size="14.00">prev = [&#45;1]</text>
</g>
<!-- element4&#45;&gt;element5 -->
<!-- element4&#45;&gt;element5 -->
<g id="edge13" class="edge"><title>element4&#45;&gt;element5</title>
<path fill="none" stroke="green" d="M1572.47,-24.7147C1580.81,-24.7484 1589.21,-24.758 1597.58,-24.7434"/>
<polygon fill="green" stroke="green" points="1597.79,-28.2429 1607.78,-24.7137 1597.77,-21.243 1597.79,-28.2429"/>
</g>
<!-- element6 -->
<g id="node7" class="node"><title>element6</title>
<path fill="none" stroke="black" d="M1946,-0C1946,-0 2212,-0 2212,-0 2218,-0 2224,-6 2224,-12 2224,-12 2224,-24 2224,-24 2224,-30 2218,-36 2212,-36 2212,-36 1946,-36 1946,-36 1940,-36 1934,-30 1934,-24 1934,-24 1934,-12 1934,-12 1934,-6 1940,-0 1946,-0"/>
<text text-anchor="middle" x="1987.5" y="-14.3" font-family="Times,serif" font-size="14.00">data = [666]</text>
<polyline fill="none" stroke="black" points="2041,-0 2041,-36 "/>
<text text-anchor="middle" x="2085.5" y="-14.3" font-family="Times,serif" font-size="14.00">next = [7]</text>
<polyline fill="none" stroke="black" points="2130,-0 2130,-36 "/>
<text text-anchor="middle" x="2177" y="-14.3" font-family="Times,serif" font-size="14.00">prev = [&#45;1]</text>
</g>
<!-- element5&#45;&gt;element6 -->
<!-- element5&#45;&gt;element6 -->
<g id="edge14" class="edge"><title>element5&#45;&gt;element6</title>
<path fill="none" stroke="green" d="M1898.47,-24.7147C1906.81,-24.7484 1915.21,-24.758 1923.58,-24.7434"/>
<polygon fill="green" stroke="green" points="1923.79,-28.2429 1933.78,-24.7137 1923.77,-21.243 1923.79,-28.2429"/>
</g>
<!-- element7 -->
<g id="node8" class="node"><title>element7</title>
<path fill="none" stroke="black" d="M2272,-0C2272,-0 2538,-0 2538,-0 2544,-0 2550,-6 2550,-12 2550,-12 2550,-24 2550,-24 2550,-30 2544,-36 2538,-36 2538,-36 2272,-36 2272,-36 2266,-36 2260,-30 2260,-24 2260,-24 2260,-12 2260,-12 2260,-6 2266,-0 2272,-0"/>
<text text-anchor="middle" x="2313.5" y="-14.3" font-family="Times,serif" font-size="14.00">data = [666]</text>
<polyline fill="none" stroke="black" points="2367,-0 2367,-36 "/>
<text text-anchor="middle" x="2411.5" y="-14.3" font-family="Times,serif" font-size="14.00">next = [8]</text>
<polyline fill="none" stroke="black" points="2456,-0 2456,-36 "/>
<text text-anchor="middle" x="2503" y="-14.3" font-family="Times,serif" font-size="14.00">prev = [&#45;1]</text>
</g>
<!-- element6&#45;&gt;element7 -->
<!-- element6&#45;&gt;element7 -->
<g id="edge15" class="edge"><title>element6&#45;&gt;element7</title>
<path fill="none" stroke="green" d="M2224.47,-24.7147C2232.81,-24.7484 2241.21,-24.758 2249.58,-24.7434"/>
<polygon fill="green" stroke="green" points="2249.79,-28.2429 2259.78,-24.7137 2249.77,-21.243 2249.79,-28.2429"/>
</g>
<!-- element8 -->
<g id="node9" class="node"><title>element8</title>
<path fill="none" stroke="black" d="M2598,-0C2598,-0 2864,-0 2864,-0 2870,-0 2876,-6 2876,-12 2876,-12 2876,-24 2876,-24 2876,-30 2870,-36 2864,-36 2864,-36 2598,-36 2598,-36 2592,-36 2586,-30 2586,-24 2586,-24 2586,-12 2586,-12 2586,-6 2592,-0 2598,-0"/>
<text text-anchor="middle" x="2639.5" y="-14.3" font-family="Times,serif" font-size="14.00">data = [666]</text>
<polyline fill="none" stroke="black" points="2693,-0 2693,-36 "/>
<text text-anchor="middle" x="2737.5" y="-14.3" font-family="Times,serif" font-size="14.00">next = [9]</text>
<polyline fill="none" stroke="black" points="2782,-0 2782,-36 "/>
<text text-anchor="middle" x="2829" y="-14.3" font-family="Times,serif" font-size="14.00">prev = [&#45;1]</text>
</g>
<!-- element7&#45;&gt;element8 -->
<!-- element7&#45;&gt;element8 -->
<g id="edge16" class="edge"><title>element7&#45;&gt;element8</title>
<path fill="none" stroke="green" d="M2550.47,-24.7147C2558.81,-24.7484 2567.21,-24.758 2575.58,-24.7434"/>
<polygon fill="green" stroke="green" points="2575.79,-28.2429 2585.78,-24.7137 2575.77,-21.243 2575.79,-28.2429"/>
</g>
<!-- element9 -->
<g id="node10" class="node"><title>element9</title>
<path fill="none" stroke="black" d="M2924.5,-0C2924.5,-0 3185.5,-0 3185.5,-0 3191.5,-0 3197.5,-6 3197.5,-12 3197.5,-12 3197.5,-24 3197.5,-24 3197.5,-30 3191.5,-36 3185.5,-36 3185.5,-36 2924.5,-36 2924.5,-36 2918.5,-36 2912.5,-30 2912.5,-24 2912.5,-24 2912.5,-12 2912.5,-12 2912.5,-6 2918.5,-0 2924.5,-0"/>
<text text-anchor="middle" x="2966" y="-14.3" font-family="Times,serif" font-size="14.00">data = [666]</text>
<polyline fill="none" stroke="black" points="3019.5,-0 3019.5,-36 "/>
<text text-anchor="middle" x="3064" y="-14.3" font-family="Times,serif" font-size="14.00">next = [0]</text>
<polyline fill="none" stroke="black" points="3108.5,-0 3108.5,-36 "/>
<text text-anchor="middle" x="3153" y="-14.3" font-family="Times,serif" font-size="14.00">prev = [0]</text>
</g>
<!-- element8&#45;&gt;element9 -->
<!-- element8&#45;&gt;element9 -->
<g id="edge17" class="edge"><title>element8&#45;&gt;element9</title>
<path fill="none" stroke="green" d="M2876.05,-24.7166C2884.71,-24.7509 2893.44,-24.7588 2902.14,-24.7403"/>
<polygon fill="green" stroke="green" points="2902.34,-28.2398 2912.33,-24.7066 2902.32,-21.2398 2902.34,-28.2398"/>
</g>
</g>
</svg>
