<?xml version="1.0" encoding="UTF-8" standalone="no"?>
<!DOCTYPE svg PUBLIC "-//W3C//DTD SVG 1.1//EN"
 "http://www.w3.org/Graphics/SVG/1.1/DTD/svg11.dtd">
<!-- Generated by graphviz version 2.30.1 (20201013.1554)
 -->
<!-- Title: G Pages: 1 -->
<svg width="3786pt" height="44pt"
 viewBox="0.00 0.00 3786.00 44.00" xmlns="http://www.w3.org/2000/svg" xmlns:xlink="http://www.w3.org/1999/xlink">
<g id="graph0" class="graph" transform="scale(1 1) rotate(0) translate(4 40)">
<title>G</title>
<polygon fill="white" stroke="white" points="-4,5 -4,-40 3783,-40 3783,5 -4,5"/>
<!-- element0 -->
<g id="node1" class="node"><title>element0</title>
<path fill="none" stroke="black" d="M12.5,-0C12.5,-0 313.5,-0 313.5,-0 319.5,-0 325.5,-6 325.5,-12 325.5,-12 325.5,-24 325.5,-24 325.5,-30 319.5,-36 313.5,-36 313.5,-36 12.5,-36 12.5,-36 6.5,-36 0.5,-30 0.5,-24 0.5,-24 0.5,-12 0.5,-12 0.5,-6 6.5,-0 12.5,-0"/>
<text text-anchor="middle" x="74" y="-14.3" font-family="Times,serif" font-size="14.00">data = [0.000000]</text>
<polyline fill="none" stroke="black" points="147.5,-0 147.5,-36 "/>
<text text-anchor="middle" x="192" y="-14.3" font-family="Times,serif" font-size="14.00">next = [0]</text>
<polyline fill="none" stroke="black" points="236.5,-0 236.5,-36 "/>
<text text-anchor="middle" x="281" y="-14.3" font-family="Times,serif" font-size="14.00">prev = [0]</text>
</g>
<!-- element1 -->
<g id="node2" class="node"><title>element1</title>
<path fill="none" stroke="black" d="M374,-0C374,-0 698,-0 698,-0 704,-0 710,-6 710,-12 710,-12 710,-24 710,-24 710,-30 704,-36 698,-36 698,-36 374,-36 374,-36 368,-36 362,-30 362,-24 362,-24 362,-12 362,-12 362,-6 368,-0 374,-0"/>
<text text-anchor="middle" x="444.5" y="-14.3" font-family="Times,serif" font-size="14.00">data = [666.000000]</text>
<polyline fill="none" stroke="black" points="527,-0 527,-36 "/>
<text text-anchor="middle" x="571.5" y="-14.3" font-family="Times,serif" font-size="14.00">next = [2]</text>
<polyline fill="none" stroke="black" points="616,-0 616,-36 "/>
<text text-anchor="middle" x="663" y="-14.3" font-family="Times,serif" font-size="14.00">prev = [&#45;1]</text>
</g>
<!-- element0&#45;&gt;element1 -->
<!-- element2 -->
<g id="node3" class="node"><title>element2</title>
<path fill="none" stroke="black" d="M758,-0C758,-0 1082,-0 1082,-0 1088,-0 1094,-6 1094,-12 1094,-12 1094,-24 1094,-24 1094,-30 1088,-36 1082,-36 1082,-36 758,-36 758,-36 752,-36 746,-30 746,-24 746,-24 746,-12 746,-12 746,-6 752,-0 758,-0"/>
<text text-anchor="middle" x="828.5" y="-14.3" font-family="Times,serif" font-size="14.00">data = [666.000000]</text>
<polyline fill="none" stroke="black" points="911,-0 911,-36 "/>
<text text-anchor="middle" x="955.5" y="-14.3" font-family="Times,serif" font-size="14.00">next = [3]</text>
<polyline fill="none" stroke="black" points="1000,-0 1000,-36 "/>
<text text-anchor="middle" x="1047" y="-14.3" font-family="Times,serif" font-size="14.00">prev = [&#45;1]</text>
</g>
<!-- element1&#45;&gt;element2 -->
<!-- element3 -->
<g id="node4" class="node"><title>element3</title>
<path fill="none" stroke="black" d="M1142,-0C1142,-0 1466,-0 1466,-0 1472,-0 1478,-6 1478,-12 1478,-12 1478,-24 1478,-24 1478,-30 1472,-36 1466,-36 1466,-36 1142,-36 1142,-36 1136,-36 1130,-30 1130,-24 1130,-24 1130,-12 1130,-12 1130,-6 1136,-0 1142,-0"/>
<text text-anchor="middle" x="1212.5" y="-14.3" font-family="Times,serif" font-size="14.00">data = [666.000000]</text>
<polyline fill="none" stroke="black" points="1295,-0 1295,-36 "/>
<text text-anchor="middle" x="1339.5" y="-14.3" font-family="Times,serif" font-size="14.00">next = [4]</text>
<polyline fill="none" stroke="black" points="1384,-0 1384,-36 "/>
<text text-anchor="middle" x="1431" y="-14.3" font-family="Times,serif" font-size="14.00">prev = [&#45;1]</text>
</g>
<!-- element2&#45;&gt;element3 -->
<!-- element4 -->
<g id="node5" class="node"><title>element4</title>
<path fill="none" stroke="black" d="M1526,-0C1526,-0 1850,-0 1850,-0 1856,-0 1862,-6 1862,-12 1862,-12 1862,-24 1862,-24 1862,-30 1856,-36 1850,-36 1850,-36 1526,-36 1526,-36 1520,-36 1514,-30 1514,-24 1514,-24 1514,-12 1514,-12 1514,-6 1520,-0 1526,-0"/>
<text text-anchor="middle" x="1596.5" y="-14.3" font-family="Times,serif" font-size="14.00">data = [666.000000]</text>
<polyline fill="none" stroke="black" points="1679,-0 1679,-36 "/>
<text text-anchor="middle" x="1723.5" y="-14.3" font-family="Times,serif" font-size="14.00">next = [5]</text>
<polyline fill="none" stroke="black" points="1768,-0 1768,-36 "/>
<text text-anchor="middle" x="1815" y="-14.3" font-family="Times,serif" font-size="14.00">prev = [&#45;1]</text>
</g>
<!-- element3&#45;&gt;element4 -->
<!-- element5 -->
<g id="node6" class="node"><title>element5</title>
<path fill="none" stroke="black" d="M1910,-0C1910,-0 2234,-0 2234,-0 2240,-0 2246,-6 2246,-12 2246,-12 2246,-24 2246,-24 2246,-30 2240,-36 2234,-36 2234,-36 1910,-36 1910,-36 1904,-36 1898,-30 1898,-24 1898,-24 1898,-12 1898,-12 1898,-6 1904,-0 1910,-0"/>
<text text-anchor="middle" x="1980.5" y="-14.3" font-family="Times,serif" font-size="14.00">data = [666.000000]</text>
<polyline fill="none" stroke="black" points="2063,-0 2063,-36 "/>
<text text-anchor="middle" x="2107.5" y="-14.3" font-family="Times,serif" font-size="14.00">next = [6]</text>
<polyline fill="none" stroke="black" points="2152,-0 2152,-36 "/>
<text text-anchor="middle" x="2199" y="-14.3" font-family="Times,serif" font-size="14.00">prev = [&#45;1]</text>
</g>
<!-- element4&#45;&gt;element5 -->
<!-- element6 -->
<g id="node7" class="node"><title>element6</title>
<path fill="none" stroke="black" d="M2294,-0C2294,-0 2618,-0 2618,-0 2624,-0 2630,-6 2630,-12 2630,-12 2630,-24 2630,-24 2630,-30 2624,-36 2618,-36 2618,-36 2294,-36 2294,-36 2288,-36 2282,-30 2282,-24 2282,-24 2282,-12 2282,-12 2282,-6 2288,-0 2294,-0"/>
<text text-anchor="middle" x="2364.5" y="-14.3" font-family="Times,serif" font-size="14.00">data = [666.000000]</text>
<polyline fill="none" stroke="black" points="2447,-0 2447,-36 "/>
<text text-anchor="middle" x="2491.5" y="-14.3" font-family="Times,serif" font-size="14.00">next = [7]</text>
<polyline fill="none" stroke="black" points="2536,-0 2536,-36 "/>
<text text-anchor="middle" x="2583" y="-14.3" font-family="Times,serif" font-size="14.00">prev = [&#45;1]</text>
</g>
<!-- element5&#45;&gt;element6 -->
<!-- element7 -->
<g id="node8" class="node"><title>element7</title>
<path fill="none" stroke="black" d="M2678,-0C2678,-0 3002,-0 3002,-0 3008,-0 3014,-6 3014,-12 3014,-12 3014,-24 3014,-24 3014,-30 3008,-36 3002,-36 3002,-36 2678,-36 2678,-36 2672,-36 2666,-30 2666,-24 2666,-24 2666,-12 2666,-12 2666,-6 2672,-0 2678,-0"/>
<text text-anchor="middle" x="2748.5" y="-14.3" font-family="Times,serif" font-size="14.00">data = [666.000000]</text>
<polyline fill="none" stroke="black" points="2831,-0 2831,-36 "/>
<text text-anchor="middle" x="2875.5" y="-14.3" font-family="Times,serif" font-size="14.00">next = [8]</text>
<polyline fill="none" stroke="black" points="2920,-0 2920,-36 "/>
<text text-anchor="middle" x="2967" y="-14.3" font-family="Times,serif" font-size="14.00">prev = [&#45;1]</text>
</g>
<!-- element6&#45;&gt;element7 -->
<!-- element8 -->
<g id="node9" class="node"><title>element8</title>
<path fill="none" stroke="black" d="M3062,-0C3062,-0 3386,-0 3386,-0 3392,-0 3398,-6 3398,-12 3398,-12 3398,-24 3398,-24 3398,-30 3392,-36 3386,-36 3386,-36 3062,-36 3062,-36 3056,-36 3050,-30 3050,-24 3050,-24 3050,-12 3050,-12 3050,-6 3056,-0 3062,-0"/>
<text text-anchor="middle" x="3132.5" y="-14.3" font-family="Times,serif" font-size="14.00">data = [666.000000]</text>
<polyline fill="none" stroke="black" points="3215,-0 3215,-36 "/>
<text text-anchor="middle" x="3259.5" y="-14.3" font-family="Times,serif" font-size="14.00">next = [9]</text>
<polyline fill="none" stroke="black" points="3304,-0 3304,-36 "/>
<text text-anchor="middle" x="3351" y="-14.3" font-family="Times,serif" font-size="14.00">prev = [&#45;1]</text>
</g>
<!-- element7&#45;&gt;element8 -->
<!-- element9 -->
<g id="node10" class="node"><title>element9</title>
<path fill="none" stroke="black" d="M3446.5,-0C3446.5,-0 3765.5,-0 3765.5,-0 3771.5,-0 3777.5,-6 3777.5,-12 3777.5,-12 3777.5,-24 3777.5,-24 3777.5,-30 3771.5,-36 3765.5,-36 3765.5,-36 3446.5,-36 3446.5,-36 3440.5,-36 3434.5,-30 3434.5,-24 3434.5,-24 3434.5,-12 3434.5,-12 3434.5,-6 3440.5,-0 3446.5,-0"/>
<text text-anchor="middle" x="3517" y="-14.3" font-family="Times,serif" font-size="14.00">data = [666.000000]</text>
<polyline fill="none" stroke="black" points="3599.5,-0 3599.5,-36 "/>
<text text-anchor="middle" x="3644" y="-14.3" font-family="Times,serif" font-size="14.00">next = [0]</text>
<polyline fill="none" stroke="black" points="3688.5,-0 3688.5,-36 "/>
<text text-anchor="middle" x="3733" y="-14.3" font-family="Times,serif" font-size="14.00">prev = [0]</text>
</g>
<!-- element8&#45;&gt;element9 -->
</g>
</svg>
