<?xml version="1.0" encoding="UTF-8" standalone="no"?>
<!DOCTYPE svg PUBLIC "-//W3C//DTD SVG 1.1//EN"
 "http://www.w3.org/Graphics/SVG/1.1/DTD/svg11.dtd">
<!-- Generated by graphviz version 2.30.1 (20201013.1554)
 -->
<!-- Title: G Pages: 1 -->
<svg width="804pt" height="156pt"
 viewBox="0.00 0.00 804.00 155.52" xmlns="http://www.w3.org/2000/svg" xmlns:xlink="http://www.w3.org/1999/xlink">
<g id="graph0" class="graph" transform="scale(1 1) rotate(0) translate(4 151.523)">
<title>G</title>
<polygon fill="white" stroke="white" points="-4,5 -4,-151.523 801,-151.523 801,5 -4,5"/>
<!-- element0 -->
<g id="node1" class="node"><title>element0</title>
<path fill="#666666" stroke="black" d="M12.5,-55.5232C12.5,-55.5232 77.5,-55.5232 77.5,-55.5232 83.5,-55.5232 89.5,-61.5232 89.5,-67.5232 89.5,-67.5232 89.5,-135.523 89.5,-135.523 89.5,-141.523 83.5,-147.523 77.5,-147.523 77.5,-147.523 12.5,-147.523 12.5,-147.523 6.5,-147.523 0.5,-141.523 0.5,-135.523 0.5,-135.523 0.5,-67.5232 0.5,-67.5232 0.5,-61.5232 6.5,-55.5232 12.5,-55.5232"/>
<text text-anchor="middle" x="45" y="-132.323" font-family="Times,serif" font-size="14.00">idx = [0]</text>
<polyline fill="none" stroke="black" points="0.5,-124.523 89.5,-124.523 "/>
<text text-anchor="middle" x="45" y="-109.323" font-family="Times,serif" font-size="14.00">data = [0]</text>
<polyline fill="none" stroke="black" points="0.5,-101.523 89.5,-101.523 "/>
<text text-anchor="middle" x="45" y="-86.3232" font-family="Times,serif" font-size="14.00">next = [4]</text>
<polyline fill="none" stroke="black" points="0.5,-78.5232 89.5,-78.5232 "/>
<text text-anchor="middle" x="45" y="-63.3232" font-family="Times,serif" font-size="14.00">prev = [1]</text>
</g>
<!-- element1 -->
<g id="node2" class="node"><title>element1</title>
<path fill="#6666ff" stroke="black" d="M138.5,-55.5232C138.5,-55.5232 203.5,-55.5232 203.5,-55.5232 209.5,-55.5232 215.5,-61.5232 215.5,-67.5232 215.5,-67.5232 215.5,-135.523 215.5,-135.523 215.5,-141.523 209.5,-147.523 203.5,-147.523 203.5,-147.523 138.5,-147.523 138.5,-147.523 132.5,-147.523 126.5,-141.523 126.5,-135.523 126.5,-135.523 126.5,-67.5232 126.5,-67.5232 126.5,-61.5232 132.5,-55.5232 138.5,-55.5232"/>
<text text-anchor="middle" x="171" y="-132.323" font-family="Times,serif" font-size="14.00">idx = [1]</text>
<polyline fill="none" stroke="black" points="126.5,-124.523 215.5,-124.523 "/>
<text text-anchor="middle" x="171" y="-109.323" font-family="Times,serif" font-size="14.00">data = [0]</text>
<polyline fill="none" stroke="black" points="126.5,-101.523 215.5,-101.523 "/>
<text text-anchor="middle" x="171" y="-86.3232" font-family="Times,serif" font-size="14.00">next = [0]</text>
<polyline fill="none" stroke="black" points="126.5,-78.5232 215.5,-78.5232 "/>
<text text-anchor="middle" x="171" y="-63.3232" font-family="Times,serif" font-size="14.00">prev = [2]</text>
</g>
<!-- element0&#45;&gt;element1 -->
<g id="edge1" class="edge"><title>element0&#45;&gt;element1</title>
<path fill="none" stroke="none" d="M89.7178,-101.523C98.2376,-101.523 107.263,-101.523 116.068,-101.523"/>
<polygon fill="none" stroke="none" points="116.259,-105.023 126.259,-101.523 116.259,-98.0233 116.259,-105.023"/>
</g>
<!-- element4 -->
<g id="node5" class="node"><title>element4</title>
<path fill="#3333ff" stroke="black" d="M552.5,-55.5232C552.5,-55.5232 635.5,-55.5232 635.5,-55.5232 641.5,-55.5232 647.5,-61.5232 647.5,-67.5232 647.5,-67.5232 647.5,-135.523 647.5,-135.523 647.5,-141.523 641.5,-147.523 635.5,-147.523 635.5,-147.523 552.5,-147.523 552.5,-147.523 546.5,-147.523 540.5,-141.523 540.5,-135.523 540.5,-135.523 540.5,-67.5232 540.5,-67.5232 540.5,-61.5232 546.5,-55.5232 552.5,-55.5232"/>
<text text-anchor="middle" x="594" y="-132.323" font-family="Times,serif" font-size="14.00">idx = [4]</text>
<polyline fill="none" stroke="black" points="540.5,-124.523 647.5,-124.523 "/>
<text text-anchor="middle" x="594" y="-109.323" font-family="Times,serif" font-size="14.00">data = [303]</text>
<polyline fill="none" stroke="black" points="540.5,-101.523 647.5,-101.523 "/>
<text text-anchor="middle" x="594" y="-86.3232" font-family="Times,serif" font-size="14.00">next = [3]</text>
<polyline fill="none" stroke="black" points="540.5,-78.5232 647.5,-78.5232 "/>
<text text-anchor="middle" x="594" y="-63.3232" font-family="Times,serif" font-size="14.00">prev = [0]</text>
</g>
<!-- element0&#45;&gt;element4 -->
<g id="edge7" class="edge"><title>element0&#45;&gt;element4</title>
<path fill="none" stroke="red" d="M89.5276,-55.2696C100.718,-47.4241 113.226,-40.5498 126,-36.5232 286.228,13.9842 342.58,10.0356 504,-36.5232 514.718,-39.6145 525.389,-44.4203 535.426,-50.0685"/>
<polygon fill="red" stroke="red" points="533.688,-53.1069 544.068,-55.2269 537.275,-47.0962 533.688,-53.1069"/>
</g>
<!-- element0&#45;&gt;element1 -->
<g id="edge12" class="edge"><title>element0&#45;&gt;element1</title>
<path fill="none" stroke="blue" d="M89.7178,-95.0411C98.2376,-94.7846 107.263,-94.7123 116.068,-94.8243"/>
<polygon fill="blue" stroke="blue" points="116.187,-98.3275 126.259,-95.0404 116.336,-91.3291 116.187,-98.3275"/>
</g>
<!-- element2 -->
<g id="node3" class="node"><title>element2</title>
<path fill="#6666ff" stroke="black" d="M264.5,-55.5232C264.5,-55.5232 347.5,-55.5232 347.5,-55.5232 353.5,-55.5232 359.5,-61.5232 359.5,-67.5232 359.5,-67.5232 359.5,-135.523 359.5,-135.523 359.5,-141.523 353.5,-147.523 347.5,-147.523 347.5,-147.523 264.5,-147.523 264.5,-147.523 258.5,-147.523 252.5,-141.523 252.5,-135.523 252.5,-135.523 252.5,-67.5232 252.5,-67.5232 252.5,-61.5232 258.5,-55.5232 264.5,-55.5232"/>
<text text-anchor="middle" x="306" y="-132.323" font-family="Times,serif" font-size="14.00">idx = [2]</text>
<polyline fill="none" stroke="black" points="252.5,-124.523 359.5,-124.523 "/>
<text text-anchor="middle" x="306" y="-109.323" font-family="Times,serif" font-size="14.00">data = [101]</text>
<polyline fill="none" stroke="black" points="252.5,-101.523 359.5,-101.523 "/>
<text text-anchor="middle" x="306" y="-86.3232" font-family="Times,serif" font-size="14.00">next = [1]</text>
<polyline fill="none" stroke="black" points="252.5,-78.5232 359.5,-78.5232 "/>
<text text-anchor="middle" x="306" y="-63.3232" font-family="Times,serif" font-size="14.00">prev = [3]</text>
</g>
<!-- element1&#45;&gt;element2 -->
<g id="edge2" class="edge"><title>element1&#45;&gt;element2</title>
<path fill="none" stroke="none" d="M215.549,-88.7648C224.026,-88.1958 233.07,-87.9542 242.028,-88.0401"/>
<polygon fill="none" stroke="none" points="241.991,-91.5401 252.071,-88.2762 242.156,-84.5421 241.991,-91.5401"/>
</g>
<!-- element1&#45;&gt;element0 -->
<g id="edge11" class="edge"><title>element1&#45;&gt;element0</title>
<path fill="none" stroke="red" d="M126.259,-108.006C117.738,-108.262 108.712,-108.334 99.9081,-108.222"/>
<polygon fill="red" stroke="red" points="99.7899,-104.719 89.7178,-108.005 99.6411,-111.717 99.7899,-104.719"/>
</g>
<!-- element1&#45;&gt;element2 -->
<g id="edge13" class="edge"><title>element1&#45;&gt;element2</title>
<path fill="none" stroke="blue" d="M215.549,-114.282C224.026,-114.851 233.07,-115.092 242.028,-115.006"/>
<polygon fill="blue" stroke="blue" points="242.156,-118.504 252.071,-114.77 241.991,-111.506 242.156,-118.504"/>
</g>
<!-- element3 -->
<g id="node4" class="node"><title>element3</title>
<path fill="#6666ff" stroke="black" d="M408.5,-55.5232C408.5,-55.5232 491.5,-55.5232 491.5,-55.5232 497.5,-55.5232 503.5,-61.5232 503.5,-67.5232 503.5,-67.5232 503.5,-135.523 503.5,-135.523 503.5,-141.523 497.5,-147.523 491.5,-147.523 491.5,-147.523 408.5,-147.523 408.5,-147.523 402.5,-147.523 396.5,-141.523 396.5,-135.523 396.5,-135.523 396.5,-67.5232 396.5,-67.5232 396.5,-61.5232 402.5,-55.5232 408.5,-55.5232"/>
<text text-anchor="middle" x="450" y="-132.323" font-family="Times,serif" font-size="14.00">idx = [3]</text>
<polyline fill="none" stroke="black" points="396.5,-124.523 503.5,-124.523 "/>
<text text-anchor="middle" x="450" y="-109.323" font-family="Times,serif" font-size="14.00">data = [202]</text>
<polyline fill="none" stroke="black" points="396.5,-101.523 503.5,-101.523 "/>
<text text-anchor="middle" x="450" y="-86.3232" font-family="Times,serif" font-size="14.00">next = [2]</text>
<polyline fill="none" stroke="black" points="396.5,-78.5232 503.5,-78.5232 "/>
<text text-anchor="middle" x="450" y="-63.3232" font-family="Times,serif" font-size="14.00">prev = [4]</text>
</g>
<!-- element2&#45;&gt;element3 -->
<g id="edge3" class="edge"><title>element2&#45;&gt;element3</title>
<path fill="none" stroke="none" d="M359.876,-88.422C368.377,-88.0403 377.25,-87.9326 385.961,-88.0989"/>
<polygon fill="none" stroke="none" points="385.974,-91.601 396.08,-88.42 386.196,-84.6046 385.974,-91.601"/>
</g>
<!-- element2&#45;&gt;element1 -->
<g id="edge10" class="edge"><title>element2&#45;&gt;element1</title>
<path fill="none" stroke="red" d="M252.071,-101.523C243.364,-101.523 234.333,-101.523 225.61,-101.523"/>
<polygon fill="red" stroke="red" points="225.549,-98.0233 215.549,-101.523 225.549,-105.023 225.549,-98.0233"/>
</g>
<!-- element2&#45;&gt;element3 -->
<g id="edge14" class="edge"><title>element2&#45;&gt;element3</title>
<path fill="none" stroke="blue" d="M359.876,-114.624C368.377,-115.006 377.25,-115.114 385.961,-114.948"/>
<polygon fill="blue" stroke="blue" points="386.196,-118.442 396.08,-114.626 385.974,-111.445 386.196,-118.442"/>
</g>
<!-- element3&#45;&gt;element4 -->
<g id="edge4" class="edge"><title>element3&#45;&gt;element4</title>
<path fill="none" stroke="none" d="M503.876,-88.422C512.377,-88.0403 521.25,-87.9326 529.961,-88.0989"/>
<polygon fill="none" stroke="none" points="529.974,-91.601 540.08,-88.42 530.196,-84.6046 529.974,-91.601"/>
</g>
<!-- element3&#45;&gt;element2 -->
<g id="edge9" class="edge"><title>element3&#45;&gt;element2</title>
<path fill="none" stroke="red" d="M396.08,-101.523C387.578,-101.523 378.704,-101.523 369.994,-101.523"/>
<polygon fill="red" stroke="red" points="369.876,-98.0233 359.876,-101.523 369.876,-105.023 369.876,-98.0233"/>
</g>
<!-- element3&#45;&gt;element4 -->
<g id="edge15" class="edge"><title>element3&#45;&gt;element4</title>
<path fill="none" stroke="blue" d="M503.876,-114.624C512.377,-115.006 521.25,-115.114 529.961,-114.948"/>
<polygon fill="blue" stroke="blue" points="530.196,-118.442 540.08,-114.626 529.974,-111.445 530.196,-118.442"/>
</g>
<!-- element5 -->
<g id="node6" class="node"><title>element5</title>
<path fill="#006600" stroke="green" d="M696.5,-55.5232C696.5,-55.5232 783.5,-55.5232 783.5,-55.5232 789.5,-55.5232 795.5,-61.5232 795.5,-67.5232 795.5,-67.5232 795.5,-135.523 795.5,-135.523 795.5,-141.523 789.5,-147.523 783.5,-147.523 783.5,-147.523 696.5,-147.523 696.5,-147.523 690.5,-147.523 684.5,-141.523 684.5,-135.523 684.5,-135.523 684.5,-67.5232 684.5,-67.5232 684.5,-61.5232 690.5,-55.5232 696.5,-55.5232"/>
<text text-anchor="middle" x="740" y="-132.323" font-family="Times,serif" font-size="14.00">idx = [5]</text>
<polyline fill="none" stroke="green" points="684.5,-124.523 795.5,-124.523 "/>
<text text-anchor="middle" x="740" y="-109.323" font-family="Times,serif" font-size="14.00">data = [&#45;666]</text>
<polyline fill="none" stroke="green" points="684.5,-101.523 795.5,-101.523 "/>
<text text-anchor="middle" x="740" y="-86.3232" font-family="Times,serif" font-size="14.00">next = [0]</text>
<polyline fill="none" stroke="green" points="684.5,-78.5232 795.5,-78.5232 "/>
<text text-anchor="middle" x="740" y="-63.3232" font-family="Times,serif" font-size="14.00">prev = [&#45;1]</text>
</g>
<!-- element4&#45;&gt;element5 -->
<g id="edge5" class="edge"><title>element4&#45;&gt;element5</title>
<path fill="none" stroke="none" d="M647.803,-94.9912C656.341,-94.793 665.268,-94.73 674.054,-94.8021"/>
<polygon fill="none" stroke="none" points="674.222,-98.3048 684.271,-94.9489 674.322,-91.3055 674.222,-98.3048"/>
</g>
<!-- element4&#45;&gt;element3 -->
<g id="edge8" class="edge"><title>element4&#45;&gt;element3</title>
<path fill="none" stroke="red" d="M540.08,-101.523C531.578,-101.523 522.704,-101.523 513.994,-101.523"/>
<polygon fill="red" stroke="red" points="513.876,-98.0233 503.876,-101.523 513.876,-105.023 513.876,-98.0233"/>
</g>
<!-- element4&#45;&gt;element0 -->
<g id="edge16" class="edge"><title>element4&#45;&gt;element0</title>
<path fill="none" stroke="blue" d="M540.252,-70.4921C528.845,-64.0224 516.454,-58.1153 504,-54.5232 342.58,-7.96443 286.228,-4.01581 126,-54.5232 116.42,-57.5431 106.989,-62.1649 98.1511,-67.3737"/>
<polygon fill="blue" stroke="blue" points="96.1683,-64.4852 89.5276,-72.7406 99.8671,-70.4282 96.1683,-64.4852"/>
</g>
<!-- element5&#45;&gt;element4 -->
<g id="edge6" class="edge"><title>element5&#45;&gt;element4</title>
<path fill="none" stroke="none" d="M684.271,-108.098C675.677,-108.275 666.734,-108.318 657.973,-108.226"/>
<polygon fill="none" stroke="none" points="657.86,-104.724 647.803,-108.055 657.742,-111.723 657.86,-104.724"/>
</g>
</g>
</svg>
