<?xml version="1.0" encoding="UTF-8" standalone="no"?>
<!DOCTYPE svg PUBLIC "-//W3C//DTD SVG 1.1//EN"
 "http://www.w3.org/Graphics/SVG/1.1/DTD/svg11.dtd">
<!-- Generated by graphviz version 2.30.1 (20201013.1554)
 -->
<!-- Title: G Pages: 1 -->
<svg width="800pt" height="147pt"
 viewBox="0.00 0.00 800.00 147.15" xmlns="http://www.w3.org/2000/svg" xmlns:xlink="http://www.w3.org/1999/xlink">
<g id="graph0" class="graph" transform="scale(1 1) rotate(0) translate(4 143.153)">
<title>G</title>
<polygon fill="white" stroke="white" points="-4,5 -4,-143.153 797,-143.153 797,5 -4,5"/>
<!-- element0 -->
<g id="node1" class="node"><title>element0</title>
<path fill="#666666" stroke="green" d="M12.5,-47.1526C12.5,-47.1526 77.5,-47.1526 77.5,-47.1526 83.5,-47.1526 89.5,-53.1526 89.5,-59.1526 89.5,-59.1526 89.5,-127.153 89.5,-127.153 89.5,-133.153 83.5,-139.153 77.5,-139.153 77.5,-139.153 12.5,-139.153 12.5,-139.153 6.5,-139.153 0.5,-133.153 0.5,-127.153 0.5,-127.153 0.5,-59.1526 0.5,-59.1526 0.5,-53.1526 6.5,-47.1526 12.5,-47.1526"/>
<text text-anchor="middle" x="45" y="-123.953" font-family="Times,serif" font-size="14.00">idx = [0]</text>
<polyline fill="none" stroke="green" points="0.5,-116.153 89.5,-116.153 "/>
<text text-anchor="middle" x="45" y="-100.953" font-family="Times,serif" font-size="14.00">data = [0]</text>
<polyline fill="none" stroke="green" points="0.5,-93.1526 89.5,-93.1526 "/>
<text text-anchor="middle" x="45" y="-77.9526" font-family="Times,serif" font-size="14.00">next = [5]</text>
<polyline fill="none" stroke="green" points="0.5,-70.1526 89.5,-70.1526 "/>
<text text-anchor="middle" x="45" y="-54.9526" font-family="Times,serif" font-size="14.00">prev = [1]</text>
</g>
<!-- element1 -->
<g id="node2" class="node"><title>element1</title>
<path fill="#6666ff" stroke="black" d="M138.5,-47.1526C138.5,-47.1526 203.5,-47.1526 203.5,-47.1526 209.5,-47.1526 215.5,-53.1526 215.5,-59.1526 215.5,-59.1526 215.5,-127.153 215.5,-127.153 215.5,-133.153 209.5,-139.153 203.5,-139.153 203.5,-139.153 138.5,-139.153 138.5,-139.153 132.5,-139.153 126.5,-133.153 126.5,-127.153 126.5,-127.153 126.5,-59.1526 126.5,-59.1526 126.5,-53.1526 132.5,-47.1526 138.5,-47.1526"/>
<text text-anchor="middle" x="171" y="-123.953" font-family="Times,serif" font-size="14.00">idx = [1]</text>
<polyline fill="none" stroke="black" points="126.5,-116.153 215.5,-116.153 "/>
<text text-anchor="middle" x="171" y="-100.953" font-family="Times,serif" font-size="14.00">data = [0]</text>
<polyline fill="none" stroke="black" points="126.5,-93.1526 215.5,-93.1526 "/>
<text text-anchor="middle" x="171" y="-77.9526" font-family="Times,serif" font-size="14.00">next = [0]</text>
<polyline fill="none" stroke="black" points="126.5,-70.1526 215.5,-70.1526 "/>
<text text-anchor="middle" x="171" y="-54.9526" font-family="Times,serif" font-size="14.00">prev = [2]</text>
</g>
<!-- element0&#45;&gt;element1 -->
<g id="edge1" class="edge"><title>element0&#45;&gt;element1</title>
<path fill="none" stroke="none" d="M89.7178,-93.1526C98.2376,-93.1526 107.263,-93.1526 116.068,-93.1526"/>
<polygon fill="none" stroke="none" points="116.259,-96.6527 126.259,-93.1526 116.259,-89.6527 116.259,-96.6527"/>
</g>
<!-- element5 -->
<g id="node6" class="node"><title>element5</title>
<path fill="#3333ff" stroke="black" d="M696.5,-47.1526C696.5,-47.1526 779.5,-47.1526 779.5,-47.1526 785.5,-47.1526 791.5,-53.1526 791.5,-59.1526 791.5,-59.1526 791.5,-127.153 791.5,-127.153 791.5,-133.153 785.5,-139.153 779.5,-139.153 779.5,-139.153 696.5,-139.153 696.5,-139.153 690.5,-139.153 684.5,-133.153 684.5,-127.153 684.5,-127.153 684.5,-59.1526 684.5,-59.1526 684.5,-53.1526 690.5,-47.1526 696.5,-47.1526"/>
<text text-anchor="middle" x="738" y="-123.953" font-family="Times,serif" font-size="14.00">idx = [5]</text>
<polyline fill="none" stroke="black" points="684.5,-116.153 791.5,-116.153 "/>
<text text-anchor="middle" x="738" y="-100.953" font-family="Times,serif" font-size="14.00">data = [404]</text>
<polyline fill="none" stroke="black" points="684.5,-93.1526 791.5,-93.1526 "/>
<text text-anchor="middle" x="738" y="-77.9526" font-family="Times,serif" font-size="14.00">next = [4]</text>
<polyline fill="none" stroke="black" points="684.5,-70.1526 791.5,-70.1526 "/>
<text text-anchor="middle" x="738" y="-54.9526" font-family="Times,serif" font-size="14.00">prev = [0]</text>
</g>
<!-- element0&#45;&gt;element5 -->
<g id="edge7" class="edge"><title>element0&#45;&gt;element5</title>
<path fill="none" stroke="red" d="M89.6066,-48.6015C100.889,-40.5896 113.42,-33.2204 126,-28.1526 200.691,1.93527 224.477,-0.152564 305,-0.152564 305,-0.152564 305,-0.152564 451,-0.152564 539.436,-0.152564 564.969,2.28846 648,-28.1526 657.742,-31.7241 667.545,-36.47 676.901,-41.7913"/>
<polygon fill="red" stroke="red" points="675.338,-44.9339 685.719,-47.05 678.923,-38.9219 675.338,-44.9339"/>
</g>
<!-- element0&#45;&gt;element1 -->
<g id="edge13" class="edge"><title>element0&#45;&gt;element1</title>
<path fill="none" stroke="blue" d="M89.7178,-86.6705C98.2376,-86.4139 107.263,-86.3416 116.068,-86.4536"/>
<polygon fill="blue" stroke="blue" points="116.187,-89.9568 126.259,-86.6698 116.336,-82.9584 116.187,-89.9568"/>
</g>
<!-- element2 -->
<g id="node3" class="node"><title>element2</title>
<path fill="#6666ff" stroke="black" d="M264.5,-47.1526C264.5,-47.1526 347.5,-47.1526 347.5,-47.1526 353.5,-47.1526 359.5,-53.1526 359.5,-59.1526 359.5,-59.1526 359.5,-127.153 359.5,-127.153 359.5,-133.153 353.5,-139.153 347.5,-139.153 347.5,-139.153 264.5,-139.153 264.5,-139.153 258.5,-139.153 252.5,-133.153 252.5,-127.153 252.5,-127.153 252.5,-59.1526 252.5,-59.1526 252.5,-53.1526 258.5,-47.1526 264.5,-47.1526"/>
<text text-anchor="middle" x="306" y="-123.953" font-family="Times,serif" font-size="14.00">idx = [2]</text>
<polyline fill="none" stroke="black" points="252.5,-116.153 359.5,-116.153 "/>
<text text-anchor="middle" x="306" y="-100.953" font-family="Times,serif" font-size="14.00">data = [101]</text>
<polyline fill="none" stroke="black" points="252.5,-93.1526 359.5,-93.1526 "/>
<text text-anchor="middle" x="306" y="-77.9526" font-family="Times,serif" font-size="14.00">next = [1]</text>
<polyline fill="none" stroke="black" points="252.5,-70.1526 359.5,-70.1526 "/>
<text text-anchor="middle" x="306" y="-54.9526" font-family="Times,serif" font-size="14.00">prev = [3]</text>
</g>
<!-- element1&#45;&gt;element2 -->
<g id="edge2" class="edge"><title>element1&#45;&gt;element2</title>
<path fill="none" stroke="none" d="M215.549,-80.3941C224.026,-79.8251 233.07,-79.5836 242.028,-79.6695"/>
<polygon fill="none" stroke="none" points="241.991,-83.1695 252.071,-79.9056 242.156,-76.1714 241.991,-83.1695"/>
</g>
<!-- element1&#45;&gt;element0 -->
<g id="edge12" class="edge"><title>element1&#45;&gt;element0</title>
<path fill="none" stroke="red" d="M126.259,-99.6354C117.738,-99.8916 108.712,-99.9635 99.9081,-99.8512"/>
<polygon fill="red" stroke="red" points="99.7899,-96.348 89.7178,-99.6347 99.6411,-103.346 99.7899,-96.348"/>
</g>
<!-- element1&#45;&gt;element2 -->
<g id="edge14" class="edge"><title>element1&#45;&gt;element2</title>
<path fill="none" stroke="blue" d="M215.549,-105.911C224.026,-106.48 233.07,-106.722 242.028,-106.636"/>
<polygon fill="blue" stroke="blue" points="242.156,-110.134 252.071,-106.4 241.991,-103.136 242.156,-110.134"/>
</g>
<!-- element3 -->
<g id="node4" class="node"><title>element3</title>
<path fill="#6666ff" stroke="black" d="M408.5,-47.1526C408.5,-47.1526 491.5,-47.1526 491.5,-47.1526 497.5,-47.1526 503.5,-53.1526 503.5,-59.1526 503.5,-59.1526 503.5,-127.153 503.5,-127.153 503.5,-133.153 497.5,-139.153 491.5,-139.153 491.5,-139.153 408.5,-139.153 408.5,-139.153 402.5,-139.153 396.5,-133.153 396.5,-127.153 396.5,-127.153 396.5,-59.1526 396.5,-59.1526 396.5,-53.1526 402.5,-47.1526 408.5,-47.1526"/>
<text text-anchor="middle" x="450" y="-123.953" font-family="Times,serif" font-size="14.00">idx = [3]</text>
<polyline fill="none" stroke="black" points="396.5,-116.153 503.5,-116.153 "/>
<text text-anchor="middle" x="450" y="-100.953" font-family="Times,serif" font-size="14.00">data = [202]</text>
<polyline fill="none" stroke="black" points="396.5,-93.1526 503.5,-93.1526 "/>
<text text-anchor="middle" x="450" y="-77.9526" font-family="Times,serif" font-size="14.00">next = [2]</text>
<polyline fill="none" stroke="black" points="396.5,-70.1526 503.5,-70.1526 "/>
<text text-anchor="middle" x="450" y="-54.9526" font-family="Times,serif" font-size="14.00">prev = [4]</text>
</g>
<!-- element2&#45;&gt;element3 -->
<g id="edge3" class="edge"><title>element2&#45;&gt;element3</title>
<path fill="none" stroke="none" d="M359.876,-80.0514C368.377,-79.6697 377.25,-79.562 385.961,-79.7283"/>
<polygon fill="none" stroke="none" points="385.974,-83.2304 396.08,-80.0494 386.196,-76.2339 385.974,-83.2304"/>
</g>
<!-- element2&#45;&gt;element1 -->
<g id="edge11" class="edge"><title>element2&#45;&gt;element1</title>
<path fill="none" stroke="red" d="M252.071,-93.1526C243.364,-93.1526 234.333,-93.1526 225.61,-93.1526"/>
<polygon fill="red" stroke="red" points="225.549,-89.6527 215.549,-93.1526 225.549,-96.6527 225.549,-89.6527"/>
</g>
<!-- element2&#45;&gt;element3 -->
<g id="edge15" class="edge"><title>element2&#45;&gt;element3</title>
<path fill="none" stroke="blue" d="M359.876,-106.254C368.377,-106.635 377.25,-106.743 385.961,-106.577"/>
<polygon fill="blue" stroke="blue" points="386.196,-110.071 396.08,-106.256 385.974,-103.075 386.196,-110.071"/>
</g>
<!-- element4 -->
<g id="node5" class="node"><title>element4</title>
<path fill="#6666ff" stroke="black" d="M552.5,-47.1526C552.5,-47.1526 635.5,-47.1526 635.5,-47.1526 641.5,-47.1526 647.5,-53.1526 647.5,-59.1526 647.5,-59.1526 647.5,-127.153 647.5,-127.153 647.5,-133.153 641.5,-139.153 635.5,-139.153 635.5,-139.153 552.5,-139.153 552.5,-139.153 546.5,-139.153 540.5,-133.153 540.5,-127.153 540.5,-127.153 540.5,-59.1526 540.5,-59.1526 540.5,-53.1526 546.5,-47.1526 552.5,-47.1526"/>
<text text-anchor="middle" x="594" y="-123.953" font-family="Times,serif" font-size="14.00">idx = [4]</text>
<polyline fill="none" stroke="black" points="540.5,-116.153 647.5,-116.153 "/>
<text text-anchor="middle" x="594" y="-100.953" font-family="Times,serif" font-size="14.00">data = [303]</text>
<polyline fill="none" stroke="black" points="540.5,-93.1526 647.5,-93.1526 "/>
<text text-anchor="middle" x="594" y="-77.9526" font-family="Times,serif" font-size="14.00">next = [3]</text>
<polyline fill="none" stroke="black" points="540.5,-70.1526 647.5,-70.1526 "/>
<text text-anchor="middle" x="594" y="-54.9526" font-family="Times,serif" font-size="14.00">prev = [5]</text>
</g>
<!-- element3&#45;&gt;element4 -->
<g id="edge4" class="edge"><title>element3&#45;&gt;element4</title>
<path fill="none" stroke="none" d="M503.876,-80.0514C512.377,-79.6697 521.25,-79.562 529.961,-79.7283"/>
<polygon fill="none" stroke="none" points="529.974,-83.2304 540.08,-80.0494 530.196,-76.2339 529.974,-83.2304"/>
</g>
<!-- element3&#45;&gt;element2 -->
<g id="edge10" class="edge"><title>element3&#45;&gt;element2</title>
<path fill="none" stroke="red" d="M396.08,-93.1526C387.578,-93.1526 378.704,-93.1526 369.994,-93.1526"/>
<polygon fill="red" stroke="red" points="369.876,-89.6527 359.876,-93.1526 369.876,-96.6527 369.876,-89.6527"/>
</g>
<!-- element3&#45;&gt;element4 -->
<g id="edge16" class="edge"><title>element3&#45;&gt;element4</title>
<path fill="none" stroke="blue" d="M503.876,-106.254C512.377,-106.635 521.25,-106.743 529.961,-106.577"/>
<polygon fill="blue" stroke="blue" points="530.196,-110.071 540.08,-106.256 529.974,-103.075 530.196,-110.071"/>
</g>
<!-- element4&#45;&gt;element5 -->
<g id="edge5" class="edge"><title>element4&#45;&gt;element5</title>
<path fill="none" stroke="none" d="M647.876,-73.5008C656.377,-72.9282 665.25,-72.7667 673.961,-73.0161"/>
<polygon fill="none" stroke="none" points="673.925,-76.5183 684.08,-73.4978 674.258,-69.5262 673.925,-76.5183"/>
</g>
<!-- element4&#45;&gt;element3 -->
<g id="edge9" class="edge"><title>element4&#45;&gt;element3</title>
<path fill="none" stroke="red" d="M540.08,-93.1526C531.578,-93.1526 522.704,-93.1526 513.994,-93.1526"/>
<polygon fill="red" stroke="red" points="513.876,-89.6527 503.876,-93.1526 513.876,-96.6527 513.876,-89.6527"/>
</g>
<!-- element4&#45;&gt;element5 -->
<g id="edge17" class="edge"><title>element4&#45;&gt;element5</title>
<path fill="none" stroke="blue" d="M647.876,-112.804C656.377,-113.377 665.25,-113.538 673.961,-113.289"/>
<polygon fill="blue" stroke="blue" points="674.258,-116.779 684.08,-112.807 673.925,-109.787 674.258,-116.779"/>
</g>
<!-- element5&#45;&gt;element4 -->
<g id="edge6" class="edge"><title>element5&#45;&gt;element4</title>
<path fill="none" stroke="none" d="M684.08,-86.601C675.578,-86.4106 666.704,-86.3572 657.994,-86.4409"/>
<polygon fill="none" stroke="none" points="657.819,-82.9431 647.876,-86.602 657.93,-89.9422 657.819,-82.9431"/>
</g>
<!-- element5&#45;&gt;element4 -->
<g id="edge8" class="edge"><title>element5&#45;&gt;element4</title>
<path fill="none" stroke="red" d="M684.08,-99.7042C675.578,-99.8945 666.704,-99.9479 657.994,-99.8643"/>
<polygon fill="red" stroke="red" points="657.93,-96.3629 647.876,-99.7032 657.819,-103.362 657.93,-96.3629"/>
</g>
<!-- element5&#45;&gt;element0 -->
<g id="edge18" class="edge"><title>element5&#45;&gt;element0</title>
<path fill="none" stroke="blue" d="M684.286,-63.7616C672.78,-57.0861 660.341,-50.677 648,-46.1526 564.969,-15.7115 539.436,-18.1526 451,-18.1526 305,-18.1526 305,-18.1526 305,-18.1526 224.477,-18.1526 200.691,-16.0647 126,-46.1526 116.565,-49.9534 107.158,-55.0488 98.2839,-60.5073"/>
<polygon fill="blue" stroke="blue" points="96.1484,-57.7182 89.6066,-66.0522 99.9178,-63.6167 96.1484,-57.7182"/>
</g>
</g>
</svg>
