<?xml version="1.0" encoding="UTF-8" standalone="no"?>
<!DOCTYPE svg PUBLIC "-//W3C//DTD SVG 1.1//EN"
 "http://www.w3.org/Graphics/SVG/1.1/DTD/svg11.dtd">
<!-- Generated by graphviz version 2.30.1 (20201013.1554)
 -->
<!-- Title: G Pages: 1 -->
<svg width="804pt" height="148pt"
 viewBox="0.00 0.00 804.00 148.36" xmlns="http://www.w3.org/2000/svg" xmlns:xlink="http://www.w3.org/1999/xlink">
<g id="graph0" class="graph" transform="scale(1 1) rotate(0) translate(4 144.357)">
<title>G</title>
<polygon fill="white" stroke="white" points="-4,5 -4,-144.357 801,-144.357 801,5 -4,5"/>
<!-- element0 -->
<g id="node1" class="node"><title>element0</title>
<path fill="#666666" stroke="black" d="M12.5,-48.3566C12.5,-48.3566 77.5,-48.3566 77.5,-48.3566 83.5,-48.3566 89.5,-54.3566 89.5,-60.3566 89.5,-60.3566 89.5,-128.357 89.5,-128.357 89.5,-134.357 83.5,-140.357 77.5,-140.357 77.5,-140.357 12.5,-140.357 12.5,-140.357 6.5,-140.357 0.5,-134.357 0.5,-128.357 0.5,-128.357 0.5,-60.3566 0.5,-60.3566 0.5,-54.3566 6.5,-48.3566 12.5,-48.3566"/>
<text text-anchor="middle" x="45" y="-125.157" font-family="Times,serif" font-size="14.00">idx = [0]</text>
<polyline fill="none" stroke="black" points="0.5,-117.357 89.5,-117.357 "/>
<text text-anchor="middle" x="45" y="-102.157" font-family="Times,serif" font-size="14.00">data = [0]</text>
<polyline fill="none" stroke="black" points="0.5,-94.3566 89.5,-94.3566 "/>
<text text-anchor="middle" x="45" y="-79.1566" font-family="Times,serif" font-size="14.00">next = [5]</text>
<polyline fill="none" stroke="black" points="0.5,-71.3566 89.5,-71.3566 "/>
<text text-anchor="middle" x="45" y="-56.1566" font-family="Times,serif" font-size="14.00">prev = [1]</text>
</g>
<!-- element1 -->
<g id="node2" class="node"><title>element1</title>
<path fill="#6666ff" stroke="black" d="M138.5,-48.3566C138.5,-48.3566 203.5,-48.3566 203.5,-48.3566 209.5,-48.3566 215.5,-54.3566 215.5,-60.3566 215.5,-60.3566 215.5,-128.357 215.5,-128.357 215.5,-134.357 209.5,-140.357 203.5,-140.357 203.5,-140.357 138.5,-140.357 138.5,-140.357 132.5,-140.357 126.5,-134.357 126.5,-128.357 126.5,-128.357 126.5,-60.3566 126.5,-60.3566 126.5,-54.3566 132.5,-48.3566 138.5,-48.3566"/>
<text text-anchor="middle" x="171" y="-125.157" font-family="Times,serif" font-size="14.00">idx = [1]</text>
<polyline fill="none" stroke="black" points="126.5,-117.357 215.5,-117.357 "/>
<text text-anchor="middle" x="171" y="-102.157" font-family="Times,serif" font-size="14.00">data = [0]</text>
<polyline fill="none" stroke="black" points="126.5,-94.3566 215.5,-94.3566 "/>
<text text-anchor="middle" x="171" y="-79.1566" font-family="Times,serif" font-size="14.00">next = [0]</text>
<polyline fill="none" stroke="black" points="126.5,-71.3566 215.5,-71.3566 "/>
<text text-anchor="middle" x="171" y="-56.1566" font-family="Times,serif" font-size="14.00">prev = [2]</text>
</g>
<!-- element0&#45;&gt;element1 -->
<g id="edge1" class="edge"><title>element0&#45;&gt;element1</title>
<path fill="none" stroke="none" d="M89.7178,-94.3566C98.2376,-94.3566 107.263,-94.3566 116.068,-94.3566"/>
<polygon fill="none" stroke="none" points="116.259,-97.8567 126.259,-94.3566 116.259,-90.8567 116.259,-97.8567"/>
</g>
<!-- element5 -->
<g id="node6" class="node"><title>element5</title>
<path fill="#3333ff" stroke="black" d="M700.5,-48.3566C700.5,-48.3566 783.5,-48.3566 783.5,-48.3566 789.5,-48.3566 795.5,-54.3566 795.5,-60.3566 795.5,-60.3566 795.5,-128.357 795.5,-128.357 795.5,-134.357 789.5,-140.357 783.5,-140.357 783.5,-140.357 700.5,-140.357 700.5,-140.357 694.5,-140.357 688.5,-134.357 688.5,-128.357 688.5,-128.357 688.5,-60.3566 688.5,-60.3566 688.5,-54.3566 694.5,-48.3566 700.5,-48.3566"/>
<text text-anchor="middle" x="742" y="-125.157" font-family="Times,serif" font-size="14.00">idx = [5]</text>
<polyline fill="none" stroke="black" points="688.5,-117.357 795.5,-117.357 "/>
<text text-anchor="middle" x="742" y="-102.157" font-family="Times,serif" font-size="14.00">data = [404]</text>
<polyline fill="none" stroke="black" points="688.5,-94.3566 795.5,-94.3566 "/>
<text text-anchor="middle" x="742" y="-79.1566" font-family="Times,serif" font-size="14.00">next = [3]</text>
<polyline fill="none" stroke="black" points="688.5,-71.3566 795.5,-71.3566 "/>
<text text-anchor="middle" x="742" y="-56.1566" font-family="Times,serif" font-size="14.00">prev = [0]</text>
</g>
<!-- element0&#45;&gt;element5 -->
<g id="edge7" class="edge"><title>element0&#45;&gt;element5</title>
<path fill="none" stroke="red" d="M89.6279,-48.4117C100.815,-40.5552 113.296,-33.5985 126,-29.3566 300.628,28.9524 355.921,-18.4681 540,-15.3566 589.771,-14.5153 604.961,0.925705 652,-15.3566 668.15,-20.9468 683.595,-30.813 696.952,-41.7589"/>
<polygon fill="red" stroke="red" points="694.699,-44.4384 704.564,-48.3042 699.263,-39.1306 694.699,-44.4384"/>
</g>
<!-- element0&#45;&gt;element1 -->
<g id="edge12" class="edge"><title>element0&#45;&gt;element1</title>
<path fill="none" stroke="blue" d="M89.7178,-87.8745C98.2376,-87.6179 107.263,-87.5456 116.068,-87.6576"/>
<polygon fill="blue" stroke="blue" points="116.187,-91.1609 126.259,-87.8738 116.336,-84.1624 116.187,-91.1609"/>
</g>
<!-- element2 -->
<g id="node3" class="node"><title>element2</title>
<path fill="#6666ff" stroke="black" d="M264.5,-48.3566C264.5,-48.3566 347.5,-48.3566 347.5,-48.3566 353.5,-48.3566 359.5,-54.3566 359.5,-60.3566 359.5,-60.3566 359.5,-128.357 359.5,-128.357 359.5,-134.357 353.5,-140.357 347.5,-140.357 347.5,-140.357 264.5,-140.357 264.5,-140.357 258.5,-140.357 252.5,-134.357 252.5,-128.357 252.5,-128.357 252.5,-60.3566 252.5,-60.3566 252.5,-54.3566 258.5,-48.3566 264.5,-48.3566"/>
<text text-anchor="middle" x="306" y="-125.157" font-family="Times,serif" font-size="14.00">idx = [2]</text>
<polyline fill="none" stroke="black" points="252.5,-117.357 359.5,-117.357 "/>
<text text-anchor="middle" x="306" y="-102.157" font-family="Times,serif" font-size="14.00">data = [101]</text>
<polyline fill="none" stroke="black" points="252.5,-94.3566 359.5,-94.3566 "/>
<text text-anchor="middle" x="306" y="-79.1566" font-family="Times,serif" font-size="14.00">next = [1]</text>
<polyline fill="none" stroke="black" points="252.5,-71.3566 359.5,-71.3566 "/>
<text text-anchor="middle" x="306" y="-56.1566" font-family="Times,serif" font-size="14.00">prev = [3]</text>
</g>
<!-- element1&#45;&gt;element2 -->
<g id="edge2" class="edge"><title>element1&#45;&gt;element2</title>
<path fill="none" stroke="none" d="M215.549,-81.5982C224.026,-81.0291 233.07,-80.7876 242.028,-80.8735"/>
<polygon fill="none" stroke="none" points="241.991,-84.3735 252.071,-81.1096 242.156,-77.3754 241.991,-84.3735"/>
</g>
<!-- element1&#45;&gt;element0 -->
<g id="edge11" class="edge"><title>element1&#45;&gt;element0</title>
<path fill="none" stroke="red" d="M126.259,-100.839C117.738,-101.096 108.712,-101.168 99.9081,-101.055"/>
<polygon fill="red" stroke="red" points="99.7899,-97.552 89.7178,-100.839 99.6411,-104.55 99.7899,-97.552"/>
</g>
<!-- element1&#45;&gt;element2 -->
<g id="edge13" class="edge"><title>element1&#45;&gt;element2</title>
<path fill="none" stroke="blue" d="M215.549,-107.115C224.026,-107.684 233.07,-107.926 242.028,-107.84"/>
<polygon fill="blue" stroke="blue" points="242.156,-111.338 252.071,-107.604 241.991,-104.34 242.156,-111.338"/>
</g>
<!-- element3 -->
<g id="node4" class="node"><title>element3</title>
<path fill="#6666ff" stroke="black" d="M408.5,-48.3566C408.5,-48.3566 491.5,-48.3566 491.5,-48.3566 497.5,-48.3566 503.5,-54.3566 503.5,-60.3566 503.5,-60.3566 503.5,-128.357 503.5,-128.357 503.5,-134.357 497.5,-140.357 491.5,-140.357 491.5,-140.357 408.5,-140.357 408.5,-140.357 402.5,-140.357 396.5,-134.357 396.5,-128.357 396.5,-128.357 396.5,-60.3566 396.5,-60.3566 396.5,-54.3566 402.5,-48.3566 408.5,-48.3566"/>
<text text-anchor="middle" x="450" y="-125.157" font-family="Times,serif" font-size="14.00">idx = [3]</text>
<polyline fill="none" stroke="black" points="396.5,-117.357 503.5,-117.357 "/>
<text text-anchor="middle" x="450" y="-102.157" font-family="Times,serif" font-size="14.00">data = [202]</text>
<polyline fill="none" stroke="black" points="396.5,-94.3566 503.5,-94.3566 "/>
<text text-anchor="middle" x="450" y="-79.1566" font-family="Times,serif" font-size="14.00">next = [2]</text>
<polyline fill="none" stroke="black" points="396.5,-71.3566 503.5,-71.3566 "/>
<text text-anchor="middle" x="450" y="-56.1566" font-family="Times,serif" font-size="14.00">prev = [5]</text>
</g>
<!-- element2&#45;&gt;element3 -->
<g id="edge3" class="edge"><title>element2&#45;&gt;element3</title>
<path fill="none" stroke="none" d="M359.876,-81.2554C368.377,-80.8737 377.25,-80.766 385.961,-80.9323"/>
<polygon fill="none" stroke="none" points="385.974,-84.4344 396.08,-81.2534 386.196,-77.4379 385.974,-84.4344"/>
</g>
<!-- element2&#45;&gt;element1 -->
<g id="edge10" class="edge"><title>element2&#45;&gt;element1</title>
<path fill="none" stroke="red" d="M252.071,-94.3566C243.364,-94.3566 234.333,-94.3566 225.61,-94.3566"/>
<polygon fill="red" stroke="red" points="225.549,-90.8567 215.549,-94.3566 225.549,-97.8567 225.549,-90.8567"/>
</g>
<!-- element2&#45;&gt;element3 -->
<g id="edge14" class="edge"><title>element2&#45;&gt;element3</title>
<path fill="none" stroke="blue" d="M359.876,-107.458C368.377,-107.839 377.25,-107.947 385.961,-107.781"/>
<polygon fill="blue" stroke="blue" points="386.196,-111.275 396.08,-107.46 385.974,-104.279 386.196,-111.275"/>
</g>
<!-- element4 -->
<g id="node5" class="node"><title>element4</title>
<path fill="#006600" stroke="green" d="M552.5,-48.3566C552.5,-48.3566 639.5,-48.3566 639.5,-48.3566 645.5,-48.3566 651.5,-54.3566 651.5,-60.3566 651.5,-60.3566 651.5,-128.357 651.5,-128.357 651.5,-134.357 645.5,-140.357 639.5,-140.357 639.5,-140.357 552.5,-140.357 552.5,-140.357 546.5,-140.357 540.5,-134.357 540.5,-128.357 540.5,-128.357 540.5,-60.3566 540.5,-60.3566 540.5,-54.3566 546.5,-48.3566 552.5,-48.3566"/>
<text text-anchor="middle" x="596" y="-125.157" font-family="Times,serif" font-size="14.00">idx = [4]</text>
<polyline fill="none" stroke="green" points="540.5,-117.357 651.5,-117.357 "/>
<text text-anchor="middle" x="596" y="-102.157" font-family="Times,serif" font-size="14.00">data = [&#45;666]</text>
<polyline fill="none" stroke="green" points="540.5,-94.3566 651.5,-94.3566 "/>
<text text-anchor="middle" x="596" y="-79.1566" font-family="Times,serif" font-size="14.00">next = [0]</text>
<polyline fill="none" stroke="green" points="540.5,-71.3566 651.5,-71.3566 "/>
<text text-anchor="middle" x="596" y="-56.1566" font-family="Times,serif" font-size="14.00">prev = [&#45;1]</text>
</g>
<!-- element3&#45;&gt;element4 -->
<g id="edge4" class="edge"><title>element3&#45;&gt;element4</title>
<path fill="none" stroke="none" d="M503.803,-94.3566C512.341,-94.3566 521.268,-94.3566 530.054,-94.3566"/>
<polygon fill="none" stroke="none" points="530.271,-97.8567 540.271,-94.3566 530.271,-90.8567 530.271,-97.8567"/>
</g>
<!-- element3&#45;&gt;element2 -->
<g id="edge9" class="edge"><title>element3&#45;&gt;element2</title>
<path fill="none" stroke="red" d="M396.08,-94.3566C387.578,-94.3566 378.704,-94.3566 369.994,-94.3566"/>
<polygon fill="red" stroke="red" points="369.876,-90.8567 359.876,-94.3566 369.876,-97.8567 369.876,-90.8567"/>
</g>
<!-- element3&#45;&gt;element5 -->
<g id="edge15" class="edge"><title>element3&#45;&gt;element5</title>
<path fill="none" stroke="blue" d="M499.932,-48.0603C512.363,-40.2163 526.143,-33.3534 540,-29.3566 587.828,-15.5614 604.172,-15.5614 652,-29.3566 662.718,-32.4479 673.389,-37.2537 683.426,-42.9019"/>
<polygon fill="blue" stroke="blue" points="681.688,-45.9403 692.068,-48.0603 685.275,-39.9296 681.688,-45.9403"/>
</g>
<!-- element4&#45;&gt;element5 -->
<g id="edge5" class="edge"><title>element4&#45;&gt;element5</title>
<path fill="none" stroke="none" d="M651.851,-87.7797C660.42,-87.6037 669.333,-87.5619 678.066,-87.6544"/>
<polygon fill="none" stroke="none" points="678.145,-91.1561 688.202,-87.8246 678.262,-84.1571 678.145,-91.1561"/>
</g>
<!-- element5&#45;&gt;element4 -->
<g id="edge6" class="edge"><title>element5&#45;&gt;element4</title>
<path fill="none" stroke="none" d="M688.202,-100.889C679.692,-101.086 670.795,-101.149 662.037,-101.078"/>
<polygon fill="none" stroke="none" points="661.9,-97.5762 651.851,-100.933 661.8,-104.576 661.9,-97.5762"/>
</g>
<!-- element5&#45;&gt;element3 -->
<g id="edge8" class="edge"><title>element5&#45;&gt;element3</title>
<path fill="none" stroke="red" d="M688.252,-63.3255C676.845,-56.8558 664.454,-50.9487 652,-47.3566 604.172,-33.5614 587.828,-33.5614 540,-47.3566 530.757,-50.0226 521.548,-53.9638 512.751,-58.4638"/>
<polygon fill="red" stroke="red" points="510.884,-55.4941 503.748,-63.3255 514.211,-61.6533 510.884,-55.4941"/>
</g>
<!-- element5&#45;&gt;element0 -->
<g id="edge16" class="edge"><title>element5&#45;&gt;element0</title>
<path fill="none" stroke="blue" d="M688.43,-52.7971C677.192,-44.9237 664.818,-37.7934 652,-33.3566 604.961,-17.0743 589.771,-32.5153 540,-33.3566 355.921,-36.4681 300.628,10.9524 126,-47.3566 116.472,-50.538 107.069,-55.2465 98.2439,-60.4932"/>
<polygon fill="blue" stroke="blue" points="96.2498,-57.6122 89.6279,-65.8827 99.962,-63.5469 96.2498,-57.6122"/>
</g>
</g>
</svg>
