<?xml version="1.0" encoding="UTF-8" standalone="no"?>
<!DOCTYPE svg PUBLIC "-//W3C//DTD SVG 1.1//EN"
 "http://www.w3.org/Graphics/SVG/1.1/DTD/svg11.dtd">
<!-- Generated by graphviz version 2.30.1 (20201013.1554)
 -->
<!-- Title: G Pages: 1 -->
<svg width="838pt" height="136pt"
 viewBox="0.00 0.00 838.00 136.00" xmlns="http://www.w3.org/2000/svg" xmlns:xlink="http://www.w3.org/1999/xlink">
<g id="graph0" class="graph" transform="scale(1 1) rotate(0) translate(4 132)">
<title>G</title>
<polygon fill="white" stroke="white" points="-4,5 -4,-132 835,-132 835,5 -4,5"/>
<!-- element0 -->
<g id="node1" class="node"><title>element0</title>
<path fill="#666666" stroke="black" d="M12.5,-0C12.5,-0 77.5,-0 77.5,-0 83.5,-0 89.5,-6 89.5,-12 89.5,-12 89.5,-80 89.5,-80 89.5,-86 83.5,-92 77.5,-92 77.5,-92 12.5,-92 12.5,-92 6.5,-92 0.5,-86 0.5,-80 0.5,-80 0.5,-12 0.5,-12 0.5,-6 6.5,-0 12.5,-0"/>
<text text-anchor="middle" x="45" y="-76.8" font-family="Times,serif" font-size="14.00">idx = [0]</text>
<polyline fill="none" stroke="black" points="0.5,-69 89.5,-69 "/>
<text text-anchor="middle" x="45" y="-53.8" font-family="Times,serif" font-size="14.00">data = [0]</text>
<polyline fill="none" stroke="black" points="0.5,-46 89.5,-46 "/>
<text text-anchor="middle" x="45" y="-30.8" font-family="Times,serif" font-size="14.00">next = [0]</text>
<polyline fill="none" stroke="black" points="0.5,-23 89.5,-23 "/>
<text text-anchor="middle" x="45" y="-7.8" font-family="Times,serif" font-size="14.00">prev = [0]</text>
</g>
<!-- element1 -->
<g id="node2" class="node"><title>element1</title>
<path fill="#006600" stroke="black" d="M138.5,-0C138.5,-0 225.5,-0 225.5,-0 231.5,-0 237.5,-6 237.5,-12 237.5,-12 237.5,-80 237.5,-80 237.5,-86 231.5,-92 225.5,-92 225.5,-92 138.5,-92 138.5,-92 132.5,-92 126.5,-86 126.5,-80 126.5,-80 126.5,-12 126.5,-12 126.5,-6 132.5,-0 138.5,-0"/>
<text text-anchor="middle" x="182" y="-76.8" font-family="Times,serif" font-size="14.00">idx = [1]</text>
<polyline fill="none" stroke="black" points="126.5,-69 237.5,-69 "/>
<text text-anchor="middle" x="182" y="-53.8" font-family="Times,serif" font-size="14.00">data = [&#45;666]</text>
<polyline fill="none" stroke="black" points="126.5,-46 237.5,-46 "/>
<text text-anchor="middle" x="182" y="-30.8" font-family="Times,serif" font-size="14.00">next = [2]</text>
<polyline fill="none" stroke="black" points="126.5,-23 237.5,-23 "/>
<text text-anchor="middle" x="182" y="-7.8" font-family="Times,serif" font-size="14.00">prev = [&#45;1]</text>
</g>
<!-- element0&#45;&gt;element1 -->
<g id="edge1" class="edge"><title>element0&#45;&gt;element1</title>
<path fill="none" stroke="none" d="M89.8306,-46C98.1312,-46 106.978,-46 115.774,-46"/>
<polygon fill="none" stroke="none" points="116.04,-49.5001 126.04,-46 116.04,-42.5001 116.04,-49.5001"/>
</g>
<!-- element0&#45;&gt;element0 -->
<g id="edge11" class="edge"><title>element0&#45;&gt;element0</title>
<path fill="none" stroke="red" d="M32.5613,-92.0242C33.6819,-102.406 37.8281,-110 45,-110 49.5945,-110 52.9472,-106.884 55.0583,-101.914"/>
<polygon fill="red" stroke="red" points="58.5013,-102.566 57.4387,-92.0242 51.6957,-100.927 58.5013,-102.566"/>
</g>
<!-- element0&#45;&gt;element0 -->
<g id="edge12" class="edge"><title>element0&#45;&gt;element0</title>
<path fill="none" stroke="blue" d="M19.7241,-92.3637C17.981,-111.651 26.4062,-128 45,-128 60.2527,-128 68.6629,-116.998 70.2306,-102.398"/>
<polygon fill="blue" stroke="blue" points="73.7306,-102.379 70.2759,-92.3637 66.7307,-102.348 73.7306,-102.379"/>
</g>
<!-- element2 -->
<g id="node3" class="node"><title>element2</title>
<path fill="#33cc33" stroke="black" d="M286.5,-0C286.5,-0 373.5,-0 373.5,-0 379.5,-0 385.5,-6 385.5,-12 385.5,-12 385.5,-80 385.5,-80 385.5,-86 379.5,-92 373.5,-92 373.5,-92 286.5,-92 286.5,-92 280.5,-92 274.5,-86 274.5,-80 274.5,-80 274.5,-12 274.5,-12 274.5,-6 280.5,-0 286.5,-0"/>
<text text-anchor="middle" x="330" y="-76.8" font-family="Times,serif" font-size="14.00">idx = [2]</text>
<polyline fill="none" stroke="black" points="274.5,-69 385.5,-69 "/>
<text text-anchor="middle" x="330" y="-53.8" font-family="Times,serif" font-size="14.00">data = [&#45;666]</text>
<polyline fill="none" stroke="black" points="274.5,-46 385.5,-46 "/>
<text text-anchor="middle" x="330" y="-30.8" font-family="Times,serif" font-size="14.00">next = [3]</text>
<polyline fill="none" stroke="black" points="274.5,-23 385.5,-23 "/>
<text text-anchor="middle" x="330" y="-7.8" font-family="Times,serif" font-size="14.00">prev = [&#45;1]</text>
</g>
<!-- element1&#45;&gt;element2 -->
<g id="edge2" class="edge"><title>element1&#45;&gt;element2</title>
<path fill="none" stroke="none" d="M237.78,-39.4404C246.388,-39.257 255.356,-39.2061 264.164,-39.2877"/>
<polygon fill="none" stroke="none" points="264.346,-42.7908 274.398,-39.4443 264.453,-35.7916 264.346,-42.7908"/>
</g>
<!-- element1&#45;&gt;element2 -->
<g id="edge7" class="edge"><title>element1&#45;&gt;element2</title>
<path fill="none" stroke="green" d="M237.78,-52.5596C246.388,-52.743 255.356,-52.7939 264.164,-52.7123"/>
<polygon fill="green" stroke="green" points="264.453,-56.2084 274.398,-52.5557 264.346,-49.2092 264.453,-56.2084"/>
</g>
<!-- element3 -->
<g id="node4" class="node"><title>element3</title>
<path fill="#33cc33" stroke="black" d="M434.5,-0C434.5,-0 521.5,-0 521.5,-0 527.5,-0 533.5,-6 533.5,-12 533.5,-12 533.5,-80 533.5,-80 533.5,-86 527.5,-92 521.5,-92 521.5,-92 434.5,-92 434.5,-92 428.5,-92 422.5,-86 422.5,-80 422.5,-80 422.5,-12 422.5,-12 422.5,-6 428.5,-0 434.5,-0"/>
<text text-anchor="middle" x="478" y="-76.8" font-family="Times,serif" font-size="14.00">idx = [3]</text>
<polyline fill="none" stroke="black" points="422.5,-69 533.5,-69 "/>
<text text-anchor="middle" x="478" y="-53.8" font-family="Times,serif" font-size="14.00">data = [&#45;666]</text>
<polyline fill="none" stroke="black" points="422.5,-46 533.5,-46 "/>
<text text-anchor="middle" x="478" y="-30.8" font-family="Times,serif" font-size="14.00">next = [4]</text>
<polyline fill="none" stroke="black" points="422.5,-23 533.5,-23 "/>
<text text-anchor="middle" x="478" y="-7.8" font-family="Times,serif" font-size="14.00">prev = [&#45;1]</text>
</g>
<!-- element2&#45;&gt;element3 -->
<g id="edge3" class="edge"><title>element2&#45;&gt;element3</title>
<path fill="none" stroke="none" d="M385.78,-39.4404C394.388,-39.257 403.356,-39.2061 412.164,-39.2877"/>
<polygon fill="none" stroke="none" points="412.346,-42.7908 422.398,-39.4443 412.453,-35.7916 412.346,-42.7908"/>
</g>
<!-- element2&#45;&gt;element3 -->
<g id="edge8" class="edge"><title>element2&#45;&gt;element3</title>
<path fill="none" stroke="green" d="M385.78,-52.5596C394.388,-52.743 403.356,-52.7939 412.164,-52.7123"/>
<polygon fill="green" stroke="green" points="412.453,-56.2084 422.398,-52.5557 412.346,-49.2092 412.453,-56.2084"/>
</g>
<!-- element4 -->
<g id="node5" class="node"><title>element4</title>
<path fill="#33cc33" stroke="black" d="M582.5,-0C582.5,-0 669.5,-0 669.5,-0 675.5,-0 681.5,-6 681.5,-12 681.5,-12 681.5,-80 681.5,-80 681.5,-86 675.5,-92 669.5,-92 669.5,-92 582.5,-92 582.5,-92 576.5,-92 570.5,-86 570.5,-80 570.5,-80 570.5,-12 570.5,-12 570.5,-6 576.5,-0 582.5,-0"/>
<text text-anchor="middle" x="626" y="-76.8" font-family="Times,serif" font-size="14.00">idx = [4]</text>
<polyline fill="none" stroke="black" points="570.5,-69 681.5,-69 "/>
<text text-anchor="middle" x="626" y="-53.8" font-family="Times,serif" font-size="14.00">data = [&#45;666]</text>
<polyline fill="none" stroke="black" points="570.5,-46 681.5,-46 "/>
<text text-anchor="middle" x="626" y="-30.8" font-family="Times,serif" font-size="14.00">next = [5]</text>
<polyline fill="none" stroke="black" points="570.5,-23 681.5,-23 "/>
<text text-anchor="middle" x="626" y="-7.8" font-family="Times,serif" font-size="14.00">prev = [&#45;1]</text>
</g>
<!-- element3&#45;&gt;element4 -->
<g id="edge4" class="edge"><title>element3&#45;&gt;element4</title>
<path fill="none" stroke="none" d="M533.78,-39.4404C542.388,-39.257 551.356,-39.2061 560.164,-39.2877"/>
<polygon fill="none" stroke="none" points="560.346,-42.7908 570.398,-39.4443 560.453,-35.7916 560.346,-42.7908"/>
</g>
<!-- element3&#45;&gt;element4 -->
<g id="edge9" class="edge"><title>element3&#45;&gt;element4</title>
<path fill="none" stroke="green" d="M533.78,-52.5596C542.388,-52.743 551.356,-52.7939 560.164,-52.7123"/>
<polygon fill="green" stroke="green" points="560.453,-56.2084 570.398,-52.5557 560.346,-49.2092 560.453,-56.2084"/>
</g>
<!-- element5 -->
<g id="node6" class="node"><title>element5</title>
<path fill="#33cc33" stroke="black" d="M730.5,-0C730.5,-0 817.5,-0 817.5,-0 823.5,-0 829.5,-6 829.5,-12 829.5,-12 829.5,-80 829.5,-80 829.5,-86 823.5,-92 817.5,-92 817.5,-92 730.5,-92 730.5,-92 724.5,-92 718.5,-86 718.5,-80 718.5,-80 718.5,-12 718.5,-12 718.5,-6 724.5,-0 730.5,-0"/>
<text text-anchor="middle" x="774" y="-76.8" font-family="Times,serif" font-size="14.00">idx = [5]</text>
<polyline fill="none" stroke="black" points="718.5,-69 829.5,-69 "/>
<text text-anchor="middle" x="774" y="-53.8" font-family="Times,serif" font-size="14.00">data = [&#45;666]</text>
<polyline fill="none" stroke="black" points="718.5,-46 829.5,-46 "/>
<text text-anchor="middle" x="774" y="-30.8" font-family="Times,serif" font-size="14.00">next = [0]</text>
<polyline fill="none" stroke="black" points="718.5,-23 829.5,-23 "/>
<text text-anchor="middle" x="774" y="-7.8" font-family="Times,serif" font-size="14.00">prev = [&#45;1]</text>
</g>
<!-- element4&#45;&gt;element5 -->
<g id="edge5" class="edge"><title>element4&#45;&gt;element5</title>
<path fill="none" stroke="none" d="M681.78,-32.8809C690.388,-32.514 699.356,-32.4122 708.164,-32.5753"/>
<polygon fill="none" stroke="none" points="708.296,-36.0809 718.398,-32.8885 708.51,-29.0842 708.296,-36.0809"/>
</g>
<!-- element4&#45;&gt;element5 -->
<g id="edge10" class="edge"><title>element4&#45;&gt;element5</title>
<path fill="none" stroke="green" d="M681.78,-59.1191C690.388,-59.486 699.356,-59.5878 708.164,-59.4247"/>
<polygon fill="green" stroke="green" points="708.51,-62.9158 718.398,-59.1115 708.296,-55.9191 708.51,-62.9158"/>
</g>
<!-- element5&#45;&gt;element4 -->
<g id="edge6" class="edge"><title>element5&#45;&gt;element4</title>
<path fill="none" stroke="none" d="M718.398,-46C709.796,-46 700.829,-46 692.019,-46"/>
<polygon fill="none" stroke="none" points="691.78,-42.5001 681.78,-46 691.78,-49.5001 691.78,-42.5001"/>
</g>
</g>
</svg>
