<?xml version="1.0" encoding="UTF-8" standalone="no"?>
<!DOCTYPE svg PUBLIC "-//W3C//DTD SVG 1.1//EN"
 "http://www.w3.org/Graphics/SVG/1.1/DTD/svg11.dtd">
<!-- Generated by graphviz version 2.30.1 (20201013.1554)
 -->
<!-- Title: G Pages: 1 -->
<svg width="816pt" height="100pt"
 viewBox="0.00 0.00 816.00 100.00" xmlns="http://www.w3.org/2000/svg" xmlns:xlink="http://www.w3.org/1999/xlink">
<g id="graph0" class="graph" transform="scale(1 1) rotate(0) translate(4 96)">
<title>G</title>
<polygon fill="white" stroke="white" points="-4,5 -4,-96 813,-96 813,5 -4,5"/>
<!-- element0 -->
<g id="node1" class="node"><title>element0</title>
<path fill="#666666" stroke="black" d="M12.5,-0C12.5,-0 77.5,-0 77.5,-0 83.5,-0 89.5,-6 89.5,-12 89.5,-12 89.5,-80 89.5,-80 89.5,-86 83.5,-92 77.5,-92 77.5,-92 12.5,-92 12.5,-92 6.5,-92 0.5,-86 0.5,-80 0.5,-80 0.5,-12 0.5,-12 0.5,-6 6.5,-0 12.5,-0"/>
<text text-anchor="middle" x="45" y="-76.8" font-family="Times,serif" font-size="14.00">idx = [0]</text>
<polyline fill="none" stroke="black" points="0.5,-69 89.5,-69 "/>
<text text-anchor="middle" x="45" y="-53.8" font-family="Times,serif" font-size="14.00">data = [0]</text>
<polyline fill="none" stroke="black" points="0.5,-46 89.5,-46 "/>
<text text-anchor="middle" x="45" y="-30.8" font-family="Times,serif" font-size="14.00">next = [1]</text>
<polyline fill="none" stroke="black" points="0.5,-23 89.5,-23 "/>
<text text-anchor="middle" x="45" y="-7.8" font-family="Times,serif" font-size="14.00">prev = [1]</text>
</g>
<!-- element1 -->
<g id="node2" class="node"><title>element1</title>
<path fill="#3333ff" stroke="black" d="M138.5,-0C138.5,-0 203.5,-0 203.5,-0 209.5,-0 215.5,-6 215.5,-12 215.5,-12 215.5,-80 215.5,-80 215.5,-86 209.5,-92 203.5,-92 203.5,-92 138.5,-92 138.5,-92 132.5,-92 126.5,-86 126.5,-80 126.5,-80 126.5,-12 126.5,-12 126.5,-6 132.5,-0 138.5,-0"/>
<text text-anchor="middle" x="171" y="-76.8" font-family="Times,serif" font-size="14.00">idx = [1]</text>
<polyline fill="none" stroke="black" points="126.5,-69 215.5,-69 "/>
<text text-anchor="middle" x="171" y="-53.8" font-family="Times,serif" font-size="14.00">data = [0]</text>
<polyline fill="none" stroke="black" points="126.5,-46 215.5,-46 "/>
<text text-anchor="middle" x="171" y="-30.8" font-family="Times,serif" font-size="14.00">next = [0]</text>
<polyline fill="none" stroke="black" points="126.5,-23 215.5,-23 "/>
<text text-anchor="middle" x="171" y="-7.8" font-family="Times,serif" font-size="14.00">prev = [0]</text>
</g>
<!-- element0&#45;&gt;element1 -->
<g id="edge1" class="edge"><title>element0&#45;&gt;element1</title>
<path fill="none" stroke="none" d="M89.7178,-20.0716C98.2376,-19.0453 107.263,-18.7562 116.068,-19.2042"/>
<polygon fill="none" stroke="none" points="115.999,-22.7109 126.259,-20.0688 116.591,-15.7359 115.999,-22.7109"/>
</g>
<!-- element0&#45;&gt;element1 -->
<g id="edge10" class="edge"><title>element0&#45;&gt;element1</title>
<path fill="none" stroke="red" d="M89.7178,-33.0358C98.2376,-32.5227 107.263,-32.3781 116.068,-32.6021"/>
<polygon fill="red" stroke="red" points="116.12,-36.1074 126.259,-33.0344 116.416,-29.1137 116.12,-36.1074"/>
</g>
<!-- element0&#45;&gt;element1 -->
<g id="edge12" class="edge"><title>element0&#45;&gt;element1</title>
<path fill="none" stroke="blue" d="M89.7178,-58.9642C98.2376,-59.4773 107.263,-59.6219 116.068,-59.3979"/>
<polygon fill="blue" stroke="blue" points="116.416,-62.8863 126.259,-58.9656 116.12,-55.8926 116.416,-62.8863"/>
</g>
<!-- element2 -->
<g id="node3" class="node"><title>element2</title>
<path fill="#006600" stroke="black" d="M264.5,-0C264.5,-0 351.5,-0 351.5,-0 357.5,-0 363.5,-6 363.5,-12 363.5,-12 363.5,-80 363.5,-80 363.5,-86 357.5,-92 351.5,-92 351.5,-92 264.5,-92 264.5,-92 258.5,-92 252.5,-86 252.5,-80 252.5,-80 252.5,-12 252.5,-12 252.5,-6 258.5,-0 264.5,-0"/>
<text text-anchor="middle" x="308" y="-76.8" font-family="Times,serif" font-size="14.00">idx = [2]</text>
<polyline fill="none" stroke="black" points="252.5,-69 363.5,-69 "/>
<text text-anchor="middle" x="308" y="-53.8" font-family="Times,serif" font-size="14.00">data = [&#45;666]</text>
<polyline fill="none" stroke="black" points="252.5,-46 363.5,-46 "/>
<text text-anchor="middle" x="308" y="-30.8" font-family="Times,serif" font-size="14.00">next = [3]</text>
<polyline fill="none" stroke="black" points="252.5,-23 363.5,-23 "/>
<text text-anchor="middle" x="308" y="-7.8" font-family="Times,serif" font-size="14.00">prev = [&#45;1]</text>
</g>
<!-- element1&#45;&gt;element2 -->
<g id="edge2" class="edge"><title>element1&#45;&gt;element2</title>
<path fill="none" stroke="none" d="M215.831,-46C224.131,-46 232.978,-46 241.774,-46"/>
<polygon fill="none" stroke="none" points="242.04,-49.5001 252.04,-46 242.04,-42.5001 242.04,-49.5001"/>
</g>
<!-- element1&#45;&gt;element0 -->
<g id="edge11" class="edge"><title>element1&#45;&gt;element0</title>
<path fill="none" stroke="red" d="M126.259,-46C117.738,-46 108.712,-46 99.9081,-46"/>
<polygon fill="red" stroke="red" points="99.7178,-42.5001 89.7178,-46 99.7177,-49.5001 99.7178,-42.5001"/>
</g>
<!-- element1&#45;&gt;element0 -->
<g id="edge13" class="edge"><title>element1&#45;&gt;element0</title>
<path fill="none" stroke="blue" d="M126.259,-71.9312C117.738,-72.9561 108.712,-73.2439 99.9081,-72.7945"/>
<polygon fill="blue" stroke="blue" points="99.9783,-69.288 89.7178,-71.9284 99.3854,-76.2628 99.9783,-69.288"/>
</g>
<!-- element3 -->
<g id="node4" class="node"><title>element3</title>
<path fill="#33cc33" stroke="black" d="M412.5,-0C412.5,-0 499.5,-0 499.5,-0 505.5,-0 511.5,-6 511.5,-12 511.5,-12 511.5,-80 511.5,-80 511.5,-86 505.5,-92 499.5,-92 499.5,-92 412.5,-92 412.5,-92 406.5,-92 400.5,-86 400.5,-80 400.5,-80 400.5,-12 400.5,-12 400.5,-6 406.5,-0 412.5,-0"/>
<text text-anchor="middle" x="456" y="-76.8" font-family="Times,serif" font-size="14.00">idx = [3]</text>
<polyline fill="none" stroke="black" points="400.5,-69 511.5,-69 "/>
<text text-anchor="middle" x="456" y="-53.8" font-family="Times,serif" font-size="14.00">data = [&#45;666]</text>
<polyline fill="none" stroke="black" points="400.5,-46 511.5,-46 "/>
<text text-anchor="middle" x="456" y="-30.8" font-family="Times,serif" font-size="14.00">next = [4]</text>
<polyline fill="none" stroke="black" points="400.5,-23 511.5,-23 "/>
<text text-anchor="middle" x="456" y="-7.8" font-family="Times,serif" font-size="14.00">prev = [&#45;1]</text>
</g>
<!-- element2&#45;&gt;element3 -->
<g id="edge3" class="edge"><title>element2&#45;&gt;element3</title>
<path fill="none" stroke="none" d="M363.78,-39.4404C372.388,-39.257 381.356,-39.2061 390.164,-39.2877"/>
<polygon fill="none" stroke="none" points="390.346,-42.7908 400.398,-39.4443 390.453,-35.7916 390.346,-42.7908"/>
</g>
<!-- element2&#45;&gt;element3 -->
<g id="edge7" class="edge"><title>element2&#45;&gt;element3</title>
<path fill="none" stroke="green" d="M363.78,-52.5596C372.388,-52.743 381.356,-52.7939 390.164,-52.7123"/>
<polygon fill="green" stroke="green" points="390.453,-56.2084 400.398,-52.5557 390.346,-49.2092 390.453,-56.2084"/>
</g>
<!-- element4 -->
<g id="node5" class="node"><title>element4</title>
<path fill="#33cc33" stroke="black" d="M560.5,-0C560.5,-0 647.5,-0 647.5,-0 653.5,-0 659.5,-6 659.5,-12 659.5,-12 659.5,-80 659.5,-80 659.5,-86 653.5,-92 647.5,-92 647.5,-92 560.5,-92 560.5,-92 554.5,-92 548.5,-86 548.5,-80 548.5,-80 548.5,-12 548.5,-12 548.5,-6 554.5,-0 560.5,-0"/>
<text text-anchor="middle" x="604" y="-76.8" font-family="Times,serif" font-size="14.00">idx = [4]</text>
<polyline fill="none" stroke="black" points="548.5,-69 659.5,-69 "/>
<text text-anchor="middle" x="604" y="-53.8" font-family="Times,serif" font-size="14.00">data = [&#45;666]</text>
<polyline fill="none" stroke="black" points="548.5,-46 659.5,-46 "/>
<text text-anchor="middle" x="604" y="-30.8" font-family="Times,serif" font-size="14.00">next = [5]</text>
<polyline fill="none" stroke="black" points="548.5,-23 659.5,-23 "/>
<text text-anchor="middle" x="604" y="-7.8" font-family="Times,serif" font-size="14.00">prev = [&#45;1]</text>
</g>
<!-- element3&#45;&gt;element4 -->
<g id="edge4" class="edge"><title>element3&#45;&gt;element4</title>
<path fill="none" stroke="none" d="M511.78,-39.4404C520.388,-39.257 529.356,-39.2061 538.164,-39.2877"/>
<polygon fill="none" stroke="none" points="538.346,-42.7908 548.398,-39.4443 538.453,-35.7916 538.346,-42.7908"/>
</g>
<!-- element3&#45;&gt;element4 -->
<g id="edge8" class="edge"><title>element3&#45;&gt;element4</title>
<path fill="none" stroke="green" d="M511.78,-52.5596C520.388,-52.743 529.356,-52.7939 538.164,-52.7123"/>
<polygon fill="green" stroke="green" points="538.453,-56.2084 548.398,-52.5557 538.346,-49.2092 538.453,-56.2084"/>
</g>
<!-- element5 -->
<g id="node6" class="node"><title>element5</title>
<path fill="#33cc33" stroke="black" d="M708.5,-0C708.5,-0 795.5,-0 795.5,-0 801.5,-0 807.5,-6 807.5,-12 807.5,-12 807.5,-80 807.5,-80 807.5,-86 801.5,-92 795.5,-92 795.5,-92 708.5,-92 708.5,-92 702.5,-92 696.5,-86 696.5,-80 696.5,-80 696.5,-12 696.5,-12 696.5,-6 702.5,-0 708.5,-0"/>
<text text-anchor="middle" x="752" y="-76.8" font-family="Times,serif" font-size="14.00">idx = [5]</text>
<polyline fill="none" stroke="black" points="696.5,-69 807.5,-69 "/>
<text text-anchor="middle" x="752" y="-53.8" font-family="Times,serif" font-size="14.00">data = [&#45;666]</text>
<polyline fill="none" stroke="black" points="696.5,-46 807.5,-46 "/>
<text text-anchor="middle" x="752" y="-30.8" font-family="Times,serif" font-size="14.00">next = [0]</text>
<polyline fill="none" stroke="black" points="696.5,-23 807.5,-23 "/>
<text text-anchor="middle" x="752" y="-7.8" font-family="Times,serif" font-size="14.00">prev = [&#45;1]</text>
</g>
<!-- element4&#45;&gt;element5 -->
<g id="edge5" class="edge"><title>element4&#45;&gt;element5</title>
<path fill="none" stroke="none" d="M659.78,-32.8809C668.388,-32.514 677.356,-32.4122 686.164,-32.5753"/>
<polygon fill="none" stroke="none" points="686.296,-36.0809 696.398,-32.8885 686.51,-29.0842 686.296,-36.0809"/>
</g>
<!-- element4&#45;&gt;element5 -->
<g id="edge9" class="edge"><title>element4&#45;&gt;element5</title>
<path fill="none" stroke="green" d="M659.78,-59.1191C668.388,-59.486 677.356,-59.5878 686.164,-59.4247"/>
<polygon fill="green" stroke="green" points="686.51,-62.9158 696.398,-59.1115 686.296,-55.9191 686.51,-62.9158"/>
</g>
<!-- element5&#45;&gt;element4 -->
<g id="edge6" class="edge"><title>element5&#45;&gt;element4</title>
<path fill="none" stroke="none" d="M696.398,-46C687.796,-46 678.829,-46 670.019,-46"/>
<polygon fill="none" stroke="none" points="669.78,-42.5001 659.78,-46 669.78,-49.5001 669.78,-42.5001"/>
</g>
</g>
</svg>
