<?xml version="1.0" encoding="UTF-8" standalone="no"?>
<!DOCTYPE svg PUBLIC "-//W3C//DTD SVG 1.1//EN"
 "http://www.w3.org/Graphics/SVG/1.1/DTD/svg11.dtd">
<!-- Generated by graphviz version 2.30.1 (20201013.1554)
 -->
<!-- Title: G Pages: 1 -->
<svg width="812pt" height="127pt"
 viewBox="0.00 0.00 812.00 126.61" xmlns="http://www.w3.org/2000/svg" xmlns:xlink="http://www.w3.org/1999/xlink">
<g id="graph0" class="graph" transform="scale(1 1) rotate(0) translate(4 122.606)">
<title>G</title>
<polygon fill="white" stroke="white" points="-4,5 -4,-122.606 809,-122.606 809,5 -4,5"/>
<!-- element0 -->
<g id="node1" class="node"><title>element0</title>
<path fill="#666666" stroke="black" d="M12.5,-26.6063C12.5,-26.6063 77.5,-26.6063 77.5,-26.6063 83.5,-26.6063 89.5,-32.6063 89.5,-38.6063 89.5,-38.6063 89.5,-106.606 89.5,-106.606 89.5,-112.606 83.5,-118.606 77.5,-118.606 77.5,-118.606 12.5,-118.606 12.5,-118.606 6.5,-118.606 0.5,-112.606 0.5,-106.606 0.5,-106.606 0.5,-38.6063 0.5,-38.6063 0.5,-32.6063 6.5,-26.6063 12.5,-26.6063"/>
<text text-anchor="middle" x="45" y="-103.406" font-family="Times,serif" font-size="14.00">idx = [0]</text>
<polyline fill="none" stroke="black" points="0.5,-95.6063 89.5,-95.6063 "/>
<text text-anchor="middle" x="45" y="-80.4063" font-family="Times,serif" font-size="14.00">data = [0]</text>
<polyline fill="none" stroke="black" points="0.5,-72.6063 89.5,-72.6063 "/>
<text text-anchor="middle" x="45" y="-57.4063" font-family="Times,serif" font-size="14.00">next = [2]</text>
<polyline fill="none" stroke="black" points="0.5,-49.6063 89.5,-49.6063 "/>
<text text-anchor="middle" x="45" y="-34.4063" font-family="Times,serif" font-size="14.00">prev = [1]</text>
</g>
<!-- element1 -->
<g id="node2" class="node"><title>element1</title>
<path fill="#6666ff" stroke="black" d="M138.5,-26.6063C138.5,-26.6063 203.5,-26.6063 203.5,-26.6063 209.5,-26.6063 215.5,-32.6063 215.5,-38.6063 215.5,-38.6063 215.5,-106.606 215.5,-106.606 215.5,-112.606 209.5,-118.606 203.5,-118.606 203.5,-118.606 138.5,-118.606 138.5,-118.606 132.5,-118.606 126.5,-112.606 126.5,-106.606 126.5,-106.606 126.5,-38.6063 126.5,-38.6063 126.5,-32.6063 132.5,-26.6063 138.5,-26.6063"/>
<text text-anchor="middle" x="171" y="-103.406" font-family="Times,serif" font-size="14.00">idx = [1]</text>
<polyline fill="none" stroke="black" points="126.5,-95.6063 215.5,-95.6063 "/>
<text text-anchor="middle" x="171" y="-80.4063" font-family="Times,serif" font-size="14.00">data = [0]</text>
<polyline fill="none" stroke="black" points="126.5,-72.6063 215.5,-72.6063 "/>
<text text-anchor="middle" x="171" y="-57.4063" font-family="Times,serif" font-size="14.00">next = [0]</text>
<polyline fill="none" stroke="black" points="126.5,-49.6063 215.5,-49.6063 "/>
<text text-anchor="middle" x="171" y="-34.4063" font-family="Times,serif" font-size="14.00">prev = [2]</text>
</g>
<!-- element0&#45;&gt;element1 -->
<g id="edge1" class="edge"><title>element0&#45;&gt;element1</title>
<path fill="none" stroke="none" d="M89.7178,-72.6063C98.2376,-72.6063 107.263,-72.6063 116.068,-72.6063"/>
<polygon fill="none" stroke="none" points="116.259,-76.1064 126.259,-72.6063 116.259,-69.1064 116.259,-76.1064"/>
</g>
<!-- element2 -->
<g id="node3" class="node"><title>element2</title>
<path fill="#3333ff" stroke="black" d="M264.5,-26.6063C264.5,-26.6063 347.5,-26.6063 347.5,-26.6063 353.5,-26.6063 359.5,-32.6063 359.5,-38.6063 359.5,-38.6063 359.5,-106.606 359.5,-106.606 359.5,-112.606 353.5,-118.606 347.5,-118.606 347.5,-118.606 264.5,-118.606 264.5,-118.606 258.5,-118.606 252.5,-112.606 252.5,-106.606 252.5,-106.606 252.5,-38.6063 252.5,-38.6063 252.5,-32.6063 258.5,-26.6063 264.5,-26.6063"/>
<text text-anchor="middle" x="306" y="-103.406" font-family="Times,serif" font-size="14.00">idx = [2]</text>
<polyline fill="none" stroke="black" points="252.5,-95.6063 359.5,-95.6063 "/>
<text text-anchor="middle" x="306" y="-80.4063" font-family="Times,serif" font-size="14.00">data = [101]</text>
<polyline fill="none" stroke="black" points="252.5,-72.6063 359.5,-72.6063 "/>
<text text-anchor="middle" x="306" y="-57.4063" font-family="Times,serif" font-size="14.00">next = [1]</text>
<polyline fill="none" stroke="black" points="252.5,-49.6063 359.5,-49.6063 "/>
<text text-anchor="middle" x="306" y="-34.4063" font-family="Times,serif" font-size="14.00">prev = [0]</text>
</g>
<!-- element0&#45;&gt;element2 -->
<g id="edge9" class="edge"><title>element0&#45;&gt;element2</title>
<path fill="none" stroke="red" d="M89.6105,-27.0151C100.798,-19.3053 113.284,-12.5557 126,-8.60631 164.2,3.2582 177.522,2.32357 216,-8.60631 226.301,-11.5323 236.577,-16.0273 246.294,-21.3236"/>
<polygon fill="red" stroke="red" points="244.637,-24.4086 255.045,-26.3907 248.145,-18.3508 244.637,-24.4086"/>
</g>
<!-- element0&#45;&gt;element1 -->
<g id="edge12" class="edge"><title>element0&#45;&gt;element1</title>
<path fill="none" stroke="blue" d="M89.7178,-66.1242C98.2376,-65.8676 107.263,-65.7954 116.068,-65.9074"/>
<polygon fill="blue" stroke="blue" points="116.187,-69.4106 126.259,-66.1235 116.336,-62.4122 116.187,-69.4106"/>
</g>
<!-- element1&#45;&gt;element2 -->
<g id="edge2" class="edge"><title>element1&#45;&gt;element2</title>
<path fill="none" stroke="none" d="M215.549,-59.8479C224.026,-59.2789 233.07,-59.0373 242.028,-59.1232"/>
<polygon fill="none" stroke="none" points="241.991,-62.6232 252.071,-59.3593 242.156,-55.6251 241.991,-62.6232"/>
</g>
<!-- element1&#45;&gt;element0 -->
<g id="edge11" class="edge"><title>element1&#45;&gt;element0</title>
<path fill="none" stroke="red" d="M126.259,-79.0891C117.738,-79.3453 108.712,-79.4173 99.9081,-79.3049"/>
<polygon fill="red" stroke="red" points="99.7899,-75.8017 89.7178,-79.0884 99.6411,-82.8002 99.7899,-75.8017"/>
</g>
<!-- element1&#45;&gt;element2 -->
<g id="edge13" class="edge"><title>element1&#45;&gt;element2</title>
<path fill="none" stroke="blue" d="M215.549,-85.3647C224.026,-85.9337 233.07,-86.1753 242.028,-86.0894"/>
<polygon fill="blue" stroke="blue" points="242.156,-89.5875 252.071,-85.8533 241.991,-82.5894 242.156,-89.5875"/>
</g>
<!-- element3 -->
<g id="node4" class="node"><title>element3</title>
<path fill="#006600" stroke="black" d="M408.5,-26.6063C408.5,-26.6063 495.5,-26.6063 495.5,-26.6063 501.5,-26.6063 507.5,-32.6063 507.5,-38.6063 507.5,-38.6063 507.5,-106.606 507.5,-106.606 507.5,-112.606 501.5,-118.606 495.5,-118.606 495.5,-118.606 408.5,-118.606 408.5,-118.606 402.5,-118.606 396.5,-112.606 396.5,-106.606 396.5,-106.606 396.5,-38.6063 396.5,-38.6063 396.5,-32.6063 402.5,-26.6063 408.5,-26.6063"/>
<text text-anchor="middle" x="452" y="-103.406" font-family="Times,serif" font-size="14.00">idx = [3]</text>
<polyline fill="none" stroke="black" points="396.5,-95.6063 507.5,-95.6063 "/>
<text text-anchor="middle" x="452" y="-80.4063" font-family="Times,serif" font-size="14.00">data = [&#45;666]</text>
<polyline fill="none" stroke="black" points="396.5,-72.6063 507.5,-72.6063 "/>
<text text-anchor="middle" x="452" y="-57.4063" font-family="Times,serif" font-size="14.00">next = [4]</text>
<polyline fill="none" stroke="black" points="396.5,-49.6063 507.5,-49.6063 "/>
<text text-anchor="middle" x="452" y="-34.4063" font-family="Times,serif" font-size="14.00">prev = [&#45;1]</text>
</g>
<!-- element2&#45;&gt;element3 -->
<g id="edge3" class="edge"><title>element2&#45;&gt;element3</title>
<path fill="none" stroke="none" d="M359.803,-72.6063C368.341,-72.6063 377.268,-72.6063 386.054,-72.6063"/>
<polygon fill="none" stroke="none" points="386.271,-76.1064 396.271,-72.6063 386.271,-69.1064 386.271,-76.1064"/>
</g>
<!-- element2&#45;&gt;element1 -->
<g id="edge10" class="edge"><title>element2&#45;&gt;element1</title>
<path fill="none" stroke="red" d="M252.071,-72.6063C243.364,-72.6063 234.333,-72.6063 225.61,-72.6063"/>
<polygon fill="red" stroke="red" points="225.549,-69.1064 215.549,-72.6063 225.549,-76.1064 225.549,-69.1064"/>
</g>
<!-- element2&#45;&gt;element0 -->
<g id="edge14" class="edge"><title>element2&#45;&gt;element0</title>
<path fill="none" stroke="blue" d="M252.176,-42.2802C240.776,-35.93 228.405,-30.1302 216,-26.6063 177.522,-15.6764 164.2,-14.7418 126,-26.6063 116.463,-29.5684 107.055,-34.1055 98.2279,-39.2184"/>
<polygon fill="blue" stroke="blue" points="96.3171,-36.2842 89.6105,-44.4862 99.9681,-42.2567 96.3171,-36.2842"/>
</g>
<!-- element4 -->
<g id="node5" class="node"><title>element4</title>
<path fill="#33cc33" stroke="black" d="M556.5,-26.6063C556.5,-26.6063 643.5,-26.6063 643.5,-26.6063 649.5,-26.6063 655.5,-32.6063 655.5,-38.6063 655.5,-38.6063 655.5,-106.606 655.5,-106.606 655.5,-112.606 649.5,-118.606 643.5,-118.606 643.5,-118.606 556.5,-118.606 556.5,-118.606 550.5,-118.606 544.5,-112.606 544.5,-106.606 544.5,-106.606 544.5,-38.6063 544.5,-38.6063 544.5,-32.6063 550.5,-26.6063 556.5,-26.6063"/>
<text text-anchor="middle" x="600" y="-103.406" font-family="Times,serif" font-size="14.00">idx = [4]</text>
<polyline fill="none" stroke="black" points="544.5,-95.6063 655.5,-95.6063 "/>
<text text-anchor="middle" x="600" y="-80.4063" font-family="Times,serif" font-size="14.00">data = [&#45;666]</text>
<polyline fill="none" stroke="black" points="544.5,-72.6063 655.5,-72.6063 "/>
<text text-anchor="middle" x="600" y="-57.4063" font-family="Times,serif" font-size="14.00">next = [5]</text>
<polyline fill="none" stroke="black" points="544.5,-49.6063 655.5,-49.6063 "/>
<text text-anchor="middle" x="600" y="-34.4063" font-family="Times,serif" font-size="14.00">prev = [&#45;1]</text>
</g>
<!-- element3&#45;&gt;element4 -->
<g id="edge4" class="edge"><title>element3&#45;&gt;element4</title>
<path fill="none" stroke="none" d="M507.78,-66.0467C516.388,-65.8633 525.356,-65.8124 534.164,-65.894"/>
<polygon fill="none" stroke="none" points="534.346,-69.3971 544.398,-66.0506 534.453,-62.3979 534.346,-69.3971"/>
</g>
<!-- element3&#45;&gt;element4 -->
<g id="edge7" class="edge"><title>element3&#45;&gt;element4</title>
<path fill="none" stroke="green" d="M507.78,-79.1659C516.388,-79.3493 525.356,-79.4002 534.164,-79.3186"/>
<polygon fill="green" stroke="green" points="534.453,-82.8147 544.398,-79.162 534.346,-75.8155 534.453,-82.8147"/>
</g>
<!-- element5 -->
<g id="node6" class="node"><title>element5</title>
<path fill="#33cc33" stroke="black" d="M704.5,-26.6063C704.5,-26.6063 791.5,-26.6063 791.5,-26.6063 797.5,-26.6063 803.5,-32.6063 803.5,-38.6063 803.5,-38.6063 803.5,-106.606 803.5,-106.606 803.5,-112.606 797.5,-118.606 791.5,-118.606 791.5,-118.606 704.5,-118.606 704.5,-118.606 698.5,-118.606 692.5,-112.606 692.5,-106.606 692.5,-106.606 692.5,-38.6063 692.5,-38.6063 692.5,-32.6063 698.5,-26.6063 704.5,-26.6063"/>
<text text-anchor="middle" x="748" y="-103.406" font-family="Times,serif" font-size="14.00">idx = [5]</text>
<polyline fill="none" stroke="black" points="692.5,-95.6063 803.5,-95.6063 "/>
<text text-anchor="middle" x="748" y="-80.4063" font-family="Times,serif" font-size="14.00">data = [&#45;666]</text>
<polyline fill="none" stroke="black" points="692.5,-72.6063 803.5,-72.6063 "/>
<text text-anchor="middle" x="748" y="-57.4063" font-family="Times,serif" font-size="14.00">next = [0]</text>
<polyline fill="none" stroke="black" points="692.5,-49.6063 803.5,-49.6063 "/>
<text text-anchor="middle" x="748" y="-34.4063" font-family="Times,serif" font-size="14.00">prev = [&#45;1]</text>
</g>
<!-- element4&#45;&gt;element5 -->
<g id="edge5" class="edge"><title>element4&#45;&gt;element5</title>
<path fill="none" stroke="none" d="M655.78,-59.4872C664.388,-59.1204 673.356,-59.0185 682.164,-59.1816"/>
<polygon fill="none" stroke="none" points="682.296,-62.6872 692.398,-59.4948 682.51,-55.6905 682.296,-62.6872"/>
</g>
<!-- element4&#45;&gt;element5 -->
<g id="edge8" class="edge"><title>element4&#45;&gt;element5</title>
<path fill="none" stroke="green" d="M655.78,-85.7254C664.388,-86.0923 673.356,-86.1941 682.164,-86.031"/>
<polygon fill="green" stroke="green" points="682.51,-89.5221 692.398,-85.7178 682.296,-82.5254 682.51,-89.5221"/>
</g>
<!-- element5&#45;&gt;element4 -->
<g id="edge6" class="edge"><title>element5&#45;&gt;element4</title>
<path fill="none" stroke="none" d="M692.398,-72.6063C683.796,-72.6063 674.829,-72.6063 666.019,-72.6063"/>
<polygon fill="none" stroke="none" points="665.78,-69.1064 655.78,-72.6063 665.78,-76.1064 665.78,-69.1064"/>
</g>
</g>
</svg>
