<?xml version="1.0" encoding="UTF-8" standalone="no"?>
<!DOCTYPE svg PUBLIC "-//W3C//DTD SVG 1.1//EN"
 "http://www.w3.org/Graphics/SVG/1.1/DTD/svg11.dtd">
<!-- Generated by graphviz version 2.30.1 (20201013.1554)
 -->
<!-- Title: G Pages: 1 -->
<svg width="808pt" height="142pt"
 viewBox="0.00 0.00 808.00 141.69" xmlns="http://www.w3.org/2000/svg" xmlns:xlink="http://www.w3.org/1999/xlink">
<g id="graph0" class="graph" transform="scale(1 1) rotate(0) translate(4 137.686)">
<title>G</title>
<polygon fill="white" stroke="white" points="-4,5 -4,-137.686 805,-137.686 805,5 -4,5"/>
<!-- element0 -->
<g id="node1" class="node"><title>element0</title>
<path fill="#666666" stroke="black" d="M12.5,-41.686C12.5,-41.686 77.5,-41.686 77.5,-41.686 83.5,-41.686 89.5,-47.686 89.5,-53.686 89.5,-53.686 89.5,-121.686 89.5,-121.686 89.5,-127.686 83.5,-133.686 77.5,-133.686 77.5,-133.686 12.5,-133.686 12.5,-133.686 6.5,-133.686 0.5,-127.686 0.5,-121.686 0.5,-121.686 0.5,-53.686 0.5,-53.686 0.5,-47.686 6.5,-41.686 12.5,-41.686"/>
<text text-anchor="middle" x="45" y="-118.486" font-family="Times,serif" font-size="14.00">idx = [0]</text>
<polyline fill="none" stroke="black" points="0.5,-110.686 89.5,-110.686 "/>
<text text-anchor="middle" x="45" y="-95.486" font-family="Times,serif" font-size="14.00">data = [0]</text>
<polyline fill="none" stroke="black" points="0.5,-87.686 89.5,-87.686 "/>
<text text-anchor="middle" x="45" y="-72.486" font-family="Times,serif" font-size="14.00">next = [3]</text>
<polyline fill="none" stroke="black" points="0.5,-64.686 89.5,-64.686 "/>
<text text-anchor="middle" x="45" y="-49.486" font-family="Times,serif" font-size="14.00">prev = [1]</text>
</g>
<!-- element1 -->
<g id="node2" class="node"><title>element1</title>
<path fill="#6666ff" stroke="black" d="M138.5,-41.686C138.5,-41.686 203.5,-41.686 203.5,-41.686 209.5,-41.686 215.5,-47.686 215.5,-53.686 215.5,-53.686 215.5,-121.686 215.5,-121.686 215.5,-127.686 209.5,-133.686 203.5,-133.686 203.5,-133.686 138.5,-133.686 138.5,-133.686 132.5,-133.686 126.5,-127.686 126.5,-121.686 126.5,-121.686 126.5,-53.686 126.5,-53.686 126.5,-47.686 132.5,-41.686 138.5,-41.686"/>
<text text-anchor="middle" x="171" y="-118.486" font-family="Times,serif" font-size="14.00">idx = [1]</text>
<polyline fill="none" stroke="black" points="126.5,-110.686 215.5,-110.686 "/>
<text text-anchor="middle" x="171" y="-95.486" font-family="Times,serif" font-size="14.00">data = [0]</text>
<polyline fill="none" stroke="black" points="126.5,-87.686 215.5,-87.686 "/>
<text text-anchor="middle" x="171" y="-72.486" font-family="Times,serif" font-size="14.00">next = [0]</text>
<polyline fill="none" stroke="black" points="126.5,-64.686 215.5,-64.686 "/>
<text text-anchor="middle" x="171" y="-49.486" font-family="Times,serif" font-size="14.00">prev = [2]</text>
</g>
<!-- element0&#45;&gt;element1 -->
<g id="edge1" class="edge"><title>element0&#45;&gt;element1</title>
<path fill="none" stroke="none" d="M89.7178,-87.686C98.2376,-87.686 107.263,-87.686 116.068,-87.686"/>
<polygon fill="none" stroke="none" points="116.259,-91.1861 126.259,-87.686 116.259,-84.1861 116.259,-91.1861"/>
</g>
<!-- element3 -->
<g id="node4" class="node"><title>element3</title>
<path fill="#3333ff" stroke="black" d="M408.5,-41.686C408.5,-41.686 491.5,-41.686 491.5,-41.686 497.5,-41.686 503.5,-47.686 503.5,-53.686 503.5,-53.686 503.5,-121.686 503.5,-121.686 503.5,-127.686 497.5,-133.686 491.5,-133.686 491.5,-133.686 408.5,-133.686 408.5,-133.686 402.5,-133.686 396.5,-127.686 396.5,-121.686 396.5,-121.686 396.5,-53.686 396.5,-53.686 396.5,-47.686 402.5,-41.686 408.5,-41.686"/>
<text text-anchor="middle" x="450" y="-118.486" font-family="Times,serif" font-size="14.00">idx = [3]</text>
<polyline fill="none" stroke="black" points="396.5,-110.686 503.5,-110.686 "/>
<text text-anchor="middle" x="450" y="-95.486" font-family="Times,serif" font-size="14.00">data = [202]</text>
<polyline fill="none" stroke="black" points="396.5,-87.686 503.5,-87.686 "/>
<text text-anchor="middle" x="450" y="-72.486" font-family="Times,serif" font-size="14.00">next = [2]</text>
<polyline fill="none" stroke="black" points="396.5,-64.686 503.5,-64.686 "/>
<text text-anchor="middle" x="450" y="-49.486" font-family="Times,serif" font-size="14.00">prev = [0]</text>
</g>
<!-- element0&#45;&gt;element3 -->
<g id="edge8" class="edge"><title>element0&#45;&gt;element3</title>
<path fill="none" stroke="red" d="M89.5276,-41.4323C100.718,-33.5869 113.226,-26.7126 126,-22.686 225.189,8.58049 260.074,6.13611 360,-22.686 370.718,-25.7773 381.389,-30.5831 391.426,-36.2313"/>
<polygon fill="red" stroke="red" points="389.688,-39.2697 400.068,-41.3897 393.275,-33.259 389.688,-39.2697"/>
</g>
<!-- element0&#45;&gt;element1 -->
<g id="edge12" class="edge"><title>element0&#45;&gt;element1</title>
<path fill="none" stroke="blue" d="M89.7178,-81.2039C98.2376,-80.9473 107.263,-80.8751 116.068,-80.9871"/>
<polygon fill="blue" stroke="blue" points="116.187,-84.4903 126.259,-81.2032 116.336,-77.4919 116.187,-84.4903"/>
</g>
<!-- element2 -->
<g id="node3" class="node"><title>element2</title>
<path fill="#6666ff" stroke="black" d="M264.5,-41.686C264.5,-41.686 347.5,-41.686 347.5,-41.686 353.5,-41.686 359.5,-47.686 359.5,-53.686 359.5,-53.686 359.5,-121.686 359.5,-121.686 359.5,-127.686 353.5,-133.686 347.5,-133.686 347.5,-133.686 264.5,-133.686 264.5,-133.686 258.5,-133.686 252.5,-127.686 252.5,-121.686 252.5,-121.686 252.5,-53.686 252.5,-53.686 252.5,-47.686 258.5,-41.686 264.5,-41.686"/>
<text text-anchor="middle" x="306" y="-118.486" font-family="Times,serif" font-size="14.00">idx = [2]</text>
<polyline fill="none" stroke="black" points="252.5,-110.686 359.5,-110.686 "/>
<text text-anchor="middle" x="306" y="-95.486" font-family="Times,serif" font-size="14.00">data = [101]</text>
<polyline fill="none" stroke="black" points="252.5,-87.686 359.5,-87.686 "/>
<text text-anchor="middle" x="306" y="-72.486" font-family="Times,serif" font-size="14.00">next = [1]</text>
<polyline fill="none" stroke="black" points="252.5,-64.686 359.5,-64.686 "/>
<text text-anchor="middle" x="306" y="-49.486" font-family="Times,serif" font-size="14.00">prev = [3]</text>
</g>
<!-- element1&#45;&gt;element2 -->
<g id="edge2" class="edge"><title>element1&#45;&gt;element2</title>
<path fill="none" stroke="none" d="M215.549,-74.9276C224.026,-74.3586 233.07,-74.117 242.028,-74.2029"/>
<polygon fill="none" stroke="none" points="241.991,-77.7029 252.071,-74.439 242.156,-70.7048 241.991,-77.7029"/>
</g>
<!-- element1&#45;&gt;element0 -->
<g id="edge11" class="edge"><title>element1&#45;&gt;element0</title>
<path fill="none" stroke="red" d="M126.259,-94.1688C117.738,-94.425 108.712,-94.497 99.9081,-94.3846"/>
<polygon fill="red" stroke="red" points="99.7899,-90.8814 89.7178,-94.1681 99.6411,-97.8799 99.7899,-90.8814"/>
</g>
<!-- element1&#45;&gt;element2 -->
<g id="edge13" class="edge"><title>element1&#45;&gt;element2</title>
<path fill="none" stroke="blue" d="M215.549,-100.444C224.026,-101.013 233.07,-101.255 242.028,-101.169"/>
<polygon fill="blue" stroke="blue" points="242.156,-104.667 252.071,-100.933 241.991,-97.6691 242.156,-104.667"/>
</g>
<!-- element2&#45;&gt;element3 -->
<g id="edge3" class="edge"><title>element2&#45;&gt;element3</title>
<path fill="none" stroke="none" d="M359.876,-74.5848C368.377,-74.2031 377.25,-74.0954 385.961,-74.2617"/>
<polygon fill="none" stroke="none" points="385.974,-77.7638 396.08,-74.5828 386.196,-70.7673 385.974,-77.7638"/>
</g>
<!-- element2&#45;&gt;element1 -->
<g id="edge10" class="edge"><title>element2&#45;&gt;element1</title>
<path fill="none" stroke="red" d="M252.071,-87.686C243.364,-87.686 234.333,-87.686 225.61,-87.686"/>
<polygon fill="red" stroke="red" points="225.549,-84.1861 215.549,-87.686 225.549,-91.1861 225.549,-84.1861"/>
</g>
<!-- element2&#45;&gt;element3 -->
<g id="edge14" class="edge"><title>element2&#45;&gt;element3</title>
<path fill="none" stroke="blue" d="M359.876,-100.787C368.377,-101.169 377.25,-101.277 385.961,-101.11"/>
<polygon fill="blue" stroke="blue" points="386.196,-104.605 396.08,-100.789 385.974,-97.6082 386.196,-104.605"/>
</g>
<!-- element4 -->
<g id="node5" class="node"><title>element4</title>
<path fill="#006600" stroke="black" d="M552.5,-41.686C552.5,-41.686 639.5,-41.686 639.5,-41.686 645.5,-41.686 651.5,-47.686 651.5,-53.686 651.5,-53.686 651.5,-121.686 651.5,-121.686 651.5,-127.686 645.5,-133.686 639.5,-133.686 639.5,-133.686 552.5,-133.686 552.5,-133.686 546.5,-133.686 540.5,-127.686 540.5,-121.686 540.5,-121.686 540.5,-53.686 540.5,-53.686 540.5,-47.686 546.5,-41.686 552.5,-41.686"/>
<text text-anchor="middle" x="596" y="-118.486" font-family="Times,serif" font-size="14.00">idx = [4]</text>
<polyline fill="none" stroke="black" points="540.5,-110.686 651.5,-110.686 "/>
<text text-anchor="middle" x="596" y="-95.486" font-family="Times,serif" font-size="14.00">data = [&#45;666]</text>
<polyline fill="none" stroke="black" points="540.5,-87.686 651.5,-87.686 "/>
<text text-anchor="middle" x="596" y="-72.486" font-family="Times,serif" font-size="14.00">next = [5]</text>
<polyline fill="none" stroke="black" points="540.5,-64.686 651.5,-64.686 "/>
<text text-anchor="middle" x="596" y="-49.486" font-family="Times,serif" font-size="14.00">prev = [&#45;1]</text>
</g>
<!-- element3&#45;&gt;element4 -->
<g id="edge4" class="edge"><title>element3&#45;&gt;element4</title>
<path fill="none" stroke="none" d="M503.803,-87.686C512.341,-87.686 521.268,-87.686 530.054,-87.686"/>
<polygon fill="none" stroke="none" points="530.271,-91.1861 540.271,-87.686 530.271,-84.1861 530.271,-91.1861"/>
</g>
<!-- element3&#45;&gt;element2 -->
<g id="edge9" class="edge"><title>element3&#45;&gt;element2</title>
<path fill="none" stroke="red" d="M396.08,-87.686C387.578,-87.686 378.704,-87.686 369.994,-87.686"/>
<polygon fill="red" stroke="red" points="369.876,-84.1861 359.876,-87.686 369.876,-91.1861 369.876,-84.1861"/>
</g>
<!-- element3&#45;&gt;element0 -->
<g id="edge15" class="edge"><title>element3&#45;&gt;element0</title>
<path fill="none" stroke="blue" d="M396.252,-56.6549C384.845,-50.1852 372.454,-44.2781 360,-40.686 260.074,-11.8639 225.189,-9.41951 126,-40.686 116.42,-43.7059 106.989,-48.3277 98.1511,-53.5365"/>
<polygon fill="blue" stroke="blue" points="96.1683,-50.6479 89.5276,-58.9034 99.8671,-56.591 96.1683,-50.6479"/>
</g>
<!-- element5 -->
<g id="node6" class="node"><title>element5</title>
<path fill="#33cc33" stroke="black" d="M700.5,-41.686C700.5,-41.686 787.5,-41.686 787.5,-41.686 793.5,-41.686 799.5,-47.686 799.5,-53.686 799.5,-53.686 799.5,-121.686 799.5,-121.686 799.5,-127.686 793.5,-133.686 787.5,-133.686 787.5,-133.686 700.5,-133.686 700.5,-133.686 694.5,-133.686 688.5,-127.686 688.5,-121.686 688.5,-121.686 688.5,-53.686 688.5,-53.686 688.5,-47.686 694.5,-41.686 700.5,-41.686"/>
<text text-anchor="middle" x="744" y="-118.486" font-family="Times,serif" font-size="14.00">idx = [5]</text>
<polyline fill="none" stroke="black" points="688.5,-110.686 799.5,-110.686 "/>
<text text-anchor="middle" x="744" y="-95.486" font-family="Times,serif" font-size="14.00">data = [&#45;666]</text>
<polyline fill="none" stroke="black" points="688.5,-87.686 799.5,-87.686 "/>
<text text-anchor="middle" x="744" y="-72.486" font-family="Times,serif" font-size="14.00">next = [0]</text>
<polyline fill="none" stroke="black" points="688.5,-64.686 799.5,-64.686 "/>
<text text-anchor="middle" x="744" y="-49.486" font-family="Times,serif" font-size="14.00">prev = [&#45;1]</text>
</g>
<!-- element4&#45;&gt;element5 -->
<g id="edge5" class="edge"><title>element4&#45;&gt;element5</title>
<path fill="none" stroke="none" d="M651.78,-74.5669C660.388,-74.2 669.356,-74.0982 678.164,-74.2613"/>
<polygon fill="none" stroke="none" points="678.296,-77.7669 688.398,-74.5745 678.51,-70.7702 678.296,-77.7669"/>
</g>
<!-- element4&#45;&gt;element5 -->
<g id="edge7" class="edge"><title>element4&#45;&gt;element5</title>
<path fill="none" stroke="green" d="M651.78,-100.805C660.388,-101.172 669.356,-101.274 678.164,-101.111"/>
<polygon fill="green" stroke="green" points="678.51,-104.602 688.398,-100.797 678.296,-97.6051 678.51,-104.602"/>
</g>
<!-- element5&#45;&gt;element4 -->
<g id="edge6" class="edge"><title>element5&#45;&gt;element4</title>
<path fill="none" stroke="none" d="M688.398,-87.686C679.796,-87.686 670.829,-87.686 662.019,-87.686"/>
<polygon fill="none" stroke="none" points="661.78,-84.1861 651.78,-87.686 661.78,-91.1861 661.78,-84.1861"/>
</g>
</g>
</svg>
