<?xml version="1.0" encoding="UTF-8" standalone="no"?>
<!DOCTYPE svg PUBLIC "-//W3C//DTD SVG 1.1//EN"
 "http://www.w3.org/Graphics/SVG/1.1/DTD/svg11.dtd">
<!-- Generated by graphviz version 13.1.1 (20250719.2154)
 -->
<!-- Title: G Pages: 1 -->
<svg width="1288pt" height="179pt"
 viewBox="0.00 0.00 1288.00 179.00" xmlns="http://www.w3.org/2000/svg" xmlns:xlink="http://www.w3.org/1999/xlink">
<g id="graph0" class="graph" transform="scale(1 1) rotate(0) translate(4 175)">
<title>G</title>
<polygon fill="white" stroke="none" points="-4,4 -4,-175 1283.75,-175 1283.75,4 -4,4"/>
<!-- HEAD -->
<g id="node1" class="node">
<title>HEAD</title>
<polygon fill="#cc99ff" stroke="black" points="183.27,-145.54 183.27,-160.46 160.12,-171 127.38,-171 104.23,-160.46 104.23,-145.54 127.38,-135 160.12,-135 183.27,-145.54"/>
<text xml:space="preserve" text-anchor="middle" x="143.75" y="-147.95" font-family="Times,serif" font-size="14.00">HEAD</text>
</g>
<!-- element1 -->
<g id="node4" class="node">
<title>element1</title>
<path fill="#cc99ff" stroke="black" d="M120,-0.5C120,-0.5 167.5,-0.5 167.5,-0.5 173.5,-0.5 179.5,-6.5 179.5,-12.5 179.5,-12.5 179.5,-86.5 179.5,-86.5 179.5,-92.5 173.5,-98.5 167.5,-98.5 167.5,-98.5 120,-98.5 120,-98.5 114,-98.5 108,-92.5 108,-86.5 108,-86.5 108,-12.5 108,-12.5 108,-6.5 114,-0.5 120,-0.5"/>
<text xml:space="preserve" text-anchor="middle" x="143.75" y="-81.2" font-family="Times,serif" font-size="14.00">idx = [1]</text>
<polyline fill="none" stroke="black" points="108,-74 179.5,-74"/>
<text xml:space="preserve" text-anchor="middle" x="143.75" y="-56.7" font-family="Times,serif" font-size="14.00">data = [0]</text>
<polyline fill="none" stroke="black" points="108,-49.5 179.5,-49.5"/>
<text xml:space="preserve" text-anchor="middle" x="143.75" y="-32.2" font-family="Times,serif" font-size="14.00">prev = [0]</text>
<polyline fill="none" stroke="black" points="108,-25 179.5,-25"/>
<text xml:space="preserve" text-anchor="middle" x="143.75" y="-7.7" font-family="Times,serif" font-size="14.00">next = [2]</text>
</g>
<!-- HEAD&#45;&gt;element1 -->
<g id="edge21" class="edge">
<title>HEAD&#45;&gt;element1</title>
<path fill="none" stroke="#000000" d="M143.75,-134.97C143.75,-134.97 143.75,-110.4 143.75,-110.4"/>
<polygon fill="#000000" stroke="#000000" points="147.25,-110.4 143.75,-100.4 140.25,-110.4 147.25,-110.4"/>
</g>
<!-- FREE -->
<g id="node2" class="node">
<title>FREE</title>
<polygon fill="#33cc33" stroke="black" points="775.94,-145.54 775.94,-160.46 754.74,-171 724.76,-171 703.56,-160.46 703.56,-145.54 724.76,-135 754.74,-135 775.94,-145.54"/>
<text xml:space="preserve" text-anchor="middle" x="739.75" y="-147.95" font-family="Times,serif" font-size="14.00">FREE</text>
</g>
<!-- element6 -->
<g id="node9" class="node">
<title>element6</title>
<path fill="#33cc33" stroke="black" d="M707.75,-0.5C707.75,-0.5 771.75,-0.5 771.75,-0.5 777.75,-0.5 783.75,-6.5 783.75,-12.5 783.75,-12.5 783.75,-86.5 783.75,-86.5 783.75,-92.5 777.75,-98.5 771.75,-98.5 771.75,-98.5 707.75,-98.5 707.75,-98.5 701.75,-98.5 695.75,-92.5 695.75,-86.5 695.75,-86.5 695.75,-12.5 695.75,-12.5 695.75,-6.5 701.75,-0.5 707.75,-0.5"/>
<text xml:space="preserve" text-anchor="middle" x="739.75" y="-81.2" font-family="Times,serif" font-size="14.00">idx = [6]</text>
<polyline fill="none" stroke="black" points="695.75,-74 783.75,-74"/>
<text xml:space="preserve" text-anchor="middle" x="739.75" y="-56.7" font-family="Times,serif" font-size="14.00">data = [&#45;666]</text>
<polyline fill="none" stroke="black" points="695.75,-49.5 783.75,-49.5"/>
<text xml:space="preserve" text-anchor="middle" x="739.75" y="-32.2" font-family="Times,serif" font-size="14.00">prev = [&#45;1]</text>
<polyline fill="none" stroke="black" points="695.75,-25 783.75,-25"/>
<text xml:space="preserve" text-anchor="middle" x="739.75" y="-7.7" font-family="Times,serif" font-size="14.00">next = [7]</text>
</g>
<!-- FREE&#45;&gt;element6 -->
<g id="edge22" class="edge">
<title>FREE&#45;&gt;element6</title>
<path fill="none" stroke="#000000" d="M739.75,-134.97C739.75,-134.97 739.75,-110.4 739.75,-110.4"/>
<polygon fill="#000000" stroke="#000000" points="743.25,-110.4 739.75,-100.4 736.25,-110.4 743.25,-110.4"/>
</g>
<!-- element0 -->
<g id="node3" class="node">
<title>element0</title>
<path fill="#ebebe0" stroke="black" d="M12,-0.5C12,-0.5 59.5,-0.5 59.5,-0.5 65.5,-0.5 71.5,-6.5 71.5,-12.5 71.5,-12.5 71.5,-86.5 71.5,-86.5 71.5,-92.5 65.5,-98.5 59.5,-98.5 59.5,-98.5 12,-98.5 12,-98.5 6,-98.5 0,-92.5 0,-86.5 0,-86.5 0,-12.5 0,-12.5 0,-6.5 6,-0.5 12,-0.5"/>
<text xml:space="preserve" text-anchor="middle" x="35.75" y="-81.2" font-family="Times,serif" font-size="14.00">idx = [0]</text>
<polyline fill="none" stroke="black" points="0,-74 71.5,-74"/>
<text xml:space="preserve" text-anchor="middle" x="35.75" y="-56.7" font-family="Times,serif" font-size="14.00">data = [0]</text>
<polyline fill="none" stroke="black" points="0,-49.5 71.5,-49.5"/>
<text xml:space="preserve" text-anchor="middle" x="35.75" y="-32.2" font-family="Times,serif" font-size="14.00">prev = [5]</text>
<polyline fill="none" stroke="black" points="0,-25 71.5,-25"/>
<text xml:space="preserve" text-anchor="middle" x="35.75" y="-7.7" font-family="Times,serif" font-size="14.00">next = [1]</text>
</g>
<!-- element0&#45;&gt;element1 -->
<g id="edge1" class="edge">
<title>element0&#45;&gt;element1</title>
<path fill="none" stroke="none" d="M71.71,-66C71.71,-66 96.06,-66 96.06,-66"/>
<polygon fill="none" stroke="none" points="96.06,-69.5 106.06,-66 96.06,-62.5 96.06,-69.5"/>
</g>
<!-- element0&#45;&gt;element1 -->
<g id="edge11" class="edge">
<title>element0&#45;&gt;element1</title>
<path fill="none" stroke="#000000" d="M83.23,-33C83.23,-33 96.06,-33 96.06,-33"/>
<polygon fill="#000000" stroke="#000000" points="83.23,-29.5 73.23,-33 83.23,-36.5 83.23,-29.5"/>
<polygon fill="#000000" stroke="#000000" points="96.06,-36.5 106.06,-33 96.06,-29.5 96.06,-36.5"/>
</g>
<!-- element2 -->
<g id="node5" class="node">
<title>element2</title>
<path fill="#66ccff" stroke="black" d="M228,-0.5C228,-0.5 287.5,-0.5 287.5,-0.5 293.5,-0.5 299.5,-6.5 299.5,-12.5 299.5,-12.5 299.5,-86.5 299.5,-86.5 299.5,-92.5 293.5,-98.5 287.5,-98.5 287.5,-98.5 228,-98.5 228,-98.5 222,-98.5 216,-92.5 216,-86.5 216,-86.5 216,-12.5 216,-12.5 216,-6.5 222,-0.5 228,-0.5"/>
<text xml:space="preserve" text-anchor="middle" x="257.75" y="-81.2" font-family="Times,serif" font-size="14.00">idx = [2]</text>
<polyline fill="none" stroke="black" points="216,-74 299.5,-74"/>
<text xml:space="preserve" text-anchor="middle" x="257.75" y="-56.7" font-family="Times,serif" font-size="14.00">data = [101]</text>
<polyline fill="none" stroke="black" points="216,-49.5 299.5,-49.5"/>
<text xml:space="preserve" text-anchor="middle" x="257.75" y="-32.2" font-family="Times,serif" font-size="14.00">prev = [1]</text>
<polyline fill="none" stroke="black" points="216,-25 299.5,-25"/>
<text xml:space="preserve" text-anchor="middle" x="257.75" y="-7.7" font-family="Times,serif" font-size="14.00">next = [3]</text>
</g>
<!-- element1&#45;&gt;element2 -->
<g id="edge2" class="edge">
<title>element1&#45;&gt;element2</title>
<path fill="none" stroke="none" d="M179.82,-66C179.82,-66 204.03,-66 204.03,-66"/>
<polygon fill="none" stroke="none" points="204.03,-69.5 214.03,-66 204.03,-62.5 204.03,-69.5"/>
</g>
<!-- element1&#45;&gt;element2 -->
<g id="edge12" class="edge">
<title>element1&#45;&gt;element2</title>
<path fill="none" stroke="#000000" d="M191.33,-33C191.33,-33 204.03,-33 204.03,-33"/>
<polygon fill="#000000" stroke="#000000" points="191.33,-29.5 181.33,-33 191.33,-36.5 191.33,-29.5"/>
<polygon fill="#000000" stroke="#000000" points="204.03,-36.5 214.03,-33 204.03,-29.5 204.03,-36.5"/>
</g>
<!-- element3 -->
<g id="node6" class="node">
<title>element3</title>
<path fill="#66ccff" stroke="black" d="M348,-0.5C348,-0.5 407.5,-0.5 407.5,-0.5 413.5,-0.5 419.5,-6.5 419.5,-12.5 419.5,-12.5 419.5,-86.5 419.5,-86.5 419.5,-92.5 413.5,-98.5 407.5,-98.5 407.5,-98.5 348,-98.5 348,-98.5 342,-98.5 336,-92.5 336,-86.5 336,-86.5 336,-12.5 336,-12.5 336,-6.5 342,-0.5 348,-0.5"/>
<text xml:space="preserve" text-anchor="middle" x="377.75" y="-81.2" font-family="Times,serif" font-size="14.00">idx = [3]</text>
<polyline fill="none" stroke="black" points="336,-74 419.5,-74"/>
<text xml:space="preserve" text-anchor="middle" x="377.75" y="-56.7" font-family="Times,serif" font-size="14.00">data = [202]</text>
<polyline fill="none" stroke="black" points="336,-49.5 419.5,-49.5"/>
<text xml:space="preserve" text-anchor="middle" x="377.75" y="-32.2" font-family="Times,serif" font-size="14.00">prev = [2]</text>
<polyline fill="none" stroke="black" points="336,-25 419.5,-25"/>
<text xml:space="preserve" text-anchor="middle" x="377.75" y="-7.7" font-family="Times,serif" font-size="14.00">next = [4]</text>
</g>
<!-- element2&#45;&gt;element3 -->
<g id="edge3" class="edge">
<title>element2&#45;&gt;element3</title>
<path fill="none" stroke="none" d="M299.72,-66C299.72,-66 324.09,-66 324.09,-66"/>
<polygon fill="none" stroke="none" points="324.09,-69.5 334.09,-66 324.09,-62.5 324.09,-69.5"/>
</g>
<!-- element2&#45;&gt;element3 -->
<g id="edge13" class="edge">
<title>element2&#45;&gt;element3</title>
<path fill="none" stroke="#000000" d="M311.23,-33C311.23,-33 324.09,-33 324.09,-33"/>
<polygon fill="#000000" stroke="#000000" points="311.23,-29.5 301.23,-33 311.23,-36.5 311.23,-29.5"/>
<polygon fill="#000000" stroke="#000000" points="324.09,-36.5 334.09,-33 324.09,-29.5 324.09,-36.5"/>
</g>
<!-- element4 -->
<g id="node7" class="node">
<title>element4</title>
<path fill="#66ccff" stroke="black" d="M468,-0.5C468,-0.5 527.5,-0.5 527.5,-0.5 533.5,-0.5 539.5,-6.5 539.5,-12.5 539.5,-12.5 539.5,-86.5 539.5,-86.5 539.5,-92.5 533.5,-98.5 527.5,-98.5 527.5,-98.5 468,-98.5 468,-98.5 462,-98.5 456,-92.5 456,-86.5 456,-86.5 456,-12.5 456,-12.5 456,-6.5 462,-0.5 468,-0.5"/>
<text xml:space="preserve" text-anchor="middle" x="497.75" y="-81.2" font-family="Times,serif" font-size="14.00">idx = [4]</text>
<polyline fill="none" stroke="black" points="456,-74 539.5,-74"/>
<text xml:space="preserve" text-anchor="middle" x="497.75" y="-56.7" font-family="Times,serif" font-size="14.00">data = [303]</text>
<polyline fill="none" stroke="black" points="456,-49.5 539.5,-49.5"/>
<text xml:space="preserve" text-anchor="middle" x="497.75" y="-32.2" font-family="Times,serif" font-size="14.00">prev = [3]</text>
<polyline fill="none" stroke="black" points="456,-25 539.5,-25"/>
<text xml:space="preserve" text-anchor="middle" x="497.75" y="-7.7" font-family="Times,serif" font-size="14.00">next = [5]</text>
</g>
<!-- element3&#45;&gt;element4 -->
<g id="edge4" class="edge">
<title>element3&#45;&gt;element4</title>
<path fill="none" stroke="none" d="M419.72,-66C419.72,-66 444.09,-66 444.09,-66"/>
<polygon fill="none" stroke="none" points="444.09,-69.5 454.09,-66 444.09,-62.5 444.09,-69.5"/>
</g>
<!-- element3&#45;&gt;element4 -->
<g id="edge14" class="edge">
<title>element3&#45;&gt;element4</title>
<path fill="none" stroke="#000000" d="M431.23,-33C431.23,-33 444.09,-33 444.09,-33"/>
<polygon fill="#000000" stroke="#000000" points="431.23,-29.5 421.23,-33 431.23,-36.5 431.23,-29.5"/>
<polygon fill="#000000" stroke="#000000" points="444.09,-36.5 454.09,-33 444.09,-29.5 444.09,-36.5"/>
</g>
<!-- element5 -->
<g id="node8" class="node">
<title>element5</title>
<path fill="#66ccff" stroke="black" d="M588,-0.5C588,-0.5 647.5,-0.5 647.5,-0.5 653.5,-0.5 659.5,-6.5 659.5,-12.5 659.5,-12.5 659.5,-86.5 659.5,-86.5 659.5,-92.5 653.5,-98.5 647.5,-98.5 647.5,-98.5 588,-98.5 588,-98.5 582,-98.5 576,-92.5 576,-86.5 576,-86.5 576,-12.5 576,-12.5 576,-6.5 582,-0.5 588,-0.5"/>
<text xml:space="preserve" text-anchor="middle" x="617.75" y="-81.2" font-family="Times,serif" font-size="14.00">idx = [5]</text>
<polyline fill="none" stroke="black" points="576,-74 659.5,-74"/>
<text xml:space="preserve" text-anchor="middle" x="617.75" y="-56.7" font-family="Times,serif" font-size="14.00">data = [404]</text>
<polyline fill="none" stroke="black" points="576,-49.5 659.5,-49.5"/>
<text xml:space="preserve" text-anchor="middle" x="617.75" y="-32.2" font-family="Times,serif" font-size="14.00">prev = [4]</text>
<polyline fill="none" stroke="black" points="576,-25 659.5,-25"/>
<text xml:space="preserve" text-anchor="middle" x="617.75" y="-7.7" font-family="Times,serif" font-size="14.00">next = [0]</text>
</g>
<!-- element4&#45;&gt;element5 -->
<g id="edge5" class="edge">
<title>element4&#45;&gt;element5</title>
<path fill="none" stroke="none" d="M539.72,-66C539.72,-66 564.09,-66 564.09,-66"/>
<polygon fill="none" stroke="none" points="564.09,-69.5 574.09,-66 564.09,-62.5 564.09,-69.5"/>
</g>
<!-- element4&#45;&gt;element5 -->
<g id="edge15" class="edge">
<title>element4&#45;&gt;element5</title>
<path fill="none" stroke="#000000" d="M551.23,-33C551.23,-33 564.09,-33 564.09,-33"/>
<polygon fill="#000000" stroke="#000000" points="551.23,-29.5 541.23,-33 551.23,-36.5 551.23,-29.5"/>
<polygon fill="#000000" stroke="#000000" points="564.09,-36.5 574.09,-33 564.09,-29.5 564.09,-36.5"/>
</g>
<!-- element5&#45;&gt;element0 -->
<g id="edge16" class="edge">
<title>element5&#45;&gt;element0</title>
<path fill="none" stroke="#000000" d="M617.75,-110.42C617.75,-110.42 617.75,-117 617.75,-117 617.75,-117 35.75,-117 35.75,-117 35.75,-117 35.75,-110.42 35.75,-110.42"/>
<polygon fill="#000000" stroke="#000000" points="621.25,-110.42 617.75,-100.42 614.25,-110.42 621.25,-110.42"/>
<polygon fill="#000000" stroke="#000000" points="39.25,-110.42 35.75,-100.42 32.25,-110.42 39.25,-110.42"/>
</g>
<!-- element5&#45;&gt;element6 -->
<g id="edge6" class="edge">
<title>element5&#45;&gt;element6</title>
<path fill="none" stroke="none" d="M659.74,-50C659.74,-50 684.09,-50 684.09,-50"/>
<polygon fill="none" stroke="none" points="684.09,-53.5 694.09,-50 684.09,-46.5 684.09,-53.5"/>
</g>
<!-- element7 -->
<g id="node10" class="node">
<title>element7</title>
<path fill="#99ff66" stroke="black" d="M831.75,-0.5C831.75,-0.5 895.75,-0.5 895.75,-0.5 901.75,-0.5 907.75,-6.5 907.75,-12.5 907.75,-12.5 907.75,-86.5 907.75,-86.5 907.75,-92.5 901.75,-98.5 895.75,-98.5 895.75,-98.5 831.75,-98.5 831.75,-98.5 825.75,-98.5 819.75,-92.5 819.75,-86.5 819.75,-86.5 819.75,-12.5 819.75,-12.5 819.75,-6.5 825.75,-0.5 831.75,-0.5"/>
<text xml:space="preserve" text-anchor="middle" x="863.75" y="-81.2" font-family="Times,serif" font-size="14.00">idx = [7]</text>
<polyline fill="none" stroke="black" points="819.75,-74 907.75,-74"/>
<text xml:space="preserve" text-anchor="middle" x="863.75" y="-56.7" font-family="Times,serif" font-size="14.00">data = [&#45;666]</text>
<polyline fill="none" stroke="black" points="819.75,-49.5 907.75,-49.5"/>
<text xml:space="preserve" text-anchor="middle" x="863.75" y="-32.2" font-family="Times,serif" font-size="14.00">prev = [&#45;1]</text>
<polyline fill="none" stroke="black" points="819.75,-25 907.75,-25"/>
<text xml:space="preserve" text-anchor="middle" x="863.75" y="-7.7" font-family="Times,serif" font-size="14.00">next = [8]</text>
</g>
<!-- element6&#45;&gt;element7 -->
<g id="edge7" class="edge">
<title>element6&#45;&gt;element7</title>
<path fill="none" stroke="none" d="M784.17,-66C784.17,-66 808.13,-66 808.13,-66"/>
<polygon fill="none" stroke="none" points="808.13,-69.5 818.13,-66 808.13,-62.5 808.13,-69.5"/>
</g>
<!-- element6&#45;&gt;element7 -->
<g id="edge17" class="edge">
<title>element6&#45;&gt;element7</title>
<path fill="none" stroke="green" d="M784.17,-33C784.17,-33 808.13,-33 808.13,-33"/>
<polygon fill="green" stroke="green" points="808.13,-36.5 818.13,-33 808.13,-29.5 808.13,-36.5"/>
</g>
<!-- element8 -->
<g id="node11" class="node">
<title>element8</title>
<path fill="#99ff66" stroke="black" d="M955.75,-0.5C955.75,-0.5 1019.75,-0.5 1019.75,-0.5 1025.75,-0.5 1031.75,-6.5 1031.75,-12.5 1031.75,-12.5 1031.75,-86.5 1031.75,-86.5 1031.75,-92.5 1025.75,-98.5 1019.75,-98.5 1019.75,-98.5 955.75,-98.5 955.75,-98.5 949.75,-98.5 943.75,-92.5 943.75,-86.5 943.75,-86.5 943.75,-12.5 943.75,-12.5 943.75,-6.5 949.75,-0.5 955.75,-0.5"/>
<text xml:space="preserve" text-anchor="middle" x="987.75" y="-81.2" font-family="Times,serif" font-size="14.00">idx = [8]</text>
<polyline fill="none" stroke="black" points="943.75,-74 1031.75,-74"/>
<text xml:space="preserve" text-anchor="middle" x="987.75" y="-56.7" font-family="Times,serif" font-size="14.00">data = [&#45;666]</text>
<polyline fill="none" stroke="black" points="943.75,-49.5 1031.75,-49.5"/>
<text xml:space="preserve" text-anchor="middle" x="987.75" y="-32.2" font-family="Times,serif" font-size="14.00">prev = [&#45;1]</text>
<polyline fill="none" stroke="black" points="943.75,-25 1031.75,-25"/>
<text xml:space="preserve" text-anchor="middle" x="987.75" y="-7.7" font-family="Times,serif" font-size="14.00">next = [9]</text>
</g>
<!-- element7&#45;&gt;element8 -->
<g id="edge8" class="edge">
<title>element7&#45;&gt;element8</title>
<path fill="none" stroke="none" d="M908.17,-66C908.17,-66 932.13,-66 932.13,-66"/>
<polygon fill="none" stroke="none" points="932.13,-69.5 942.13,-66 932.13,-62.5 932.13,-69.5"/>
</g>
<!-- element7&#45;&gt;element8 -->
<g id="edge18" class="edge">
<title>element7&#45;&gt;element8</title>
<path fill="none" stroke="green" d="M908.17,-33C908.17,-33 932.13,-33 932.13,-33"/>
<polygon fill="green" stroke="green" points="932.13,-36.5 942.13,-33 932.13,-29.5 932.13,-36.5"/>
</g>
<!-- element9 -->
<g id="node12" class="node">
<title>element9</title>
<path fill="#99ff66" stroke="black" d="M1079.75,-0.5C1079.75,-0.5 1143.75,-0.5 1143.75,-0.5 1149.75,-0.5 1155.75,-6.5 1155.75,-12.5 1155.75,-12.5 1155.75,-86.5 1155.75,-86.5 1155.75,-92.5 1149.75,-98.5 1143.75,-98.5 1143.75,-98.5 1079.75,-98.5 1079.75,-98.5 1073.75,-98.5 1067.75,-92.5 1067.75,-86.5 1067.75,-86.5 1067.75,-12.5 1067.75,-12.5 1067.75,-6.5 1073.75,-0.5 1079.75,-0.5"/>
<text xml:space="preserve" text-anchor="middle" x="1111.75" y="-81.2" font-family="Times,serif" font-size="14.00">idx = [9]</text>
<polyline fill="none" stroke="black" points="1067.75,-74 1155.75,-74"/>
<text xml:space="preserve" text-anchor="middle" x="1111.75" y="-56.7" font-family="Times,serif" font-size="14.00">data = [&#45;666]</text>
<polyline fill="none" stroke="black" points="1067.75,-49.5 1155.75,-49.5"/>
<text xml:space="preserve" text-anchor="middle" x="1111.75" y="-32.2" font-family="Times,serif" font-size="14.00">prev = [&#45;1]</text>
<polyline fill="none" stroke="black" points="1067.75,-25 1155.75,-25"/>
<text xml:space="preserve" text-anchor="middle" x="1111.75" y="-7.7" font-family="Times,serif" font-size="14.00">next = [10]</text>
</g>
<!-- element8&#45;&gt;element9 -->
<g id="edge9" class="edge">
<title>element8&#45;&gt;element9</title>
<path fill="none" stroke="none" d="M1032.17,-66C1032.17,-66 1056.13,-66 1056.13,-66"/>
<polygon fill="none" stroke="none" points="1056.13,-69.5 1066.13,-66 1056.13,-62.5 1056.13,-69.5"/>
</g>
<!-- element8&#45;&gt;element9 -->
<g id="edge19" class="edge">
<title>element8&#45;&gt;element9</title>
<path fill="none" stroke="green" d="M1032.17,-33C1032.17,-33 1056.13,-33 1056.13,-33"/>
<polygon fill="green" stroke="green" points="1056.13,-36.5 1066.13,-33 1056.13,-29.5 1056.13,-36.5"/>
</g>
<!-- element10 -->
<g id="node13" class="node">
<title>element10</title>
<path fill="#99ff66" stroke="black" d="M1203.75,-0.5C1203.75,-0.5 1267.75,-0.5 1267.75,-0.5 1273.75,-0.5 1279.75,-6.5 1279.75,-12.5 1279.75,-12.5 1279.75,-86.5 1279.75,-86.5 1279.75,-92.5 1273.75,-98.5 1267.75,-98.5 1267.75,-98.5 1203.75,-98.5 1203.75,-98.5 1197.75,-98.5 1191.75,-92.5 1191.75,-86.5 1191.75,-86.5 1191.75,-12.5 1191.75,-12.5 1191.75,-6.5 1197.75,-0.5 1203.75,-0.5"/>
<text xml:space="preserve" text-anchor="middle" x="1235.75" y="-81.2" font-family="Times,serif" font-size="14.00">idx = [10]</text>
<polyline fill="none" stroke="black" points="1191.75,-74 1279.75,-74"/>
<text xml:space="preserve" text-anchor="middle" x="1235.75" y="-56.7" font-family="Times,serif" font-size="14.00">data = [&#45;666]</text>
<polyline fill="none" stroke="black" points="1191.75,-49.5 1279.75,-49.5"/>
<text xml:space="preserve" text-anchor="middle" x="1235.75" y="-32.2" font-family="Times,serif" font-size="14.00">prev = [&#45;1]</text>
<polyline fill="none" stroke="black" points="1191.75,-25 1279.75,-25"/>
<text xml:space="preserve" text-anchor="middle" x="1235.75" y="-7.7" font-family="Times,serif" font-size="14.00">next = [0]</text>
</g>
<!-- element9&#45;&gt;element10 -->
<g id="edge10" class="edge">
<title>element9&#45;&gt;element10</title>
<path fill="none" stroke="none" d="M1156.17,-66C1156.17,-66 1180.13,-66 1180.13,-66"/>
<polygon fill="none" stroke="none" points="1180.13,-69.5 1190.13,-66 1180.13,-62.5 1180.13,-69.5"/>
</g>
<!-- element9&#45;&gt;element10 -->
<g id="edge20" class="edge">
<title>element9&#45;&gt;element10</title>
<path fill="none" stroke="green" d="M1156.17,-33C1156.17,-33 1180.13,-33 1180.13,-33"/>
<polygon fill="green" stroke="green" points="1180.13,-36.5 1190.13,-33 1180.13,-29.5 1180.13,-36.5"/>
</g>
</g>
</svg>
