<?xml version="1.0" encoding="UTF-8" standalone="no"?>
<!DOCTYPE svg PUBLIC "-//W3C//DTD SVG 1.1//EN"
 "http://www.w3.org/Graphics/SVG/1.1/DTD/svg11.dtd">
<!-- Generated by graphviz version 13.1.1 (20250719.2154)
 -->
<!-- Title: G Pages: 1 -->
<svg width="1360pt" height="197pt"
 viewBox="0.00 0.00 1360.00 197.00" xmlns="http://www.w3.org/2000/svg" xmlns:xlink="http://www.w3.org/1999/xlink">
<g id="graph0" class="graph" transform="scale(1 1) rotate(0) translate(4 193)">
<title>G</title>
<polygon fill="white" stroke="none" points="-4,4 -4,-193 1355.52,-193 1355.52,4 -4,4"/>
<!-- HEAD -->
<g id="node1" class="node">
<title>HEAD</title>
<polygon fill="#cc99ff" stroke="black" points="97.03,-163.54 97.03,-178.46 73.89,-189 41.15,-189 18,-178.46 18,-163.54 41.15,-153 73.89,-153 97.03,-163.54"/>
<text xml:space="preserve" text-anchor="middle" x="57.52" y="-165.95" font-family="Times,serif" font-size="14.00">HEAD</text>
</g>
<!-- element0 -->
<g id="node3" class="node">
<title>element0</title>
<path fill="#ebebe0" stroke="black" d="M33.77,-18.5C33.77,-18.5 81.27,-18.5 81.27,-18.5 87.27,-18.5 93.27,-24.5 93.27,-30.5 93.27,-30.5 93.27,-104.5 93.27,-104.5 93.27,-110.5 87.27,-116.5 81.27,-116.5 81.27,-116.5 33.77,-116.5 33.77,-116.5 27.77,-116.5 21.77,-110.5 21.77,-104.5 21.77,-104.5 21.77,-30.5 21.77,-30.5 21.77,-24.5 27.77,-18.5 33.77,-18.5"/>
<text xml:space="preserve" text-anchor="middle" x="57.52" y="-99.2" font-family="Times,serif" font-size="14.00">idx = [0]</text>
<polyline fill="none" stroke="black" points="21.77,-92 93.27,-92"/>
<text xml:space="preserve" text-anchor="middle" x="57.52" y="-74.7" font-family="Times,serif" font-size="14.00">data = [0]</text>
<polyline fill="none" stroke="black" points="21.77,-67.5 93.27,-67.5"/>
<text xml:space="preserve" text-anchor="middle" x="57.52" y="-50.2" font-family="Times,serif" font-size="14.00">prev = [0]</text>
<polyline fill="none" stroke="black" points="21.77,-43 93.27,-43"/>
<text xml:space="preserve" text-anchor="middle" x="57.52" y="-25.7" font-family="Times,serif" font-size="14.00">next = [0]</text>
</g>
<!-- HEAD&#45;&gt;element0 -->
<g id="edge21" class="edge">
<title>HEAD&#45;&gt;element0</title>
<path fill="none" stroke="#000000" d="M69.43,-152.97C69.43,-152.97 69.43,-128.4 69.43,-128.4"/>
<polygon fill="#000000" stroke="#000000" points="72.93,-128.4 69.43,-118.4 65.93,-128.4 72.93,-128.4"/>
</g>
<!-- FREE -->
<g id="node2" class="node">
<title>FREE</title>
<polygon fill="#33cc33" stroke="black" points="227.71,-163.54 227.71,-178.46 206.51,-189 176.53,-189 155.32,-178.46 155.32,-163.54 176.53,-153 206.51,-153 227.71,-163.54"/>
<text xml:space="preserve" text-anchor="middle" x="191.52" y="-165.95" font-family="Times,serif" font-size="14.00">FREE</text>
</g>
<!-- element1 -->
<g id="node4" class="node">
<title>element1</title>
<path fill="#33cc33" stroke="black" d="M159.52,-18.5C159.52,-18.5 223.52,-18.5 223.52,-18.5 229.52,-18.5 235.52,-24.5 235.52,-30.5 235.52,-30.5 235.52,-104.5 235.52,-104.5 235.52,-110.5 229.52,-116.5 223.52,-116.5 223.52,-116.5 159.52,-116.5 159.52,-116.5 153.52,-116.5 147.52,-110.5 147.52,-104.5 147.52,-104.5 147.52,-30.5 147.52,-30.5 147.52,-24.5 153.52,-18.5 159.52,-18.5"/>
<text xml:space="preserve" text-anchor="middle" x="191.52" y="-99.2" font-family="Times,serif" font-size="14.00">idx = [1]</text>
<polyline fill="none" stroke="black" points="147.52,-92 235.52,-92"/>
<text xml:space="preserve" text-anchor="middle" x="191.52" y="-74.7" font-family="Times,serif" font-size="14.00">data = [&#45;666]</text>
<polyline fill="none" stroke="black" points="147.52,-67.5 235.52,-67.5"/>
<text xml:space="preserve" text-anchor="middle" x="191.52" y="-50.2" font-family="Times,serif" font-size="14.00">prev = [&#45;1]</text>
<polyline fill="none" stroke="black" points="147.52,-43 235.52,-43"/>
<text xml:space="preserve" text-anchor="middle" x="191.52" y="-25.7" font-family="Times,serif" font-size="14.00">next = [2]</text>
</g>
<!-- FREE&#45;&gt;element1 -->
<g id="edge22" class="edge">
<title>FREE&#45;&gt;element1</title>
<path fill="none" stroke="#000000" d="M191.52,-152.97C191.52,-152.97 191.52,-128.4 191.52,-128.4"/>
<polygon fill="#000000" stroke="#000000" points="195.02,-128.4 191.52,-118.4 188.02,-128.4 195.02,-128.4"/>
</g>
<!-- element0&#45;&gt;element0 -->
<g id="edge11" class="edge">
<title>element0&#45;&gt;element0</title>
<path fill="none" stroke="#000000" d="M45.6,-128.42C45.6,-128.42 45.6,-135 45.6,-135 45.6,-135 0,-135 0,-135 0,-135 0,0 0,0 0,0 57.52,0 57.52,0 57.52,0 57.52,-6.58 57.52,-6.58"/>
<polygon fill="#000000" stroke="#000000" points="49.1,-128.42 45.6,-118.42 42.1,-128.42 49.1,-128.42"/>
<polygon fill="#000000" stroke="#000000" points="54.02,-6.58 57.52,-16.58 61.02,-6.58 54.02,-6.58"/>
</g>
<!-- element0&#45;&gt;element1 -->
<g id="edge1" class="edge">
<title>element0&#45;&gt;element1</title>
<path fill="none" stroke="none" d="M93.43,-68C93.43,-68 135.86,-68 135.86,-68"/>
<polygon fill="none" stroke="none" points="135.86,-71.5 145.86,-68 135.86,-64.5 135.86,-71.5"/>
</g>
<!-- element2 -->
<g id="node5" class="node">
<title>element2</title>
<path fill="#99ff66" stroke="black" d="M283.52,-18.5C283.52,-18.5 347.52,-18.5 347.52,-18.5 353.52,-18.5 359.52,-24.5 359.52,-30.5 359.52,-30.5 359.52,-104.5 359.52,-104.5 359.52,-110.5 353.52,-116.5 347.52,-116.5 347.52,-116.5 283.52,-116.5 283.52,-116.5 277.52,-116.5 271.52,-110.5 271.52,-104.5 271.52,-104.5 271.52,-30.5 271.52,-30.5 271.52,-24.5 277.52,-18.5 283.52,-18.5"/>
<text xml:space="preserve" text-anchor="middle" x="315.52" y="-99.2" font-family="Times,serif" font-size="14.00">idx = [2]</text>
<polyline fill="none" stroke="black" points="271.52,-92 359.52,-92"/>
<text xml:space="preserve" text-anchor="middle" x="315.52" y="-74.7" font-family="Times,serif" font-size="14.00">data = [&#45;666]</text>
<polyline fill="none" stroke="black" points="271.52,-67.5 359.52,-67.5"/>
<text xml:space="preserve" text-anchor="middle" x="315.52" y="-50.2" font-family="Times,serif" font-size="14.00">prev = [&#45;1]</text>
<polyline fill="none" stroke="black" points="271.52,-43 359.52,-43"/>
<text xml:space="preserve" text-anchor="middle" x="315.52" y="-25.7" font-family="Times,serif" font-size="14.00">next = [3]</text>
</g>
<!-- element1&#45;&gt;element2 -->
<g id="edge2" class="edge">
<title>element1&#45;&gt;element2</title>
<path fill="none" stroke="none" d="M235.93,-84C235.93,-84 259.9,-84 259.9,-84"/>
<polygon fill="none" stroke="none" points="259.9,-87.5 269.9,-84 259.9,-80.5 259.9,-87.5"/>
</g>
<!-- element1&#45;&gt;element2 -->
<g id="edge12" class="edge">
<title>element1&#45;&gt;element2</title>
<path fill="none" stroke="green" d="M235.93,-51C235.93,-51 259.9,-51 259.9,-51"/>
<polygon fill="green" stroke="green" points="259.9,-54.5 269.9,-51 259.9,-47.5 259.9,-54.5"/>
</g>
<!-- element3 -->
<g id="node6" class="node">
<title>element3</title>
<path fill="#99ff66" stroke="black" d="M407.52,-18.5C407.52,-18.5 471.52,-18.5 471.52,-18.5 477.52,-18.5 483.52,-24.5 483.52,-30.5 483.52,-30.5 483.52,-104.5 483.52,-104.5 483.52,-110.5 477.52,-116.5 471.52,-116.5 471.52,-116.5 407.52,-116.5 407.52,-116.5 401.52,-116.5 395.52,-110.5 395.52,-104.5 395.52,-104.5 395.52,-30.5 395.52,-30.5 395.52,-24.5 401.52,-18.5 407.52,-18.5"/>
<text xml:space="preserve" text-anchor="middle" x="439.52" y="-99.2" font-family="Times,serif" font-size="14.00">idx = [3]</text>
<polyline fill="none" stroke="black" points="395.52,-92 483.52,-92"/>
<text xml:space="preserve" text-anchor="middle" x="439.52" y="-74.7" font-family="Times,serif" font-size="14.00">data = [&#45;666]</text>
<polyline fill="none" stroke="black" points="395.52,-67.5 483.52,-67.5"/>
<text xml:space="preserve" text-anchor="middle" x="439.52" y="-50.2" font-family="Times,serif" font-size="14.00">prev = [&#45;1]</text>
<polyline fill="none" stroke="black" points="395.52,-43 483.52,-43"/>
<text xml:space="preserve" text-anchor="middle" x="439.52" y="-25.7" font-family="Times,serif" font-size="14.00">next = [4]</text>
</g>
<!-- element2&#45;&gt;element3 -->
<g id="edge3" class="edge">
<title>element2&#45;&gt;element3</title>
<path fill="none" stroke="none" d="M359.93,-84C359.93,-84 383.9,-84 383.9,-84"/>
<polygon fill="none" stroke="none" points="383.9,-87.5 393.9,-84 383.9,-80.5 383.9,-87.5"/>
</g>
<!-- element2&#45;&gt;element3 -->
<g id="edge13" class="edge">
<title>element2&#45;&gt;element3</title>
<path fill="none" stroke="green" d="M359.93,-51C359.93,-51 383.9,-51 383.9,-51"/>
<polygon fill="green" stroke="green" points="383.9,-54.5 393.9,-51 383.9,-47.5 383.9,-54.5"/>
</g>
<!-- element4 -->
<g id="node7" class="node">
<title>element4</title>
<path fill="#99ff66" stroke="black" d="M531.52,-18.5C531.52,-18.5 595.52,-18.5 595.52,-18.5 601.52,-18.5 607.52,-24.5 607.52,-30.5 607.52,-30.5 607.52,-104.5 607.52,-104.5 607.52,-110.5 601.52,-116.5 595.52,-116.5 595.52,-116.5 531.52,-116.5 531.52,-116.5 525.52,-116.5 519.52,-110.5 519.52,-104.5 519.52,-104.5 519.52,-30.5 519.52,-30.5 519.52,-24.5 525.52,-18.5 531.52,-18.5"/>
<text xml:space="preserve" text-anchor="middle" x="563.52" y="-99.2" font-family="Times,serif" font-size="14.00">idx = [4]</text>
<polyline fill="none" stroke="black" points="519.52,-92 607.52,-92"/>
<text xml:space="preserve" text-anchor="middle" x="563.52" y="-74.7" font-family="Times,serif" font-size="14.00">data = [&#45;666]</text>
<polyline fill="none" stroke="black" points="519.52,-67.5 607.52,-67.5"/>
<text xml:space="preserve" text-anchor="middle" x="563.52" y="-50.2" font-family="Times,serif" font-size="14.00">prev = [&#45;1]</text>
<polyline fill="none" stroke="black" points="519.52,-43 607.52,-43"/>
<text xml:space="preserve" text-anchor="middle" x="563.52" y="-25.7" font-family="Times,serif" font-size="14.00">next = [5]</text>
</g>
<!-- element3&#45;&gt;element4 -->
<g id="edge4" class="edge">
<title>element3&#45;&gt;element4</title>
<path fill="none" stroke="none" d="M483.93,-84C483.93,-84 507.9,-84 507.9,-84"/>
<polygon fill="none" stroke="none" points="507.9,-87.5 517.9,-84 507.9,-80.5 507.9,-87.5"/>
</g>
<!-- element3&#45;&gt;element4 -->
<g id="edge14" class="edge">
<title>element3&#45;&gt;element4</title>
<path fill="none" stroke="green" d="M483.93,-51C483.93,-51 507.9,-51 507.9,-51"/>
<polygon fill="green" stroke="green" points="507.9,-54.5 517.9,-51 507.9,-47.5 507.9,-54.5"/>
</g>
<!-- element5 -->
<g id="node8" class="node">
<title>element5</title>
<path fill="#99ff66" stroke="black" d="M655.52,-18.5C655.52,-18.5 719.52,-18.5 719.52,-18.5 725.52,-18.5 731.52,-24.5 731.52,-30.5 731.52,-30.5 731.52,-104.5 731.52,-104.5 731.52,-110.5 725.52,-116.5 719.52,-116.5 719.52,-116.5 655.52,-116.5 655.52,-116.5 649.52,-116.5 643.52,-110.5 643.52,-104.5 643.52,-104.5 643.52,-30.5 643.52,-30.5 643.52,-24.5 649.52,-18.5 655.52,-18.5"/>
<text xml:space="preserve" text-anchor="middle" x="687.52" y="-99.2" font-family="Times,serif" font-size="14.00">idx = [5]</text>
<polyline fill="none" stroke="black" points="643.52,-92 731.52,-92"/>
<text xml:space="preserve" text-anchor="middle" x="687.52" y="-74.7" font-family="Times,serif" font-size="14.00">data = [&#45;666]</text>
<polyline fill="none" stroke="black" points="643.52,-67.5 731.52,-67.5"/>
<text xml:space="preserve" text-anchor="middle" x="687.52" y="-50.2" font-family="Times,serif" font-size="14.00">prev = [&#45;1]</text>
<polyline fill="none" stroke="black" points="643.52,-43 731.52,-43"/>
<text xml:space="preserve" text-anchor="middle" x="687.52" y="-25.7" font-family="Times,serif" font-size="14.00">next = [6]</text>
</g>
<!-- element4&#45;&gt;element5 -->
<g id="edge5" class="edge">
<title>element4&#45;&gt;element5</title>
<path fill="none" stroke="none" d="M607.93,-84C607.93,-84 631.9,-84 631.9,-84"/>
<polygon fill="none" stroke="none" points="631.9,-87.5 641.9,-84 631.9,-80.5 631.9,-87.5"/>
</g>
<!-- element4&#45;&gt;element5 -->
<g id="edge15" class="edge">
<title>element4&#45;&gt;element5</title>
<path fill="none" stroke="green" d="M607.93,-51C607.93,-51 631.9,-51 631.9,-51"/>
<polygon fill="green" stroke="green" points="631.9,-54.5 641.9,-51 631.9,-47.5 631.9,-54.5"/>
</g>
<!-- element6 -->
<g id="node9" class="node">
<title>element6</title>
<path fill="#99ff66" stroke="black" d="M779.52,-18.5C779.52,-18.5 843.52,-18.5 843.52,-18.5 849.52,-18.5 855.52,-24.5 855.52,-30.5 855.52,-30.5 855.52,-104.5 855.52,-104.5 855.52,-110.5 849.52,-116.5 843.52,-116.5 843.52,-116.5 779.52,-116.5 779.52,-116.5 773.52,-116.5 767.52,-110.5 767.52,-104.5 767.52,-104.5 767.52,-30.5 767.52,-30.5 767.52,-24.5 773.52,-18.5 779.52,-18.5"/>
<text xml:space="preserve" text-anchor="middle" x="811.52" y="-99.2" font-family="Times,serif" font-size="14.00">idx = [6]</text>
<polyline fill="none" stroke="black" points="767.52,-92 855.52,-92"/>
<text xml:space="preserve" text-anchor="middle" x="811.52" y="-74.7" font-family="Times,serif" font-size="14.00">data = [&#45;666]</text>
<polyline fill="none" stroke="black" points="767.52,-67.5 855.52,-67.5"/>
<text xml:space="preserve" text-anchor="middle" x="811.52" y="-50.2" font-family="Times,serif" font-size="14.00">prev = [&#45;1]</text>
<polyline fill="none" stroke="black" points="767.52,-43 855.52,-43"/>
<text xml:space="preserve" text-anchor="middle" x="811.52" y="-25.7" font-family="Times,serif" font-size="14.00">next = [7]</text>
</g>
<!-- element5&#45;&gt;element6 -->
<g id="edge6" class="edge">
<title>element5&#45;&gt;element6</title>
<path fill="none" stroke="none" d="M731.93,-84C731.93,-84 755.9,-84 755.9,-84"/>
<polygon fill="none" stroke="none" points="755.9,-87.5 765.9,-84 755.9,-80.5 755.9,-87.5"/>
</g>
<!-- element5&#45;&gt;element6 -->
<g id="edge16" class="edge">
<title>element5&#45;&gt;element6</title>
<path fill="none" stroke="green" d="M731.93,-51C731.93,-51 755.9,-51 755.9,-51"/>
<polygon fill="green" stroke="green" points="755.9,-54.5 765.9,-51 755.9,-47.5 755.9,-54.5"/>
</g>
<!-- element7 -->
<g id="node10" class="node">
<title>element7</title>
<path fill="#99ff66" stroke="black" d="M903.52,-18.5C903.52,-18.5 967.52,-18.5 967.52,-18.5 973.52,-18.5 979.52,-24.5 979.52,-30.5 979.52,-30.5 979.52,-104.5 979.52,-104.5 979.52,-110.5 973.52,-116.5 967.52,-116.5 967.52,-116.5 903.52,-116.5 903.52,-116.5 897.52,-116.5 891.52,-110.5 891.52,-104.5 891.52,-104.5 891.52,-30.5 891.52,-30.5 891.52,-24.5 897.52,-18.5 903.52,-18.5"/>
<text xml:space="preserve" text-anchor="middle" x="935.52" y="-99.2" font-family="Times,serif" font-size="14.00">idx = [7]</text>
<polyline fill="none" stroke="black" points="891.52,-92 979.52,-92"/>
<text xml:space="preserve" text-anchor="middle" x="935.52" y="-74.7" font-family="Times,serif" font-size="14.00">data = [&#45;666]</text>
<polyline fill="none" stroke="black" points="891.52,-67.5 979.52,-67.5"/>
<text xml:space="preserve" text-anchor="middle" x="935.52" y="-50.2" font-family="Times,serif" font-size="14.00">prev = [&#45;1]</text>
<polyline fill="none" stroke="black" points="891.52,-43 979.52,-43"/>
<text xml:space="preserve" text-anchor="middle" x="935.52" y="-25.7" font-family="Times,serif" font-size="14.00">next = [8]</text>
</g>
<!-- element6&#45;&gt;element7 -->
<g id="edge7" class="edge">
<title>element6&#45;&gt;element7</title>
<path fill="none" stroke="none" d="M855.93,-84C855.93,-84 879.9,-84 879.9,-84"/>
<polygon fill="none" stroke="none" points="879.9,-87.5 889.9,-84 879.9,-80.5 879.9,-87.5"/>
</g>
<!-- element6&#45;&gt;element7 -->
<g id="edge17" class="edge">
<title>element6&#45;&gt;element7</title>
<path fill="none" stroke="green" d="M855.93,-51C855.93,-51 879.9,-51 879.9,-51"/>
<polygon fill="green" stroke="green" points="879.9,-54.5 889.9,-51 879.9,-47.5 879.9,-54.5"/>
</g>
<!-- element8 -->
<g id="node11" class="node">
<title>element8</title>
<path fill="#99ff66" stroke="black" d="M1027.52,-18.5C1027.52,-18.5 1091.52,-18.5 1091.52,-18.5 1097.52,-18.5 1103.52,-24.5 1103.52,-30.5 1103.52,-30.5 1103.52,-104.5 1103.52,-104.5 1103.52,-110.5 1097.52,-116.5 1091.52,-116.5 1091.52,-116.5 1027.52,-116.5 1027.52,-116.5 1021.52,-116.5 1015.52,-110.5 1015.52,-104.5 1015.52,-104.5 1015.52,-30.5 1015.52,-30.5 1015.52,-24.5 1021.52,-18.5 1027.52,-18.5"/>
<text xml:space="preserve" text-anchor="middle" x="1059.52" y="-99.2" font-family="Times,serif" font-size="14.00">idx = [8]</text>
<polyline fill="none" stroke="black" points="1015.52,-92 1103.52,-92"/>
<text xml:space="preserve" text-anchor="middle" x="1059.52" y="-74.7" font-family="Times,serif" font-size="14.00">data = [&#45;666]</text>
<polyline fill="none" stroke="black" points="1015.52,-67.5 1103.52,-67.5"/>
<text xml:space="preserve" text-anchor="middle" x="1059.52" y="-50.2" font-family="Times,serif" font-size="14.00">prev = [&#45;1]</text>
<polyline fill="none" stroke="black" points="1015.52,-43 1103.52,-43"/>
<text xml:space="preserve" text-anchor="middle" x="1059.52" y="-25.7" font-family="Times,serif" font-size="14.00">next = [9]</text>
</g>
<!-- element7&#45;&gt;element8 -->
<g id="edge8" class="edge">
<title>element7&#45;&gt;element8</title>
<path fill="none" stroke="none" d="M979.93,-84C979.93,-84 1003.9,-84 1003.9,-84"/>
<polygon fill="none" stroke="none" points="1003.9,-87.5 1013.9,-84 1003.9,-80.5 1003.9,-87.5"/>
</g>
<!-- element7&#45;&gt;element8 -->
<g id="edge18" class="edge">
<title>element7&#45;&gt;element8</title>
<path fill="none" stroke="green" d="M979.93,-51C979.93,-51 1003.9,-51 1003.9,-51"/>
<polygon fill="green" stroke="green" points="1003.9,-54.5 1013.9,-51 1003.9,-47.5 1003.9,-54.5"/>
</g>
<!-- element9 -->
<g id="node12" class="node">
<title>element9</title>
<path fill="#99ff66" stroke="black" d="M1151.52,-18.5C1151.52,-18.5 1215.52,-18.5 1215.52,-18.5 1221.52,-18.5 1227.52,-24.5 1227.52,-30.5 1227.52,-30.5 1227.52,-104.5 1227.52,-104.5 1227.52,-110.5 1221.52,-116.5 1215.52,-116.5 1215.52,-116.5 1151.52,-116.5 1151.52,-116.5 1145.52,-116.5 1139.52,-110.5 1139.52,-104.5 1139.52,-104.5 1139.52,-30.5 1139.52,-30.5 1139.52,-24.5 1145.52,-18.5 1151.52,-18.5"/>
<text xml:space="preserve" text-anchor="middle" x="1183.52" y="-99.2" font-family="Times,serif" font-size="14.00">idx = [9]</text>
<polyline fill="none" stroke="black" points="1139.52,-92 1227.52,-92"/>
<text xml:space="preserve" text-anchor="middle" x="1183.52" y="-74.7" font-family="Times,serif" font-size="14.00">data = [&#45;666]</text>
<polyline fill="none" stroke="black" points="1139.52,-67.5 1227.52,-67.5"/>
<text xml:space="preserve" text-anchor="middle" x="1183.52" y="-50.2" font-family="Times,serif" font-size="14.00">prev = [&#45;1]</text>
<polyline fill="none" stroke="black" points="1139.52,-43 1227.52,-43"/>
<text xml:space="preserve" text-anchor="middle" x="1183.52" y="-25.7" font-family="Times,serif" font-size="14.00">next = [10]</text>
</g>
<!-- element8&#45;&gt;element9 -->
<g id="edge9" class="edge">
<title>element8&#45;&gt;element9</title>
<path fill="none" stroke="none" d="M1103.93,-84C1103.93,-84 1127.9,-84 1127.9,-84"/>
<polygon fill="none" stroke="none" points="1127.9,-87.5 1137.9,-84 1127.9,-80.5 1127.9,-87.5"/>
</g>
<!-- element8&#45;&gt;element9 -->
<g id="edge19" class="edge">
<title>element8&#45;&gt;element9</title>
<path fill="none" stroke="green" d="M1103.93,-51C1103.93,-51 1127.9,-51 1127.9,-51"/>
<polygon fill="green" stroke="green" points="1127.9,-54.5 1137.9,-51 1127.9,-47.5 1127.9,-54.5"/>
</g>
<!-- element10 -->
<g id="node13" class="node">
<title>element10</title>
<path fill="#99ff66" stroke="black" d="M1275.52,-18.5C1275.52,-18.5 1339.52,-18.5 1339.52,-18.5 1345.52,-18.5 1351.52,-24.5 1351.52,-30.5 1351.52,-30.5 1351.52,-104.5 1351.52,-104.5 1351.52,-110.5 1345.52,-116.5 1339.52,-116.5 1339.52,-116.5 1275.52,-116.5 1275.52,-116.5 1269.52,-116.5 1263.52,-110.5 1263.52,-104.5 1263.52,-104.5 1263.52,-30.5 1263.52,-30.5 1263.52,-24.5 1269.52,-18.5 1275.52,-18.5"/>
<text xml:space="preserve" text-anchor="middle" x="1307.52" y="-99.2" font-family="Times,serif" font-size="14.00">idx = [10]</text>
<polyline fill="none" stroke="black" points="1263.52,-92 1351.52,-92"/>
<text xml:space="preserve" text-anchor="middle" x="1307.52" y="-74.7" font-family="Times,serif" font-size="14.00">data = [&#45;666]</text>
<polyline fill="none" stroke="black" points="1263.52,-67.5 1351.52,-67.5"/>
<text xml:space="preserve" text-anchor="middle" x="1307.52" y="-50.2" font-family="Times,serif" font-size="14.00">prev = [&#45;1]</text>
<polyline fill="none" stroke="black" points="1263.52,-43 1351.52,-43"/>
<text xml:space="preserve" text-anchor="middle" x="1307.52" y="-25.7" font-family="Times,serif" font-size="14.00">next = [0]</text>
</g>
<!-- element9&#45;&gt;element10 -->
<g id="edge10" class="edge">
<title>element9&#45;&gt;element10</title>
<path fill="none" stroke="none" d="M1227.93,-84C1227.93,-84 1251.9,-84 1251.9,-84"/>
<polygon fill="none" stroke="none" points="1251.9,-87.5 1261.9,-84 1251.9,-80.5 1251.9,-87.5"/>
</g>
<!-- element9&#45;&gt;element10 -->
<g id="edge20" class="edge">
<title>element9&#45;&gt;element10</title>
<path fill="none" stroke="green" d="M1227.93,-51C1227.93,-51 1251.9,-51 1251.9,-51"/>
<polygon fill="green" stroke="green" points="1251.9,-54.5 1261.9,-51 1251.9,-47.5 1251.9,-54.5"/>
</g>
</g>
</svg>
