<?xml version="1.0" encoding="UTF-8" standalone="no"?>
<!DOCTYPE svg PUBLIC "-//W3C//DTD SVG 1.1//EN"
 "http://www.w3.org/Graphics/SVG/1.1/DTD/svg11.dtd">
<!-- Generated by graphviz version 13.1.1 (20250719.2154)
 -->
<!-- Title: G Pages: 1 -->
<svg width="1274pt" height="179pt"
 viewBox="0.00 0.00 1274.00 179.00" xmlns="http://www.w3.org/2000/svg" xmlns:xlink="http://www.w3.org/1999/xlink">
<g id="graph0" class="graph" transform="scale(1 1) rotate(0) translate(4 175)">
<title>G</title>
<polygon fill="white" stroke="none" points="-4,4 -4,-175 1269.88,-175 1269.88,4 -4,4"/>
<!-- HEAD -->
<g id="node1" class="node">
<title>HEAD</title>
<polygon fill="#cc99ff" stroke="black" points="190.64,-145.54 190.64,-160.46 167.49,-171 134.76,-171 111.61,-160.46 111.61,-145.54 134.76,-135 167.49,-135 190.64,-145.54"/>
<text xml:space="preserve" text-anchor="middle" x="151.12" y="-147.95" font-family="Times,serif" font-size="14.00">HEAD</text>
</g>
<!-- element1 -->
<g id="node4" class="node">
<title>element1</title>
<path fill="#cc99ff" stroke="black" d="M126.38,-0.5C126.38,-0.5 173.88,-0.5 173.88,-0.5 179.88,-0.5 185.88,-6.5 185.88,-12.5 185.88,-12.5 185.88,-86.5 185.88,-86.5 185.88,-92.5 179.88,-98.5 173.88,-98.5 173.88,-98.5 126.38,-98.5 126.38,-98.5 120.38,-98.5 114.38,-92.5 114.38,-86.5 114.38,-86.5 114.38,-12.5 114.38,-12.5 114.38,-6.5 120.38,-0.5 126.38,-0.5"/>
<text xml:space="preserve" text-anchor="middle" x="150.12" y="-81.2" font-family="Times,serif" font-size="14.00">idx = [1]</text>
<polyline fill="none" stroke="black" points="114.38,-74 185.88,-74"/>
<text xml:space="preserve" text-anchor="middle" x="150.12" y="-56.7" font-family="Times,serif" font-size="14.00">data = [0]</text>
<polyline fill="none" stroke="black" points="114.38,-49.5 185.88,-49.5"/>
<text xml:space="preserve" text-anchor="middle" x="150.12" y="-32.2" font-family="Times,serif" font-size="14.00">prev = [0]</text>
<polyline fill="none" stroke="black" points="114.38,-25 185.88,-25"/>
<text xml:space="preserve" text-anchor="middle" x="150.12" y="-7.7" font-family="Times,serif" font-size="14.00">next = [2]</text>
</g>
<!-- HEAD&#45;&gt;element1 -->
<g id="edge21" class="edge">
<title>HEAD&#45;&gt;element1</title>
<path fill="none" stroke="#000000" d="M150.12,-134.97C150.12,-134.97 150.12,-110.4 150.12,-110.4"/>
<polygon fill="#000000" stroke="#000000" points="153.63,-110.4 150.13,-100.4 146.63,-110.4 153.63,-110.4"/>
</g>
<!-- FREE -->
<g id="node2" class="node">
<title>FREE</title>
<polygon fill="#33cc33" stroke="black" points="75.32,-145.54 75.32,-160.46 54.12,-171 24.13,-171 2.93,-160.46 2.93,-145.54 24.13,-135 54.12,-135 75.32,-145.54"/>
<text xml:space="preserve" text-anchor="middle" x="39.12" y="-147.95" font-family="Times,serif" font-size="14.00">FREE</text>
</g>
<!-- element0 -->
<g id="node3" class="node">
<title>element0</title>
<path fill="#ebebe0" stroke="black" d="M12,-0.5C12,-0.5 66.25,-0.5 66.25,-0.5 72.25,-0.5 78.25,-6.5 78.25,-12.5 78.25,-12.5 78.25,-86.5 78.25,-86.5 78.25,-92.5 72.25,-98.5 66.25,-98.5 66.25,-98.5 12,-98.5 12,-98.5 6,-98.5 0,-92.5 0,-86.5 0,-86.5 0,-12.5 0,-12.5 0,-6.5 6,-0.5 12,-0.5"/>
<text xml:space="preserve" text-anchor="middle" x="39.12" y="-81.2" font-family="Times,serif" font-size="14.00">idx = [0]</text>
<polyline fill="none" stroke="black" points="0,-74 78.25,-74"/>
<text xml:space="preserve" text-anchor="middle" x="39.12" y="-56.7" font-family="Times,serif" font-size="14.00">data = [0]</text>
<polyline fill="none" stroke="black" points="0,-49.5 78.25,-49.5"/>
<text xml:space="preserve" text-anchor="middle" x="39.12" y="-32.2" font-family="Times,serif" font-size="14.00">prev = [10]</text>
<polyline fill="none" stroke="black" points="0,-25 78.25,-25"/>
<text xml:space="preserve" text-anchor="middle" x="39.12" y="-7.7" font-family="Times,serif" font-size="14.00">next = [1]</text>
</g>
<!-- FREE&#45;&gt;element0 -->
<g id="edge22" class="edge">
<title>FREE&#45;&gt;element0</title>
<path fill="none" stroke="#000000" d="M39.12,-134.97C39.12,-134.97 39.12,-110.4 39.12,-110.4"/>
<polygon fill="#000000" stroke="#000000" points="42.63,-110.4 39.13,-100.4 35.63,-110.4 42.63,-110.4"/>
</g>
<!-- element0&#45;&gt;element1 -->
<g id="edge1" class="edge">
<title>element0&#45;&gt;element1</title>
<path fill="none" stroke="none" d="M78.57,-66C78.57,-66 102.62,-66 102.62,-66"/>
<polygon fill="none" stroke="none" points="102.62,-69.5 112.62,-66 102.62,-62.5 102.62,-69.5"/>
</g>
<!-- element0&#45;&gt;element1 -->
<g id="edge11" class="edge">
<title>element0&#45;&gt;element1</title>
<path fill="none" stroke="#000000" d="M90.09,-33C90.09,-33 102.62,-33 102.62,-33"/>
<polygon fill="#000000" stroke="#000000" points="90.09,-29.5 80.09,-33 90.09,-36.5 90.09,-29.5"/>
<polygon fill="#000000" stroke="#000000" points="102.62,-36.5 112.62,-33 102.62,-29.5 102.62,-36.5"/>
</g>
<!-- element2 -->
<g id="node5" class="node">
<title>element2</title>
<path fill="#66ccff" stroke="black" d="M234.38,-0.5C234.38,-0.5 293.88,-0.5 293.88,-0.5 299.88,-0.5 305.88,-6.5 305.88,-12.5 305.88,-12.5 305.88,-86.5 305.88,-86.5 305.88,-92.5 299.88,-98.5 293.88,-98.5 293.88,-98.5 234.38,-98.5 234.38,-98.5 228.38,-98.5 222.38,-92.5 222.38,-86.5 222.38,-86.5 222.38,-12.5 222.38,-12.5 222.38,-6.5 228.38,-0.5 234.38,-0.5"/>
<text xml:space="preserve" text-anchor="middle" x="264.12" y="-81.2" font-family="Times,serif" font-size="14.00">idx = [2]</text>
<polyline fill="none" stroke="black" points="222.38,-74 305.88,-74"/>
<text xml:space="preserve" text-anchor="middle" x="264.12" y="-56.7" font-family="Times,serif" font-size="14.00">data = [101]</text>
<polyline fill="none" stroke="black" points="222.38,-49.5 305.88,-49.5"/>
<text xml:space="preserve" text-anchor="middle" x="264.12" y="-32.2" font-family="Times,serif" font-size="14.00">prev = [1]</text>
<polyline fill="none" stroke="black" points="222.38,-25 305.88,-25"/>
<text xml:space="preserve" text-anchor="middle" x="264.12" y="-7.7" font-family="Times,serif" font-size="14.00">next = [3]</text>
</g>
<!-- element1&#45;&gt;element2 -->
<g id="edge2" class="edge">
<title>element1&#45;&gt;element2</title>
<path fill="none" stroke="none" d="M186.2,-66C186.2,-66 210.41,-66 210.41,-66"/>
<polygon fill="none" stroke="none" points="210.41,-69.5 220.41,-66 210.4,-62.5 210.41,-69.5"/>
</g>
<!-- element1&#45;&gt;element2 -->
<g id="edge12" class="edge">
<title>element1&#45;&gt;element2</title>
<path fill="none" stroke="#000000" d="M197.71,-33C197.71,-33 210.41,-33 210.41,-33"/>
<polygon fill="#000000" stroke="#000000" points="197.71,-29.5 187.71,-33 197.71,-36.5 197.71,-29.5"/>
<polygon fill="#000000" stroke="#000000" points="210.41,-36.5 220.41,-33 210.4,-29.5 210.41,-36.5"/>
</g>
<!-- element3 -->
<g id="node6" class="node">
<title>element3</title>
<path fill="#66ccff" stroke="black" d="M354.38,-0.5C354.38,-0.5 413.88,-0.5 413.88,-0.5 419.88,-0.5 425.88,-6.5 425.88,-12.5 425.88,-12.5 425.88,-86.5 425.88,-86.5 425.88,-92.5 419.88,-98.5 413.88,-98.5 413.88,-98.5 354.38,-98.5 354.38,-98.5 348.38,-98.5 342.38,-92.5 342.38,-86.5 342.38,-86.5 342.38,-12.5 342.38,-12.5 342.38,-6.5 348.38,-0.5 354.38,-0.5"/>
<text xml:space="preserve" text-anchor="middle" x="384.12" y="-81.2" font-family="Times,serif" font-size="14.00">idx = [3]</text>
<polyline fill="none" stroke="black" points="342.38,-74 425.88,-74"/>
<text xml:space="preserve" text-anchor="middle" x="384.12" y="-56.7" font-family="Times,serif" font-size="14.00">data = [202]</text>
<polyline fill="none" stroke="black" points="342.38,-49.5 425.88,-49.5"/>
<text xml:space="preserve" text-anchor="middle" x="384.12" y="-32.2" font-family="Times,serif" font-size="14.00">prev = [2]</text>
<polyline fill="none" stroke="black" points="342.38,-25 425.88,-25"/>
<text xml:space="preserve" text-anchor="middle" x="384.12" y="-7.7" font-family="Times,serif" font-size="14.00">next = [4]</text>
</g>
<!-- element2&#45;&gt;element3 -->
<g id="edge3" class="edge">
<title>element2&#45;&gt;element3</title>
<path fill="none" stroke="none" d="M306.1,-66C306.1,-66 330.46,-66 330.46,-66"/>
<polygon fill="none" stroke="none" points="330.46,-69.5 340.46,-66 330.46,-62.5 330.46,-69.5"/>
</g>
<!-- element2&#45;&gt;element3 -->
<g id="edge13" class="edge">
<title>element2&#45;&gt;element3</title>
<path fill="none" stroke="#000000" d="M317.61,-33C317.61,-33 330.46,-33 330.46,-33"/>
<polygon fill="#000000" stroke="#000000" points="317.61,-29.5 307.61,-33 317.61,-36.5 317.61,-29.5"/>
<polygon fill="#000000" stroke="#000000" points="330.46,-36.5 340.46,-33 330.46,-29.5 330.46,-36.5"/>
</g>
<!-- element4 -->
<g id="node7" class="node">
<title>element4</title>
<path fill="#66ccff" stroke="black" d="M474.38,-0.5C474.38,-0.5 533.88,-0.5 533.88,-0.5 539.88,-0.5 545.88,-6.5 545.88,-12.5 545.88,-12.5 545.88,-86.5 545.88,-86.5 545.88,-92.5 539.88,-98.5 533.88,-98.5 533.88,-98.5 474.38,-98.5 474.38,-98.5 468.38,-98.5 462.38,-92.5 462.38,-86.5 462.38,-86.5 462.38,-12.5 462.38,-12.5 462.38,-6.5 468.38,-0.5 474.38,-0.5"/>
<text xml:space="preserve" text-anchor="middle" x="504.12" y="-81.2" font-family="Times,serif" font-size="14.00">idx = [4]</text>
<polyline fill="none" stroke="black" points="462.38,-74 545.88,-74"/>
<text xml:space="preserve" text-anchor="middle" x="504.12" y="-56.7" font-family="Times,serif" font-size="14.00">data = [303]</text>
<polyline fill="none" stroke="black" points="462.38,-49.5 545.88,-49.5"/>
<text xml:space="preserve" text-anchor="middle" x="504.12" y="-32.2" font-family="Times,serif" font-size="14.00">prev = [3]</text>
<polyline fill="none" stroke="black" points="462.38,-25 545.88,-25"/>
<text xml:space="preserve" text-anchor="middle" x="504.12" y="-7.7" font-family="Times,serif" font-size="14.00">next = [5]</text>
</g>
<!-- element3&#45;&gt;element4 -->
<g id="edge4" class="edge">
<title>element3&#45;&gt;element4</title>
<path fill="none" stroke="none" d="M426.1,-66C426.1,-66 450.46,-66 450.46,-66"/>
<polygon fill="none" stroke="none" points="450.46,-69.5 460.46,-66 450.46,-62.5 450.46,-69.5"/>
</g>
<!-- element3&#45;&gt;element4 -->
<g id="edge14" class="edge">
<title>element3&#45;&gt;element4</title>
<path fill="none" stroke="#000000" d="M437.61,-33C437.61,-33 450.46,-33 450.46,-33"/>
<polygon fill="#000000" stroke="#000000" points="437.61,-29.5 427.61,-33 437.61,-36.5 437.61,-29.5"/>
<polygon fill="#000000" stroke="#000000" points="450.46,-36.5 460.46,-33 450.46,-29.5 450.46,-36.5"/>
</g>
<!-- element5 -->
<g id="node8" class="node">
<title>element5</title>
<path fill="#66ccff" stroke="black" d="M594.38,-0.5C594.38,-0.5 653.88,-0.5 653.88,-0.5 659.88,-0.5 665.88,-6.5 665.88,-12.5 665.88,-12.5 665.88,-86.5 665.88,-86.5 665.88,-92.5 659.88,-98.5 653.88,-98.5 653.88,-98.5 594.38,-98.5 594.38,-98.5 588.38,-98.5 582.38,-92.5 582.38,-86.5 582.38,-86.5 582.38,-12.5 582.38,-12.5 582.38,-6.5 588.38,-0.5 594.38,-0.5"/>
<text xml:space="preserve" text-anchor="middle" x="624.12" y="-81.2" font-family="Times,serif" font-size="14.00">idx = [5]</text>
<polyline fill="none" stroke="black" points="582.38,-74 665.88,-74"/>
<text xml:space="preserve" text-anchor="middle" x="624.12" y="-56.7" font-family="Times,serif" font-size="14.00">data = [404]</text>
<polyline fill="none" stroke="black" points="582.38,-49.5 665.88,-49.5"/>
<text xml:space="preserve" text-anchor="middle" x="624.12" y="-32.2" font-family="Times,serif" font-size="14.00">prev = [4]</text>
<polyline fill="none" stroke="black" points="582.38,-25 665.88,-25"/>
<text xml:space="preserve" text-anchor="middle" x="624.12" y="-7.7" font-family="Times,serif" font-size="14.00">next = [6]</text>
</g>
<!-- element4&#45;&gt;element5 -->
<g id="edge5" class="edge">
<title>element4&#45;&gt;element5</title>
<path fill="none" stroke="none" d="M546.1,-66C546.1,-66 570.46,-66 570.46,-66"/>
<polygon fill="none" stroke="none" points="570.46,-69.5 580.46,-66 570.46,-62.5 570.46,-69.5"/>
</g>
<!-- element4&#45;&gt;element5 -->
<g id="edge15" class="edge">
<title>element4&#45;&gt;element5</title>
<path fill="none" stroke="#000000" d="M557.61,-33C557.61,-33 570.46,-33 570.46,-33"/>
<polygon fill="#000000" stroke="#000000" points="557.61,-29.5 547.61,-33 557.61,-36.5 557.61,-29.5"/>
<polygon fill="#000000" stroke="#000000" points="570.46,-36.5 580.46,-33 570.46,-29.5 570.46,-36.5"/>
</g>
<!-- element6 -->
<g id="node9" class="node">
<title>element6</title>
<path fill="#66ccff" stroke="black" d="M714.38,-0.5C714.38,-0.5 773.88,-0.5 773.88,-0.5 779.88,-0.5 785.88,-6.5 785.88,-12.5 785.88,-12.5 785.88,-86.5 785.88,-86.5 785.88,-92.5 779.88,-98.5 773.88,-98.5 773.88,-98.5 714.38,-98.5 714.38,-98.5 708.38,-98.5 702.38,-92.5 702.38,-86.5 702.38,-86.5 702.38,-12.5 702.38,-12.5 702.38,-6.5 708.38,-0.5 714.38,-0.5"/>
<text xml:space="preserve" text-anchor="middle" x="744.12" y="-81.2" font-family="Times,serif" font-size="14.00">idx = [6]</text>
<polyline fill="none" stroke="black" points="702.38,-74 785.88,-74"/>
<text xml:space="preserve" text-anchor="middle" x="744.12" y="-56.7" font-family="Times,serif" font-size="14.00">data = [505]</text>
<polyline fill="none" stroke="black" points="702.38,-49.5 785.88,-49.5"/>
<text xml:space="preserve" text-anchor="middle" x="744.12" y="-32.2" font-family="Times,serif" font-size="14.00">prev = [5]</text>
<polyline fill="none" stroke="black" points="702.38,-25 785.88,-25"/>
<text xml:space="preserve" text-anchor="middle" x="744.12" y="-7.7" font-family="Times,serif" font-size="14.00">next = [7]</text>
</g>
<!-- element5&#45;&gt;element6 -->
<g id="edge6" class="edge">
<title>element5&#45;&gt;element6</title>
<path fill="none" stroke="none" d="M666.1,-66C666.1,-66 690.46,-66 690.46,-66"/>
<polygon fill="none" stroke="none" points="690.46,-69.5 700.46,-66 690.46,-62.5 690.46,-69.5"/>
</g>
<!-- element5&#45;&gt;element6 -->
<g id="edge16" class="edge">
<title>element5&#45;&gt;element6</title>
<path fill="none" stroke="#000000" d="M677.61,-33C677.61,-33 690.46,-33 690.46,-33"/>
<polygon fill="#000000" stroke="#000000" points="677.61,-29.5 667.61,-33 677.61,-36.5 677.61,-29.5"/>
<polygon fill="#000000" stroke="#000000" points="690.46,-36.5 700.46,-33 690.46,-29.5 690.46,-36.5"/>
</g>
<!-- element7 -->
<g id="node10" class="node">
<title>element7</title>
<path fill="#66ccff" stroke="black" d="M834.38,-0.5C834.38,-0.5 893.88,-0.5 893.88,-0.5 899.88,-0.5 905.88,-6.5 905.88,-12.5 905.88,-12.5 905.88,-86.5 905.88,-86.5 905.88,-92.5 899.88,-98.5 893.88,-98.5 893.88,-98.5 834.38,-98.5 834.38,-98.5 828.38,-98.5 822.38,-92.5 822.38,-86.5 822.38,-86.5 822.38,-12.5 822.38,-12.5 822.38,-6.5 828.38,-0.5 834.38,-0.5"/>
<text xml:space="preserve" text-anchor="middle" x="864.12" y="-81.2" font-family="Times,serif" font-size="14.00">idx = [7]</text>
<polyline fill="none" stroke="black" points="822.38,-74 905.88,-74"/>
<text xml:space="preserve" text-anchor="middle" x="864.12" y="-56.7" font-family="Times,serif" font-size="14.00">data = [606]</text>
<polyline fill="none" stroke="black" points="822.38,-49.5 905.88,-49.5"/>
<text xml:space="preserve" text-anchor="middle" x="864.12" y="-32.2" font-family="Times,serif" font-size="14.00">prev = [6]</text>
<polyline fill="none" stroke="black" points="822.38,-25 905.88,-25"/>
<text xml:space="preserve" text-anchor="middle" x="864.12" y="-7.7" font-family="Times,serif" font-size="14.00">next = [8]</text>
</g>
<!-- element6&#45;&gt;element7 -->
<g id="edge7" class="edge">
<title>element6&#45;&gt;element7</title>
<path fill="none" stroke="none" d="M786.1,-66C786.1,-66 810.46,-66 810.46,-66"/>
<polygon fill="none" stroke="none" points="810.46,-69.5 820.46,-66 810.46,-62.5 810.46,-69.5"/>
</g>
<!-- element6&#45;&gt;element7 -->
<g id="edge17" class="edge">
<title>element6&#45;&gt;element7</title>
<path fill="none" stroke="#000000" d="M797.61,-33C797.61,-33 810.46,-33 810.46,-33"/>
<polygon fill="#000000" stroke="#000000" points="797.61,-29.5 787.61,-33 797.61,-36.5 797.61,-29.5"/>
<polygon fill="#000000" stroke="#000000" points="810.46,-36.5 820.46,-33 810.46,-29.5 810.46,-36.5"/>
</g>
<!-- element8 -->
<g id="node11" class="node">
<title>element8</title>
<path fill="#66ccff" stroke="black" d="M954.38,-0.5C954.38,-0.5 1013.88,-0.5 1013.88,-0.5 1019.88,-0.5 1025.88,-6.5 1025.88,-12.5 1025.88,-12.5 1025.88,-86.5 1025.88,-86.5 1025.88,-92.5 1019.88,-98.5 1013.88,-98.5 1013.88,-98.5 954.38,-98.5 954.38,-98.5 948.38,-98.5 942.38,-92.5 942.38,-86.5 942.38,-86.5 942.38,-12.5 942.38,-12.5 942.38,-6.5 948.38,-0.5 954.38,-0.5"/>
<text xml:space="preserve" text-anchor="middle" x="984.12" y="-81.2" font-family="Times,serif" font-size="14.00">idx = [8]</text>
<polyline fill="none" stroke="black" points="942.38,-74 1025.88,-74"/>
<text xml:space="preserve" text-anchor="middle" x="984.12" y="-56.7" font-family="Times,serif" font-size="14.00">data = [707]</text>
<polyline fill="none" stroke="black" points="942.38,-49.5 1025.88,-49.5"/>
<text xml:space="preserve" text-anchor="middle" x="984.12" y="-32.2" font-family="Times,serif" font-size="14.00">prev = [7]</text>
<polyline fill="none" stroke="black" points="942.38,-25 1025.88,-25"/>
<text xml:space="preserve" text-anchor="middle" x="984.12" y="-7.7" font-family="Times,serif" font-size="14.00">next = [9]</text>
</g>
<!-- element7&#45;&gt;element8 -->
<g id="edge8" class="edge">
<title>element7&#45;&gt;element8</title>
<path fill="none" stroke="none" d="M906.1,-66C906.1,-66 930.46,-66 930.46,-66"/>
<polygon fill="none" stroke="none" points="930.46,-69.5 940.46,-66 930.46,-62.5 930.46,-69.5"/>
</g>
<!-- element7&#45;&gt;element8 -->
<g id="edge18" class="edge">
<title>element7&#45;&gt;element8</title>
<path fill="none" stroke="#000000" d="M917.61,-33C917.61,-33 930.46,-33 930.46,-33"/>
<polygon fill="#000000" stroke="#000000" points="917.61,-29.5 907.61,-33 917.61,-36.5 917.61,-29.5"/>
<polygon fill="#000000" stroke="#000000" points="930.46,-36.5 940.46,-33 930.46,-29.5 930.46,-36.5"/>
</g>
<!-- element9 -->
<g id="node12" class="node">
<title>element9</title>
<path fill="#66ccff" stroke="black" d="M1074.38,-0.5C1074.38,-0.5 1133.88,-0.5 1133.88,-0.5 1139.88,-0.5 1145.88,-6.5 1145.88,-12.5 1145.88,-12.5 1145.88,-86.5 1145.88,-86.5 1145.88,-92.5 1139.88,-98.5 1133.88,-98.5 1133.88,-98.5 1074.38,-98.5 1074.38,-98.5 1068.38,-98.5 1062.38,-92.5 1062.38,-86.5 1062.38,-86.5 1062.38,-12.5 1062.38,-12.5 1062.38,-6.5 1068.38,-0.5 1074.38,-0.5"/>
<text xml:space="preserve" text-anchor="middle" x="1104.12" y="-81.2" font-family="Times,serif" font-size="14.00">idx = [9]</text>
<polyline fill="none" stroke="black" points="1062.38,-74 1145.88,-74"/>
<text xml:space="preserve" text-anchor="middle" x="1104.12" y="-56.7" font-family="Times,serif" font-size="14.00">data = [808]</text>
<polyline fill="none" stroke="black" points="1062.38,-49.5 1145.88,-49.5"/>
<text xml:space="preserve" text-anchor="middle" x="1104.12" y="-32.2" font-family="Times,serif" font-size="14.00">prev = [8]</text>
<polyline fill="none" stroke="black" points="1062.38,-25 1145.88,-25"/>
<text xml:space="preserve" text-anchor="middle" x="1104.12" y="-7.7" font-family="Times,serif" font-size="14.00">next = [10]</text>
</g>
<!-- element8&#45;&gt;element9 -->
<g id="edge9" class="edge">
<title>element8&#45;&gt;element9</title>
<path fill="none" stroke="none" d="M1026.1,-66C1026.1,-66 1050.46,-66 1050.46,-66"/>
<polygon fill="none" stroke="none" points="1050.46,-69.5 1060.46,-66 1050.46,-62.5 1050.46,-69.5"/>
</g>
<!-- element8&#45;&gt;element9 -->
<g id="edge19" class="edge">
<title>element8&#45;&gt;element9</title>
<path fill="none" stroke="#000000" d="M1037.61,-33C1037.61,-33 1050.46,-33 1050.46,-33"/>
<polygon fill="#000000" stroke="#000000" points="1037.61,-29.5 1027.61,-33 1037.61,-36.5 1037.61,-29.5"/>
<polygon fill="#000000" stroke="#000000" points="1050.46,-36.5 1060.46,-33 1050.46,-29.5 1050.46,-36.5"/>
</g>
<!-- element10 -->
<g id="node13" class="node">
<title>element10</title>
<path fill="#66ccff" stroke="black" d="M1194.38,-0.5C1194.38,-0.5 1253.88,-0.5 1253.88,-0.5 1259.88,-0.5 1265.88,-6.5 1265.88,-12.5 1265.88,-12.5 1265.88,-86.5 1265.88,-86.5 1265.88,-92.5 1259.88,-98.5 1253.88,-98.5 1253.88,-98.5 1194.38,-98.5 1194.38,-98.5 1188.38,-98.5 1182.38,-92.5 1182.38,-86.5 1182.38,-86.5 1182.38,-12.5 1182.38,-12.5 1182.38,-6.5 1188.38,-0.5 1194.38,-0.5"/>
<text xml:space="preserve" text-anchor="middle" x="1224.12" y="-81.2" font-family="Times,serif" font-size="14.00">idx = [10]</text>
<polyline fill="none" stroke="black" points="1182.38,-74 1265.88,-74"/>
<text xml:space="preserve" text-anchor="middle" x="1224.12" y="-56.7" font-family="Times,serif" font-size="14.00">data = [909]</text>
<polyline fill="none" stroke="black" points="1182.38,-49.5 1265.88,-49.5"/>
<text xml:space="preserve" text-anchor="middle" x="1224.12" y="-32.2" font-family="Times,serif" font-size="14.00">prev = [9]</text>
<polyline fill="none" stroke="black" points="1182.38,-25 1265.88,-25"/>
<text xml:space="preserve" text-anchor="middle" x="1224.12" y="-7.7" font-family="Times,serif" font-size="14.00">next = [0]</text>
</g>
<!-- element9&#45;&gt;element10 -->
<g id="edge10" class="edge">
<title>element9&#45;&gt;element10</title>
<path fill="none" stroke="none" d="M1146.1,-66C1146.1,-66 1170.46,-66 1170.46,-66"/>
<polygon fill="none" stroke="none" points="1170.46,-69.5 1180.46,-66 1170.46,-62.5 1170.46,-69.5"/>
</g>
<!-- element9&#45;&gt;element10 -->
<g id="edge20" class="edge">
<title>element9&#45;&gt;element10</title>
<path fill="none" stroke="#000000" d="M1157.61,-33C1157.61,-33 1170.46,-33 1170.46,-33"/>
<polygon fill="#000000" stroke="#000000" points="1157.61,-29.5 1147.61,-33 1157.61,-36.5 1157.61,-29.5"/>
<polygon fill="#000000" stroke="#000000" points="1170.46,-36.5 1180.46,-33 1170.46,-29.5 1170.46,-36.5"/>
</g>
</g>
</svg>
