<?xml version="1.0" encoding="UTF-8" standalone="no"?>
<!DOCTYPE svg PUBLIC "-//W3C//DTD SVG 1.1//EN"
 "http://www.w3.org/Graphics/SVG/1.1/DTD/svg11.dtd">
<!-- Generated by graphviz version 13.1.1 (20250719.2154)
 -->
<!-- Title: G Pages: 1 -->
<svg width="1278pt" height="179pt"
 viewBox="0.00 0.00 1278.00 179.00" xmlns="http://www.w3.org/2000/svg" xmlns:xlink="http://www.w3.org/1999/xlink">
<g id="graph0" class="graph" transform="scale(1 1) rotate(0) translate(4 175)">
<title>G</title>
<polygon fill="white" stroke="none" points="-4,4 -4,-175 1273.88,-175 1273.88,4 -4,4"/>
<!-- HEAD -->
<g id="node1" class="node">
<title>HEAD</title>
<polygon fill="#cc99ff" stroke="black" points="189.64,-145.54 189.64,-160.46 166.49,-171 133.76,-171 110.61,-160.46 110.61,-145.54 133.76,-135 166.49,-135 189.64,-145.54"/>
<text xml:space="preserve" text-anchor="middle" x="150.12" y="-147.95" font-family="Times,serif" font-size="14.00">HEAD</text>
</g>
<!-- element1 -->
<g id="node4" class="node">
<title>element1</title>
<path fill="#cc99ff" stroke="black" d="M126.38,-0.5C126.38,-0.5 173.88,-0.5 173.88,-0.5 179.88,-0.5 185.88,-6.5 185.88,-12.5 185.88,-12.5 185.88,-86.5 185.88,-86.5 185.88,-92.5 179.88,-98.5 173.88,-98.5 173.88,-98.5 126.38,-98.5 126.38,-98.5 120.38,-98.5 114.38,-92.5 114.38,-86.5 114.38,-86.5 114.38,-12.5 114.38,-12.5 114.38,-6.5 120.38,-0.5 126.38,-0.5"/>
<text xml:space="preserve" text-anchor="middle" x="150.12" y="-81.2" font-family="Times,serif" font-size="14.00">idx = [1]</text>
<polyline fill="none" stroke="black" points="114.38,-74 185.88,-74"/>
<text xml:space="preserve" text-anchor="middle" x="150.12" y="-56.7" font-family="Times,serif" font-size="14.00">data = [0]</text>
<polyline fill="none" stroke="black" points="114.38,-49.5 185.88,-49.5"/>
<text xml:space="preserve" text-anchor="middle" x="150.12" y="-32.2" font-family="Times,serif" font-size="14.00">prev = [0]</text>
<polyline fill="none" stroke="black" points="114.38,-25 185.88,-25"/>
<text xml:space="preserve" text-anchor="middle" x="150.12" y="-7.7" font-family="Times,serif" font-size="14.00">next = [2]</text>
</g>
<!-- HEAD&#45;&gt;element1 -->
<g id="edge21" class="edge">
<title>HEAD&#45;&gt;element1</title>
<path fill="none" stroke="#000000" d="M150.12,-134.97C150.12,-134.97 150.12,-110.4 150.12,-110.4"/>
<polygon fill="#000000" stroke="#000000" points="153.63,-110.4 150.13,-100.4 146.63,-110.4 153.63,-110.4"/>
</g>
<!-- FREE -->
<g id="node2" class="node">
<title>FREE</title>
<polygon fill="#33cc33" stroke="black" points="662.32,-145.54 662.32,-160.46 641.12,-171 611.13,-171 589.93,-160.46 589.93,-145.54 611.13,-135 641.12,-135 662.32,-145.54"/>
<text xml:space="preserve" text-anchor="middle" x="626.12" y="-147.95" font-family="Times,serif" font-size="14.00">FREE</text>
</g>
<!-- element5 -->
<g id="node8" class="node">
<title>element5</title>
<path fill="#33cc33" stroke="black" d="M594.12,-0.5C594.12,-0.5 658.12,-0.5 658.12,-0.5 664.12,-0.5 670.12,-6.5 670.12,-12.5 670.12,-12.5 670.12,-86.5 670.12,-86.5 670.12,-92.5 664.12,-98.5 658.12,-98.5 658.12,-98.5 594.12,-98.5 594.12,-98.5 588.12,-98.5 582.12,-92.5 582.12,-86.5 582.12,-86.5 582.12,-12.5 582.12,-12.5 582.12,-6.5 588.12,-0.5 594.12,-0.5"/>
<text xml:space="preserve" text-anchor="middle" x="626.12" y="-81.2" font-family="Times,serif" font-size="14.00">idx = [5]</text>
<polyline fill="none" stroke="black" points="582.12,-74 670.12,-74"/>
<text xml:space="preserve" text-anchor="middle" x="626.12" y="-56.7" font-family="Times,serif" font-size="14.00">data = [&#45;666]</text>
<polyline fill="none" stroke="black" points="582.12,-49.5 670.12,-49.5"/>
<text xml:space="preserve" text-anchor="middle" x="626.12" y="-32.2" font-family="Times,serif" font-size="14.00">prev = [&#45;1]</text>
<polyline fill="none" stroke="black" points="582.12,-25 670.12,-25"/>
<text xml:space="preserve" text-anchor="middle" x="626.12" y="-7.7" font-family="Times,serif" font-size="14.00">next = [0]</text>
</g>
<!-- FREE&#45;&gt;element5 -->
<g id="edge22" class="edge">
<title>FREE&#45;&gt;element5</title>
<path fill="none" stroke="#000000" d="M626.12,-134.97C626.12,-134.97 626.12,-110.4 626.12,-110.4"/>
<polygon fill="#000000" stroke="#000000" points="629.63,-110.4 626.13,-100.4 622.63,-110.4 629.63,-110.4"/>
</g>
<!-- element0 -->
<g id="node3" class="node">
<title>element0</title>
<path fill="#ebebe0" stroke="black" d="M12,-0.5C12,-0.5 66.25,-0.5 66.25,-0.5 72.25,-0.5 78.25,-6.5 78.25,-12.5 78.25,-12.5 78.25,-86.5 78.25,-86.5 78.25,-92.5 72.25,-98.5 66.25,-98.5 66.25,-98.5 12,-98.5 12,-98.5 6,-98.5 0,-92.5 0,-86.5 0,-86.5 0,-12.5 0,-12.5 0,-6.5 6,-0.5 12,-0.5"/>
<text xml:space="preserve" text-anchor="middle" x="39.12" y="-81.2" font-family="Times,serif" font-size="14.00">idx = [0]</text>
<polyline fill="none" stroke="black" points="0,-74 78.25,-74"/>
<text xml:space="preserve" text-anchor="middle" x="39.12" y="-56.7" font-family="Times,serif" font-size="14.00">data = [0]</text>
<polyline fill="none" stroke="black" points="0,-49.5 78.25,-49.5"/>
<text xml:space="preserve" text-anchor="middle" x="39.12" y="-32.2" font-family="Times,serif" font-size="14.00">prev = [10]</text>
<polyline fill="none" stroke="black" points="0,-25 78.25,-25"/>
<text xml:space="preserve" text-anchor="middle" x="39.12" y="-7.7" font-family="Times,serif" font-size="14.00">next = [1]</text>
</g>
<!-- element0&#45;&gt;element1 -->
<g id="edge1" class="edge">
<title>element0&#45;&gt;element1</title>
<path fill="none" stroke="none" d="M78.57,-66C78.57,-66 102.62,-66 102.62,-66"/>
<polygon fill="none" stroke="none" points="102.62,-69.5 112.62,-66 102.62,-62.5 102.62,-69.5"/>
</g>
<!-- element0&#45;&gt;element1 -->
<g id="edge11" class="edge">
<title>element0&#45;&gt;element1</title>
<path fill="none" stroke="#000000" d="M90.09,-33C90.09,-33 102.62,-33 102.62,-33"/>
<polygon fill="#000000" stroke="#000000" points="90.09,-29.5 80.09,-33 90.09,-36.5 90.09,-29.5"/>
<polygon fill="#000000" stroke="#000000" points="102.62,-36.5 112.62,-33 102.62,-29.5 102.62,-36.5"/>
</g>
<!-- element2 -->
<g id="node5" class="node">
<title>element2</title>
<path fill="#66ccff" stroke="black" d="M234.38,-0.5C234.38,-0.5 293.88,-0.5 293.88,-0.5 299.88,-0.5 305.88,-6.5 305.88,-12.5 305.88,-12.5 305.88,-86.5 305.88,-86.5 305.88,-92.5 299.88,-98.5 293.88,-98.5 293.88,-98.5 234.38,-98.5 234.38,-98.5 228.38,-98.5 222.38,-92.5 222.38,-86.5 222.38,-86.5 222.38,-12.5 222.38,-12.5 222.38,-6.5 228.38,-0.5 234.38,-0.5"/>
<text xml:space="preserve" text-anchor="middle" x="264.12" y="-81.2" font-family="Times,serif" font-size="14.00">idx = [2]</text>
<polyline fill="none" stroke="black" points="222.38,-74 305.88,-74"/>
<text xml:space="preserve" text-anchor="middle" x="264.12" y="-56.7" font-family="Times,serif" font-size="14.00">data = [101]</text>
<polyline fill="none" stroke="black" points="222.38,-49.5 305.88,-49.5"/>
<text xml:space="preserve" text-anchor="middle" x="264.12" y="-32.2" font-family="Times,serif" font-size="14.00">prev = [1]</text>
<polyline fill="none" stroke="black" points="222.38,-25 305.88,-25"/>
<text xml:space="preserve" text-anchor="middle" x="264.12" y="-7.7" font-family="Times,serif" font-size="14.00">next = [3]</text>
</g>
<!-- element1&#45;&gt;element2 -->
<g id="edge2" class="edge">
<title>element1&#45;&gt;element2</title>
<path fill="none" stroke="none" d="M186.2,-66C186.2,-66 210.41,-66 210.41,-66"/>
<polygon fill="none" stroke="none" points="210.41,-69.5 220.41,-66 210.4,-62.5 210.41,-69.5"/>
</g>
<!-- element1&#45;&gt;element2 -->
<g id="edge12" class="edge">
<title>element1&#45;&gt;element2</title>
<path fill="none" stroke="#000000" d="M197.71,-33C197.71,-33 210.41,-33 210.41,-33"/>
<polygon fill="#000000" stroke="#000000" points="197.71,-29.5 187.71,-33 197.71,-36.5 197.71,-29.5"/>
<polygon fill="#000000" stroke="#000000" points="210.41,-36.5 220.41,-33 210.4,-29.5 210.41,-36.5"/>
</g>
<!-- element3 -->
<g id="node6" class="node">
<title>element3</title>
<path fill="#66ccff" stroke="black" d="M354.38,-0.5C354.38,-0.5 413.88,-0.5 413.88,-0.5 419.88,-0.5 425.88,-6.5 425.88,-12.5 425.88,-12.5 425.88,-86.5 425.88,-86.5 425.88,-92.5 419.88,-98.5 413.88,-98.5 413.88,-98.5 354.38,-98.5 354.38,-98.5 348.38,-98.5 342.38,-92.5 342.38,-86.5 342.38,-86.5 342.38,-12.5 342.38,-12.5 342.38,-6.5 348.38,-0.5 354.38,-0.5"/>
<text xml:space="preserve" text-anchor="middle" x="384.12" y="-81.2" font-family="Times,serif" font-size="14.00">idx = [3]</text>
<polyline fill="none" stroke="black" points="342.38,-74 425.88,-74"/>
<text xml:space="preserve" text-anchor="middle" x="384.12" y="-56.7" font-family="Times,serif" font-size="14.00">data = [202]</text>
<polyline fill="none" stroke="black" points="342.38,-49.5 425.88,-49.5"/>
<text xml:space="preserve" text-anchor="middle" x="384.12" y="-32.2" font-family="Times,serif" font-size="14.00">prev = [2]</text>
<polyline fill="none" stroke="black" points="342.38,-25 425.88,-25"/>
<text xml:space="preserve" text-anchor="middle" x="384.12" y="-7.7" font-family="Times,serif" font-size="14.00">next = [4]</text>
</g>
<!-- element2&#45;&gt;element3 -->
<g id="edge3" class="edge">
<title>element2&#45;&gt;element3</title>
<path fill="none" stroke="none" d="M306.1,-66C306.1,-66 330.46,-66 330.46,-66"/>
<polygon fill="none" stroke="none" points="330.46,-69.5 340.46,-66 330.46,-62.5 330.46,-69.5"/>
</g>
<!-- element2&#45;&gt;element3 -->
<g id="edge13" class="edge">
<title>element2&#45;&gt;element3</title>
<path fill="none" stroke="#000000" d="M317.61,-33C317.61,-33 330.46,-33 330.46,-33"/>
<polygon fill="#000000" stroke="#000000" points="317.61,-29.5 307.61,-33 317.61,-36.5 317.61,-29.5"/>
<polygon fill="#000000" stroke="#000000" points="330.46,-36.5 340.46,-33 330.46,-29.5 330.46,-36.5"/>
</g>
<!-- element4 -->
<g id="node7" class="node">
<title>element4</title>
<path fill="#66ccff" stroke="black" d="M474.38,-0.5C474.38,-0.5 533.88,-0.5 533.88,-0.5 539.88,-0.5 545.88,-6.5 545.88,-12.5 545.88,-12.5 545.88,-86.5 545.88,-86.5 545.88,-92.5 539.88,-98.5 533.88,-98.5 533.88,-98.5 474.38,-98.5 474.38,-98.5 468.38,-98.5 462.38,-92.5 462.38,-86.5 462.38,-86.5 462.38,-12.5 462.38,-12.5 462.38,-6.5 468.38,-0.5 474.38,-0.5"/>
<text xml:space="preserve" text-anchor="middle" x="504.12" y="-81.2" font-family="Times,serif" font-size="14.00">idx = [4]</text>
<polyline fill="none" stroke="black" points="462.38,-74 545.88,-74"/>
<text xml:space="preserve" text-anchor="middle" x="504.12" y="-56.7" font-family="Times,serif" font-size="14.00">data = [303]</text>
<polyline fill="none" stroke="black" points="462.38,-49.5 545.88,-49.5"/>
<text xml:space="preserve" text-anchor="middle" x="504.12" y="-32.2" font-family="Times,serif" font-size="14.00">prev = [3]</text>
<polyline fill="none" stroke="black" points="462.38,-25 545.88,-25"/>
<text xml:space="preserve" text-anchor="middle" x="504.12" y="-7.7" font-family="Times,serif" font-size="14.00">next = [6]</text>
</g>
<!-- element3&#45;&gt;element4 -->
<g id="edge4" class="edge">
<title>element3&#45;&gt;element4</title>
<path fill="none" stroke="none" d="M426.1,-66C426.1,-66 450.46,-66 450.46,-66"/>
<polygon fill="none" stroke="none" points="450.46,-69.5 460.46,-66 450.46,-62.5 450.46,-69.5"/>
</g>
<!-- element3&#45;&gt;element4 -->
<g id="edge14" class="edge">
<title>element3&#45;&gt;element4</title>
<path fill="none" stroke="#000000" d="M437.61,-33C437.61,-33 450.46,-33 450.46,-33"/>
<polygon fill="#000000" stroke="#000000" points="437.61,-29.5 427.61,-33 437.61,-36.5 437.61,-29.5"/>
<polygon fill="#000000" stroke="#000000" points="450.46,-36.5 460.46,-33 450.46,-29.5 450.46,-36.5"/>
</g>
<!-- element4&#45;&gt;element5 -->
<g id="edge5" class="edge">
<title>element4&#45;&gt;element5</title>
<path fill="none" stroke="none" d="M546.11,-50C546.11,-50 570.47,-50 570.47,-50"/>
<polygon fill="none" stroke="none" points="570.47,-53.5 580.47,-50 570.47,-46.5 570.47,-53.5"/>
</g>
<!-- element6 -->
<g id="node9" class="node">
<title>element6</title>
<path fill="#66ccff" stroke="black" d="M718.38,-0.5C718.38,-0.5 777.88,-0.5 777.88,-0.5 783.88,-0.5 789.88,-6.5 789.88,-12.5 789.88,-12.5 789.88,-86.5 789.88,-86.5 789.88,-92.5 783.88,-98.5 777.88,-98.5 777.88,-98.5 718.38,-98.5 718.38,-98.5 712.38,-98.5 706.38,-92.5 706.38,-86.5 706.38,-86.5 706.38,-12.5 706.38,-12.5 706.38,-6.5 712.38,-0.5 718.38,-0.5"/>
<text xml:space="preserve" text-anchor="middle" x="748.12" y="-81.2" font-family="Times,serif" font-size="14.00">idx = [6]</text>
<polyline fill="none" stroke="black" points="706.38,-74 789.88,-74"/>
<text xml:space="preserve" text-anchor="middle" x="748.12" y="-56.7" font-family="Times,serif" font-size="14.00">data = [505]</text>
<polyline fill="none" stroke="black" points="706.38,-49.5 789.88,-49.5"/>
<text xml:space="preserve" text-anchor="middle" x="748.12" y="-32.2" font-family="Times,serif" font-size="14.00">prev = [4]</text>
<polyline fill="none" stroke="black" points="706.38,-25 789.88,-25"/>
<text xml:space="preserve" text-anchor="middle" x="748.12" y="-7.7" font-family="Times,serif" font-size="14.00">next = [7]</text>
</g>
<!-- element4&#45;&gt;element6 -->
<g id="edge15" class="edge">
<title>element4&#45;&gt;element6</title>
<path fill="none" stroke="#000000" d="M504.12,-109.78C504.12,-109.78 504.12,-111 504.12,-111 504.12,-111 748.12,-111 748.12,-111 748.12,-111 748.12,-109.78 748.12,-109.78"/>
<polygon fill="#000000" stroke="#000000" points="507.63,-110.36 504.13,-100.36 500.63,-110.36 507.63,-110.36"/>
<polygon fill="#000000" stroke="#000000" points="751.63,-110.36 748.13,-100.36 744.63,-110.36 751.63,-110.36"/>
</g>
<!-- element5&#45;&gt;element0 -->
<g id="edge16" class="edge">
<title>element5&#45;&gt;element0</title>
<path fill="none" stroke="green" d="M586.03,-98.93C586.03,-112.23 586.03,-123 586.03,-123 586.03,-123 39.12,-123 39.12,-123 39.12,-123 39.12,-110.45 39.12,-110.45"/>
<polygon fill="green" stroke="green" points="42.63,-110.45 39.13,-100.45 35.63,-110.45 42.63,-110.45"/>
</g>
<!-- element5&#45;&gt;element6 -->
<g id="edge6" class="edge">
<title>element5&#45;&gt;element6</title>
<path fill="none" stroke="none" d="M670.51,-50C670.51,-50 694.49,-50 694.49,-50"/>
<polygon fill="none" stroke="none" points="694.49,-53.5 704.49,-50 694.49,-46.5 694.49,-53.5"/>
</g>
<!-- element7 -->
<g id="node10" class="node">
<title>element7</title>
<path fill="#66ccff" stroke="black" d="M838.38,-0.5C838.38,-0.5 897.88,-0.5 897.88,-0.5 903.88,-0.5 909.88,-6.5 909.88,-12.5 909.88,-12.5 909.88,-86.5 909.88,-86.5 909.88,-92.5 903.88,-98.5 897.88,-98.5 897.88,-98.5 838.38,-98.5 838.38,-98.5 832.38,-98.5 826.38,-92.5 826.38,-86.5 826.38,-86.5 826.38,-12.5 826.38,-12.5 826.38,-6.5 832.38,-0.5 838.38,-0.5"/>
<text xml:space="preserve" text-anchor="middle" x="868.12" y="-81.2" font-family="Times,serif" font-size="14.00">idx = [7]</text>
<polyline fill="none" stroke="black" points="826.38,-74 909.88,-74"/>
<text xml:space="preserve" text-anchor="middle" x="868.12" y="-56.7" font-family="Times,serif" font-size="14.00">data = [606]</text>
<polyline fill="none" stroke="black" points="826.38,-49.5 909.88,-49.5"/>
<text xml:space="preserve" text-anchor="middle" x="868.12" y="-32.2" font-family="Times,serif" font-size="14.00">prev = [6]</text>
<polyline fill="none" stroke="black" points="826.38,-25 909.88,-25"/>
<text xml:space="preserve" text-anchor="middle" x="868.12" y="-7.7" font-family="Times,serif" font-size="14.00">next = [8]</text>
</g>
<!-- element6&#45;&gt;element7 -->
<g id="edge7" class="edge">
<title>element6&#45;&gt;element7</title>
<path fill="none" stroke="none" d="M790.1,-66C790.1,-66 814.46,-66 814.46,-66"/>
<polygon fill="none" stroke="none" points="814.46,-69.5 824.46,-66 814.46,-62.5 814.46,-69.5"/>
</g>
<!-- element6&#45;&gt;element7 -->
<g id="edge17" class="edge">
<title>element6&#45;&gt;element7</title>
<path fill="none" stroke="#000000" d="M801.61,-33C801.61,-33 814.46,-33 814.46,-33"/>
<polygon fill="#000000" stroke="#000000" points="801.61,-29.5 791.61,-33 801.61,-36.5 801.61,-29.5"/>
<polygon fill="#000000" stroke="#000000" points="814.46,-36.5 824.46,-33 814.46,-29.5 814.46,-36.5"/>
</g>
<!-- element8 -->
<g id="node11" class="node">
<title>element8</title>
<path fill="#66ccff" stroke="black" d="M958.38,-0.5C958.38,-0.5 1017.88,-0.5 1017.88,-0.5 1023.88,-0.5 1029.88,-6.5 1029.88,-12.5 1029.88,-12.5 1029.88,-86.5 1029.88,-86.5 1029.88,-92.5 1023.88,-98.5 1017.88,-98.5 1017.88,-98.5 958.38,-98.5 958.38,-98.5 952.38,-98.5 946.38,-92.5 946.38,-86.5 946.38,-86.5 946.38,-12.5 946.38,-12.5 946.38,-6.5 952.38,-0.5 958.38,-0.5"/>
<text xml:space="preserve" text-anchor="middle" x="988.12" y="-81.2" font-family="Times,serif" font-size="14.00">idx = [8]</text>
<polyline fill="none" stroke="black" points="946.38,-74 1029.88,-74"/>
<text xml:space="preserve" text-anchor="middle" x="988.12" y="-56.7" font-family="Times,serif" font-size="14.00">data = [707]</text>
<polyline fill="none" stroke="black" points="946.38,-49.5 1029.88,-49.5"/>
<text xml:space="preserve" text-anchor="middle" x="988.12" y="-32.2" font-family="Times,serif" font-size="14.00">prev = [7]</text>
<polyline fill="none" stroke="black" points="946.38,-25 1029.88,-25"/>
<text xml:space="preserve" text-anchor="middle" x="988.12" y="-7.7" font-family="Times,serif" font-size="14.00">next = [9]</text>
</g>
<!-- element7&#45;&gt;element8 -->
<g id="edge8" class="edge">
<title>element7&#45;&gt;element8</title>
<path fill="none" stroke="none" d="M910.1,-66C910.1,-66 934.46,-66 934.46,-66"/>
<polygon fill="none" stroke="none" points="934.46,-69.5 944.46,-66 934.46,-62.5 934.46,-69.5"/>
</g>
<!-- element7&#45;&gt;element8 -->
<g id="edge18" class="edge">
<title>element7&#45;&gt;element8</title>
<path fill="none" stroke="#000000" d="M921.61,-33C921.61,-33 934.46,-33 934.46,-33"/>
<polygon fill="#000000" stroke="#000000" points="921.61,-29.5 911.61,-33 921.61,-36.5 921.61,-29.5"/>
<polygon fill="#000000" stroke="#000000" points="934.46,-36.5 944.46,-33 934.46,-29.5 934.46,-36.5"/>
</g>
<!-- element9 -->
<g id="node12" class="node">
<title>element9</title>
<path fill="#66ccff" stroke="black" d="M1078.38,-0.5C1078.38,-0.5 1137.88,-0.5 1137.88,-0.5 1143.88,-0.5 1149.88,-6.5 1149.88,-12.5 1149.88,-12.5 1149.88,-86.5 1149.88,-86.5 1149.88,-92.5 1143.88,-98.5 1137.88,-98.5 1137.88,-98.5 1078.38,-98.5 1078.38,-98.5 1072.38,-98.5 1066.38,-92.5 1066.38,-86.5 1066.38,-86.5 1066.38,-12.5 1066.38,-12.5 1066.38,-6.5 1072.38,-0.5 1078.38,-0.5"/>
<text xml:space="preserve" text-anchor="middle" x="1108.12" y="-81.2" font-family="Times,serif" font-size="14.00">idx = [9]</text>
<polyline fill="none" stroke="black" points="1066.38,-74 1149.88,-74"/>
<text xml:space="preserve" text-anchor="middle" x="1108.12" y="-56.7" font-family="Times,serif" font-size="14.00">data = [808]</text>
<polyline fill="none" stroke="black" points="1066.38,-49.5 1149.88,-49.5"/>
<text xml:space="preserve" text-anchor="middle" x="1108.12" y="-32.2" font-family="Times,serif" font-size="14.00">prev = [8]</text>
<polyline fill="none" stroke="black" points="1066.38,-25 1149.88,-25"/>
<text xml:space="preserve" text-anchor="middle" x="1108.12" y="-7.7" font-family="Times,serif" font-size="14.00">next = [10]</text>
</g>
<!-- element8&#45;&gt;element9 -->
<g id="edge9" class="edge">
<title>element8&#45;&gt;element9</title>
<path fill="none" stroke="none" d="M1030.1,-66C1030.1,-66 1054.46,-66 1054.46,-66"/>
<polygon fill="none" stroke="none" points="1054.46,-69.5 1064.46,-66 1054.46,-62.5 1054.46,-69.5"/>
</g>
<!-- element8&#45;&gt;element9 -->
<g id="edge19" class="edge">
<title>element8&#45;&gt;element9</title>
<path fill="none" stroke="#000000" d="M1041.61,-33C1041.61,-33 1054.46,-33 1054.46,-33"/>
<polygon fill="#000000" stroke="#000000" points="1041.61,-29.5 1031.61,-33 1041.61,-36.5 1041.61,-29.5"/>
<polygon fill="#000000" stroke="#000000" points="1054.46,-36.5 1064.46,-33 1054.46,-29.5 1054.46,-36.5"/>
</g>
<!-- element10 -->
<g id="node13" class="node">
<title>element10</title>
<path fill="#66ccff" stroke="black" d="M1198.38,-0.5C1198.38,-0.5 1257.88,-0.5 1257.88,-0.5 1263.88,-0.5 1269.88,-6.5 1269.88,-12.5 1269.88,-12.5 1269.88,-86.5 1269.88,-86.5 1269.88,-92.5 1263.88,-98.5 1257.88,-98.5 1257.88,-98.5 1198.38,-98.5 1198.38,-98.5 1192.38,-98.5 1186.38,-92.5 1186.38,-86.5 1186.38,-86.5 1186.38,-12.5 1186.38,-12.5 1186.38,-6.5 1192.38,-0.5 1198.38,-0.5"/>
<text xml:space="preserve" text-anchor="middle" x="1228.12" y="-81.2" font-family="Times,serif" font-size="14.00">idx = [10]</text>
<polyline fill="none" stroke="black" points="1186.38,-74 1269.88,-74"/>
<text xml:space="preserve" text-anchor="middle" x="1228.12" y="-56.7" font-family="Times,serif" font-size="14.00">data = [909]</text>
<polyline fill="none" stroke="black" points="1186.38,-49.5 1269.88,-49.5"/>
<text xml:space="preserve" text-anchor="middle" x="1228.12" y="-32.2" font-family="Times,serif" font-size="14.00">prev = [9]</text>
<polyline fill="none" stroke="black" points="1186.38,-25 1269.88,-25"/>
<text xml:space="preserve" text-anchor="middle" x="1228.12" y="-7.7" font-family="Times,serif" font-size="14.00">next = [0]</text>
</g>
<!-- element9&#45;&gt;element10 -->
<g id="edge10" class="edge">
<title>element9&#45;&gt;element10</title>
<path fill="none" stroke="none" d="M1150.1,-66C1150.1,-66 1174.46,-66 1174.46,-66"/>
<polygon fill="none" stroke="none" points="1174.46,-69.5 1184.46,-66 1174.46,-62.5 1174.46,-69.5"/>
</g>
<!-- element9&#45;&gt;element10 -->
<g id="edge20" class="edge">
<title>element9&#45;&gt;element10</title>
<path fill="none" stroke="#000000" d="M1161.61,-33C1161.61,-33 1174.46,-33 1174.46,-33"/>
<polygon fill="#000000" stroke="#000000" points="1161.61,-29.5 1151.61,-33 1161.61,-36.5 1161.61,-29.5"/>
<polygon fill="#000000" stroke="#000000" points="1174.46,-36.5 1184.46,-33 1174.46,-29.5 1174.46,-36.5"/>
</g>
</g>
</svg>
