<?xml version="1.0" encoding="UTF-8" standalone="no"?>
<!DOCTYPE svg PUBLIC "-//W3C//DTD SVG 1.1//EN"
 "http://www.w3.org/Graphics/SVG/1.1/DTD/svg11.dtd">
<!-- Generated by graphviz version 13.1.1 (20250719.2154)
 -->
<!-- Title: G Pages: 1 -->
<svg width="1282pt" height="197pt"
 viewBox="0.00 0.00 1282.00 197.00" xmlns="http://www.w3.org/2000/svg" xmlns:xlink="http://www.w3.org/1999/xlink">
<g id="graph0" class="graph" transform="scale(1 1) rotate(0) translate(4 193)">
<title>G</title>
<polygon fill="white" stroke="none" points="-4,4 -4,-193 1277.88,-193 1277.88,4 -4,4"/>
<!-- HEAD -->
<g id="node1" class="node">
<title>HEAD</title>
<polygon fill="#cc99ff" stroke="black" points="189.64,-163.54 189.64,-178.46 166.49,-189 133.76,-189 110.61,-178.46 110.61,-163.54 133.76,-153 166.49,-153 189.64,-163.54"/>
<text xml:space="preserve" text-anchor="middle" x="150.12" y="-165.95" font-family="Times,serif" font-size="14.00">HEAD</text>
</g>
<!-- element1 -->
<g id="node4" class="node">
<title>element1</title>
<path fill="#cc99ff" stroke="black" d="M126.38,-18.5C126.38,-18.5 173.88,-18.5 173.88,-18.5 179.88,-18.5 185.88,-24.5 185.88,-30.5 185.88,-30.5 185.88,-104.5 185.88,-104.5 185.88,-110.5 179.88,-116.5 173.88,-116.5 173.88,-116.5 126.38,-116.5 126.38,-116.5 120.38,-116.5 114.38,-110.5 114.38,-104.5 114.38,-104.5 114.38,-30.5 114.38,-30.5 114.38,-24.5 120.38,-18.5 126.38,-18.5"/>
<text xml:space="preserve" text-anchor="middle" x="150.12" y="-99.2" font-family="Times,serif" font-size="14.00">idx = [1]</text>
<polyline fill="none" stroke="black" points="114.38,-92 185.88,-92"/>
<text xml:space="preserve" text-anchor="middle" x="150.12" y="-74.7" font-family="Times,serif" font-size="14.00">data = [0]</text>
<polyline fill="none" stroke="black" points="114.38,-67.5 185.88,-67.5"/>
<text xml:space="preserve" text-anchor="middle" x="150.12" y="-50.2" font-family="Times,serif" font-size="14.00">prev = [0]</text>
<polyline fill="none" stroke="black" points="114.38,-43 185.88,-43"/>
<text xml:space="preserve" text-anchor="middle" x="150.12" y="-25.7" font-family="Times,serif" font-size="14.00">next = [2]</text>
</g>
<!-- HEAD&#45;&gt;element1 -->
<g id="edge21" class="edge">
<title>HEAD&#45;&gt;element1</title>
<path fill="none" stroke="#000000" d="M150.12,-152.97C150.12,-152.97 150.12,-128.4 150.12,-128.4"/>
<polygon fill="#000000" stroke="#000000" points="153.63,-128.4 150.13,-118.4 146.63,-128.4 153.63,-128.4"/>
</g>
<!-- FREE -->
<g id="node2" class="node">
<title>FREE</title>
<polygon fill="#33cc33" stroke="black" points="1026.32,-163.54 1026.32,-178.46 1005.12,-189 975.13,-189 953.93,-178.46 953.93,-163.54 975.13,-153 1005.12,-153 1026.32,-163.54"/>
<text xml:space="preserve" text-anchor="middle" x="990.12" y="-165.95" font-family="Times,serif" font-size="14.00">FREE</text>
</g>
<!-- element8 -->
<g id="node11" class="node">
<title>element8</title>
<path fill="#33cc33" stroke="black" d="M958.12,-18.5C958.12,-18.5 1022.12,-18.5 1022.12,-18.5 1028.12,-18.5 1034.12,-24.5 1034.12,-30.5 1034.12,-30.5 1034.12,-104.5 1034.12,-104.5 1034.12,-110.5 1028.12,-116.5 1022.12,-116.5 1022.12,-116.5 958.12,-116.5 958.12,-116.5 952.12,-116.5 946.12,-110.5 946.12,-104.5 946.12,-104.5 946.12,-30.5 946.12,-30.5 946.12,-24.5 952.12,-18.5 958.12,-18.5"/>
<text xml:space="preserve" text-anchor="middle" x="990.12" y="-99.2" font-family="Times,serif" font-size="14.00">idx = [8]</text>
<polyline fill="none" stroke="black" points="946.12,-92 1034.12,-92"/>
<text xml:space="preserve" text-anchor="middle" x="990.12" y="-74.7" font-family="Times,serif" font-size="14.00">data = [&#45;666]</text>
<polyline fill="none" stroke="black" points="946.12,-67.5 1034.12,-67.5"/>
<text xml:space="preserve" text-anchor="middle" x="990.12" y="-50.2" font-family="Times,serif" font-size="14.00">prev = [&#45;1]</text>
<polyline fill="none" stroke="black" points="946.12,-43 1034.12,-43"/>
<text xml:space="preserve" text-anchor="middle" x="990.12" y="-25.7" font-family="Times,serif" font-size="14.00">next = [5]</text>
</g>
<!-- FREE&#45;&gt;element8 -->
<g id="edge22" class="edge">
<title>FREE&#45;&gt;element8</title>
<path fill="none" stroke="#000000" d="M990.12,-152.97C990.12,-152.97 990.12,-128.4 990.12,-128.4"/>
<polygon fill="#000000" stroke="#000000" points="993.63,-128.4 990.13,-118.4 986.63,-128.4 993.63,-128.4"/>
</g>
<!-- element0 -->
<g id="node3" class="node">
<title>element0</title>
<path fill="#ebebe0" stroke="black" d="M12,-18.5C12,-18.5 66.25,-18.5 66.25,-18.5 72.25,-18.5 78.25,-24.5 78.25,-30.5 78.25,-30.5 78.25,-104.5 78.25,-104.5 78.25,-110.5 72.25,-116.5 66.25,-116.5 66.25,-116.5 12,-116.5 12,-116.5 6,-116.5 0,-110.5 0,-104.5 0,-104.5 0,-30.5 0,-30.5 0,-24.5 6,-18.5 12,-18.5"/>
<text xml:space="preserve" text-anchor="middle" x="39.12" y="-99.2" font-family="Times,serif" font-size="14.00">idx = [0]</text>
<polyline fill="none" stroke="black" points="0,-92 78.25,-92"/>
<text xml:space="preserve" text-anchor="middle" x="39.12" y="-74.7" font-family="Times,serif" font-size="14.00">data = [0]</text>
<polyline fill="none" stroke="black" points="0,-67.5 78.25,-67.5"/>
<text xml:space="preserve" text-anchor="middle" x="39.12" y="-50.2" font-family="Times,serif" font-size="14.00">prev = [10]</text>
<polyline fill="none" stroke="black" points="0,-43 78.25,-43"/>
<text xml:space="preserve" text-anchor="middle" x="39.12" y="-25.7" font-family="Times,serif" font-size="14.00">next = [1]</text>
</g>
<!-- element0&#45;&gt;element1 -->
<g id="edge1" class="edge">
<title>element0&#45;&gt;element1</title>
<path fill="none" stroke="none" d="M78.57,-84C78.57,-84 102.62,-84 102.62,-84"/>
<polygon fill="none" stroke="none" points="102.62,-87.5 112.62,-84 102.62,-80.5 102.62,-87.5"/>
</g>
<!-- element0&#45;&gt;element1 -->
<g id="edge11" class="edge">
<title>element0&#45;&gt;element1</title>
<path fill="none" stroke="#000000" d="M90.09,-51C90.09,-51 102.62,-51 102.62,-51"/>
<polygon fill="#000000" stroke="#000000" points="90.09,-47.5 80.09,-51 90.09,-54.5 90.09,-47.5"/>
<polygon fill="#000000" stroke="#000000" points="102.62,-54.5 112.62,-51 102.62,-47.5 102.62,-54.5"/>
</g>
<!-- element2 -->
<g id="node5" class="node">
<title>element2</title>
<path fill="#66ccff" stroke="black" d="M234.38,-18.5C234.38,-18.5 293.88,-18.5 293.88,-18.5 299.88,-18.5 305.88,-24.5 305.88,-30.5 305.88,-30.5 305.88,-104.5 305.88,-104.5 305.88,-110.5 299.88,-116.5 293.88,-116.5 293.88,-116.5 234.38,-116.5 234.38,-116.5 228.38,-116.5 222.38,-110.5 222.38,-104.5 222.38,-104.5 222.38,-30.5 222.38,-30.5 222.38,-24.5 228.38,-18.5 234.38,-18.5"/>
<text xml:space="preserve" text-anchor="middle" x="264.12" y="-99.2" font-family="Times,serif" font-size="14.00">idx = [2]</text>
<polyline fill="none" stroke="black" points="222.38,-92 305.88,-92"/>
<text xml:space="preserve" text-anchor="middle" x="264.12" y="-74.7" font-family="Times,serif" font-size="14.00">data = [101]</text>
<polyline fill="none" stroke="black" points="222.38,-67.5 305.88,-67.5"/>
<text xml:space="preserve" text-anchor="middle" x="264.12" y="-50.2" font-family="Times,serif" font-size="14.00">prev = [1]</text>
<polyline fill="none" stroke="black" points="222.38,-43 305.88,-43"/>
<text xml:space="preserve" text-anchor="middle" x="264.12" y="-25.7" font-family="Times,serif" font-size="14.00">next = [3]</text>
</g>
<!-- element1&#45;&gt;element2 -->
<g id="edge2" class="edge">
<title>element1&#45;&gt;element2</title>
<path fill="none" stroke="none" d="M186.2,-84C186.2,-84 210.41,-84 210.41,-84"/>
<polygon fill="none" stroke="none" points="210.41,-87.5 220.41,-84 210.4,-80.5 210.41,-87.5"/>
</g>
<!-- element1&#45;&gt;element2 -->
<g id="edge12" class="edge">
<title>element1&#45;&gt;element2</title>
<path fill="none" stroke="#000000" d="M197.71,-51C197.71,-51 210.41,-51 210.41,-51"/>
<polygon fill="#000000" stroke="#000000" points="197.71,-47.5 187.71,-51 197.71,-54.5 197.71,-47.5"/>
<polygon fill="#000000" stroke="#000000" points="210.41,-54.5 220.41,-51 210.4,-47.5 210.41,-54.5"/>
</g>
<!-- element3 -->
<g id="node6" class="node">
<title>element3</title>
<path fill="#66ccff" stroke="black" d="M354.38,-18.5C354.38,-18.5 413.88,-18.5 413.88,-18.5 419.88,-18.5 425.88,-24.5 425.88,-30.5 425.88,-30.5 425.88,-104.5 425.88,-104.5 425.88,-110.5 419.88,-116.5 413.88,-116.5 413.88,-116.5 354.38,-116.5 354.38,-116.5 348.38,-116.5 342.38,-110.5 342.38,-104.5 342.38,-104.5 342.38,-30.5 342.38,-30.5 342.38,-24.5 348.38,-18.5 354.38,-18.5"/>
<text xml:space="preserve" text-anchor="middle" x="384.12" y="-99.2" font-family="Times,serif" font-size="14.00">idx = [3]</text>
<polyline fill="none" stroke="black" points="342.38,-92 425.88,-92"/>
<text xml:space="preserve" text-anchor="middle" x="384.12" y="-74.7" font-family="Times,serif" font-size="14.00">data = [202]</text>
<polyline fill="none" stroke="black" points="342.38,-67.5 425.88,-67.5"/>
<text xml:space="preserve" text-anchor="middle" x="384.12" y="-50.2" font-family="Times,serif" font-size="14.00">prev = [2]</text>
<polyline fill="none" stroke="black" points="342.38,-43 425.88,-43"/>
<text xml:space="preserve" text-anchor="middle" x="384.12" y="-25.7" font-family="Times,serif" font-size="14.00">next = [4]</text>
</g>
<!-- element2&#45;&gt;element3 -->
<g id="edge3" class="edge">
<title>element2&#45;&gt;element3</title>
<path fill="none" stroke="none" d="M306.1,-84C306.1,-84 330.46,-84 330.46,-84"/>
<polygon fill="none" stroke="none" points="330.46,-87.5 340.46,-84 330.46,-80.5 330.46,-87.5"/>
</g>
<!-- element2&#45;&gt;element3 -->
<g id="edge13" class="edge">
<title>element2&#45;&gt;element3</title>
<path fill="none" stroke="#000000" d="M317.61,-51C317.61,-51 330.46,-51 330.46,-51"/>
<polygon fill="#000000" stroke="#000000" points="317.61,-47.5 307.61,-51 317.61,-54.5 317.61,-47.5"/>
<polygon fill="#000000" stroke="#000000" points="330.46,-54.5 340.46,-51 330.46,-47.5 330.46,-54.5"/>
</g>
<!-- element4 -->
<g id="node7" class="node">
<title>element4</title>
<path fill="#66ccff" stroke="black" d="M474.38,-18.5C474.38,-18.5 533.88,-18.5 533.88,-18.5 539.88,-18.5 545.88,-24.5 545.88,-30.5 545.88,-30.5 545.88,-104.5 545.88,-104.5 545.88,-110.5 539.88,-116.5 533.88,-116.5 533.88,-116.5 474.38,-116.5 474.38,-116.5 468.38,-116.5 462.38,-110.5 462.38,-104.5 462.38,-104.5 462.38,-30.5 462.38,-30.5 462.38,-24.5 468.38,-18.5 474.38,-18.5"/>
<text xml:space="preserve" text-anchor="middle" x="504.12" y="-99.2" font-family="Times,serif" font-size="14.00">idx = [4]</text>
<polyline fill="none" stroke="black" points="462.38,-92 545.88,-92"/>
<text xml:space="preserve" text-anchor="middle" x="504.12" y="-74.7" font-family="Times,serif" font-size="14.00">data = [303]</text>
<polyline fill="none" stroke="black" points="462.38,-67.5 545.88,-67.5"/>
<text xml:space="preserve" text-anchor="middle" x="504.12" y="-50.2" font-family="Times,serif" font-size="14.00">prev = [3]</text>
<polyline fill="none" stroke="black" points="462.38,-43 545.88,-43"/>
<text xml:space="preserve" text-anchor="middle" x="504.12" y="-25.7" font-family="Times,serif" font-size="14.00">next = [6]</text>
</g>
<!-- element3&#45;&gt;element4 -->
<g id="edge4" class="edge">
<title>element3&#45;&gt;element4</title>
<path fill="none" stroke="none" d="M426.1,-84C426.1,-84 450.46,-84 450.46,-84"/>
<polygon fill="none" stroke="none" points="450.46,-87.5 460.46,-84 450.46,-80.5 450.46,-87.5"/>
</g>
<!-- element3&#45;&gt;element4 -->
<g id="edge14" class="edge">
<title>element3&#45;&gt;element4</title>
<path fill="none" stroke="#000000" d="M437.61,-51C437.61,-51 450.46,-51 450.46,-51"/>
<polygon fill="#000000" stroke="#000000" points="437.61,-47.5 427.61,-51 437.61,-54.5 437.61,-47.5"/>
<polygon fill="#000000" stroke="#000000" points="450.46,-54.5 460.46,-51 450.46,-47.5 450.46,-54.5"/>
</g>
<!-- element5 -->
<g id="node8" class="node">
<title>element5</title>
<path fill="#99ff66" stroke="black" d="M594.12,-18.5C594.12,-18.5 658.12,-18.5 658.12,-18.5 664.12,-18.5 670.12,-24.5 670.12,-30.5 670.12,-30.5 670.12,-104.5 670.12,-104.5 670.12,-110.5 664.12,-116.5 658.12,-116.5 658.12,-116.5 594.12,-116.5 594.12,-116.5 588.12,-116.5 582.12,-110.5 582.12,-104.5 582.12,-104.5 582.12,-30.5 582.12,-30.5 582.12,-24.5 588.12,-18.5 594.12,-18.5"/>
<text xml:space="preserve" text-anchor="middle" x="626.12" y="-99.2" font-family="Times,serif" font-size="14.00">idx = [5]</text>
<polyline fill="none" stroke="black" points="582.12,-92 670.12,-92"/>
<text xml:space="preserve" text-anchor="middle" x="626.12" y="-74.7" font-family="Times,serif" font-size="14.00">data = [&#45;666]</text>
<polyline fill="none" stroke="black" points="582.12,-67.5 670.12,-67.5"/>
<text xml:space="preserve" text-anchor="middle" x="626.12" y="-50.2" font-family="Times,serif" font-size="14.00">prev = [&#45;1]</text>
<polyline fill="none" stroke="black" points="582.12,-43 670.12,-43"/>
<text xml:space="preserve" text-anchor="middle" x="626.12" y="-25.7" font-family="Times,serif" font-size="14.00">next = [0]</text>
</g>
<!-- element4&#45;&gt;element5 -->
<g id="edge5" class="edge">
<title>element4&#45;&gt;element5</title>
<path fill="none" stroke="none" d="M546.11,-68C546.11,-68 570.47,-68 570.47,-68"/>
<polygon fill="none" stroke="none" points="570.47,-71.5 580.47,-68 570.47,-64.5 570.47,-71.5"/>
</g>
<!-- element6 -->
<g id="node9" class="node">
<title>element6</title>
<path fill="#66ccff" stroke="black" d="M718.38,-18.5C718.38,-18.5 777.88,-18.5 777.88,-18.5 783.88,-18.5 789.88,-24.5 789.88,-30.5 789.88,-30.5 789.88,-104.5 789.88,-104.5 789.88,-110.5 783.88,-116.5 777.88,-116.5 777.88,-116.5 718.38,-116.5 718.38,-116.5 712.38,-116.5 706.38,-110.5 706.38,-104.5 706.38,-104.5 706.38,-30.5 706.38,-30.5 706.38,-24.5 712.38,-18.5 718.38,-18.5"/>
<text xml:space="preserve" text-anchor="middle" x="748.12" y="-99.2" font-family="Times,serif" font-size="14.00">idx = [6]</text>
<polyline fill="none" stroke="black" points="706.38,-92 789.88,-92"/>
<text xml:space="preserve" text-anchor="middle" x="748.12" y="-74.7" font-family="Times,serif" font-size="14.00">data = [505]</text>
<polyline fill="none" stroke="black" points="706.38,-67.5 789.88,-67.5"/>
<text xml:space="preserve" text-anchor="middle" x="748.12" y="-50.2" font-family="Times,serif" font-size="14.00">prev = [4]</text>
<polyline fill="none" stroke="black" points="706.38,-43 789.88,-43"/>
<text xml:space="preserve" text-anchor="middle" x="748.12" y="-25.7" font-family="Times,serif" font-size="14.00">next = [7]</text>
</g>
<!-- element4&#45;&gt;element6 -->
<g id="edge15" class="edge">
<title>element4&#45;&gt;element6</title>
<path fill="none" stroke="#000000" d="M504.12,-6.58C504.12,-6.58 504.12,0 504.12,0 504.12,0 748.12,0 748.12,0 748.12,0 748.12,-6.58 748.12,-6.58"/>
<polygon fill="#000000" stroke="#000000" points="500.63,-6.58 504.13,-16.58 507.63,-6.58 500.63,-6.58"/>
<polygon fill="#000000" stroke="#000000" points="744.63,-6.58 748.13,-16.58 751.63,-6.58 744.63,-6.58"/>
</g>
<!-- element5&#45;&gt;element0 -->
<g id="edge16" class="edge">
<title>element5&#45;&gt;element0</title>
<path fill="none" stroke="green" d="M611.46,-116.81C611.46,-131.62 611.46,-144 611.46,-144 611.46,-144 39.12,-144 39.12,-144 39.12,-144 39.12,-128.33 39.12,-128.33"/>
<polygon fill="green" stroke="green" points="42.63,-128.33 39.13,-118.33 35.63,-128.33 42.63,-128.33"/>
</g>
<!-- element5&#45;&gt;element6 -->
<g id="edge6" class="edge">
<title>element5&#45;&gt;element6</title>
<path fill="none" stroke="none" d="M670.51,-68C670.51,-68 694.49,-68 694.49,-68"/>
<polygon fill="none" stroke="none" points="694.49,-71.5 704.49,-68 694.49,-64.5 694.49,-71.5"/>
</g>
<!-- element7 -->
<g id="node10" class="node">
<title>element7</title>
<path fill="#66ccff" stroke="black" d="M838.38,-18.5C838.38,-18.5 897.88,-18.5 897.88,-18.5 903.88,-18.5 909.88,-24.5 909.88,-30.5 909.88,-30.5 909.88,-104.5 909.88,-104.5 909.88,-110.5 903.88,-116.5 897.88,-116.5 897.88,-116.5 838.38,-116.5 838.38,-116.5 832.38,-116.5 826.38,-110.5 826.38,-104.5 826.38,-104.5 826.38,-30.5 826.38,-30.5 826.38,-24.5 832.38,-18.5 838.38,-18.5"/>
<text xml:space="preserve" text-anchor="middle" x="868.12" y="-99.2" font-family="Times,serif" font-size="14.00">idx = [7]</text>
<polyline fill="none" stroke="black" points="826.38,-92 909.88,-92"/>
<text xml:space="preserve" text-anchor="middle" x="868.12" y="-74.7" font-family="Times,serif" font-size="14.00">data = [606]</text>
<polyline fill="none" stroke="black" points="826.38,-67.5 909.88,-67.5"/>
<text xml:space="preserve" text-anchor="middle" x="868.12" y="-50.2" font-family="Times,serif" font-size="14.00">prev = [6]</text>
<polyline fill="none" stroke="black" points="826.38,-43 909.88,-43"/>
<text xml:space="preserve" text-anchor="middle" x="868.12" y="-25.7" font-family="Times,serif" font-size="14.00">next = [9]</text>
</g>
<!-- element6&#45;&gt;element7 -->
<g id="edge7" class="edge">
<title>element6&#45;&gt;element7</title>
<path fill="none" stroke="none" d="M790.1,-84C790.1,-84 814.46,-84 814.46,-84"/>
<polygon fill="none" stroke="none" points="814.46,-87.5 824.46,-84 814.46,-80.5 814.46,-87.5"/>
</g>
<!-- element6&#45;&gt;element7 -->
<g id="edge17" class="edge">
<title>element6&#45;&gt;element7</title>
<path fill="none" stroke="#000000" d="M801.61,-51C801.61,-51 814.46,-51 814.46,-51"/>
<polygon fill="#000000" stroke="#000000" points="801.61,-47.5 791.61,-51 801.61,-54.5 801.61,-47.5"/>
<polygon fill="#000000" stroke="#000000" points="814.46,-54.5 824.46,-51 814.46,-47.5 814.46,-54.5"/>
</g>
<!-- element7&#45;&gt;element8 -->
<g id="edge8" class="edge">
<title>element7&#45;&gt;element8</title>
<path fill="none" stroke="none" d="M910.11,-68C910.11,-68 934.47,-68 934.47,-68"/>
<polygon fill="none" stroke="none" points="934.47,-71.5 944.47,-68 934.47,-64.5 934.47,-71.5"/>
</g>
<!-- element9 -->
<g id="node12" class="node">
<title>element9</title>
<path fill="#66ccff" stroke="black" d="M1082.38,-18.5C1082.38,-18.5 1141.88,-18.5 1141.88,-18.5 1147.88,-18.5 1153.88,-24.5 1153.88,-30.5 1153.88,-30.5 1153.88,-104.5 1153.88,-104.5 1153.88,-110.5 1147.88,-116.5 1141.88,-116.5 1141.88,-116.5 1082.38,-116.5 1082.38,-116.5 1076.38,-116.5 1070.38,-110.5 1070.38,-104.5 1070.38,-104.5 1070.38,-30.5 1070.38,-30.5 1070.38,-24.5 1076.38,-18.5 1082.38,-18.5"/>
<text xml:space="preserve" text-anchor="middle" x="1112.12" y="-99.2" font-family="Times,serif" font-size="14.00">idx = [9]</text>
<polyline fill="none" stroke="black" points="1070.38,-92 1153.88,-92"/>
<text xml:space="preserve" text-anchor="middle" x="1112.12" y="-74.7" font-family="Times,serif" font-size="14.00">data = [808]</text>
<polyline fill="none" stroke="black" points="1070.38,-67.5 1153.88,-67.5"/>
<text xml:space="preserve" text-anchor="middle" x="1112.12" y="-50.2" font-family="Times,serif" font-size="14.00">prev = [7]</text>
<polyline fill="none" stroke="black" points="1070.38,-43 1153.88,-43"/>
<text xml:space="preserve" text-anchor="middle" x="1112.12" y="-25.7" font-family="Times,serif" font-size="14.00">next = [10]</text>
</g>
<!-- element7&#45;&gt;element9 -->
<g id="edge18" class="edge">
<title>element7&#45;&gt;element9</title>
<path fill="none" stroke="#000000" d="M868.12,-125.09C868.12,-125.09 868.12,-126 868.12,-126 868.12,-126 1112.12,-126 1112.12,-126 1112.12,-126 1112.12,-125.09 1112.12,-125.09"/>
<polygon fill="#000000" stroke="#000000" points="871.63,-128.37 868.13,-118.37 864.63,-128.37 871.63,-128.37"/>
<polygon fill="#000000" stroke="#000000" points="1115.63,-128.37 1112.13,-118.37 1108.63,-128.37 1115.63,-128.37"/>
</g>
<!-- element8&#45;&gt;element5 -->
<g id="edge19" class="edge">
<title>element8&#45;&gt;element5</title>
<path fill="none" stroke="green" d="M950.03,-116.91C950.03,-127.2 950.03,-135 950.03,-135 950.03,-135 640.79,-135 640.79,-135 640.79,-135 640.79,-128.42 640.79,-128.42"/>
<polygon fill="green" stroke="green" points="644.29,-128.42 640.79,-118.42 637.29,-128.42 644.29,-128.42"/>
</g>
<!-- element8&#45;&gt;element9 -->
<g id="edge9" class="edge">
<title>element8&#45;&gt;element9</title>
<path fill="none" stroke="none" d="M1034.51,-68C1034.51,-68 1058.49,-68 1058.49,-68"/>
<polygon fill="none" stroke="none" points="1058.49,-71.5 1068.49,-68 1058.49,-64.5 1058.49,-71.5"/>
</g>
<!-- element10 -->
<g id="node13" class="node">
<title>element10</title>
<path fill="#66ccff" stroke="black" d="M1202.38,-18.5C1202.38,-18.5 1261.88,-18.5 1261.88,-18.5 1267.88,-18.5 1273.88,-24.5 1273.88,-30.5 1273.88,-30.5 1273.88,-104.5 1273.88,-104.5 1273.88,-110.5 1267.88,-116.5 1261.88,-116.5 1261.88,-116.5 1202.38,-116.5 1202.38,-116.5 1196.38,-116.5 1190.38,-110.5 1190.38,-104.5 1190.38,-104.5 1190.38,-30.5 1190.38,-30.5 1190.38,-24.5 1196.38,-18.5 1202.38,-18.5"/>
<text xml:space="preserve" text-anchor="middle" x="1232.12" y="-99.2" font-family="Times,serif" font-size="14.00">idx = [10]</text>
<polyline fill="none" stroke="black" points="1190.38,-92 1273.88,-92"/>
<text xml:space="preserve" text-anchor="middle" x="1232.12" y="-74.7" font-family="Times,serif" font-size="14.00">data = [909]</text>
<polyline fill="none" stroke="black" points="1190.38,-67.5 1273.88,-67.5"/>
<text xml:space="preserve" text-anchor="middle" x="1232.12" y="-50.2" font-family="Times,serif" font-size="14.00">prev = [9]</text>
<polyline fill="none" stroke="black" points="1190.38,-43 1273.88,-43"/>
<text xml:space="preserve" text-anchor="middle" x="1232.12" y="-25.7" font-family="Times,serif" font-size="14.00">next = [0]</text>
</g>
<!-- element9&#45;&gt;element10 -->
<g id="edge10" class="edge">
<title>element9&#45;&gt;element10</title>
<path fill="none" stroke="none" d="M1154.1,-84C1154.1,-84 1178.46,-84 1178.46,-84"/>
<polygon fill="none" stroke="none" points="1178.46,-87.5 1188.46,-84 1178.46,-80.5 1178.46,-87.5"/>
</g>
<!-- element9&#45;&gt;element10 -->
<g id="edge20" class="edge">
<title>element9&#45;&gt;element10</title>
<path fill="none" stroke="#000000" d="M1165.61,-51C1165.61,-51 1178.46,-51 1178.46,-51"/>
<polygon fill="#000000" stroke="#000000" points="1165.61,-47.5 1155.61,-51 1165.61,-54.5 1165.61,-47.5"/>
<polygon fill="#000000" stroke="#000000" points="1178.46,-54.5 1188.46,-51 1178.46,-47.5 1178.46,-54.5"/>
</g>
</g>
</svg>
