<?xml version="1.0" encoding="UTF-8" standalone="no"?>
<!DOCTYPE svg PUBLIC "-//W3C//DTD SVG 1.1//EN"
 "http://www.w3.org/Graphics/SVG/1.1/DTD/svg11.dtd">
<!-- Generated by graphviz version 13.1.1 (20250719.2154)
 -->
<!-- Title: G Pages: 1 -->
<svg width="1282pt" height="251pt"
 viewBox="0.00 0.00 1282.00 251.00" xmlns="http://www.w3.org/2000/svg" xmlns:xlink="http://www.w3.org/1999/xlink">
<g id="graph0" class="graph" transform="scale(1 1) rotate(0) translate(4 247)">
<title>G</title>
<polygon fill="white" stroke="none" points="-4,4 -4,-247 1277.88,-247 1277.88,4 -4,4"/>
<!-- HEAD -->
<g id="node1" class="node">
<title>HEAD</title>
<polygon fill="#cc99ff" stroke="black" points="189.64,-217.54 189.64,-232.46 166.49,-243 133.76,-243 110.61,-232.46 110.61,-217.54 133.76,-207 166.49,-207 189.64,-217.54"/>
<text xml:space="preserve" text-anchor="middle" x="150.12" y="-219.95" font-family="Times,serif" font-size="14.00">HEAD</text>
</g>
<!-- element1 -->
<g id="node4" class="node">
<title>element1</title>
<path fill="#cc99ff" stroke="black" d="M126.38,-72.5C126.38,-72.5 173.88,-72.5 173.88,-72.5 179.88,-72.5 185.88,-78.5 185.88,-84.5 185.88,-84.5 185.88,-158.5 185.88,-158.5 185.88,-164.5 179.88,-170.5 173.88,-170.5 173.88,-170.5 126.38,-170.5 126.38,-170.5 120.38,-170.5 114.38,-164.5 114.38,-158.5 114.38,-158.5 114.38,-84.5 114.38,-84.5 114.38,-78.5 120.38,-72.5 126.38,-72.5"/>
<text xml:space="preserve" text-anchor="middle" x="150.12" y="-153.2" font-family="Times,serif" font-size="14.00">idx = [1]</text>
<polyline fill="none" stroke="black" points="114.38,-146 185.88,-146"/>
<text xml:space="preserve" text-anchor="middle" x="150.12" y="-128.7" font-family="Times,serif" font-size="14.00">data = [0]</text>
<polyline fill="none" stroke="black" points="114.38,-121.5 185.88,-121.5"/>
<text xml:space="preserve" text-anchor="middle" x="150.12" y="-104.2" font-family="Times,serif" font-size="14.00">prev = [0]</text>
<polyline fill="none" stroke="black" points="114.38,-97 185.88,-97"/>
<text xml:space="preserve" text-anchor="middle" x="150.12" y="-79.7" font-family="Times,serif" font-size="14.00">next = [2]</text>
</g>
<!-- HEAD&#45;&gt;element1 -->
<g id="edge23" class="edge">
<title>HEAD&#45;&gt;element1</title>
<path fill="none" stroke="#000000" d="M150.12,-206.97C150.12,-206.97 150.12,-182.4 150.12,-182.4"/>
<polygon fill="#000000" stroke="#000000" points="153.63,-182.4 150.13,-172.4 146.63,-182.4 153.63,-182.4"/>
</g>
<!-- FREE -->
<g id="node2" class="node">
<title>FREE</title>
<polygon fill="#33cc33" stroke="black" points="1026.32,-217.54 1026.32,-232.46 1005.12,-243 975.13,-243 953.93,-232.46 953.93,-217.54 975.13,-207 1005.12,-207 1026.32,-217.54"/>
<text xml:space="preserve" text-anchor="middle" x="990.12" y="-219.95" font-family="Times,serif" font-size="14.00">FREE</text>
</g>
<!-- element8 -->
<g id="node11" class="node">
<title>element8</title>
<path fill="#33cc33" stroke="black" d="M958.12,-72.5C958.12,-72.5 1022.12,-72.5 1022.12,-72.5 1028.12,-72.5 1034.12,-78.5 1034.12,-84.5 1034.12,-84.5 1034.12,-158.5 1034.12,-158.5 1034.12,-164.5 1028.12,-170.5 1022.12,-170.5 1022.12,-170.5 958.12,-170.5 958.12,-170.5 952.12,-170.5 946.12,-164.5 946.12,-158.5 946.12,-158.5 946.12,-84.5 946.12,-84.5 946.12,-78.5 952.12,-72.5 958.12,-72.5"/>
<text xml:space="preserve" text-anchor="middle" x="990.12" y="-153.2" font-family="Times,serif" font-size="14.00">idx = [8]</text>
<polyline fill="none" stroke="black" points="946.12,-146 1034.12,-146"/>
<text xml:space="preserve" text-anchor="middle" x="990.12" y="-128.7" font-family="Times,serif" font-size="14.00">data = [&#45;666]</text>
<polyline fill="none" stroke="black" points="946.12,-121.5 1034.12,-121.5"/>
<text xml:space="preserve" text-anchor="middle" x="990.12" y="-104.2" font-family="Times,serif" font-size="14.00">prev = [&#45;1]</text>
<polyline fill="none" stroke="black" points="946.12,-97 1034.12,-97"/>
<text xml:space="preserve" text-anchor="middle" x="990.12" y="-79.7" font-family="Times,serif" font-size="14.00">next = [5]</text>
</g>
<!-- FREE&#45;&gt;element8 -->
<g id="edge24" class="edge">
<title>FREE&#45;&gt;element8</title>
<path fill="none" stroke="#000000" d="M990.12,-206.97C990.12,-206.97 990.12,-182.4 990.12,-182.4"/>
<polygon fill="#000000" stroke="#000000" points="993.63,-182.4 990.13,-172.4 986.63,-182.4 993.63,-182.4"/>
</g>
<!-- element0 -->
<g id="node3" class="node">
<title>element0</title>
<path fill="#ebebe0" stroke="black" d="M12,-72.5C12,-72.5 66.25,-72.5 66.25,-72.5 72.25,-72.5 78.25,-78.5 78.25,-84.5 78.25,-84.5 78.25,-158.5 78.25,-158.5 78.25,-164.5 72.25,-170.5 66.25,-170.5 66.25,-170.5 12,-170.5 12,-170.5 6,-170.5 0,-164.5 0,-158.5 0,-158.5 0,-84.5 0,-84.5 0,-78.5 6,-72.5 12,-72.5"/>
<text xml:space="preserve" text-anchor="middle" x="39.12" y="-153.2" font-family="Times,serif" font-size="14.00">idx = [0]</text>
<polyline fill="none" stroke="black" points="0,-146 78.25,-146"/>
<text xml:space="preserve" text-anchor="middle" x="39.12" y="-128.7" font-family="Times,serif" font-size="14.00">data = [0]</text>
<polyline fill="none" stroke="black" points="0,-121.5 78.25,-121.5"/>
<text xml:space="preserve" text-anchor="middle" x="39.12" y="-104.2" font-family="Times,serif" font-size="14.00">prev = [10]</text>
<polyline fill="none" stroke="black" points="0,-97 78.25,-97"/>
<text xml:space="preserve" text-anchor="middle" x="39.12" y="-79.7" font-family="Times,serif" font-size="14.00">next = [1]</text>
</g>
<!-- element0&#45;&gt;element1 -->
<g id="edge1" class="edge">
<title>element0&#45;&gt;element1</title>
<path fill="none" stroke="none" d="M78.57,-138C78.57,-138 102.62,-138 102.62,-138"/>
<polygon fill="none" stroke="none" points="102.62,-141.5 112.62,-138 102.62,-134.5 102.62,-141.5"/>
</g>
<!-- element0&#45;&gt;element1 -->
<g id="edge11" class="edge">
<title>element0&#45;&gt;element1</title>
<path fill="none" stroke="#000000" d="M90.09,-105C90.09,-105 102.62,-105 102.62,-105"/>
<polygon fill="#000000" stroke="#000000" points="90.09,-101.5 80.09,-105 90.09,-108.5 90.09,-101.5"/>
<polygon fill="#000000" stroke="#000000" points="102.62,-108.5 112.62,-105 102.62,-101.5 102.62,-108.5"/>
</g>
<!-- element2 -->
<g id="node5" class="node">
<title>element2</title>
<path fill="#66ccff" stroke="black" d="M234.38,-72.5C234.38,-72.5 293.88,-72.5 293.88,-72.5 299.88,-72.5 305.88,-78.5 305.88,-84.5 305.88,-84.5 305.88,-158.5 305.88,-158.5 305.88,-164.5 299.88,-170.5 293.88,-170.5 293.88,-170.5 234.38,-170.5 234.38,-170.5 228.38,-170.5 222.38,-164.5 222.38,-158.5 222.38,-158.5 222.38,-84.5 222.38,-84.5 222.38,-78.5 228.38,-72.5 234.38,-72.5"/>
<text xml:space="preserve" text-anchor="middle" x="264.12" y="-153.2" font-family="Times,serif" font-size="14.00">idx = [2]</text>
<polyline fill="none" stroke="black" points="222.38,-146 305.88,-146"/>
<text xml:space="preserve" text-anchor="middle" x="264.12" y="-128.7" font-family="Times,serif" font-size="14.00">data = [101]</text>
<polyline fill="none" stroke="black" points="222.38,-121.5 305.88,-121.5"/>
<text xml:space="preserve" text-anchor="middle" x="264.12" y="-104.2" font-family="Times,serif" font-size="14.00">prev = [1]</text>
<polyline fill="none" stroke="black" points="222.38,-97 305.88,-97"/>
<text xml:space="preserve" text-anchor="middle" x="264.12" y="-79.7" font-family="Times,serif" font-size="14.00">next = [3]</text>
</g>
<!-- element1&#45;&gt;element2 -->
<g id="edge2" class="edge">
<title>element1&#45;&gt;element2</title>
<path fill="none" stroke="none" d="M186.2,-138C186.2,-138 210.41,-138 210.41,-138"/>
<polygon fill="none" stroke="none" points="210.41,-141.5 220.41,-138 210.4,-134.5 210.41,-141.5"/>
</g>
<!-- element1&#45;&gt;element2 -->
<g id="edge12" class="edge">
<title>element1&#45;&gt;element2</title>
<path fill="none" stroke="#000000" d="M197.71,-105C197.71,-105 210.41,-105 210.41,-105"/>
<polygon fill="#000000" stroke="#000000" points="197.71,-101.5 187.71,-105 197.71,-108.5 197.71,-101.5"/>
<polygon fill="#000000" stroke="#000000" points="210.41,-108.5 220.41,-105 210.4,-101.5 210.41,-108.5"/>
</g>
<!-- element3 -->
<g id="node6" class="node">
<title>element3</title>
<path fill="#66ccff" stroke="black" d="M353.62,-72.5C353.62,-72.5 414.62,-72.5 414.62,-72.5 420.62,-72.5 426.62,-78.5 426.62,-84.5 426.62,-84.5 426.62,-158.5 426.62,-158.5 426.62,-164.5 420.62,-170.5 414.62,-170.5 414.62,-170.5 353.62,-170.5 353.62,-170.5 347.62,-170.5 341.62,-164.5 341.62,-158.5 341.62,-158.5 341.62,-84.5 341.62,-84.5 341.62,-78.5 347.62,-72.5 353.62,-72.5"/>
<text xml:space="preserve" text-anchor="middle" x="384.12" y="-153.2" font-family="Times,serif" font-size="14.00">idx = [3]</text>
<polyline fill="none" stroke="black" points="341.62,-146 426.62,-146"/>
<text xml:space="preserve" text-anchor="middle" x="384.12" y="-128.7" font-family="Times,serif" font-size="14.00">data = [202]</text>
<polyline fill="none" stroke="black" points="341.62,-121.5 426.62,-121.5"/>
<text xml:space="preserve" text-anchor="middle" x="384.12" y="-104.2" font-family="Times,serif" font-size="14.00">prev = [666]</text>
<polyline fill="none" stroke="black" points="341.62,-97 426.62,-97"/>
<text xml:space="preserve" text-anchor="middle" x="384.12" y="-79.7" font-family="Times,serif" font-size="14.00">next = [4]</text>
</g>
<!-- element2&#45;&gt;element3 -->
<g id="edge3" class="edge">
<title>element2&#45;&gt;element3</title>
<path fill="none" stroke="none" d="M306.1,-138C306.1,-138 329.65,-138 329.65,-138"/>
<polygon fill="none" stroke="none" points="329.65,-141.5 339.65,-138 329.65,-134.5 329.65,-141.5"/>
</g>
<!-- element2&#45;&gt;element3 -->
<g id="edge13" class="edge">
<title>element2&#45;&gt;element3</title>
<path fill="none" stroke="blue" stroke-width="2" d="M306.1,-105C306.1,-105 329.65,-105 329.65,-105"/>
<polygon fill="blue" stroke="blue" stroke-width="2" points="328.14,-108.5 338.14,-105 328.14,-101.5 328.14,-108.5"/>
</g>
<!-- element4 -->
<g id="node7" class="node">
<title>element4</title>
<path fill="#66ccff" stroke="black" d="M474.38,-72.5C474.38,-72.5 533.88,-72.5 533.88,-72.5 539.88,-72.5 545.88,-78.5 545.88,-84.5 545.88,-84.5 545.88,-158.5 545.88,-158.5 545.88,-164.5 539.88,-170.5 533.88,-170.5 533.88,-170.5 474.38,-170.5 474.38,-170.5 468.38,-170.5 462.38,-164.5 462.38,-158.5 462.38,-158.5 462.38,-84.5 462.38,-84.5 462.38,-78.5 468.38,-72.5 474.38,-72.5"/>
<text xml:space="preserve" text-anchor="middle" x="504.12" y="-153.2" font-family="Times,serif" font-size="14.00">idx = [4]</text>
<polyline fill="none" stroke="black" points="462.38,-146 545.88,-146"/>
<text xml:space="preserve" text-anchor="middle" x="504.12" y="-128.7" font-family="Times,serif" font-size="14.00">data = [303]</text>
<polyline fill="none" stroke="black" points="462.38,-121.5 545.88,-121.5"/>
<text xml:space="preserve" text-anchor="middle" x="504.12" y="-104.2" font-family="Times,serif" font-size="14.00">prev = [3]</text>
<polyline fill="none" stroke="black" points="462.38,-97 545.88,-97"/>
<text xml:space="preserve" text-anchor="middle" x="504.12" y="-79.7" font-family="Times,serif" font-size="14.00">next = [6]</text>
</g>
<!-- element3&#45;&gt;element4 -->
<g id="edge4" class="edge">
<title>element3&#45;&gt;element4</title>
<path fill="none" stroke="none" d="M427.11,-138C427.11,-138 450.73,-138 450.73,-138"/>
<polygon fill="none" stroke="none" points="450.73,-141.5 460.73,-138 450.73,-134.5 450.73,-141.5"/>
</g>
<!-- element3&#45;&gt;element4 -->
<g id="edge14" class="edge">
<title>element3&#45;&gt;element4</title>
<path fill="none" stroke="#000000" d="M438.62,-105C438.62,-105 450.73,-105 450.73,-105"/>
<polygon fill="#000000" stroke="#000000" points="438.62,-101.5 428.62,-105 438.62,-108.5 438.62,-101.5"/>
<polygon fill="#000000" stroke="#000000" points="450.73,-108.5 460.73,-105 450.73,-101.5 450.73,-108.5"/>
</g>
<!-- element666 -->
<g id="node14" class="node">
<title>element666</title>
<polygon fill="#ff8080" stroke="black" points="471.03,-10.54 471.03,-25.46 436.52,-36 387.73,-36 353.22,-25.46 353.22,-10.54 387.73,0 436.52,0 471.03,-10.54"/>
<text xml:space="preserve" text-anchor="middle" x="412.12" y="-12.95" font-family="Times,serif" font-size="14.00">element666</text>
</g>
<!-- element3&#45;&gt;element666 -->
<g id="edge15" class="edge">
<title>element3&#45;&gt;element666</title>
<path fill="none" stroke="red" stroke-width="2" d="M389.92,-72.17C389.92,-72.17 389.92,-47.57 389.92,-47.57"/>
<polygon fill="red" stroke="red" stroke-width="2" points="393.42,-49.08 389.92,-39.08 386.42,-49.09 393.42,-49.08"/>
</g>
<!-- element5 -->
<g id="node8" class="node">
<title>element5</title>
<path fill="#99ff66" stroke="black" d="M594.12,-72.5C594.12,-72.5 658.12,-72.5 658.12,-72.5 664.12,-72.5 670.12,-78.5 670.12,-84.5 670.12,-84.5 670.12,-158.5 670.12,-158.5 670.12,-164.5 664.12,-170.5 658.12,-170.5 658.12,-170.5 594.12,-170.5 594.12,-170.5 588.12,-170.5 582.12,-164.5 582.12,-158.5 582.12,-158.5 582.12,-84.5 582.12,-84.5 582.12,-78.5 588.12,-72.5 594.12,-72.5"/>
<text xml:space="preserve" text-anchor="middle" x="626.12" y="-153.2" font-family="Times,serif" font-size="14.00">idx = [5]</text>
<polyline fill="none" stroke="black" points="582.12,-146 670.12,-146"/>
<text xml:space="preserve" text-anchor="middle" x="626.12" y="-128.7" font-family="Times,serif" font-size="14.00">data = [&#45;666]</text>
<polyline fill="none" stroke="black" points="582.12,-121.5 670.12,-121.5"/>
<text xml:space="preserve" text-anchor="middle" x="626.12" y="-104.2" font-family="Times,serif" font-size="14.00">prev = [&#45;1]</text>
<polyline fill="none" stroke="black" points="582.12,-97 670.12,-97"/>
<text xml:space="preserve" text-anchor="middle" x="626.12" y="-79.7" font-family="Times,serif" font-size="14.00">next = [272]</text>
</g>
<!-- element4&#45;&gt;element5 -->
<g id="edge5" class="edge">
<title>element4&#45;&gt;element5</title>
<path fill="none" stroke="none" d="M546.11,-122C546.11,-122 570.47,-122 570.47,-122"/>
<polygon fill="none" stroke="none" points="570.47,-125.5 580.47,-122 570.47,-118.5 570.47,-125.5"/>
</g>
<!-- element6 -->
<g id="node9" class="node">
<title>element6</title>
<path fill="#66ccff" stroke="black" d="M718,-72.5C718,-72.5 778.25,-72.5 778.25,-72.5 784.25,-72.5 790.25,-78.5 790.25,-84.5 790.25,-84.5 790.25,-158.5 790.25,-158.5 790.25,-164.5 784.25,-170.5 778.25,-170.5 778.25,-170.5 718,-170.5 718,-170.5 712,-170.5 706,-164.5 706,-158.5 706,-158.5 706,-84.5 706,-84.5 706,-78.5 712,-72.5 718,-72.5"/>
<text xml:space="preserve" text-anchor="middle" x="748.12" y="-153.2" font-family="Times,serif" font-size="14.00">idx = [6]</text>
<polyline fill="none" stroke="black" points="706,-146 790.25,-146"/>
<text xml:space="preserve" text-anchor="middle" x="748.12" y="-128.7" font-family="Times,serif" font-size="14.00">data = [505]</text>
<polyline fill="none" stroke="black" points="706,-121.5 790.25,-121.5"/>
<text xml:space="preserve" text-anchor="middle" x="748.12" y="-104.2" font-family="Times,serif" font-size="14.00">prev = [4]</text>
<polyline fill="none" stroke="black" points="706,-97 790.25,-97"/>
<text xml:space="preserve" text-anchor="middle" x="748.12" y="-79.7" font-family="Times,serif" font-size="14.00">next = [228]</text>
</g>
<!-- element4&#45;&gt;element6 -->
<g id="edge16" class="edge">
<title>element4&#45;&gt;element6</title>
<path fill="none" stroke="#000000" d="M533.55,-60.58C533.55,-60.58 533.55,-54 533.55,-54 533.55,-54 734.08,-54 734.08,-54 734.08,-54 734.08,-60.58 734.08,-60.58"/>
<polygon fill="#000000" stroke="#000000" points="530.05,-60.58 533.55,-70.58 537.05,-60.58 530.05,-60.58"/>
<polygon fill="#000000" stroke="#000000" points="730.58,-60.58 734.08,-70.58 737.58,-60.58 730.58,-60.58"/>
</g>
<!-- element5&#45;&gt;element6 -->
<g id="edge6" class="edge">
<title>element5&#45;&gt;element6</title>
<path fill="none" stroke="none" d="M670.51,-122C670.51,-122 694.09,-122 694.09,-122"/>
<polygon fill="none" stroke="none" points="694.09,-125.5 704.09,-122 694.09,-118.5 694.09,-125.5"/>
</g>
<!-- element272 -->
<g id="node15" class="node">
<title>element272</title>
<polygon fill="#ff8080" stroke="black" points="639.03,-10.54 639.03,-25.46 604.52,-36 555.73,-36 521.22,-25.46 521.22,-10.54 555.73,0 604.52,0 639.03,-10.54"/>
<text xml:space="preserve" text-anchor="middle" x="580.12" y="-12.95" font-family="Times,serif" font-size="14.00">element272</text>
</g>
<!-- element5&#45;&gt;element272 -->
<g id="edge17" class="edge">
<title>element5&#45;&gt;element272</title>
<path fill="none" stroke="red" stroke-width="2" d="M610.58,-72.17C610.58,-72.17 610.58,-46.13 610.58,-46.13"/>
<polygon fill="red" stroke="red" stroke-width="2" points="614.08,-47.64 610.58,-37.64 607.08,-47.64 614.08,-47.64"/>
</g>
<!-- element7 -->
<g id="node10" class="node">
<title>element7</title>
<path fill="#66ccff" stroke="black" d="M838.38,-72.5C838.38,-72.5 897.88,-72.5 897.88,-72.5 903.88,-72.5 909.88,-78.5 909.88,-84.5 909.88,-84.5 909.88,-158.5 909.88,-158.5 909.88,-164.5 903.88,-170.5 897.88,-170.5 897.88,-170.5 838.38,-170.5 838.38,-170.5 832.38,-170.5 826.38,-164.5 826.38,-158.5 826.38,-158.5 826.38,-84.5 826.38,-84.5 826.38,-78.5 832.38,-72.5 838.38,-72.5"/>
<text xml:space="preserve" text-anchor="middle" x="868.12" y="-153.2" font-family="Times,serif" font-size="14.00">idx = [7]</text>
<polyline fill="none" stroke="black" points="826.38,-146 909.88,-146"/>
<text xml:space="preserve" text-anchor="middle" x="868.12" y="-128.7" font-family="Times,serif" font-size="14.00">data = [606]</text>
<polyline fill="none" stroke="black" points="826.38,-121.5 909.88,-121.5"/>
<text xml:space="preserve" text-anchor="middle" x="868.12" y="-104.2" font-family="Times,serif" font-size="14.00">prev = [6]</text>
<polyline fill="none" stroke="black" points="826.38,-97 909.88,-97"/>
<text xml:space="preserve" text-anchor="middle" x="868.12" y="-79.7" font-family="Times,serif" font-size="14.00">next = [9]</text>
</g>
<!-- element6&#45;&gt;element7 -->
<g id="edge7" class="edge">
<title>element6&#45;&gt;element7</title>
<path fill="none" stroke="none" d="M790.43,-138C790.43,-138 814.69,-138 814.69,-138"/>
<polygon fill="none" stroke="none" points="814.69,-141.5 824.69,-138 814.69,-134.5 814.69,-141.5"/>
</g>
<!-- element228 -->
<g id="node16" class="node">
<title>element228</title>
<polygon fill="#ff8080" stroke="black" points="800.03,-10.54 800.03,-25.46 765.52,-36 716.73,-36 682.22,-25.46 682.22,-10.54 716.73,0 765.52,0 800.03,-10.54"/>
<text xml:space="preserve" text-anchor="middle" x="741.12" y="-12.95" font-family="Times,serif" font-size="14.00">element228</text>
</g>
<!-- element6&#45;&gt;element228 -->
<g id="edge18" class="edge">
<title>element6&#45;&gt;element228</title>
<path fill="none" stroke="red" stroke-width="2" d="M762.17,-72.17C762.17,-72.17 762.17,-47.57 762.17,-47.57"/>
<polygon fill="red" stroke="red" stroke-width="2" points="765.67,-49.08 762.17,-39.08 758.67,-49.09 765.67,-49.08"/>
</g>
<!-- element7&#45;&gt;element6 -->
<g id="edge20" class="edge">
<title>element7&#45;&gt;element6</title>
<path fill="none" stroke="orange" stroke-width="2" d="M826.15,-105C826.15,-105 802.19,-105 802.19,-105"/>
<polygon fill="orange" stroke="orange" stroke-width="2" points="803.71,-101.5 793.71,-105 803.71,-108.5 803.71,-101.5"/>
</g>
<!-- element7&#45;&gt;element8 -->
<g id="edge8" class="edge">
<title>element7&#45;&gt;element8</title>
<path fill="none" stroke="none" d="M910.11,-122C910.11,-122 934.47,-122 934.47,-122"/>
<polygon fill="none" stroke="none" points="934.47,-125.5 944.47,-122 934.47,-118.5 934.47,-125.5"/>
</g>
<!-- element9 -->
<g id="node12" class="node">
<title>element9</title>
<path fill="#66ccff" stroke="black" d="M1082.38,-72.5C1082.38,-72.5 1141.88,-72.5 1141.88,-72.5 1147.88,-72.5 1153.88,-78.5 1153.88,-84.5 1153.88,-84.5 1153.88,-158.5 1153.88,-158.5 1153.88,-164.5 1147.88,-170.5 1141.88,-170.5 1141.88,-170.5 1082.38,-170.5 1082.38,-170.5 1076.38,-170.5 1070.38,-164.5 1070.38,-158.5 1070.38,-158.5 1070.38,-84.5 1070.38,-84.5 1070.38,-78.5 1076.38,-72.5 1082.38,-72.5"/>
<text xml:space="preserve" text-anchor="middle" x="1112.12" y="-153.2" font-family="Times,serif" font-size="14.00">idx = [9]</text>
<polyline fill="none" stroke="black" points="1070.38,-146 1153.88,-146"/>
<text xml:space="preserve" text-anchor="middle" x="1112.12" y="-128.7" font-family="Times,serif" font-size="14.00">data = [808]</text>
<polyline fill="none" stroke="black" points="1070.38,-121.5 1153.88,-121.5"/>
<text xml:space="preserve" text-anchor="middle" x="1112.12" y="-104.2" font-family="Times,serif" font-size="14.00">prev = [7]</text>
<polyline fill="none" stroke="black" points="1070.38,-97 1153.88,-97"/>
<text xml:space="preserve" text-anchor="middle" x="1112.12" y="-79.7" font-family="Times,serif" font-size="14.00">next = [10]</text>
</g>
<!-- element7&#45;&gt;element9 -->
<g id="edge19" class="edge">
<title>element7&#45;&gt;element9</title>
<path fill="none" stroke="#000000" d="M868.12,-181.78C868.12,-181.78 868.12,-183 868.12,-183 868.12,-183 1112.12,-183 1112.12,-183 1112.12,-183 1112.12,-181.78 1112.12,-181.78"/>
<polygon fill="#000000" stroke="#000000" points="871.63,-182.36 868.13,-172.36 864.63,-182.36 871.63,-182.36"/>
<polygon fill="#000000" stroke="#000000" points="1115.63,-182.36 1112.13,-172.36 1108.63,-182.36 1115.63,-182.36"/>
</g>
<!-- element8&#45;&gt;element5 -->
<g id="edge21" class="edge">
<title>element8&#45;&gt;element5</title>
<path fill="none" stroke="green" d="M950.03,-170.93C950.03,-184.23 950.03,-195 950.03,-195 950.03,-195 626.12,-195 626.12,-195 626.12,-195 626.12,-182.45 626.12,-182.45"/>
<polygon fill="green" stroke="green" points="629.63,-182.45 626.13,-172.45 622.63,-182.45 629.63,-182.45"/>
</g>
<!-- element8&#45;&gt;element9 -->
<g id="edge9" class="edge">
<title>element8&#45;&gt;element9</title>
<path fill="none" stroke="none" d="M1034.51,-122C1034.51,-122 1058.49,-122 1058.49,-122"/>
<polygon fill="none" stroke="none" points="1058.49,-125.5 1068.49,-122 1058.49,-118.5 1058.49,-125.5"/>
</g>
<!-- element10 -->
<g id="node13" class="node">
<title>element10</title>
<path fill="#66ccff" stroke="black" d="M1202.38,-72.5C1202.38,-72.5 1261.88,-72.5 1261.88,-72.5 1267.88,-72.5 1273.88,-78.5 1273.88,-84.5 1273.88,-84.5 1273.88,-158.5 1273.88,-158.5 1273.88,-164.5 1267.88,-170.5 1261.88,-170.5 1261.88,-170.5 1202.38,-170.5 1202.38,-170.5 1196.38,-170.5 1190.38,-164.5 1190.38,-158.5 1190.38,-158.5 1190.38,-84.5 1190.38,-84.5 1190.38,-78.5 1196.38,-72.5 1202.38,-72.5"/>
<text xml:space="preserve" text-anchor="middle" x="1232.12" y="-153.2" font-family="Times,serif" font-size="14.00">idx = [10]</text>
<polyline fill="none" stroke="black" points="1190.38,-146 1273.88,-146"/>
<text xml:space="preserve" text-anchor="middle" x="1232.12" y="-128.7" font-family="Times,serif" font-size="14.00">data = [909]</text>
<polyline fill="none" stroke="black" points="1190.38,-121.5 1273.88,-121.5"/>
<text xml:space="preserve" text-anchor="middle" x="1232.12" y="-104.2" font-family="Times,serif" font-size="14.00">prev = [9]</text>
<polyline fill="none" stroke="black" points="1190.38,-97 1273.88,-97"/>
<text xml:space="preserve" text-anchor="middle" x="1232.12" y="-79.7" font-family="Times,serif" font-size="14.00">next = [0]</text>
</g>
<!-- element9&#45;&gt;element10 -->
<g id="edge10" class="edge">
<title>element9&#45;&gt;element10</title>
<path fill="none" stroke="none" d="M1154.1,-138C1154.1,-138 1178.46,-138 1178.46,-138"/>
<polygon fill="none" stroke="none" points="1178.46,-141.5 1188.46,-138 1178.46,-134.5 1178.46,-141.5"/>
</g>
<!-- element9&#45;&gt;element10 -->
<g id="edge22" class="edge">
<title>element9&#45;&gt;element10</title>
<path fill="none" stroke="#000000" d="M1165.61,-105C1165.61,-105 1178.46,-105 1178.46,-105"/>
<polygon fill="#000000" stroke="#000000" points="1165.61,-101.5 1155.61,-105 1165.61,-108.5 1165.61,-101.5"/>
<polygon fill="#000000" stroke="#000000" points="1178.46,-108.5 1188.46,-105 1178.46,-101.5 1178.46,-108.5"/>
</g>
</g>
</svg>
