<?xml version="1.0" encoding="UTF-8" standalone="no"?>
<!DOCTYPE svg PUBLIC "-//W3C//DTD SVG 1.1//EN"
 "http://www.w3.org/Graphics/SVG/1.1/DTD/svg11.dtd">
<!-- Generated by graphviz version 13.1.1 (20250719.2154)
 -->
<!-- Title: G Pages: 1 -->
<svg width="1304pt" height="179pt"
 viewBox="0.00 0.00 1304.00 179.00" xmlns="http://www.w3.org/2000/svg" xmlns:xlink="http://www.w3.org/1999/xlink">
<g id="graph0" class="graph" transform="scale(1 1) rotate(0) translate(4 175)">
<title>G</title>
<polygon fill="white" stroke="none" points="-4,4 -4,-175 1299.75,-175 1299.75,4 -4,4"/>
<!-- HEAD -->
<g id="node1" class="node">
<title>HEAD</title>
<polygon fill="#cc99ff" stroke="black" points="183.27,-145.54 183.27,-160.46 160.12,-171 127.38,-171 104.23,-160.46 104.23,-145.54 127.38,-135 160.12,-135 183.27,-145.54"/>
<text xml:space="preserve" text-anchor="middle" x="143.75" y="-147.95" font-family="Times,serif" font-size="14.00">HEAD</text>
</g>
<!-- element1 -->
<g id="node4" class="node">
<title>element1</title>
<path fill="#cc99ff" stroke="black" d="M120,-0.5C120,-0.5 167.5,-0.5 167.5,-0.5 173.5,-0.5 179.5,-6.5 179.5,-12.5 179.5,-12.5 179.5,-86.5 179.5,-86.5 179.5,-92.5 173.5,-98.5 167.5,-98.5 167.5,-98.5 120,-98.5 120,-98.5 114,-98.5 108,-92.5 108,-86.5 108,-86.5 108,-12.5 108,-12.5 108,-6.5 114,-0.5 120,-0.5"/>
<text xml:space="preserve" text-anchor="middle" x="143.75" y="-81.2" font-family="Times,serif" font-size="14.00">idx = [1]</text>
<polyline fill="none" stroke="black" points="108,-74 179.5,-74"/>
<text xml:space="preserve" text-anchor="middle" x="143.75" y="-56.7" font-family="Times,serif" font-size="14.00">data = [0]</text>
<polyline fill="none" stroke="black" points="108,-49.5 179.5,-49.5"/>
<text xml:space="preserve" text-anchor="middle" x="143.75" y="-32.2" font-family="Times,serif" font-size="14.00">prev = [0]</text>
<polyline fill="none" stroke="black" points="108,-25 179.5,-25"/>
<text xml:space="preserve" text-anchor="middle" x="143.75" y="-7.7" font-family="Times,serif" font-size="14.00">next = [0]</text>
</g>
<!-- HEAD&#45;&gt;element1 -->
<g id="edge21" class="edge">
<title>HEAD&#45;&gt;element1</title>
<path fill="none" stroke="#000000" d="M143.75,-134.97C143.75,-134.97 143.75,-110.4 143.75,-110.4"/>
<polygon fill="#000000" stroke="#000000" points="147.25,-110.4 143.75,-100.4 140.25,-110.4 147.25,-110.4"/>
</g>
<!-- FREE -->
<g id="node2" class="node">
<title>FREE</title>
<polygon fill="#33cc33" stroke="black" points="295.94,-145.54 295.94,-160.46 274.74,-171 244.76,-171 223.56,-160.46 223.56,-145.54 244.76,-135 274.74,-135 295.94,-145.54"/>
<text xml:space="preserve" text-anchor="middle" x="259.75" y="-147.95" font-family="Times,serif" font-size="14.00">FREE</text>
</g>
<!-- element2 -->
<g id="node5" class="node">
<title>element2</title>
<path fill="#33cc33" stroke="black" d="M227.75,-0.5C227.75,-0.5 291.75,-0.5 291.75,-0.5 297.75,-0.5 303.75,-6.5 303.75,-12.5 303.75,-12.5 303.75,-86.5 303.75,-86.5 303.75,-92.5 297.75,-98.5 291.75,-98.5 291.75,-98.5 227.75,-98.5 227.75,-98.5 221.75,-98.5 215.75,-92.5 215.75,-86.5 215.75,-86.5 215.75,-12.5 215.75,-12.5 215.75,-6.5 221.75,-0.5 227.75,-0.5"/>
<text xml:space="preserve" text-anchor="middle" x="259.75" y="-81.2" font-family="Times,serif" font-size="14.00">idx = [2]</text>
<polyline fill="none" stroke="black" points="215.75,-74 303.75,-74"/>
<text xml:space="preserve" text-anchor="middle" x="259.75" y="-56.7" font-family="Times,serif" font-size="14.00">data = [&#45;666]</text>
<polyline fill="none" stroke="black" points="215.75,-49.5 303.75,-49.5"/>
<text xml:space="preserve" text-anchor="middle" x="259.75" y="-32.2" font-family="Times,serif" font-size="14.00">prev = [&#45;1]</text>
<polyline fill="none" stroke="black" points="215.75,-25 303.75,-25"/>
<text xml:space="preserve" text-anchor="middle" x="259.75" y="-7.7" font-family="Times,serif" font-size="14.00">next = [3]</text>
</g>
<!-- FREE&#45;&gt;element2 -->
<g id="edge22" class="edge">
<title>FREE&#45;&gt;element2</title>
<path fill="none" stroke="#000000" d="M259.75,-134.97C259.75,-134.97 259.75,-110.4 259.75,-110.4"/>
<polygon fill="#000000" stroke="#000000" points="263.25,-110.4 259.75,-100.4 256.25,-110.4 263.25,-110.4"/>
</g>
<!-- element0 -->
<g id="node3" class="node">
<title>element0</title>
<path fill="#ebebe0" stroke="black" d="M12,-0.5C12,-0.5 59.5,-0.5 59.5,-0.5 65.5,-0.5 71.5,-6.5 71.5,-12.5 71.5,-12.5 71.5,-86.5 71.5,-86.5 71.5,-92.5 65.5,-98.5 59.5,-98.5 59.5,-98.5 12,-98.5 12,-98.5 6,-98.5 0,-92.5 0,-86.5 0,-86.5 0,-12.5 0,-12.5 0,-6.5 6,-0.5 12,-0.5"/>
<text xml:space="preserve" text-anchor="middle" x="35.75" y="-81.2" font-family="Times,serif" font-size="14.00">idx = [0]</text>
<polyline fill="none" stroke="black" points="0,-74 71.5,-74"/>
<text xml:space="preserve" text-anchor="middle" x="35.75" y="-56.7" font-family="Times,serif" font-size="14.00">data = [0]</text>
<polyline fill="none" stroke="black" points="0,-49.5 71.5,-49.5"/>
<text xml:space="preserve" text-anchor="middle" x="35.75" y="-32.2" font-family="Times,serif" font-size="14.00">prev = [1]</text>
<polyline fill="none" stroke="black" points="0,-25 71.5,-25"/>
<text xml:space="preserve" text-anchor="middle" x="35.75" y="-7.7" font-family="Times,serif" font-size="14.00">next = [1]</text>
</g>
<!-- element0&#45;&gt;element1 -->
<g id="edge1" class="edge">
<title>element0&#45;&gt;element1</title>
<path fill="none" stroke="none" d="M71.71,-74C71.71,-74 96.06,-74 96.06,-74"/>
<polygon fill="none" stroke="none" points="96.06,-77.5 106.06,-74 96.06,-70.5 96.06,-77.5"/>
</g>
<!-- element0&#45;&gt;element1 -->
<g id="edge11" class="edge">
<title>element0&#45;&gt;element1</title>
<path fill="none" stroke="#000000" d="M83.23,-50C83.23,-50 96.06,-50 96.06,-50"/>
<polygon fill="#000000" stroke="#000000" points="83.23,-46.5 73.23,-50 83.23,-53.5 83.23,-46.5"/>
<polygon fill="#000000" stroke="#000000" points="96.06,-53.5 106.06,-50 96.06,-46.5 96.06,-53.5"/>
</g>
<!-- element1&#45;&gt;element0 -->
<g id="edge12" class="edge">
<title>element1&#45;&gt;element0</title>
<path fill="none" stroke="#000000" d="M96.27,-25C96.27,-25 83.44,-25 83.44,-25"/>
<polygon fill="#000000" stroke="#000000" points="96.27,-28.5 106.27,-25 96.27,-21.5 96.27,-28.5"/>
<polygon fill="#000000" stroke="#000000" points="83.44,-21.5 73.44,-25 83.44,-28.5 83.44,-21.5"/>
</g>
<!-- element1&#45;&gt;element2 -->
<g id="edge2" class="edge">
<title>element1&#45;&gt;element2</title>
<path fill="none" stroke="none" d="M179.82,-50C179.82,-50 204.02,-50 204.02,-50"/>
<polygon fill="none" stroke="none" points="204.02,-53.5 214.02,-50 204.02,-46.5 204.02,-53.5"/>
</g>
<!-- element3 -->
<g id="node6" class="node">
<title>element3</title>
<path fill="#99ff66" stroke="black" d="M351.75,-0.5C351.75,-0.5 415.75,-0.5 415.75,-0.5 421.75,-0.5 427.75,-6.5 427.75,-12.5 427.75,-12.5 427.75,-86.5 427.75,-86.5 427.75,-92.5 421.75,-98.5 415.75,-98.5 415.75,-98.5 351.75,-98.5 351.75,-98.5 345.75,-98.5 339.75,-92.5 339.75,-86.5 339.75,-86.5 339.75,-12.5 339.75,-12.5 339.75,-6.5 345.75,-0.5 351.75,-0.5"/>
<text xml:space="preserve" text-anchor="middle" x="383.75" y="-81.2" font-family="Times,serif" font-size="14.00">idx = [3]</text>
<polyline fill="none" stroke="black" points="339.75,-74 427.75,-74"/>
<text xml:space="preserve" text-anchor="middle" x="383.75" y="-56.7" font-family="Times,serif" font-size="14.00">data = [&#45;666]</text>
<polyline fill="none" stroke="black" points="339.75,-49.5 427.75,-49.5"/>
<text xml:space="preserve" text-anchor="middle" x="383.75" y="-32.2" font-family="Times,serif" font-size="14.00">prev = [&#45;1]</text>
<polyline fill="none" stroke="black" points="339.75,-25 427.75,-25"/>
<text xml:space="preserve" text-anchor="middle" x="383.75" y="-7.7" font-family="Times,serif" font-size="14.00">next = [4]</text>
</g>
<!-- element2&#45;&gt;element3 -->
<g id="edge3" class="edge">
<title>element2&#45;&gt;element3</title>
<path fill="none" stroke="none" d="M304.17,-66C304.17,-66 328.13,-66 328.13,-66"/>
<polygon fill="none" stroke="none" points="328.13,-69.5 338.13,-66 328.13,-62.5 328.13,-69.5"/>
</g>
<!-- element2&#45;&gt;element3 -->
<g id="edge13" class="edge">
<title>element2&#45;&gt;element3</title>
<path fill="none" stroke="green" d="M304.17,-33C304.17,-33 328.13,-33 328.13,-33"/>
<polygon fill="green" stroke="green" points="328.13,-36.5 338.13,-33 328.13,-29.5 328.13,-36.5"/>
</g>
<!-- element4 -->
<g id="node7" class="node">
<title>element4</title>
<path fill="#99ff66" stroke="black" d="M475.75,-0.5C475.75,-0.5 539.75,-0.5 539.75,-0.5 545.75,-0.5 551.75,-6.5 551.75,-12.5 551.75,-12.5 551.75,-86.5 551.75,-86.5 551.75,-92.5 545.75,-98.5 539.75,-98.5 539.75,-98.5 475.75,-98.5 475.75,-98.5 469.75,-98.5 463.75,-92.5 463.75,-86.5 463.75,-86.5 463.75,-12.5 463.75,-12.5 463.75,-6.5 469.75,-0.5 475.75,-0.5"/>
<text xml:space="preserve" text-anchor="middle" x="507.75" y="-81.2" font-family="Times,serif" font-size="14.00">idx = [4]</text>
<polyline fill="none" stroke="black" points="463.75,-74 551.75,-74"/>
<text xml:space="preserve" text-anchor="middle" x="507.75" y="-56.7" font-family="Times,serif" font-size="14.00">data = [&#45;666]</text>
<polyline fill="none" stroke="black" points="463.75,-49.5 551.75,-49.5"/>
<text xml:space="preserve" text-anchor="middle" x="507.75" y="-32.2" font-family="Times,serif" font-size="14.00">prev = [&#45;1]</text>
<polyline fill="none" stroke="black" points="463.75,-25 551.75,-25"/>
<text xml:space="preserve" text-anchor="middle" x="507.75" y="-7.7" font-family="Times,serif" font-size="14.00">next = [5]</text>
</g>
<!-- element3&#45;&gt;element4 -->
<g id="edge4" class="edge">
<title>element3&#45;&gt;element4</title>
<path fill="none" stroke="none" d="M428.17,-66C428.17,-66 452.13,-66 452.13,-66"/>
<polygon fill="none" stroke="none" points="452.13,-69.5 462.13,-66 452.13,-62.5 452.13,-69.5"/>
</g>
<!-- element3&#45;&gt;element4 -->
<g id="edge14" class="edge">
<title>element3&#45;&gt;element4</title>
<path fill="none" stroke="green" d="M428.17,-33C428.17,-33 452.13,-33 452.13,-33"/>
<polygon fill="green" stroke="green" points="452.13,-36.5 462.13,-33 452.13,-29.5 452.13,-36.5"/>
</g>
<!-- element5 -->
<g id="node8" class="node">
<title>element5</title>
<path fill="#99ff66" stroke="black" d="M599.75,-0.5C599.75,-0.5 663.75,-0.5 663.75,-0.5 669.75,-0.5 675.75,-6.5 675.75,-12.5 675.75,-12.5 675.75,-86.5 675.75,-86.5 675.75,-92.5 669.75,-98.5 663.75,-98.5 663.75,-98.5 599.75,-98.5 599.75,-98.5 593.75,-98.5 587.75,-92.5 587.75,-86.5 587.75,-86.5 587.75,-12.5 587.75,-12.5 587.75,-6.5 593.75,-0.5 599.75,-0.5"/>
<text xml:space="preserve" text-anchor="middle" x="631.75" y="-81.2" font-family="Times,serif" font-size="14.00">idx = [5]</text>
<polyline fill="none" stroke="black" points="587.75,-74 675.75,-74"/>
<text xml:space="preserve" text-anchor="middle" x="631.75" y="-56.7" font-family="Times,serif" font-size="14.00">data = [&#45;666]</text>
<polyline fill="none" stroke="black" points="587.75,-49.5 675.75,-49.5"/>
<text xml:space="preserve" text-anchor="middle" x="631.75" y="-32.2" font-family="Times,serif" font-size="14.00">prev = [&#45;1]</text>
<polyline fill="none" stroke="black" points="587.75,-25 675.75,-25"/>
<text xml:space="preserve" text-anchor="middle" x="631.75" y="-7.7" font-family="Times,serif" font-size="14.00">next = [6]</text>
</g>
<!-- element4&#45;&gt;element5 -->
<g id="edge5" class="edge">
<title>element4&#45;&gt;element5</title>
<path fill="none" stroke="none" d="M552.17,-66C552.17,-66 576.13,-66 576.13,-66"/>
<polygon fill="none" stroke="none" points="576.13,-69.5 586.13,-66 576.13,-62.5 576.13,-69.5"/>
</g>
<!-- element4&#45;&gt;element5 -->
<g id="edge15" class="edge">
<title>element4&#45;&gt;element5</title>
<path fill="none" stroke="green" d="M552.17,-33C552.17,-33 576.13,-33 576.13,-33"/>
<polygon fill="green" stroke="green" points="576.13,-36.5 586.13,-33 576.13,-29.5 576.13,-36.5"/>
</g>
<!-- element6 -->
<g id="node9" class="node">
<title>element6</title>
<path fill="#99ff66" stroke="black" d="M723.75,-0.5C723.75,-0.5 787.75,-0.5 787.75,-0.5 793.75,-0.5 799.75,-6.5 799.75,-12.5 799.75,-12.5 799.75,-86.5 799.75,-86.5 799.75,-92.5 793.75,-98.5 787.75,-98.5 787.75,-98.5 723.75,-98.5 723.75,-98.5 717.75,-98.5 711.75,-92.5 711.75,-86.5 711.75,-86.5 711.75,-12.5 711.75,-12.5 711.75,-6.5 717.75,-0.5 723.75,-0.5"/>
<text xml:space="preserve" text-anchor="middle" x="755.75" y="-81.2" font-family="Times,serif" font-size="14.00">idx = [6]</text>
<polyline fill="none" stroke="black" points="711.75,-74 799.75,-74"/>
<text xml:space="preserve" text-anchor="middle" x="755.75" y="-56.7" font-family="Times,serif" font-size="14.00">data = [&#45;666]</text>
<polyline fill="none" stroke="black" points="711.75,-49.5 799.75,-49.5"/>
<text xml:space="preserve" text-anchor="middle" x="755.75" y="-32.2" font-family="Times,serif" font-size="14.00">prev = [&#45;1]</text>
<polyline fill="none" stroke="black" points="711.75,-25 799.75,-25"/>
<text xml:space="preserve" text-anchor="middle" x="755.75" y="-7.7" font-family="Times,serif" font-size="14.00">next = [7]</text>
</g>
<!-- element5&#45;&gt;element6 -->
<g id="edge6" class="edge">
<title>element5&#45;&gt;element6</title>
<path fill="none" stroke="none" d="M676.17,-66C676.17,-66 700.13,-66 700.13,-66"/>
<polygon fill="none" stroke="none" points="700.13,-69.5 710.13,-66 700.13,-62.5 700.13,-69.5"/>
</g>
<!-- element5&#45;&gt;element6 -->
<g id="edge16" class="edge">
<title>element5&#45;&gt;element6</title>
<path fill="none" stroke="green" d="M676.17,-33C676.17,-33 700.13,-33 700.13,-33"/>
<polygon fill="green" stroke="green" points="700.13,-36.5 710.13,-33 700.13,-29.5 700.13,-36.5"/>
</g>
<!-- element7 -->
<g id="node10" class="node">
<title>element7</title>
<path fill="#99ff66" stroke="black" d="M847.75,-0.5C847.75,-0.5 911.75,-0.5 911.75,-0.5 917.75,-0.5 923.75,-6.5 923.75,-12.5 923.75,-12.5 923.75,-86.5 923.75,-86.5 923.75,-92.5 917.75,-98.5 911.75,-98.5 911.75,-98.5 847.75,-98.5 847.75,-98.5 841.75,-98.5 835.75,-92.5 835.75,-86.5 835.75,-86.5 835.75,-12.5 835.75,-12.5 835.75,-6.5 841.75,-0.5 847.75,-0.5"/>
<text xml:space="preserve" text-anchor="middle" x="879.75" y="-81.2" font-family="Times,serif" font-size="14.00">idx = [7]</text>
<polyline fill="none" stroke="black" points="835.75,-74 923.75,-74"/>
<text xml:space="preserve" text-anchor="middle" x="879.75" y="-56.7" font-family="Times,serif" font-size="14.00">data = [&#45;666]</text>
<polyline fill="none" stroke="black" points="835.75,-49.5 923.75,-49.5"/>
<text xml:space="preserve" text-anchor="middle" x="879.75" y="-32.2" font-family="Times,serif" font-size="14.00">prev = [&#45;1]</text>
<polyline fill="none" stroke="black" points="835.75,-25 923.75,-25"/>
<text xml:space="preserve" text-anchor="middle" x="879.75" y="-7.7" font-family="Times,serif" font-size="14.00">next = [8]</text>
</g>
<!-- element6&#45;&gt;element7 -->
<g id="edge7" class="edge">
<title>element6&#45;&gt;element7</title>
<path fill="none" stroke="none" d="M800.17,-66C800.17,-66 824.13,-66 824.13,-66"/>
<polygon fill="none" stroke="none" points="824.13,-69.5 834.13,-66 824.13,-62.5 824.13,-69.5"/>
</g>
<!-- element6&#45;&gt;element7 -->
<g id="edge17" class="edge">
<title>element6&#45;&gt;element7</title>
<path fill="none" stroke="green" d="M800.17,-33C800.17,-33 824.13,-33 824.13,-33"/>
<polygon fill="green" stroke="green" points="824.13,-36.5 834.13,-33 824.13,-29.5 824.13,-36.5"/>
</g>
<!-- element8 -->
<g id="node11" class="node">
<title>element8</title>
<path fill="#99ff66" stroke="black" d="M971.75,-0.5C971.75,-0.5 1035.75,-0.5 1035.75,-0.5 1041.75,-0.5 1047.75,-6.5 1047.75,-12.5 1047.75,-12.5 1047.75,-86.5 1047.75,-86.5 1047.75,-92.5 1041.75,-98.5 1035.75,-98.5 1035.75,-98.5 971.75,-98.5 971.75,-98.5 965.75,-98.5 959.75,-92.5 959.75,-86.5 959.75,-86.5 959.75,-12.5 959.75,-12.5 959.75,-6.5 965.75,-0.5 971.75,-0.5"/>
<text xml:space="preserve" text-anchor="middle" x="1003.75" y="-81.2" font-family="Times,serif" font-size="14.00">idx = [8]</text>
<polyline fill="none" stroke="black" points="959.75,-74 1047.75,-74"/>
<text xml:space="preserve" text-anchor="middle" x="1003.75" y="-56.7" font-family="Times,serif" font-size="14.00">data = [&#45;666]</text>
<polyline fill="none" stroke="black" points="959.75,-49.5 1047.75,-49.5"/>
<text xml:space="preserve" text-anchor="middle" x="1003.75" y="-32.2" font-family="Times,serif" font-size="14.00">prev = [&#45;1]</text>
<polyline fill="none" stroke="black" points="959.75,-25 1047.75,-25"/>
<text xml:space="preserve" text-anchor="middle" x="1003.75" y="-7.7" font-family="Times,serif" font-size="14.00">next = [9]</text>
</g>
<!-- element7&#45;&gt;element8 -->
<g id="edge8" class="edge">
<title>element7&#45;&gt;element8</title>
<path fill="none" stroke="none" d="M924.17,-66C924.17,-66 948.13,-66 948.13,-66"/>
<polygon fill="none" stroke="none" points="948.13,-69.5 958.13,-66 948.13,-62.5 948.13,-69.5"/>
</g>
<!-- element7&#45;&gt;element8 -->
<g id="edge18" class="edge">
<title>element7&#45;&gt;element8</title>
<path fill="none" stroke="green" d="M924.17,-33C924.17,-33 948.13,-33 948.13,-33"/>
<polygon fill="green" stroke="green" points="948.13,-36.5 958.13,-33 948.13,-29.5 948.13,-36.5"/>
</g>
<!-- element9 -->
<g id="node12" class="node">
<title>element9</title>
<path fill="#99ff66" stroke="black" d="M1095.75,-0.5C1095.75,-0.5 1159.75,-0.5 1159.75,-0.5 1165.75,-0.5 1171.75,-6.5 1171.75,-12.5 1171.75,-12.5 1171.75,-86.5 1171.75,-86.5 1171.75,-92.5 1165.75,-98.5 1159.75,-98.5 1159.75,-98.5 1095.75,-98.5 1095.75,-98.5 1089.75,-98.5 1083.75,-92.5 1083.75,-86.5 1083.75,-86.5 1083.75,-12.5 1083.75,-12.5 1083.75,-6.5 1089.75,-0.5 1095.75,-0.5"/>
<text xml:space="preserve" text-anchor="middle" x="1127.75" y="-81.2" font-family="Times,serif" font-size="14.00">idx = [9]</text>
<polyline fill="none" stroke="black" points="1083.75,-74 1171.75,-74"/>
<text xml:space="preserve" text-anchor="middle" x="1127.75" y="-56.7" font-family="Times,serif" font-size="14.00">data = [&#45;666]</text>
<polyline fill="none" stroke="black" points="1083.75,-49.5 1171.75,-49.5"/>
<text xml:space="preserve" text-anchor="middle" x="1127.75" y="-32.2" font-family="Times,serif" font-size="14.00">prev = [&#45;1]</text>
<polyline fill="none" stroke="black" points="1083.75,-25 1171.75,-25"/>
<text xml:space="preserve" text-anchor="middle" x="1127.75" y="-7.7" font-family="Times,serif" font-size="14.00">next = [10]</text>
</g>
<!-- element8&#45;&gt;element9 -->
<g id="edge9" class="edge">
<title>element8&#45;&gt;element9</title>
<path fill="none" stroke="none" d="M1048.17,-66C1048.17,-66 1072.13,-66 1072.13,-66"/>
<polygon fill="none" stroke="none" points="1072.13,-69.5 1082.13,-66 1072.13,-62.5 1072.13,-69.5"/>
</g>
<!-- element8&#45;&gt;element9 -->
<g id="edge19" class="edge">
<title>element8&#45;&gt;element9</title>
<path fill="none" stroke="green" d="M1048.17,-33C1048.17,-33 1072.13,-33 1072.13,-33"/>
<polygon fill="green" stroke="green" points="1072.13,-36.5 1082.13,-33 1072.13,-29.5 1072.13,-36.5"/>
</g>
<!-- element10 -->
<g id="node13" class="node">
<title>element10</title>
<path fill="#99ff66" stroke="black" d="M1219.75,-0.5C1219.75,-0.5 1283.75,-0.5 1283.75,-0.5 1289.75,-0.5 1295.75,-6.5 1295.75,-12.5 1295.75,-12.5 1295.75,-86.5 1295.75,-86.5 1295.75,-92.5 1289.75,-98.5 1283.75,-98.5 1283.75,-98.5 1219.75,-98.5 1219.75,-98.5 1213.75,-98.5 1207.75,-92.5 1207.75,-86.5 1207.75,-86.5 1207.75,-12.5 1207.75,-12.5 1207.75,-6.5 1213.75,-0.5 1219.75,-0.5"/>
<text xml:space="preserve" text-anchor="middle" x="1251.75" y="-81.2" font-family="Times,serif" font-size="14.00">idx = [10]</text>
<polyline fill="none" stroke="black" points="1207.75,-74 1295.75,-74"/>
<text xml:space="preserve" text-anchor="middle" x="1251.75" y="-56.7" font-family="Times,serif" font-size="14.00">data = [&#45;666]</text>
<polyline fill="none" stroke="black" points="1207.75,-49.5 1295.75,-49.5"/>
<text xml:space="preserve" text-anchor="middle" x="1251.75" y="-32.2" font-family="Times,serif" font-size="14.00">prev = [&#45;1]</text>
<polyline fill="none" stroke="black" points="1207.75,-25 1295.75,-25"/>
<text xml:space="preserve" text-anchor="middle" x="1251.75" y="-7.7" font-family="Times,serif" font-size="14.00">next = [0]</text>
</g>
<!-- element9&#45;&gt;element10 -->
<g id="edge10" class="edge">
<title>element9&#45;&gt;element10</title>
<path fill="none" stroke="none" d="M1172.17,-66C1172.17,-66 1196.13,-66 1196.13,-66"/>
<polygon fill="none" stroke="none" points="1196.13,-69.5 1206.13,-66 1196.13,-62.5 1196.13,-69.5"/>
</g>
<!-- element9&#45;&gt;element10 -->
<g id="edge20" class="edge">
<title>element9&#45;&gt;element10</title>
<path fill="none" stroke="green" d="M1172.17,-33C1172.17,-33 1196.13,-33 1196.13,-33"/>
<polygon fill="green" stroke="green" points="1196.13,-36.5 1206.13,-33 1196.13,-29.5 1196.13,-36.5"/>
</g>
</g>
</svg>
