<?xml version="1.0" encoding="UTF-8" standalone="no"?>
<!DOCTYPE svg PUBLIC "-//W3C//DTD SVG 1.1//EN"
 "http://www.w3.org/Graphics/SVG/1.1/DTD/svg11.dtd">
<!-- Generated by graphviz version 13.1.1 (20250719.2154)
 -->
<!-- Title: G Pages: 1 -->
<svg width="1300pt" height="197pt"
 viewBox="0.00 0.00 1300.00 197.00" xmlns="http://www.w3.org/2000/svg" xmlns:xlink="http://www.w3.org/1999/xlink">
<g id="graph0" class="graph" transform="scale(1 1) rotate(0) translate(4 193)">
<title>G</title>
<polygon fill="white" stroke="none" points="-4,4 -4,-193 1295.75,-193 1295.75,4 -4,4"/>
<!-- HEAD -->
<g id="node1" class="node">
<title>HEAD</title>
<polygon fill="#cc99ff" stroke="black" points="183.27,-163.54 183.27,-178.46 160.12,-189 127.38,-189 104.23,-178.46 104.23,-163.54 127.38,-153 160.12,-153 183.27,-163.54"/>
<text xml:space="preserve" text-anchor="middle" x="143.75" y="-165.95" font-family="Times,serif" font-size="14.00">HEAD</text>
</g>
<!-- element1 -->
<g id="node4" class="node">
<title>element1</title>
<path fill="#cc99ff" stroke="black" d="M120,-18.5C120,-18.5 167.5,-18.5 167.5,-18.5 173.5,-18.5 179.5,-24.5 179.5,-30.5 179.5,-30.5 179.5,-104.5 179.5,-104.5 179.5,-110.5 173.5,-116.5 167.5,-116.5 167.5,-116.5 120,-116.5 120,-116.5 114,-116.5 108,-110.5 108,-104.5 108,-104.5 108,-30.5 108,-30.5 108,-24.5 114,-18.5 120,-18.5"/>
<text xml:space="preserve" text-anchor="middle" x="143.75" y="-99.2" font-family="Times,serif" font-size="14.00">idx = [1]</text>
<polyline fill="none" stroke="black" points="108,-92 179.5,-92"/>
<text xml:space="preserve" text-anchor="middle" x="143.75" y="-74.7" font-family="Times,serif" font-size="14.00">data = [0]</text>
<polyline fill="none" stroke="black" points="108,-67.5 179.5,-67.5"/>
<text xml:space="preserve" text-anchor="middle" x="143.75" y="-50.2" font-family="Times,serif" font-size="14.00">prev = [0]</text>
<polyline fill="none" stroke="black" points="108,-43 179.5,-43"/>
<text xml:space="preserve" text-anchor="middle" x="143.75" y="-25.7" font-family="Times,serif" font-size="14.00">next = [2]</text>
</g>
<!-- HEAD&#45;&gt;element1 -->
<g id="edge21" class="edge">
<title>HEAD&#45;&gt;element1</title>
<path fill="none" stroke="#000000" d="M143.75,-152.97C143.75,-152.97 143.75,-128.4 143.75,-128.4"/>
<polygon fill="#000000" stroke="#000000" points="147.25,-128.4 143.75,-118.4 140.25,-128.4 147.25,-128.4"/>
</g>
<!-- FREE -->
<g id="node2" class="node">
<title>FREE</title>
<polygon fill="#33cc33" stroke="black" points="415.94,-163.54 415.94,-178.46 394.74,-189 364.76,-189 343.56,-178.46 343.56,-163.54 364.76,-153 394.74,-153 415.94,-163.54"/>
<text xml:space="preserve" text-anchor="middle" x="379.75" y="-165.95" font-family="Times,serif" font-size="14.00">FREE</text>
</g>
<!-- element3 -->
<g id="node6" class="node">
<title>element3</title>
<path fill="#33cc33" stroke="black" d="M347.75,-18.5C347.75,-18.5 411.75,-18.5 411.75,-18.5 417.75,-18.5 423.75,-24.5 423.75,-30.5 423.75,-30.5 423.75,-104.5 423.75,-104.5 423.75,-110.5 417.75,-116.5 411.75,-116.5 411.75,-116.5 347.75,-116.5 347.75,-116.5 341.75,-116.5 335.75,-110.5 335.75,-104.5 335.75,-104.5 335.75,-30.5 335.75,-30.5 335.75,-24.5 341.75,-18.5 347.75,-18.5"/>
<text xml:space="preserve" text-anchor="middle" x="379.75" y="-99.2" font-family="Times,serif" font-size="14.00">idx = [3]</text>
<polyline fill="none" stroke="black" points="335.75,-92 423.75,-92"/>
<text xml:space="preserve" text-anchor="middle" x="379.75" y="-74.7" font-family="Times,serif" font-size="14.00">data = [&#45;666]</text>
<polyline fill="none" stroke="black" points="335.75,-67.5 423.75,-67.5"/>
<text xml:space="preserve" text-anchor="middle" x="379.75" y="-50.2" font-family="Times,serif" font-size="14.00">prev = [&#45;1]</text>
<polyline fill="none" stroke="black" points="335.75,-43 423.75,-43"/>
<text xml:space="preserve" text-anchor="middle" x="379.75" y="-25.7" font-family="Times,serif" font-size="14.00">next = [4]</text>
</g>
<!-- FREE&#45;&gt;element3 -->
<g id="edge22" class="edge">
<title>FREE&#45;&gt;element3</title>
<path fill="none" stroke="#000000" d="M379.75,-152.97C379.75,-152.97 379.75,-128.4 379.75,-128.4"/>
<polygon fill="#000000" stroke="#000000" points="383.25,-128.4 379.75,-118.4 376.25,-128.4 383.25,-128.4"/>
</g>
<!-- element0 -->
<g id="node3" class="node">
<title>element0</title>
<path fill="#ebebe0" stroke="black" d="M12,-18.5C12,-18.5 59.5,-18.5 59.5,-18.5 65.5,-18.5 71.5,-24.5 71.5,-30.5 71.5,-30.5 71.5,-104.5 71.5,-104.5 71.5,-110.5 65.5,-116.5 59.5,-116.5 59.5,-116.5 12,-116.5 12,-116.5 6,-116.5 0,-110.5 0,-104.5 0,-104.5 0,-30.5 0,-30.5 0,-24.5 6,-18.5 12,-18.5"/>
<text xml:space="preserve" text-anchor="middle" x="35.75" y="-99.2" font-family="Times,serif" font-size="14.00">idx = [0]</text>
<polyline fill="none" stroke="black" points="0,-92 71.5,-92"/>
<text xml:space="preserve" text-anchor="middle" x="35.75" y="-74.7" font-family="Times,serif" font-size="14.00">data = [0]</text>
<polyline fill="none" stroke="black" points="0,-67.5 71.5,-67.5"/>
<text xml:space="preserve" text-anchor="middle" x="35.75" y="-50.2" font-family="Times,serif" font-size="14.00">prev = [2]</text>
<polyline fill="none" stroke="black" points="0,-43 71.5,-43"/>
<text xml:space="preserve" text-anchor="middle" x="35.75" y="-25.7" font-family="Times,serif" font-size="14.00">next = [1]</text>
</g>
<!-- element0&#45;&gt;element1 -->
<g id="edge1" class="edge">
<title>element0&#45;&gt;element1</title>
<path fill="none" stroke="none" d="M71.71,-84C71.71,-84 96.06,-84 96.06,-84"/>
<polygon fill="none" stroke="none" points="96.06,-87.5 106.06,-84 96.06,-80.5 96.06,-87.5"/>
</g>
<!-- element0&#45;&gt;element1 -->
<g id="edge11" class="edge">
<title>element0&#45;&gt;element1</title>
<path fill="none" stroke="#000000" d="M83.23,-51C83.23,-51 96.06,-51 96.06,-51"/>
<polygon fill="#000000" stroke="#000000" points="83.23,-47.5 73.23,-51 83.23,-54.5 83.23,-47.5"/>
<polygon fill="#000000" stroke="#000000" points="96.06,-54.5 106.06,-51 96.06,-47.5 96.06,-54.5"/>
</g>
<!-- element2 -->
<g id="node5" class="node">
<title>element2</title>
<path fill="#66ccff" stroke="black" d="M228,-18.5C228,-18.5 287.5,-18.5 287.5,-18.5 293.5,-18.5 299.5,-24.5 299.5,-30.5 299.5,-30.5 299.5,-104.5 299.5,-104.5 299.5,-110.5 293.5,-116.5 287.5,-116.5 287.5,-116.5 228,-116.5 228,-116.5 222,-116.5 216,-110.5 216,-104.5 216,-104.5 216,-30.5 216,-30.5 216,-24.5 222,-18.5 228,-18.5"/>
<text xml:space="preserve" text-anchor="middle" x="257.75" y="-99.2" font-family="Times,serif" font-size="14.00">idx = [2]</text>
<polyline fill="none" stroke="black" points="216,-92 299.5,-92"/>
<text xml:space="preserve" text-anchor="middle" x="257.75" y="-74.7" font-family="Times,serif" font-size="14.00">data = [101]</text>
<polyline fill="none" stroke="black" points="216,-67.5 299.5,-67.5"/>
<text xml:space="preserve" text-anchor="middle" x="257.75" y="-50.2" font-family="Times,serif" font-size="14.00">prev = [1]</text>
<polyline fill="none" stroke="black" points="216,-43 299.5,-43"/>
<text xml:space="preserve" text-anchor="middle" x="257.75" y="-25.7" font-family="Times,serif" font-size="14.00">next = [0]</text>
</g>
<!-- element1&#45;&gt;element2 -->
<g id="edge2" class="edge">
<title>element1&#45;&gt;element2</title>
<path fill="none" stroke="none" d="M179.82,-84C179.82,-84 204.03,-84 204.03,-84"/>
<polygon fill="none" stroke="none" points="204.03,-87.5 214.03,-84 204.03,-80.5 204.03,-87.5"/>
</g>
<!-- element1&#45;&gt;element2 -->
<g id="edge12" class="edge">
<title>element1&#45;&gt;element2</title>
<path fill="none" stroke="#000000" d="M191.33,-51C191.33,-51 204.03,-51 204.03,-51"/>
<polygon fill="#000000" stroke="#000000" points="191.33,-47.5 181.33,-51 191.33,-54.5 191.33,-47.5"/>
<polygon fill="#000000" stroke="#000000" points="204.03,-54.5 214.03,-51 204.03,-47.5 204.03,-54.5"/>
</g>
<!-- element2&#45;&gt;element0 -->
<g id="edge13" class="edge">
<title>element2&#45;&gt;element0</title>
<path fill="none" stroke="#000000" d="M257.75,-6.58C257.75,-6.58 257.75,0 257.75,0 257.75,0 35.75,0 35.75,0 35.75,0 35.75,-6.58 35.75,-6.58"/>
<polygon fill="#000000" stroke="#000000" points="254.25,-6.58 257.75,-16.58 261.25,-6.58 254.25,-6.58"/>
<polygon fill="#000000" stroke="#000000" points="32.25,-6.58 35.75,-16.58 39.25,-6.58 32.25,-6.58"/>
</g>
<!-- element2&#45;&gt;element3 -->
<g id="edge3" class="edge">
<title>element2&#45;&gt;element3</title>
<path fill="none" stroke="none" d="M299.74,-68C299.74,-68 324.09,-68 324.09,-68"/>
<polygon fill="none" stroke="none" points="324.09,-71.5 334.09,-68 324.09,-64.5 324.09,-71.5"/>
</g>
<!-- element4 -->
<g id="node7" class="node">
<title>element4</title>
<path fill="#99ff66" stroke="black" d="M471.75,-18.5C471.75,-18.5 535.75,-18.5 535.75,-18.5 541.75,-18.5 547.75,-24.5 547.75,-30.5 547.75,-30.5 547.75,-104.5 547.75,-104.5 547.75,-110.5 541.75,-116.5 535.75,-116.5 535.75,-116.5 471.75,-116.5 471.75,-116.5 465.75,-116.5 459.75,-110.5 459.75,-104.5 459.75,-104.5 459.75,-30.5 459.75,-30.5 459.75,-24.5 465.75,-18.5 471.75,-18.5"/>
<text xml:space="preserve" text-anchor="middle" x="503.75" y="-99.2" font-family="Times,serif" font-size="14.00">idx = [4]</text>
<polyline fill="none" stroke="black" points="459.75,-92 547.75,-92"/>
<text xml:space="preserve" text-anchor="middle" x="503.75" y="-74.7" font-family="Times,serif" font-size="14.00">data = [&#45;666]</text>
<polyline fill="none" stroke="black" points="459.75,-67.5 547.75,-67.5"/>
<text xml:space="preserve" text-anchor="middle" x="503.75" y="-50.2" font-family="Times,serif" font-size="14.00">prev = [&#45;1]</text>
<polyline fill="none" stroke="black" points="459.75,-43 547.75,-43"/>
<text xml:space="preserve" text-anchor="middle" x="503.75" y="-25.7" font-family="Times,serif" font-size="14.00">next = [5]</text>
</g>
<!-- element3&#45;&gt;element4 -->
<g id="edge4" class="edge">
<title>element3&#45;&gt;element4</title>
<path fill="none" stroke="none" d="M424.17,-84C424.17,-84 448.13,-84 448.13,-84"/>
<polygon fill="none" stroke="none" points="448.13,-87.5 458.13,-84 448.13,-80.5 448.13,-87.5"/>
</g>
<!-- element3&#45;&gt;element4 -->
<g id="edge14" class="edge">
<title>element3&#45;&gt;element4</title>
<path fill="none" stroke="green" d="M424.17,-51C424.17,-51 448.13,-51 448.13,-51"/>
<polygon fill="green" stroke="green" points="448.13,-54.5 458.13,-51 448.13,-47.5 448.13,-54.5"/>
</g>
<!-- element5 -->
<g id="node8" class="node">
<title>element5</title>
<path fill="#99ff66" stroke="black" d="M595.75,-18.5C595.75,-18.5 659.75,-18.5 659.75,-18.5 665.75,-18.5 671.75,-24.5 671.75,-30.5 671.75,-30.5 671.75,-104.5 671.75,-104.5 671.75,-110.5 665.75,-116.5 659.75,-116.5 659.75,-116.5 595.75,-116.5 595.75,-116.5 589.75,-116.5 583.75,-110.5 583.75,-104.5 583.75,-104.5 583.75,-30.5 583.75,-30.5 583.75,-24.5 589.75,-18.5 595.75,-18.5"/>
<text xml:space="preserve" text-anchor="middle" x="627.75" y="-99.2" font-family="Times,serif" font-size="14.00">idx = [5]</text>
<polyline fill="none" stroke="black" points="583.75,-92 671.75,-92"/>
<text xml:space="preserve" text-anchor="middle" x="627.75" y="-74.7" font-family="Times,serif" font-size="14.00">data = [&#45;666]</text>
<polyline fill="none" stroke="black" points="583.75,-67.5 671.75,-67.5"/>
<text xml:space="preserve" text-anchor="middle" x="627.75" y="-50.2" font-family="Times,serif" font-size="14.00">prev = [&#45;1]</text>
<polyline fill="none" stroke="black" points="583.75,-43 671.75,-43"/>
<text xml:space="preserve" text-anchor="middle" x="627.75" y="-25.7" font-family="Times,serif" font-size="14.00">next = [6]</text>
</g>
<!-- element4&#45;&gt;element5 -->
<g id="edge5" class="edge">
<title>element4&#45;&gt;element5</title>
<path fill="none" stroke="none" d="M548.17,-84C548.17,-84 572.13,-84 572.13,-84"/>
<polygon fill="none" stroke="none" points="572.13,-87.5 582.13,-84 572.13,-80.5 572.13,-87.5"/>
</g>
<!-- element4&#45;&gt;element5 -->
<g id="edge15" class="edge">
<title>element4&#45;&gt;element5</title>
<path fill="none" stroke="green" d="M548.17,-51C548.17,-51 572.13,-51 572.13,-51"/>
<polygon fill="green" stroke="green" points="572.13,-54.5 582.13,-51 572.13,-47.5 572.13,-54.5"/>
</g>
<!-- element6 -->
<g id="node9" class="node">
<title>element6</title>
<path fill="#99ff66" stroke="black" d="M719.75,-18.5C719.75,-18.5 783.75,-18.5 783.75,-18.5 789.75,-18.5 795.75,-24.5 795.75,-30.5 795.75,-30.5 795.75,-104.5 795.75,-104.5 795.75,-110.5 789.75,-116.5 783.75,-116.5 783.75,-116.5 719.75,-116.5 719.75,-116.5 713.75,-116.5 707.75,-110.5 707.75,-104.5 707.75,-104.5 707.75,-30.5 707.75,-30.5 707.75,-24.5 713.75,-18.5 719.75,-18.5"/>
<text xml:space="preserve" text-anchor="middle" x="751.75" y="-99.2" font-family="Times,serif" font-size="14.00">idx = [6]</text>
<polyline fill="none" stroke="black" points="707.75,-92 795.75,-92"/>
<text xml:space="preserve" text-anchor="middle" x="751.75" y="-74.7" font-family="Times,serif" font-size="14.00">data = [&#45;666]</text>
<polyline fill="none" stroke="black" points="707.75,-67.5 795.75,-67.5"/>
<text xml:space="preserve" text-anchor="middle" x="751.75" y="-50.2" font-family="Times,serif" font-size="14.00">prev = [&#45;1]</text>
<polyline fill="none" stroke="black" points="707.75,-43 795.75,-43"/>
<text xml:space="preserve" text-anchor="middle" x="751.75" y="-25.7" font-family="Times,serif" font-size="14.00">next = [7]</text>
</g>
<!-- element5&#45;&gt;element6 -->
<g id="edge6" class="edge">
<title>element5&#45;&gt;element6</title>
<path fill="none" stroke="none" d="M672.17,-84C672.17,-84 696.13,-84 696.13,-84"/>
<polygon fill="none" stroke="none" points="696.13,-87.5 706.13,-84 696.13,-80.5 696.13,-87.5"/>
</g>
<!-- element5&#45;&gt;element6 -->
<g id="edge16" class="edge">
<title>element5&#45;&gt;element6</title>
<path fill="none" stroke="green" d="M672.17,-51C672.17,-51 696.13,-51 696.13,-51"/>
<polygon fill="green" stroke="green" points="696.13,-54.5 706.13,-51 696.13,-47.5 696.13,-54.5"/>
</g>
<!-- element7 -->
<g id="node10" class="node">
<title>element7</title>
<path fill="#99ff66" stroke="black" d="M843.75,-18.5C843.75,-18.5 907.75,-18.5 907.75,-18.5 913.75,-18.5 919.75,-24.5 919.75,-30.5 919.75,-30.5 919.75,-104.5 919.75,-104.5 919.75,-110.5 913.75,-116.5 907.75,-116.5 907.75,-116.5 843.75,-116.5 843.75,-116.5 837.75,-116.5 831.75,-110.5 831.75,-104.5 831.75,-104.5 831.75,-30.5 831.75,-30.5 831.75,-24.5 837.75,-18.5 843.75,-18.5"/>
<text xml:space="preserve" text-anchor="middle" x="875.75" y="-99.2" font-family="Times,serif" font-size="14.00">idx = [7]</text>
<polyline fill="none" stroke="black" points="831.75,-92 919.75,-92"/>
<text xml:space="preserve" text-anchor="middle" x="875.75" y="-74.7" font-family="Times,serif" font-size="14.00">data = [&#45;666]</text>
<polyline fill="none" stroke="black" points="831.75,-67.5 919.75,-67.5"/>
<text xml:space="preserve" text-anchor="middle" x="875.75" y="-50.2" font-family="Times,serif" font-size="14.00">prev = [&#45;1]</text>
<polyline fill="none" stroke="black" points="831.75,-43 919.75,-43"/>
<text xml:space="preserve" text-anchor="middle" x="875.75" y="-25.7" font-family="Times,serif" font-size="14.00">next = [8]</text>
</g>
<!-- element6&#45;&gt;element7 -->
<g id="edge7" class="edge">
<title>element6&#45;&gt;element7</title>
<path fill="none" stroke="none" d="M796.17,-84C796.17,-84 820.13,-84 820.13,-84"/>
<polygon fill="none" stroke="none" points="820.13,-87.5 830.13,-84 820.13,-80.5 820.13,-87.5"/>
</g>
<!-- element6&#45;&gt;element7 -->
<g id="edge17" class="edge">
<title>element6&#45;&gt;element7</title>
<path fill="none" stroke="green" d="M796.17,-51C796.17,-51 820.13,-51 820.13,-51"/>
<polygon fill="green" stroke="green" points="820.13,-54.5 830.13,-51 820.13,-47.5 820.13,-54.5"/>
</g>
<!-- element8 -->
<g id="node11" class="node">
<title>element8</title>
<path fill="#99ff66" stroke="black" d="M967.75,-18.5C967.75,-18.5 1031.75,-18.5 1031.75,-18.5 1037.75,-18.5 1043.75,-24.5 1043.75,-30.5 1043.75,-30.5 1043.75,-104.5 1043.75,-104.5 1043.75,-110.5 1037.75,-116.5 1031.75,-116.5 1031.75,-116.5 967.75,-116.5 967.75,-116.5 961.75,-116.5 955.75,-110.5 955.75,-104.5 955.75,-104.5 955.75,-30.5 955.75,-30.5 955.75,-24.5 961.75,-18.5 967.75,-18.5"/>
<text xml:space="preserve" text-anchor="middle" x="999.75" y="-99.2" font-family="Times,serif" font-size="14.00">idx = [8]</text>
<polyline fill="none" stroke="black" points="955.75,-92 1043.75,-92"/>
<text xml:space="preserve" text-anchor="middle" x="999.75" y="-74.7" font-family="Times,serif" font-size="14.00">data = [&#45;666]</text>
<polyline fill="none" stroke="black" points="955.75,-67.5 1043.75,-67.5"/>
<text xml:space="preserve" text-anchor="middle" x="999.75" y="-50.2" font-family="Times,serif" font-size="14.00">prev = [&#45;1]</text>
<polyline fill="none" stroke="black" points="955.75,-43 1043.75,-43"/>
<text xml:space="preserve" text-anchor="middle" x="999.75" y="-25.7" font-family="Times,serif" font-size="14.00">next = [9]</text>
</g>
<!-- element7&#45;&gt;element8 -->
<g id="edge8" class="edge">
<title>element7&#45;&gt;element8</title>
<path fill="none" stroke="none" d="M920.17,-84C920.17,-84 944.13,-84 944.13,-84"/>
<polygon fill="none" stroke="none" points="944.13,-87.5 954.13,-84 944.13,-80.5 944.13,-87.5"/>
</g>
<!-- element7&#45;&gt;element8 -->
<g id="edge18" class="edge">
<title>element7&#45;&gt;element8</title>
<path fill="none" stroke="green" d="M920.17,-51C920.17,-51 944.13,-51 944.13,-51"/>
<polygon fill="green" stroke="green" points="944.13,-54.5 954.13,-51 944.13,-47.5 944.13,-54.5"/>
</g>
<!-- element9 -->
<g id="node12" class="node">
<title>element9</title>
<path fill="#99ff66" stroke="black" d="M1091.75,-18.5C1091.75,-18.5 1155.75,-18.5 1155.75,-18.5 1161.75,-18.5 1167.75,-24.5 1167.75,-30.5 1167.75,-30.5 1167.75,-104.5 1167.75,-104.5 1167.75,-110.5 1161.75,-116.5 1155.75,-116.5 1155.75,-116.5 1091.75,-116.5 1091.75,-116.5 1085.75,-116.5 1079.75,-110.5 1079.75,-104.5 1079.75,-104.5 1079.75,-30.5 1079.75,-30.5 1079.75,-24.5 1085.75,-18.5 1091.75,-18.5"/>
<text xml:space="preserve" text-anchor="middle" x="1123.75" y="-99.2" font-family="Times,serif" font-size="14.00">idx = [9]</text>
<polyline fill="none" stroke="black" points="1079.75,-92 1167.75,-92"/>
<text xml:space="preserve" text-anchor="middle" x="1123.75" y="-74.7" font-family="Times,serif" font-size="14.00">data = [&#45;666]</text>
<polyline fill="none" stroke="black" points="1079.75,-67.5 1167.75,-67.5"/>
<text xml:space="preserve" text-anchor="middle" x="1123.75" y="-50.2" font-family="Times,serif" font-size="14.00">prev = [&#45;1]</text>
<polyline fill="none" stroke="black" points="1079.75,-43 1167.75,-43"/>
<text xml:space="preserve" text-anchor="middle" x="1123.75" y="-25.7" font-family="Times,serif" font-size="14.00">next = [10]</text>
</g>
<!-- element8&#45;&gt;element9 -->
<g id="edge9" class="edge">
<title>element8&#45;&gt;element9</title>
<path fill="none" stroke="none" d="M1044.17,-84C1044.17,-84 1068.13,-84 1068.13,-84"/>
<polygon fill="none" stroke="none" points="1068.13,-87.5 1078.13,-84 1068.13,-80.5 1068.13,-87.5"/>
</g>
<!-- element8&#45;&gt;element9 -->
<g id="edge19" class="edge">
<title>element8&#45;&gt;element9</title>
<path fill="none" stroke="green" d="M1044.17,-51C1044.17,-51 1068.13,-51 1068.13,-51"/>
<polygon fill="green" stroke="green" points="1068.13,-54.5 1078.13,-51 1068.13,-47.5 1068.13,-54.5"/>
</g>
<!-- element10 -->
<g id="node13" class="node">
<title>element10</title>
<path fill="#99ff66" stroke="black" d="M1215.75,-18.5C1215.75,-18.5 1279.75,-18.5 1279.75,-18.5 1285.75,-18.5 1291.75,-24.5 1291.75,-30.5 1291.75,-30.5 1291.75,-104.5 1291.75,-104.5 1291.75,-110.5 1285.75,-116.5 1279.75,-116.5 1279.75,-116.5 1215.75,-116.5 1215.75,-116.5 1209.75,-116.5 1203.75,-110.5 1203.75,-104.5 1203.75,-104.5 1203.75,-30.5 1203.75,-30.5 1203.75,-24.5 1209.75,-18.5 1215.75,-18.5"/>
<text xml:space="preserve" text-anchor="middle" x="1247.75" y="-99.2" font-family="Times,serif" font-size="14.00">idx = [10]</text>
<polyline fill="none" stroke="black" points="1203.75,-92 1291.75,-92"/>
<text xml:space="preserve" text-anchor="middle" x="1247.75" y="-74.7" font-family="Times,serif" font-size="14.00">data = [&#45;666]</text>
<polyline fill="none" stroke="black" points="1203.75,-67.5 1291.75,-67.5"/>
<text xml:space="preserve" text-anchor="middle" x="1247.75" y="-50.2" font-family="Times,serif" font-size="14.00">prev = [&#45;1]</text>
<polyline fill="none" stroke="black" points="1203.75,-43 1291.75,-43"/>
<text xml:space="preserve" text-anchor="middle" x="1247.75" y="-25.7" font-family="Times,serif" font-size="14.00">next = [0]</text>
</g>
<!-- element9&#45;&gt;element10 -->
<g id="edge10" class="edge">
<title>element9&#45;&gt;element10</title>
<path fill="none" stroke="none" d="M1168.17,-84C1168.17,-84 1192.13,-84 1192.13,-84"/>
<polygon fill="none" stroke="none" points="1192.13,-87.5 1202.13,-84 1192.13,-80.5 1192.13,-87.5"/>
</g>
<!-- element9&#45;&gt;element10 -->
<g id="edge20" class="edge">
<title>element9&#45;&gt;element10</title>
<path fill="none" stroke="green" d="M1168.17,-51C1168.17,-51 1192.13,-51 1192.13,-51"/>
<polygon fill="green" stroke="green" points="1192.13,-54.5 1202.13,-51 1192.13,-47.5 1192.13,-54.5"/>
</g>
</g>
</svg>
