<?xml version="1.0" encoding="UTF-8" standalone="no"?>
<!DOCTYPE svg PUBLIC "-//W3C//DTD SVG 1.1//EN"
 "http://www.w3.org/Graphics/SVG/1.1/DTD/svg11.dtd">
<!-- Generated by graphviz version 13.1.1 (20250719.2154)
 -->
<!-- Title: G Pages: 1 -->
<svg width="1296pt" height="179pt"
 viewBox="0.00 0.00 1296.00 179.00" xmlns="http://www.w3.org/2000/svg" xmlns:xlink="http://www.w3.org/1999/xlink">
<g id="graph0" class="graph" transform="scale(1 1) rotate(0) translate(4 175)">
<title>G</title>
<polygon fill="white" stroke="none" points="-4,4 -4,-175 1291.75,-175 1291.75,4 -4,4"/>
<!-- HEAD -->
<g id="node1" class="node">
<title>HEAD</title>
<polygon fill="#cc99ff" stroke="black" points="183.27,-145.54 183.27,-160.46 160.12,-171 127.38,-171 104.23,-160.46 104.23,-145.54 127.38,-135 160.12,-135 183.27,-145.54"/>
<text xml:space="preserve" text-anchor="middle" x="143.75" y="-147.95" font-family="Times,serif" font-size="14.00">HEAD</text>
</g>
<!-- element1 -->
<g id="node4" class="node">
<title>element1</title>
<path fill="#cc99ff" stroke="black" d="M120,-0.5C120,-0.5 167.5,-0.5 167.5,-0.5 173.5,-0.5 179.5,-6.5 179.5,-12.5 179.5,-12.5 179.5,-86.5 179.5,-86.5 179.5,-92.5 173.5,-98.5 167.5,-98.5 167.5,-98.5 120,-98.5 120,-98.5 114,-98.5 108,-92.5 108,-86.5 108,-86.5 108,-12.5 108,-12.5 108,-6.5 114,-0.5 120,-0.5"/>
<text xml:space="preserve" text-anchor="middle" x="143.75" y="-81.2" font-family="Times,serif" font-size="14.00">idx = [1]</text>
<polyline fill="none" stroke="black" points="108,-74 179.5,-74"/>
<text xml:space="preserve" text-anchor="middle" x="143.75" y="-56.7" font-family="Times,serif" font-size="14.00">data = [0]</text>
<polyline fill="none" stroke="black" points="108,-49.5 179.5,-49.5"/>
<text xml:space="preserve" text-anchor="middle" x="143.75" y="-32.2" font-family="Times,serif" font-size="14.00">prev = [0]</text>
<polyline fill="none" stroke="black" points="108,-25 179.5,-25"/>
<text xml:space="preserve" text-anchor="middle" x="143.75" y="-7.7" font-family="Times,serif" font-size="14.00">next = [2]</text>
</g>
<!-- HEAD&#45;&gt;element1 -->
<g id="edge21" class="edge">
<title>HEAD&#45;&gt;element1</title>
<path fill="none" stroke="#000000" d="M143.75,-134.97C143.75,-134.97 143.75,-110.4 143.75,-110.4"/>
<polygon fill="#000000" stroke="#000000" points="147.25,-110.4 143.75,-100.4 140.25,-110.4 147.25,-110.4"/>
</g>
<!-- FREE -->
<g id="node2" class="node">
<title>FREE</title>
<polygon fill="#33cc33" stroke="black" points="535.94,-145.54 535.94,-160.46 514.74,-171 484.76,-171 463.56,-160.46 463.56,-145.54 484.76,-135 514.74,-135 535.94,-145.54"/>
<text xml:space="preserve" text-anchor="middle" x="499.75" y="-147.95" font-family="Times,serif" font-size="14.00">FREE</text>
</g>
<!-- element4 -->
<g id="node7" class="node">
<title>element4</title>
<path fill="#33cc33" stroke="black" d="M467.75,-0.5C467.75,-0.5 531.75,-0.5 531.75,-0.5 537.75,-0.5 543.75,-6.5 543.75,-12.5 543.75,-12.5 543.75,-86.5 543.75,-86.5 543.75,-92.5 537.75,-98.5 531.75,-98.5 531.75,-98.5 467.75,-98.5 467.75,-98.5 461.75,-98.5 455.75,-92.5 455.75,-86.5 455.75,-86.5 455.75,-12.5 455.75,-12.5 455.75,-6.5 461.75,-0.5 467.75,-0.5"/>
<text xml:space="preserve" text-anchor="middle" x="499.75" y="-81.2" font-family="Times,serif" font-size="14.00">idx = [4]</text>
<polyline fill="none" stroke="black" points="455.75,-74 543.75,-74"/>
<text xml:space="preserve" text-anchor="middle" x="499.75" y="-56.7" font-family="Times,serif" font-size="14.00">data = [&#45;666]</text>
<polyline fill="none" stroke="black" points="455.75,-49.5 543.75,-49.5"/>
<text xml:space="preserve" text-anchor="middle" x="499.75" y="-32.2" font-family="Times,serif" font-size="14.00">prev = [&#45;1]</text>
<polyline fill="none" stroke="black" points="455.75,-25 543.75,-25"/>
<text xml:space="preserve" text-anchor="middle" x="499.75" y="-7.7" font-family="Times,serif" font-size="14.00">next = [5]</text>
</g>
<!-- FREE&#45;&gt;element4 -->
<g id="edge22" class="edge">
<title>FREE&#45;&gt;element4</title>
<path fill="none" stroke="#000000" d="M499.75,-134.97C499.75,-134.97 499.75,-110.4 499.75,-110.4"/>
<polygon fill="#000000" stroke="#000000" points="503.25,-110.4 499.75,-100.4 496.25,-110.4 503.25,-110.4"/>
</g>
<!-- element0 -->
<g id="node3" class="node">
<title>element0</title>
<path fill="#ebebe0" stroke="black" d="M12,-0.5C12,-0.5 59.5,-0.5 59.5,-0.5 65.5,-0.5 71.5,-6.5 71.5,-12.5 71.5,-12.5 71.5,-86.5 71.5,-86.5 71.5,-92.5 65.5,-98.5 59.5,-98.5 59.5,-98.5 12,-98.5 12,-98.5 6,-98.5 0,-92.5 0,-86.5 0,-86.5 0,-12.5 0,-12.5 0,-6.5 6,-0.5 12,-0.5"/>
<text xml:space="preserve" text-anchor="middle" x="35.75" y="-81.2" font-family="Times,serif" font-size="14.00">idx = [0]</text>
<polyline fill="none" stroke="black" points="0,-74 71.5,-74"/>
<text xml:space="preserve" text-anchor="middle" x="35.75" y="-56.7" font-family="Times,serif" font-size="14.00">data = [0]</text>
<polyline fill="none" stroke="black" points="0,-49.5 71.5,-49.5"/>
<text xml:space="preserve" text-anchor="middle" x="35.75" y="-32.2" font-family="Times,serif" font-size="14.00">prev = [3]</text>
<polyline fill="none" stroke="black" points="0,-25 71.5,-25"/>
<text xml:space="preserve" text-anchor="middle" x="35.75" y="-7.7" font-family="Times,serif" font-size="14.00">next = [1]</text>
</g>
<!-- element0&#45;&gt;element1 -->
<g id="edge1" class="edge">
<title>element0&#45;&gt;element1</title>
<path fill="none" stroke="none" d="M71.71,-66C71.71,-66 96.06,-66 96.06,-66"/>
<polygon fill="none" stroke="none" points="96.06,-69.5 106.06,-66 96.06,-62.5 96.06,-69.5"/>
</g>
<!-- element0&#45;&gt;element1 -->
<g id="edge11" class="edge">
<title>element0&#45;&gt;element1</title>
<path fill="none" stroke="#000000" d="M83.23,-33C83.23,-33 96.06,-33 96.06,-33"/>
<polygon fill="#000000" stroke="#000000" points="83.23,-29.5 73.23,-33 83.23,-36.5 83.23,-29.5"/>
<polygon fill="#000000" stroke="#000000" points="96.06,-36.5 106.06,-33 96.06,-29.5 96.06,-36.5"/>
</g>
<!-- element2 -->
<g id="node5" class="node">
<title>element2</title>
<path fill="#66ccff" stroke="black" d="M228,-0.5C228,-0.5 287.5,-0.5 287.5,-0.5 293.5,-0.5 299.5,-6.5 299.5,-12.5 299.5,-12.5 299.5,-86.5 299.5,-86.5 299.5,-92.5 293.5,-98.5 287.5,-98.5 287.5,-98.5 228,-98.5 228,-98.5 222,-98.5 216,-92.5 216,-86.5 216,-86.5 216,-12.5 216,-12.5 216,-6.5 222,-0.5 228,-0.5"/>
<text xml:space="preserve" text-anchor="middle" x="257.75" y="-81.2" font-family="Times,serif" font-size="14.00">idx = [2]</text>
<polyline fill="none" stroke="black" points="216,-74 299.5,-74"/>
<text xml:space="preserve" text-anchor="middle" x="257.75" y="-56.7" font-family="Times,serif" font-size="14.00">data = [101]</text>
<polyline fill="none" stroke="black" points="216,-49.5 299.5,-49.5"/>
<text xml:space="preserve" text-anchor="middle" x="257.75" y="-32.2" font-family="Times,serif" font-size="14.00">prev = [1]</text>
<polyline fill="none" stroke="black" points="216,-25 299.5,-25"/>
<text xml:space="preserve" text-anchor="middle" x="257.75" y="-7.7" font-family="Times,serif" font-size="14.00">next = [3]</text>
</g>
<!-- element1&#45;&gt;element2 -->
<g id="edge2" class="edge">
<title>element1&#45;&gt;element2</title>
<path fill="none" stroke="none" d="M179.82,-66C179.82,-66 204.03,-66 204.03,-66"/>
<polygon fill="none" stroke="none" points="204.03,-69.5 214.03,-66 204.03,-62.5 204.03,-69.5"/>
</g>
<!-- element1&#45;&gt;element2 -->
<g id="edge12" class="edge">
<title>element1&#45;&gt;element2</title>
<path fill="none" stroke="#000000" d="M191.33,-33C191.33,-33 204.03,-33 204.03,-33"/>
<polygon fill="#000000" stroke="#000000" points="191.33,-29.5 181.33,-33 191.33,-36.5 191.33,-29.5"/>
<polygon fill="#000000" stroke="#000000" points="204.03,-36.5 214.03,-33 204.03,-29.5 204.03,-36.5"/>
</g>
<!-- element3 -->
<g id="node6" class="node">
<title>element3</title>
<path fill="#66ccff" stroke="black" d="M348,-0.5C348,-0.5 407.5,-0.5 407.5,-0.5 413.5,-0.5 419.5,-6.5 419.5,-12.5 419.5,-12.5 419.5,-86.5 419.5,-86.5 419.5,-92.5 413.5,-98.5 407.5,-98.5 407.5,-98.5 348,-98.5 348,-98.5 342,-98.5 336,-92.5 336,-86.5 336,-86.5 336,-12.5 336,-12.5 336,-6.5 342,-0.5 348,-0.5"/>
<text xml:space="preserve" text-anchor="middle" x="377.75" y="-81.2" font-family="Times,serif" font-size="14.00">idx = [3]</text>
<polyline fill="none" stroke="black" points="336,-74 419.5,-74"/>
<text xml:space="preserve" text-anchor="middle" x="377.75" y="-56.7" font-family="Times,serif" font-size="14.00">data = [202]</text>
<polyline fill="none" stroke="black" points="336,-49.5 419.5,-49.5"/>
<text xml:space="preserve" text-anchor="middle" x="377.75" y="-32.2" font-family="Times,serif" font-size="14.00">prev = [2]</text>
<polyline fill="none" stroke="black" points="336,-25 419.5,-25"/>
<text xml:space="preserve" text-anchor="middle" x="377.75" y="-7.7" font-family="Times,serif" font-size="14.00">next = [0]</text>
</g>
<!-- element2&#45;&gt;element3 -->
<g id="edge3" class="edge">
<title>element2&#45;&gt;element3</title>
<path fill="none" stroke="none" d="M299.72,-66C299.72,-66 324.09,-66 324.09,-66"/>
<polygon fill="none" stroke="none" points="324.09,-69.5 334.09,-66 324.09,-62.5 324.09,-69.5"/>
</g>
<!-- element2&#45;&gt;element3 -->
<g id="edge13" class="edge">
<title>element2&#45;&gt;element3</title>
<path fill="none" stroke="#000000" d="M311.23,-33C311.23,-33 324.09,-33 324.09,-33"/>
<polygon fill="#000000" stroke="#000000" points="311.23,-29.5 301.23,-33 311.23,-36.5 311.23,-29.5"/>
<polygon fill="#000000" stroke="#000000" points="324.09,-36.5 334.09,-33 324.09,-29.5 324.09,-36.5"/>
</g>
<!-- element3&#45;&gt;element0 -->
<g id="edge14" class="edge">
<title>element3&#45;&gt;element0</title>
<path fill="none" stroke="#000000" d="M377.75,-110.42C377.75,-110.42 377.75,-117 377.75,-117 377.75,-117 35.75,-117 35.75,-117 35.75,-117 35.75,-110.42 35.75,-110.42"/>
<polygon fill="#000000" stroke="#000000" points="381.25,-110.42 377.75,-100.42 374.25,-110.42 381.25,-110.42"/>
<polygon fill="#000000" stroke="#000000" points="39.25,-110.42 35.75,-100.42 32.25,-110.42 39.25,-110.42"/>
</g>
<!-- element3&#45;&gt;element4 -->
<g id="edge4" class="edge">
<title>element3&#45;&gt;element4</title>
<path fill="none" stroke="none" d="M419.74,-50C419.74,-50 444.09,-50 444.09,-50"/>
<polygon fill="none" stroke="none" points="444.09,-53.5 454.09,-50 444.09,-46.5 444.09,-53.5"/>
</g>
<!-- element5 -->
<g id="node8" class="node">
<title>element5</title>
<path fill="#99ff66" stroke="black" d="M591.75,-0.5C591.75,-0.5 655.75,-0.5 655.75,-0.5 661.75,-0.5 667.75,-6.5 667.75,-12.5 667.75,-12.5 667.75,-86.5 667.75,-86.5 667.75,-92.5 661.75,-98.5 655.75,-98.5 655.75,-98.5 591.75,-98.5 591.75,-98.5 585.75,-98.5 579.75,-92.5 579.75,-86.5 579.75,-86.5 579.75,-12.5 579.75,-12.5 579.75,-6.5 585.75,-0.5 591.75,-0.5"/>
<text xml:space="preserve" text-anchor="middle" x="623.75" y="-81.2" font-family="Times,serif" font-size="14.00">idx = [5]</text>
<polyline fill="none" stroke="black" points="579.75,-74 667.75,-74"/>
<text xml:space="preserve" text-anchor="middle" x="623.75" y="-56.7" font-family="Times,serif" font-size="14.00">data = [&#45;666]</text>
<polyline fill="none" stroke="black" points="579.75,-49.5 667.75,-49.5"/>
<text xml:space="preserve" text-anchor="middle" x="623.75" y="-32.2" font-family="Times,serif" font-size="14.00">prev = [&#45;1]</text>
<polyline fill="none" stroke="black" points="579.75,-25 667.75,-25"/>
<text xml:space="preserve" text-anchor="middle" x="623.75" y="-7.7" font-family="Times,serif" font-size="14.00">next = [6]</text>
</g>
<!-- element4&#45;&gt;element5 -->
<g id="edge5" class="edge">
<title>element4&#45;&gt;element5</title>
<path fill="none" stroke="none" d="M544.17,-66C544.17,-66 568.13,-66 568.13,-66"/>
<polygon fill="none" stroke="none" points="568.13,-69.5 578.13,-66 568.13,-62.5 568.13,-69.5"/>
</g>
<!-- element4&#45;&gt;element5 -->
<g id="edge15" class="edge">
<title>element4&#45;&gt;element5</title>
<path fill="none" stroke="green" d="M544.17,-33C544.17,-33 568.13,-33 568.13,-33"/>
<polygon fill="green" stroke="green" points="568.13,-36.5 578.13,-33 568.13,-29.5 568.13,-36.5"/>
</g>
<!-- element6 -->
<g id="node9" class="node">
<title>element6</title>
<path fill="#99ff66" stroke="black" d="M715.75,-0.5C715.75,-0.5 779.75,-0.5 779.75,-0.5 785.75,-0.5 791.75,-6.5 791.75,-12.5 791.75,-12.5 791.75,-86.5 791.75,-86.5 791.75,-92.5 785.75,-98.5 779.75,-98.5 779.75,-98.5 715.75,-98.5 715.75,-98.5 709.75,-98.5 703.75,-92.5 703.75,-86.5 703.75,-86.5 703.75,-12.5 703.75,-12.5 703.75,-6.5 709.75,-0.5 715.75,-0.5"/>
<text xml:space="preserve" text-anchor="middle" x="747.75" y="-81.2" font-family="Times,serif" font-size="14.00">idx = [6]</text>
<polyline fill="none" stroke="black" points="703.75,-74 791.75,-74"/>
<text xml:space="preserve" text-anchor="middle" x="747.75" y="-56.7" font-family="Times,serif" font-size="14.00">data = [&#45;666]</text>
<polyline fill="none" stroke="black" points="703.75,-49.5 791.75,-49.5"/>
<text xml:space="preserve" text-anchor="middle" x="747.75" y="-32.2" font-family="Times,serif" font-size="14.00">prev = [&#45;1]</text>
<polyline fill="none" stroke="black" points="703.75,-25 791.75,-25"/>
<text xml:space="preserve" text-anchor="middle" x="747.75" y="-7.7" font-family="Times,serif" font-size="14.00">next = [7]</text>
</g>
<!-- element5&#45;&gt;element6 -->
<g id="edge6" class="edge">
<title>element5&#45;&gt;element6</title>
<path fill="none" stroke="none" d="M668.17,-66C668.17,-66 692.13,-66 692.13,-66"/>
<polygon fill="none" stroke="none" points="692.13,-69.5 702.13,-66 692.13,-62.5 692.13,-69.5"/>
</g>
<!-- element5&#45;&gt;element6 -->
<g id="edge16" class="edge">
<title>element5&#45;&gt;element6</title>
<path fill="none" stroke="green" d="M668.17,-33C668.17,-33 692.13,-33 692.13,-33"/>
<polygon fill="green" stroke="green" points="692.13,-36.5 702.13,-33 692.13,-29.5 692.13,-36.5"/>
</g>
<!-- element7 -->
<g id="node10" class="node">
<title>element7</title>
<path fill="#99ff66" stroke="black" d="M839.75,-0.5C839.75,-0.5 903.75,-0.5 903.75,-0.5 909.75,-0.5 915.75,-6.5 915.75,-12.5 915.75,-12.5 915.75,-86.5 915.75,-86.5 915.75,-92.5 909.75,-98.5 903.75,-98.5 903.75,-98.5 839.75,-98.5 839.75,-98.5 833.75,-98.5 827.75,-92.5 827.75,-86.5 827.75,-86.5 827.75,-12.5 827.75,-12.5 827.75,-6.5 833.75,-0.5 839.75,-0.5"/>
<text xml:space="preserve" text-anchor="middle" x="871.75" y="-81.2" font-family="Times,serif" font-size="14.00">idx = [7]</text>
<polyline fill="none" stroke="black" points="827.75,-74 915.75,-74"/>
<text xml:space="preserve" text-anchor="middle" x="871.75" y="-56.7" font-family="Times,serif" font-size="14.00">data = [&#45;666]</text>
<polyline fill="none" stroke="black" points="827.75,-49.5 915.75,-49.5"/>
<text xml:space="preserve" text-anchor="middle" x="871.75" y="-32.2" font-family="Times,serif" font-size="14.00">prev = [&#45;1]</text>
<polyline fill="none" stroke="black" points="827.75,-25 915.75,-25"/>
<text xml:space="preserve" text-anchor="middle" x="871.75" y="-7.7" font-family="Times,serif" font-size="14.00">next = [8]</text>
</g>
<!-- element6&#45;&gt;element7 -->
<g id="edge7" class="edge">
<title>element6&#45;&gt;element7</title>
<path fill="none" stroke="none" d="M792.17,-66C792.17,-66 816.13,-66 816.13,-66"/>
<polygon fill="none" stroke="none" points="816.13,-69.5 826.13,-66 816.13,-62.5 816.13,-69.5"/>
</g>
<!-- element6&#45;&gt;element7 -->
<g id="edge17" class="edge">
<title>element6&#45;&gt;element7</title>
<path fill="none" stroke="green" d="M792.17,-33C792.17,-33 816.13,-33 816.13,-33"/>
<polygon fill="green" stroke="green" points="816.13,-36.5 826.13,-33 816.13,-29.5 816.13,-36.5"/>
</g>
<!-- element8 -->
<g id="node11" class="node">
<title>element8</title>
<path fill="#99ff66" stroke="black" d="M963.75,-0.5C963.75,-0.5 1027.75,-0.5 1027.75,-0.5 1033.75,-0.5 1039.75,-6.5 1039.75,-12.5 1039.75,-12.5 1039.75,-86.5 1039.75,-86.5 1039.75,-92.5 1033.75,-98.5 1027.75,-98.5 1027.75,-98.5 963.75,-98.5 963.75,-98.5 957.75,-98.5 951.75,-92.5 951.75,-86.5 951.75,-86.5 951.75,-12.5 951.75,-12.5 951.75,-6.5 957.75,-0.5 963.75,-0.5"/>
<text xml:space="preserve" text-anchor="middle" x="995.75" y="-81.2" font-family="Times,serif" font-size="14.00">idx = [8]</text>
<polyline fill="none" stroke="black" points="951.75,-74 1039.75,-74"/>
<text xml:space="preserve" text-anchor="middle" x="995.75" y="-56.7" font-family="Times,serif" font-size="14.00">data = [&#45;666]</text>
<polyline fill="none" stroke="black" points="951.75,-49.5 1039.75,-49.5"/>
<text xml:space="preserve" text-anchor="middle" x="995.75" y="-32.2" font-family="Times,serif" font-size="14.00">prev = [&#45;1]</text>
<polyline fill="none" stroke="black" points="951.75,-25 1039.75,-25"/>
<text xml:space="preserve" text-anchor="middle" x="995.75" y="-7.7" font-family="Times,serif" font-size="14.00">next = [9]</text>
</g>
<!-- element7&#45;&gt;element8 -->
<g id="edge8" class="edge">
<title>element7&#45;&gt;element8</title>
<path fill="none" stroke="none" d="M916.17,-66C916.17,-66 940.13,-66 940.13,-66"/>
<polygon fill="none" stroke="none" points="940.13,-69.5 950.13,-66 940.13,-62.5 940.13,-69.5"/>
</g>
<!-- element7&#45;&gt;element8 -->
<g id="edge18" class="edge">
<title>element7&#45;&gt;element8</title>
<path fill="none" stroke="green" d="M916.17,-33C916.17,-33 940.13,-33 940.13,-33"/>
<polygon fill="green" stroke="green" points="940.13,-36.5 950.13,-33 940.13,-29.5 940.13,-36.5"/>
</g>
<!-- element9 -->
<g id="node12" class="node">
<title>element9</title>
<path fill="#99ff66" stroke="black" d="M1087.75,-0.5C1087.75,-0.5 1151.75,-0.5 1151.75,-0.5 1157.75,-0.5 1163.75,-6.5 1163.75,-12.5 1163.75,-12.5 1163.75,-86.5 1163.75,-86.5 1163.75,-92.5 1157.75,-98.5 1151.75,-98.5 1151.75,-98.5 1087.75,-98.5 1087.75,-98.5 1081.75,-98.5 1075.75,-92.5 1075.75,-86.5 1075.75,-86.5 1075.75,-12.5 1075.75,-12.5 1075.75,-6.5 1081.75,-0.5 1087.75,-0.5"/>
<text xml:space="preserve" text-anchor="middle" x="1119.75" y="-81.2" font-family="Times,serif" font-size="14.00">idx = [9]</text>
<polyline fill="none" stroke="black" points="1075.75,-74 1163.75,-74"/>
<text xml:space="preserve" text-anchor="middle" x="1119.75" y="-56.7" font-family="Times,serif" font-size="14.00">data = [&#45;666]</text>
<polyline fill="none" stroke="black" points="1075.75,-49.5 1163.75,-49.5"/>
<text xml:space="preserve" text-anchor="middle" x="1119.75" y="-32.2" font-family="Times,serif" font-size="14.00">prev = [&#45;1]</text>
<polyline fill="none" stroke="black" points="1075.75,-25 1163.75,-25"/>
<text xml:space="preserve" text-anchor="middle" x="1119.75" y="-7.7" font-family="Times,serif" font-size="14.00">next = [10]</text>
</g>
<!-- element8&#45;&gt;element9 -->
<g id="edge9" class="edge">
<title>element8&#45;&gt;element9</title>
<path fill="none" stroke="none" d="M1040.17,-66C1040.17,-66 1064.13,-66 1064.13,-66"/>
<polygon fill="none" stroke="none" points="1064.13,-69.5 1074.13,-66 1064.13,-62.5 1064.13,-69.5"/>
</g>
<!-- element8&#45;&gt;element9 -->
<g id="edge19" class="edge">
<title>element8&#45;&gt;element9</title>
<path fill="none" stroke="green" d="M1040.17,-33C1040.17,-33 1064.13,-33 1064.13,-33"/>
<polygon fill="green" stroke="green" points="1064.13,-36.5 1074.13,-33 1064.13,-29.5 1064.13,-36.5"/>
</g>
<!-- element10 -->
<g id="node13" class="node">
<title>element10</title>
<path fill="#99ff66" stroke="black" d="M1211.75,-0.5C1211.75,-0.5 1275.75,-0.5 1275.75,-0.5 1281.75,-0.5 1287.75,-6.5 1287.75,-12.5 1287.75,-12.5 1287.75,-86.5 1287.75,-86.5 1287.75,-92.5 1281.75,-98.5 1275.75,-98.5 1275.75,-98.5 1211.75,-98.5 1211.75,-98.5 1205.75,-98.5 1199.75,-92.5 1199.75,-86.5 1199.75,-86.5 1199.75,-12.5 1199.75,-12.5 1199.75,-6.5 1205.75,-0.5 1211.75,-0.5"/>
<text xml:space="preserve" text-anchor="middle" x="1243.75" y="-81.2" font-family="Times,serif" font-size="14.00">idx = [10]</text>
<polyline fill="none" stroke="black" points="1199.75,-74 1287.75,-74"/>
<text xml:space="preserve" text-anchor="middle" x="1243.75" y="-56.7" font-family="Times,serif" font-size="14.00">data = [&#45;666]</text>
<polyline fill="none" stroke="black" points="1199.75,-49.5 1287.75,-49.5"/>
<text xml:space="preserve" text-anchor="middle" x="1243.75" y="-32.2" font-family="Times,serif" font-size="14.00">prev = [&#45;1]</text>
<polyline fill="none" stroke="black" points="1199.75,-25 1287.75,-25"/>
<text xml:space="preserve" text-anchor="middle" x="1243.75" y="-7.7" font-family="Times,serif" font-size="14.00">next = [0]</text>
</g>
<!-- element9&#45;&gt;element10 -->
<g id="edge10" class="edge">
<title>element9&#45;&gt;element10</title>
<path fill="none" stroke="none" d="M1164.17,-66C1164.17,-66 1188.13,-66 1188.13,-66"/>
<polygon fill="none" stroke="none" points="1188.13,-69.5 1198.13,-66 1188.13,-62.5 1188.13,-69.5"/>
</g>
<!-- element9&#45;&gt;element10 -->
<g id="edge20" class="edge">
<title>element9&#45;&gt;element10</title>
<path fill="none" stroke="green" d="M1164.17,-33C1164.17,-33 1188.13,-33 1188.13,-33"/>
<polygon fill="green" stroke="green" points="1188.13,-36.5 1198.13,-33 1188.13,-29.5 1188.13,-36.5"/>
</g>
</g>
</svg>
