<?xml version="1.0" encoding="UTF-8" standalone="no"?>
<!DOCTYPE svg PUBLIC "-//W3C//DTD SVG 1.1//EN"
 "http://www.w3.org/Graphics/SVG/1.1/DTD/svg11.dtd">
<!-- Generated by graphviz version 13.1.1 (20250719.2154)
 -->
<!-- Title: G Pages: 1 -->
<svg width="1292pt" height="179pt"
 viewBox="0.00 0.00 1292.00 179.00" xmlns="http://www.w3.org/2000/svg" xmlns:xlink="http://www.w3.org/1999/xlink">
<g id="graph0" class="graph" transform="scale(1 1) rotate(0) translate(4 175)">
<title>G</title>
<polygon fill="white" stroke="none" points="-4,4 -4,-175 1287.75,-175 1287.75,4 -4,4"/>
<!-- HEAD -->
<g id="node1" class="node">
<title>HEAD</title>
<polygon fill="#cc99ff" stroke="black" points="183.27,-145.54 183.27,-160.46 160.12,-171 127.38,-171 104.23,-160.46 104.23,-145.54 127.38,-135 160.12,-135 183.27,-145.54"/>
<text xml:space="preserve" text-anchor="middle" x="143.75" y="-147.95" font-family="Times,serif" font-size="14.00">HEAD</text>
</g>
<!-- element1 -->
<g id="node4" class="node">
<title>element1</title>
<path fill="#cc99ff" stroke="black" d="M120,-0.5C120,-0.5 167.5,-0.5 167.5,-0.5 173.5,-0.5 179.5,-6.5 179.5,-12.5 179.5,-12.5 179.5,-86.5 179.5,-86.5 179.5,-92.5 173.5,-98.5 167.5,-98.5 167.5,-98.5 120,-98.5 120,-98.5 114,-98.5 108,-92.5 108,-86.5 108,-86.5 108,-12.5 108,-12.5 108,-6.5 114,-0.5 120,-0.5"/>
<text xml:space="preserve" text-anchor="middle" x="143.75" y="-81.2" font-family="Times,serif" font-size="14.00">idx = [1]</text>
<polyline fill="none" stroke="black" points="108,-74 179.5,-74"/>
<text xml:space="preserve" text-anchor="middle" x="143.75" y="-56.7" font-family="Times,serif" font-size="14.00">data = [0]</text>
<polyline fill="none" stroke="black" points="108,-49.5 179.5,-49.5"/>
<text xml:space="preserve" text-anchor="middle" x="143.75" y="-32.2" font-family="Times,serif" font-size="14.00">prev = [0]</text>
<polyline fill="none" stroke="black" points="108,-25 179.5,-25"/>
<text xml:space="preserve" text-anchor="middle" x="143.75" y="-7.7" font-family="Times,serif" font-size="14.00">next = [2]</text>
</g>
<!-- HEAD&#45;&gt;element1 -->
<g id="edge21" class="edge">
<title>HEAD&#45;&gt;element1</title>
<path fill="none" stroke="#000000" d="M143.75,-134.97C143.75,-134.97 143.75,-110.4 143.75,-110.4"/>
<polygon fill="#000000" stroke="#000000" points="147.25,-110.4 143.75,-100.4 140.25,-110.4 147.25,-110.4"/>
</g>
<!-- FREE -->
<g id="node2" class="node">
<title>FREE</title>
<polygon fill="#33cc33" stroke="black" points="655.94,-145.54 655.94,-160.46 634.74,-171 604.76,-171 583.56,-160.46 583.56,-145.54 604.76,-135 634.74,-135 655.94,-145.54"/>
<text xml:space="preserve" text-anchor="middle" x="619.75" y="-147.95" font-family="Times,serif" font-size="14.00">FREE</text>
</g>
<!-- element5 -->
<g id="node8" class="node">
<title>element5</title>
<path fill="#33cc33" stroke="black" d="M587.75,-0.5C587.75,-0.5 651.75,-0.5 651.75,-0.5 657.75,-0.5 663.75,-6.5 663.75,-12.5 663.75,-12.5 663.75,-86.5 663.75,-86.5 663.75,-92.5 657.75,-98.5 651.75,-98.5 651.75,-98.5 587.75,-98.5 587.75,-98.5 581.75,-98.5 575.75,-92.5 575.75,-86.5 575.75,-86.5 575.75,-12.5 575.75,-12.5 575.75,-6.5 581.75,-0.5 587.75,-0.5"/>
<text xml:space="preserve" text-anchor="middle" x="619.75" y="-81.2" font-family="Times,serif" font-size="14.00">idx = [5]</text>
<polyline fill="none" stroke="black" points="575.75,-74 663.75,-74"/>
<text xml:space="preserve" text-anchor="middle" x="619.75" y="-56.7" font-family="Times,serif" font-size="14.00">data = [&#45;666]</text>
<polyline fill="none" stroke="black" points="575.75,-49.5 663.75,-49.5"/>
<text xml:space="preserve" text-anchor="middle" x="619.75" y="-32.2" font-family="Times,serif" font-size="14.00">prev = [&#45;1]</text>
<polyline fill="none" stroke="black" points="575.75,-25 663.75,-25"/>
<text xml:space="preserve" text-anchor="middle" x="619.75" y="-7.7" font-family="Times,serif" font-size="14.00">next = [6]</text>
</g>
<!-- FREE&#45;&gt;element5 -->
<g id="edge22" class="edge">
<title>FREE&#45;&gt;element5</title>
<path fill="none" stroke="#000000" d="M619.75,-134.97C619.75,-134.97 619.75,-110.4 619.75,-110.4"/>
<polygon fill="#000000" stroke="#000000" points="623.25,-110.4 619.75,-100.4 616.25,-110.4 623.25,-110.4"/>
</g>
<!-- element0 -->
<g id="node3" class="node">
<title>element0</title>
<path fill="#ebebe0" stroke="black" d="M12,-0.5C12,-0.5 59.5,-0.5 59.5,-0.5 65.5,-0.5 71.5,-6.5 71.5,-12.5 71.5,-12.5 71.5,-86.5 71.5,-86.5 71.5,-92.5 65.5,-98.5 59.5,-98.5 59.5,-98.5 12,-98.5 12,-98.5 6,-98.5 0,-92.5 0,-86.5 0,-86.5 0,-12.5 0,-12.5 0,-6.5 6,-0.5 12,-0.5"/>
<text xml:space="preserve" text-anchor="middle" x="35.75" y="-81.2" font-family="Times,serif" font-size="14.00">idx = [0]</text>
<polyline fill="none" stroke="black" points="0,-74 71.5,-74"/>
<text xml:space="preserve" text-anchor="middle" x="35.75" y="-56.7" font-family="Times,serif" font-size="14.00">data = [0]</text>
<polyline fill="none" stroke="black" points="0,-49.5 71.5,-49.5"/>
<text xml:space="preserve" text-anchor="middle" x="35.75" y="-32.2" font-family="Times,serif" font-size="14.00">prev = [4]</text>
<polyline fill="none" stroke="black" points="0,-25 71.5,-25"/>
<text xml:space="preserve" text-anchor="middle" x="35.75" y="-7.7" font-family="Times,serif" font-size="14.00">next = [1]</text>
</g>
<!-- element0&#45;&gt;element1 -->
<g id="edge1" class="edge">
<title>element0&#45;&gt;element1</title>
<path fill="none" stroke="none" d="M71.71,-66C71.71,-66 96.06,-66 96.06,-66"/>
<polygon fill="none" stroke="none" points="96.06,-69.5 106.06,-66 96.06,-62.5 96.06,-69.5"/>
</g>
<!-- element0&#45;&gt;element1 -->
<g id="edge11" class="edge">
<title>element0&#45;&gt;element1</title>
<path fill="none" stroke="#000000" d="M83.23,-33C83.23,-33 96.06,-33 96.06,-33"/>
<polygon fill="#000000" stroke="#000000" points="83.23,-29.5 73.23,-33 83.23,-36.5 83.23,-29.5"/>
<polygon fill="#000000" stroke="#000000" points="96.06,-36.5 106.06,-33 96.06,-29.5 96.06,-36.5"/>
</g>
<!-- element2 -->
<g id="node5" class="node">
<title>element2</title>
<path fill="#66ccff" stroke="black" d="M228,-0.5C228,-0.5 287.5,-0.5 287.5,-0.5 293.5,-0.5 299.5,-6.5 299.5,-12.5 299.5,-12.5 299.5,-86.5 299.5,-86.5 299.5,-92.5 293.5,-98.5 287.5,-98.5 287.5,-98.5 228,-98.5 228,-98.5 222,-98.5 216,-92.5 216,-86.5 216,-86.5 216,-12.5 216,-12.5 216,-6.5 222,-0.5 228,-0.5"/>
<text xml:space="preserve" text-anchor="middle" x="257.75" y="-81.2" font-family="Times,serif" font-size="14.00">idx = [2]</text>
<polyline fill="none" stroke="black" points="216,-74 299.5,-74"/>
<text xml:space="preserve" text-anchor="middle" x="257.75" y="-56.7" font-family="Times,serif" font-size="14.00">data = [101]</text>
<polyline fill="none" stroke="black" points="216,-49.5 299.5,-49.5"/>
<text xml:space="preserve" text-anchor="middle" x="257.75" y="-32.2" font-family="Times,serif" font-size="14.00">prev = [1]</text>
<polyline fill="none" stroke="black" points="216,-25 299.5,-25"/>
<text xml:space="preserve" text-anchor="middle" x="257.75" y="-7.7" font-family="Times,serif" font-size="14.00">next = [3]</text>
</g>
<!-- element1&#45;&gt;element2 -->
<g id="edge2" class="edge">
<title>element1&#45;&gt;element2</title>
<path fill="none" stroke="none" d="M179.82,-66C179.82,-66 204.03,-66 204.03,-66"/>
<polygon fill="none" stroke="none" points="204.03,-69.5 214.03,-66 204.03,-62.5 204.03,-69.5"/>
</g>
<!-- element1&#45;&gt;element2 -->
<g id="edge12" class="edge">
<title>element1&#45;&gt;element2</title>
<path fill="none" stroke="#000000" d="M191.33,-33C191.33,-33 204.03,-33 204.03,-33"/>
<polygon fill="#000000" stroke="#000000" points="191.33,-29.5 181.33,-33 191.33,-36.5 191.33,-29.5"/>
<polygon fill="#000000" stroke="#000000" points="204.03,-36.5 214.03,-33 204.03,-29.5 204.03,-36.5"/>
</g>
<!-- element3 -->
<g id="node6" class="node">
<title>element3</title>
<path fill="#66ccff" stroke="black" d="M348,-0.5C348,-0.5 407.5,-0.5 407.5,-0.5 413.5,-0.5 419.5,-6.5 419.5,-12.5 419.5,-12.5 419.5,-86.5 419.5,-86.5 419.5,-92.5 413.5,-98.5 407.5,-98.5 407.5,-98.5 348,-98.5 348,-98.5 342,-98.5 336,-92.5 336,-86.5 336,-86.5 336,-12.5 336,-12.5 336,-6.5 342,-0.5 348,-0.5"/>
<text xml:space="preserve" text-anchor="middle" x="377.75" y="-81.2" font-family="Times,serif" font-size="14.00">idx = [3]</text>
<polyline fill="none" stroke="black" points="336,-74 419.5,-74"/>
<text xml:space="preserve" text-anchor="middle" x="377.75" y="-56.7" font-family="Times,serif" font-size="14.00">data = [202]</text>
<polyline fill="none" stroke="black" points="336,-49.5 419.5,-49.5"/>
<text xml:space="preserve" text-anchor="middle" x="377.75" y="-32.2" font-family="Times,serif" font-size="14.00">prev = [2]</text>
<polyline fill="none" stroke="black" points="336,-25 419.5,-25"/>
<text xml:space="preserve" text-anchor="middle" x="377.75" y="-7.7" font-family="Times,serif" font-size="14.00">next = [4]</text>
</g>
<!-- element2&#45;&gt;element3 -->
<g id="edge3" class="edge">
<title>element2&#45;&gt;element3</title>
<path fill="none" stroke="none" d="M299.72,-66C299.72,-66 324.09,-66 324.09,-66"/>
<polygon fill="none" stroke="none" points="324.09,-69.5 334.09,-66 324.09,-62.5 324.09,-69.5"/>
</g>
<!-- element2&#45;&gt;element3 -->
<g id="edge13" class="edge">
<title>element2&#45;&gt;element3</title>
<path fill="none" stroke="#000000" d="M311.23,-33C311.23,-33 324.09,-33 324.09,-33"/>
<polygon fill="#000000" stroke="#000000" points="311.23,-29.5 301.23,-33 311.23,-36.5 311.23,-29.5"/>
<polygon fill="#000000" stroke="#000000" points="324.09,-36.5 334.09,-33 324.09,-29.5 324.09,-36.5"/>
</g>
<!-- element4 -->
<g id="node7" class="node">
<title>element4</title>
<path fill="#66ccff" stroke="black" d="M468,-0.5C468,-0.5 527.5,-0.5 527.5,-0.5 533.5,-0.5 539.5,-6.5 539.5,-12.5 539.5,-12.5 539.5,-86.5 539.5,-86.5 539.5,-92.5 533.5,-98.5 527.5,-98.5 527.5,-98.5 468,-98.5 468,-98.5 462,-98.5 456,-92.5 456,-86.5 456,-86.5 456,-12.5 456,-12.5 456,-6.5 462,-0.5 468,-0.5"/>
<text xml:space="preserve" text-anchor="middle" x="497.75" y="-81.2" font-family="Times,serif" font-size="14.00">idx = [4]</text>
<polyline fill="none" stroke="black" points="456,-74 539.5,-74"/>
<text xml:space="preserve" text-anchor="middle" x="497.75" y="-56.7" font-family="Times,serif" font-size="14.00">data = [303]</text>
<polyline fill="none" stroke="black" points="456,-49.5 539.5,-49.5"/>
<text xml:space="preserve" text-anchor="middle" x="497.75" y="-32.2" font-family="Times,serif" font-size="14.00">prev = [3]</text>
<polyline fill="none" stroke="black" points="456,-25 539.5,-25"/>
<text xml:space="preserve" text-anchor="middle" x="497.75" y="-7.7" font-family="Times,serif" font-size="14.00">next = [0]</text>
</g>
<!-- element3&#45;&gt;element4 -->
<g id="edge4" class="edge">
<title>element3&#45;&gt;element4</title>
<path fill="none" stroke="none" d="M419.72,-66C419.72,-66 444.09,-66 444.09,-66"/>
<polygon fill="none" stroke="none" points="444.09,-69.5 454.09,-66 444.09,-62.5 444.09,-69.5"/>
</g>
<!-- element3&#45;&gt;element4 -->
<g id="edge14" class="edge">
<title>element3&#45;&gt;element4</title>
<path fill="none" stroke="#000000" d="M431.23,-33C431.23,-33 444.09,-33 444.09,-33"/>
<polygon fill="#000000" stroke="#000000" points="431.23,-29.5 421.23,-33 431.23,-36.5 431.23,-29.5"/>
<polygon fill="#000000" stroke="#000000" points="444.09,-36.5 454.09,-33 444.09,-29.5 444.09,-36.5"/>
</g>
<!-- element4&#45;&gt;element0 -->
<g id="edge15" class="edge">
<title>element4&#45;&gt;element0</title>
<path fill="none" stroke="#000000" d="M497.75,-110.42C497.75,-110.42 497.75,-117 497.75,-117 497.75,-117 35.75,-117 35.75,-117 35.75,-117 35.75,-110.42 35.75,-110.42"/>
<polygon fill="#000000" stroke="#000000" points="501.25,-110.42 497.75,-100.42 494.25,-110.42 501.25,-110.42"/>
<polygon fill="#000000" stroke="#000000" points="39.25,-110.42 35.75,-100.42 32.25,-110.42 39.25,-110.42"/>
</g>
<!-- element4&#45;&gt;element5 -->
<g id="edge5" class="edge">
<title>element4&#45;&gt;element5</title>
<path fill="none" stroke="none" d="M539.74,-50C539.74,-50 564.09,-50 564.09,-50"/>
<polygon fill="none" stroke="none" points="564.09,-53.5 574.09,-50 564.09,-46.5 564.09,-53.5"/>
</g>
<!-- element6 -->
<g id="node9" class="node">
<title>element6</title>
<path fill="#99ff66" stroke="black" d="M711.75,-0.5C711.75,-0.5 775.75,-0.5 775.75,-0.5 781.75,-0.5 787.75,-6.5 787.75,-12.5 787.75,-12.5 787.75,-86.5 787.75,-86.5 787.75,-92.5 781.75,-98.5 775.75,-98.5 775.75,-98.5 711.75,-98.5 711.75,-98.5 705.75,-98.5 699.75,-92.5 699.75,-86.5 699.75,-86.5 699.75,-12.5 699.75,-12.5 699.75,-6.5 705.75,-0.5 711.75,-0.5"/>
<text xml:space="preserve" text-anchor="middle" x="743.75" y="-81.2" font-family="Times,serif" font-size="14.00">idx = [6]</text>
<polyline fill="none" stroke="black" points="699.75,-74 787.75,-74"/>
<text xml:space="preserve" text-anchor="middle" x="743.75" y="-56.7" font-family="Times,serif" font-size="14.00">data = [&#45;666]</text>
<polyline fill="none" stroke="black" points="699.75,-49.5 787.75,-49.5"/>
<text xml:space="preserve" text-anchor="middle" x="743.75" y="-32.2" font-family="Times,serif" font-size="14.00">prev = [&#45;1]</text>
<polyline fill="none" stroke="black" points="699.75,-25 787.75,-25"/>
<text xml:space="preserve" text-anchor="middle" x="743.75" y="-7.7" font-family="Times,serif" font-size="14.00">next = [7]</text>
</g>
<!-- element5&#45;&gt;element6 -->
<g id="edge6" class="edge">
<title>element5&#45;&gt;element6</title>
<path fill="none" stroke="none" d="M664.17,-66C664.17,-66 688.13,-66 688.13,-66"/>
<polygon fill="none" stroke="none" points="688.13,-69.5 698.13,-66 688.13,-62.5 688.13,-69.5"/>
</g>
<!-- element5&#45;&gt;element6 -->
<g id="edge16" class="edge">
<title>element5&#45;&gt;element6</title>
<path fill="none" stroke="green" d="M664.17,-33C664.17,-33 688.13,-33 688.13,-33"/>
<polygon fill="green" stroke="green" points="688.13,-36.5 698.13,-33 688.13,-29.5 688.13,-36.5"/>
</g>
<!-- element7 -->
<g id="node10" class="node">
<title>element7</title>
<path fill="#99ff66" stroke="black" d="M835.75,-0.5C835.75,-0.5 899.75,-0.5 899.75,-0.5 905.75,-0.5 911.75,-6.5 911.75,-12.5 911.75,-12.5 911.75,-86.5 911.75,-86.5 911.75,-92.5 905.75,-98.5 899.75,-98.5 899.75,-98.5 835.75,-98.5 835.75,-98.5 829.75,-98.5 823.75,-92.5 823.75,-86.5 823.75,-86.5 823.75,-12.5 823.75,-12.5 823.75,-6.5 829.75,-0.5 835.75,-0.5"/>
<text xml:space="preserve" text-anchor="middle" x="867.75" y="-81.2" font-family="Times,serif" font-size="14.00">idx = [7]</text>
<polyline fill="none" stroke="black" points="823.75,-74 911.75,-74"/>
<text xml:space="preserve" text-anchor="middle" x="867.75" y="-56.7" font-family="Times,serif" font-size="14.00">data = [&#45;666]</text>
<polyline fill="none" stroke="black" points="823.75,-49.5 911.75,-49.5"/>
<text xml:space="preserve" text-anchor="middle" x="867.75" y="-32.2" font-family="Times,serif" font-size="14.00">prev = [&#45;1]</text>
<polyline fill="none" stroke="black" points="823.75,-25 911.75,-25"/>
<text xml:space="preserve" text-anchor="middle" x="867.75" y="-7.7" font-family="Times,serif" font-size="14.00">next = [8]</text>
</g>
<!-- element6&#45;&gt;element7 -->
<g id="edge7" class="edge">
<title>element6&#45;&gt;element7</title>
<path fill="none" stroke="none" d="M788.17,-66C788.17,-66 812.13,-66 812.13,-66"/>
<polygon fill="none" stroke="none" points="812.13,-69.5 822.13,-66 812.13,-62.5 812.13,-69.5"/>
</g>
<!-- element6&#45;&gt;element7 -->
<g id="edge17" class="edge">
<title>element6&#45;&gt;element7</title>
<path fill="none" stroke="green" d="M788.17,-33C788.17,-33 812.13,-33 812.13,-33"/>
<polygon fill="green" stroke="green" points="812.13,-36.5 822.13,-33 812.13,-29.5 812.13,-36.5"/>
</g>
<!-- element8 -->
<g id="node11" class="node">
<title>element8</title>
<path fill="#99ff66" stroke="black" d="M959.75,-0.5C959.75,-0.5 1023.75,-0.5 1023.75,-0.5 1029.75,-0.5 1035.75,-6.5 1035.75,-12.5 1035.75,-12.5 1035.75,-86.5 1035.75,-86.5 1035.75,-92.5 1029.75,-98.5 1023.75,-98.5 1023.75,-98.5 959.75,-98.5 959.75,-98.5 953.75,-98.5 947.75,-92.5 947.75,-86.5 947.75,-86.5 947.75,-12.5 947.75,-12.5 947.75,-6.5 953.75,-0.5 959.75,-0.5"/>
<text xml:space="preserve" text-anchor="middle" x="991.75" y="-81.2" font-family="Times,serif" font-size="14.00">idx = [8]</text>
<polyline fill="none" stroke="black" points="947.75,-74 1035.75,-74"/>
<text xml:space="preserve" text-anchor="middle" x="991.75" y="-56.7" font-family="Times,serif" font-size="14.00">data = [&#45;666]</text>
<polyline fill="none" stroke="black" points="947.75,-49.5 1035.75,-49.5"/>
<text xml:space="preserve" text-anchor="middle" x="991.75" y="-32.2" font-family="Times,serif" font-size="14.00">prev = [&#45;1]</text>
<polyline fill="none" stroke="black" points="947.75,-25 1035.75,-25"/>
<text xml:space="preserve" text-anchor="middle" x="991.75" y="-7.7" font-family="Times,serif" font-size="14.00">next = [9]</text>
</g>
<!-- element7&#45;&gt;element8 -->
<g id="edge8" class="edge">
<title>element7&#45;&gt;element8</title>
<path fill="none" stroke="none" d="M912.17,-66C912.17,-66 936.13,-66 936.13,-66"/>
<polygon fill="none" stroke="none" points="936.13,-69.5 946.13,-66 936.13,-62.5 936.13,-69.5"/>
</g>
<!-- element7&#45;&gt;element8 -->
<g id="edge18" class="edge">
<title>element7&#45;&gt;element8</title>
<path fill="none" stroke="green" d="M912.17,-33C912.17,-33 936.13,-33 936.13,-33"/>
<polygon fill="green" stroke="green" points="936.13,-36.5 946.13,-33 936.13,-29.5 936.13,-36.5"/>
</g>
<!-- element9 -->
<g id="node12" class="node">
<title>element9</title>
<path fill="#99ff66" stroke="black" d="M1083.75,-0.5C1083.75,-0.5 1147.75,-0.5 1147.75,-0.5 1153.75,-0.5 1159.75,-6.5 1159.75,-12.5 1159.75,-12.5 1159.75,-86.5 1159.75,-86.5 1159.75,-92.5 1153.75,-98.5 1147.75,-98.5 1147.75,-98.5 1083.75,-98.5 1083.75,-98.5 1077.75,-98.5 1071.75,-92.5 1071.75,-86.5 1071.75,-86.5 1071.75,-12.5 1071.75,-12.5 1071.75,-6.5 1077.75,-0.5 1083.75,-0.5"/>
<text xml:space="preserve" text-anchor="middle" x="1115.75" y="-81.2" font-family="Times,serif" font-size="14.00">idx = [9]</text>
<polyline fill="none" stroke="black" points="1071.75,-74 1159.75,-74"/>
<text xml:space="preserve" text-anchor="middle" x="1115.75" y="-56.7" font-family="Times,serif" font-size="14.00">data = [&#45;666]</text>
<polyline fill="none" stroke="black" points="1071.75,-49.5 1159.75,-49.5"/>
<text xml:space="preserve" text-anchor="middle" x="1115.75" y="-32.2" font-family="Times,serif" font-size="14.00">prev = [&#45;1]</text>
<polyline fill="none" stroke="black" points="1071.75,-25 1159.75,-25"/>
<text xml:space="preserve" text-anchor="middle" x="1115.75" y="-7.7" font-family="Times,serif" font-size="14.00">next = [10]</text>
</g>
<!-- element8&#45;&gt;element9 -->
<g id="edge9" class="edge">
<title>element8&#45;&gt;element9</title>
<path fill="none" stroke="none" d="M1036.17,-66C1036.17,-66 1060.13,-66 1060.13,-66"/>
<polygon fill="none" stroke="none" points="1060.13,-69.5 1070.13,-66 1060.13,-62.5 1060.13,-69.5"/>
</g>
<!-- element8&#45;&gt;element9 -->
<g id="edge19" class="edge">
<title>element8&#45;&gt;element9</title>
<path fill="none" stroke="green" d="M1036.17,-33C1036.17,-33 1060.13,-33 1060.13,-33"/>
<polygon fill="green" stroke="green" points="1060.13,-36.5 1070.13,-33 1060.13,-29.5 1060.13,-36.5"/>
</g>
<!-- element10 -->
<g id="node13" class="node">
<title>element10</title>
<path fill="#99ff66" stroke="black" d="M1207.75,-0.5C1207.75,-0.5 1271.75,-0.5 1271.75,-0.5 1277.75,-0.5 1283.75,-6.5 1283.75,-12.5 1283.75,-12.5 1283.75,-86.5 1283.75,-86.5 1283.75,-92.5 1277.75,-98.5 1271.75,-98.5 1271.75,-98.5 1207.75,-98.5 1207.75,-98.5 1201.75,-98.5 1195.75,-92.5 1195.75,-86.5 1195.75,-86.5 1195.75,-12.5 1195.75,-12.5 1195.75,-6.5 1201.75,-0.5 1207.75,-0.5"/>
<text xml:space="preserve" text-anchor="middle" x="1239.75" y="-81.2" font-family="Times,serif" font-size="14.00">idx = [10]</text>
<polyline fill="none" stroke="black" points="1195.75,-74 1283.75,-74"/>
<text xml:space="preserve" text-anchor="middle" x="1239.75" y="-56.7" font-family="Times,serif" font-size="14.00">data = [&#45;666]</text>
<polyline fill="none" stroke="black" points="1195.75,-49.5 1283.75,-49.5"/>
<text xml:space="preserve" text-anchor="middle" x="1239.75" y="-32.2" font-family="Times,serif" font-size="14.00">prev = [&#45;1]</text>
<polyline fill="none" stroke="black" points="1195.75,-25 1283.75,-25"/>
<text xml:space="preserve" text-anchor="middle" x="1239.75" y="-7.7" font-family="Times,serif" font-size="14.00">next = [0]</text>
</g>
<!-- element9&#45;&gt;element10 -->
<g id="edge10" class="edge">
<title>element9&#45;&gt;element10</title>
<path fill="none" stroke="none" d="M1160.17,-66C1160.17,-66 1184.13,-66 1184.13,-66"/>
<polygon fill="none" stroke="none" points="1184.13,-69.5 1194.13,-66 1184.13,-62.5 1184.13,-69.5"/>
</g>
<!-- element9&#45;&gt;element10 -->
<g id="edge20" class="edge">
<title>element9&#45;&gt;element10</title>
<path fill="none" stroke="green" d="M1160.17,-33C1160.17,-33 1184.13,-33 1184.13,-33"/>
<polygon fill="green" stroke="green" points="1184.13,-36.5 1194.13,-33 1184.13,-29.5 1184.13,-36.5"/>
</g>
</g>
</svg>
