<?xml version="1.0" encoding="UTF-8" standalone="no"?>
<!DOCTYPE svg PUBLIC "-//W3C//DTD SVG 1.1//EN"
 "http://www.w3.org/Graphics/SVG/1.1/DTD/svg11.dtd">
<!-- Generated by graphviz version 2.30.1 (20201013.1554)
 -->
<!-- Title: G Pages: 1 -->
<svg width="1595pt" height="136pt"
 viewBox="0.00 0.00 1595.00 136.25" xmlns="http://www.w3.org/2000/svg" xmlns:xlink="http://www.w3.org/1999/xlink">
<g id="graph0" class="graph" transform="scale(1 1) rotate(0) translate(4 132.25)">
<title>G</title>
<polygon fill="white" stroke="white" points="-4,5 -4,-132.25 1592,-132.25 1592,5 -4,5"/>
<!-- element0 -->
<g id="node1" class="node"><title>element0</title>
<path fill="#ebebe0" stroke="black" d="M29.5,-18.25C29.5,-18.25 94.5,-18.25 94.5,-18.25 100.5,-18.25 106.5,-24.25 106.5,-30.25 106.5,-30.25 106.5,-98.25 106.5,-98.25 106.5,-104.25 100.5,-110.25 94.5,-110.25 94.5,-110.25 29.5,-110.25 29.5,-110.25 23.5,-110.25 17.5,-104.25 17.5,-98.25 17.5,-98.25 17.5,-30.25 17.5,-30.25 17.5,-24.25 23.5,-18.25 29.5,-18.25"/>
<text text-anchor="middle" x="62" y="-95.05" font-family="Times,serif" font-size="14.00">idx = [0]</text>
<polyline fill="none" stroke="black" points="17.5,-87.25 106.5,-87.25 "/>
<text text-anchor="middle" x="62" y="-72.05" font-family="Times,serif" font-size="14.00">data = [0]</text>
<polyline fill="none" stroke="black" points="17.5,-64.25 106.5,-64.25 "/>
<text text-anchor="middle" x="62" y="-49.05" font-family="Times,serif" font-size="14.00">prev = [0]</text>
<polyline fill="none" stroke="black" points="17.5,-41.25 106.5,-41.25 "/>
<text text-anchor="middle" x="62" y="-26.05" font-family="Times,serif" font-size="14.00">next = [0]</text>
</g>
<!-- element1 -->
<g id="node2" class="node"><title>element1</title>
<path fill="#33cc33" stroke="black" d="M155.5,-18.25C155.5,-18.25 242.5,-18.25 242.5,-18.25 248.5,-18.25 254.5,-24.25 254.5,-30.25 254.5,-30.25 254.5,-98.25 254.5,-98.25 254.5,-104.25 248.5,-110.25 242.5,-110.25 242.5,-110.25 155.5,-110.25 155.5,-110.25 149.5,-110.25 143.5,-104.25 143.5,-98.25 143.5,-98.25 143.5,-30.25 143.5,-30.25 143.5,-24.25 149.5,-18.25 155.5,-18.25"/>
<text text-anchor="middle" x="199" y="-95.05" font-family="Times,serif" font-size="14.00">idx = [1]</text>
<polyline fill="none" stroke="black" points="143.5,-87.25 254.5,-87.25 "/>
<text text-anchor="middle" x="199" y="-72.05" font-family="Times,serif" font-size="14.00">data = [&#45;666]</text>
<polyline fill="none" stroke="black" points="143.5,-64.25 254.5,-64.25 "/>
<text text-anchor="middle" x="199" y="-49.05" font-family="Times,serif" font-size="14.00">prev = [&#45;1]</text>
<polyline fill="none" stroke="black" points="143.5,-41.25 254.5,-41.25 "/>
<text text-anchor="middle" x="199" y="-26.05" font-family="Times,serif" font-size="14.00">next = [2]</text>
</g>
<!-- element0&#45;&gt;element1 -->
<g id="edge1" class="edge"><title>element0&#45;&gt;element1</title>
<path fill="none" stroke="none" d="M106.859,-79.6667C106.859,-79.6667 133.017,-79.6667 133.017,-79.6667"/>
<polygon fill="none" stroke="none" points="133.018,-83.1668 143.017,-79.6667 133.017,-76.1668 133.018,-83.1668"/>
</g>
<!-- element0&#45;&gt;element0 -->
<g id="edge11" class="edge"><title>element0&#45;&gt;element0</title>
<path fill="none" stroke="black" d="M7.27046,-64.25C7.27046,-64.25 0,-64.25 0,-64.25 0,-64.25 0,-0 0,-0 0,-0 125,-0 125,-0 125,-0 125,-48.8333 125,-48.8333 125,-48.8333 116.778,-48.8333 116.778,-48.8333"/>
<polygon fill="black" stroke="black" points="7.27049,-67.7501 17.2705,-64.25 7.27042,-60.7501 7.27049,-67.7501"/>
<polygon fill="black" stroke="black" points="116.778,-45.3334 106.778,-48.8333 116.778,-52.3334 116.778,-45.3334"/>
</g>
<!-- element2 -->
<g id="node3" class="node"><title>element2</title>
<path fill="#99ff66" stroke="black" d="M303.5,-18.25C303.5,-18.25 390.5,-18.25 390.5,-18.25 396.5,-18.25 402.5,-24.25 402.5,-30.25 402.5,-30.25 402.5,-98.25 402.5,-98.25 402.5,-104.25 396.5,-110.25 390.5,-110.25 390.5,-110.25 303.5,-110.25 303.5,-110.25 297.5,-110.25 291.5,-104.25 291.5,-98.25 291.5,-98.25 291.5,-30.25 291.5,-30.25 291.5,-24.25 297.5,-18.25 303.5,-18.25"/>
<text text-anchor="middle" x="347" y="-95.05" font-family="Times,serif" font-size="14.00">idx = [2]</text>
<polyline fill="none" stroke="black" points="291.5,-87.25 402.5,-87.25 "/>
<text text-anchor="middle" x="347" y="-72.05" font-family="Times,serif" font-size="14.00">data = [&#45;666]</text>
<polyline fill="none" stroke="black" points="291.5,-64.25 402.5,-64.25 "/>
<text text-anchor="middle" x="347" y="-49.05" font-family="Times,serif" font-size="14.00">prev = [&#45;1]</text>
<polyline fill="none" stroke="black" points="291.5,-41.25 402.5,-41.25 "/>
<text text-anchor="middle" x="347" y="-26.05" font-family="Times,serif" font-size="14.00">next = [3]</text>
</g>
<!-- element1&#45;&gt;element2 -->
<g id="edge2" class="edge"><title>element1&#45;&gt;element2</title>
<path fill="none" stroke="none" d="M254.531,-48.8333C254.531,-48.8333 281.158,-48.8333 281.158,-48.8333"/>
<polygon fill="none" stroke="none" points="281.158,-52.3334 291.158,-48.8333 281.158,-45.3334 281.158,-52.3334"/>
</g>
<!-- element1&#45;&gt;element2 -->
<g id="edge12" class="edge"><title>element1&#45;&gt;element2</title>
<path fill="none" stroke="green" d="M254.531,-79.6667C254.531,-79.6667 281.158,-79.6667 281.158,-79.6667"/>
<polygon fill="green" stroke="green" points="281.158,-83.1668 291.158,-79.6667 281.158,-76.1668 281.158,-83.1668"/>
</g>
<!-- element3 -->
<g id="node4" class="node"><title>element3</title>
<path fill="#99ff66" stroke="black" d="M451.5,-18.25C451.5,-18.25 538.5,-18.25 538.5,-18.25 544.5,-18.25 550.5,-24.25 550.5,-30.25 550.5,-30.25 550.5,-98.25 550.5,-98.25 550.5,-104.25 544.5,-110.25 538.5,-110.25 538.5,-110.25 451.5,-110.25 451.5,-110.25 445.5,-110.25 439.5,-104.25 439.5,-98.25 439.5,-98.25 439.5,-30.25 439.5,-30.25 439.5,-24.25 445.5,-18.25 451.5,-18.25"/>
<text text-anchor="middle" x="495" y="-95.05" font-family="Times,serif" font-size="14.00">idx = [3]</text>
<polyline fill="none" stroke="black" points="439.5,-87.25 550.5,-87.25 "/>
<text text-anchor="middle" x="495" y="-72.05" font-family="Times,serif" font-size="14.00">data = [&#45;666]</text>
<polyline fill="none" stroke="black" points="439.5,-64.25 550.5,-64.25 "/>
<text text-anchor="middle" x="495" y="-49.05" font-family="Times,serif" font-size="14.00">prev = [&#45;1]</text>
<polyline fill="none" stroke="black" points="439.5,-41.25 550.5,-41.25 "/>
<text text-anchor="middle" x="495" y="-26.05" font-family="Times,serif" font-size="14.00">next = [4]</text>
</g>
<!-- element2&#45;&gt;element3 -->
<g id="edge3" class="edge"><title>element2&#45;&gt;element3</title>
<path fill="none" stroke="none" d="M402.531,-48.8333C402.531,-48.8333 429.158,-48.8333 429.158,-48.8333"/>
<polygon fill="none" stroke="none" points="429.158,-52.3334 439.158,-48.8333 429.158,-45.3334 429.158,-52.3334"/>
</g>
<!-- element2&#45;&gt;element3 -->
<g id="edge13" class="edge"><title>element2&#45;&gt;element3</title>
<path fill="none" stroke="green" d="M402.531,-79.6667C402.531,-79.6667 429.158,-79.6667 429.158,-79.6667"/>
<polygon fill="green" stroke="green" points="429.158,-83.1668 439.158,-79.6667 429.158,-76.1668 429.158,-83.1668"/>
</g>
<!-- element4 -->
<g id="node5" class="node"><title>element4</title>
<path fill="#99ff66" stroke="black" d="M599.5,-18.25C599.5,-18.25 686.5,-18.25 686.5,-18.25 692.5,-18.25 698.5,-24.25 698.5,-30.25 698.5,-30.25 698.5,-98.25 698.5,-98.25 698.5,-104.25 692.5,-110.25 686.5,-110.25 686.5,-110.25 599.5,-110.25 599.5,-110.25 593.5,-110.25 587.5,-104.25 587.5,-98.25 587.5,-98.25 587.5,-30.25 587.5,-30.25 587.5,-24.25 593.5,-18.25 599.5,-18.25"/>
<text text-anchor="middle" x="643" y="-95.05" font-family="Times,serif" font-size="14.00">idx = [4]</text>
<polyline fill="none" stroke="black" points="587.5,-87.25 698.5,-87.25 "/>
<text text-anchor="middle" x="643" y="-72.05" font-family="Times,serif" font-size="14.00">data = [&#45;666]</text>
<polyline fill="none" stroke="black" points="587.5,-64.25 698.5,-64.25 "/>
<text text-anchor="middle" x="643" y="-49.05" font-family="Times,serif" font-size="14.00">prev = [&#45;1]</text>
<polyline fill="none" stroke="black" points="587.5,-41.25 698.5,-41.25 "/>
<text text-anchor="middle" x="643" y="-26.05" font-family="Times,serif" font-size="14.00">next = [5]</text>
</g>
<!-- element3&#45;&gt;element4 -->
<g id="edge4" class="edge"><title>element3&#45;&gt;element4</title>
<path fill="none" stroke="none" d="M550.531,-48.8333C550.531,-48.8333 577.158,-48.8333 577.158,-48.8333"/>
<polygon fill="none" stroke="none" points="577.158,-52.3334 587.158,-48.8333 577.158,-45.3334 577.158,-52.3334"/>
</g>
<!-- element3&#45;&gt;element4 -->
<g id="edge14" class="edge"><title>element3&#45;&gt;element4</title>
<path fill="none" stroke="green" d="M550.531,-79.6667C550.531,-79.6667 577.158,-79.6667 577.158,-79.6667"/>
<polygon fill="green" stroke="green" points="577.158,-83.1668 587.158,-79.6667 577.158,-76.1668 577.158,-83.1668"/>
</g>
<!-- element5 -->
<g id="node6" class="node"><title>element5</title>
<path fill="#99ff66" stroke="black" d="M747.5,-18.25C747.5,-18.25 834.5,-18.25 834.5,-18.25 840.5,-18.25 846.5,-24.25 846.5,-30.25 846.5,-30.25 846.5,-98.25 846.5,-98.25 846.5,-104.25 840.5,-110.25 834.5,-110.25 834.5,-110.25 747.5,-110.25 747.5,-110.25 741.5,-110.25 735.5,-104.25 735.5,-98.25 735.5,-98.25 735.5,-30.25 735.5,-30.25 735.5,-24.25 741.5,-18.25 747.5,-18.25"/>
<text text-anchor="middle" x="791" y="-95.05" font-family="Times,serif" font-size="14.00">idx = [5]</text>
<polyline fill="none" stroke="black" points="735.5,-87.25 846.5,-87.25 "/>
<text text-anchor="middle" x="791" y="-72.05" font-family="Times,serif" font-size="14.00">data = [&#45;666]</text>
<polyline fill="none" stroke="black" points="735.5,-64.25 846.5,-64.25 "/>
<text text-anchor="middle" x="791" y="-49.05" font-family="Times,serif" font-size="14.00">prev = [&#45;1]</text>
<polyline fill="none" stroke="black" points="735.5,-41.25 846.5,-41.25 "/>
<text text-anchor="middle" x="791" y="-26.05" font-family="Times,serif" font-size="14.00">next = [6]</text>
</g>
<!-- element4&#45;&gt;element5 -->
<g id="edge5" class="edge"><title>element4&#45;&gt;element5</title>
<path fill="none" stroke="none" d="M698.531,-48.8333C698.531,-48.8333 725.158,-48.8333 725.158,-48.8333"/>
<polygon fill="none" stroke="none" points="725.158,-52.3334 735.158,-48.8333 725.158,-45.3334 725.158,-52.3334"/>
</g>
<!-- element4&#45;&gt;element5 -->
<g id="edge15" class="edge"><title>element4&#45;&gt;element5</title>
<path fill="none" stroke="green" d="M698.531,-79.6667C698.531,-79.6667 725.158,-79.6667 725.158,-79.6667"/>
<polygon fill="green" stroke="green" points="725.158,-83.1668 735.158,-79.6667 725.158,-76.1668 725.158,-83.1668"/>
</g>
<!-- element6 -->
<g id="node7" class="node"><title>element6</title>
<path fill="#99ff66" stroke="black" d="M895.5,-18.25C895.5,-18.25 982.5,-18.25 982.5,-18.25 988.5,-18.25 994.5,-24.25 994.5,-30.25 994.5,-30.25 994.5,-98.25 994.5,-98.25 994.5,-104.25 988.5,-110.25 982.5,-110.25 982.5,-110.25 895.5,-110.25 895.5,-110.25 889.5,-110.25 883.5,-104.25 883.5,-98.25 883.5,-98.25 883.5,-30.25 883.5,-30.25 883.5,-24.25 889.5,-18.25 895.5,-18.25"/>
<text text-anchor="middle" x="939" y="-95.05" font-family="Times,serif" font-size="14.00">idx = [6]</text>
<polyline fill="none" stroke="black" points="883.5,-87.25 994.5,-87.25 "/>
<text text-anchor="middle" x="939" y="-72.05" font-family="Times,serif" font-size="14.00">data = [&#45;666]</text>
<polyline fill="none" stroke="black" points="883.5,-64.25 994.5,-64.25 "/>
<text text-anchor="middle" x="939" y="-49.05" font-family="Times,serif" font-size="14.00">prev = [&#45;1]</text>
<polyline fill="none" stroke="black" points="883.5,-41.25 994.5,-41.25 "/>
<text text-anchor="middle" x="939" y="-26.05" font-family="Times,serif" font-size="14.00">next = [7]</text>
</g>
<!-- element5&#45;&gt;element6 -->
<g id="edge6" class="edge"><title>element5&#45;&gt;element6</title>
<path fill="none" stroke="none" d="M846.531,-48.8333C846.531,-48.8333 873.158,-48.8333 873.158,-48.8333"/>
<polygon fill="none" stroke="none" points="873.158,-52.3334 883.158,-48.8333 873.158,-45.3334 873.158,-52.3334"/>
</g>
<!-- element5&#45;&gt;element6 -->
<g id="edge16" class="edge"><title>element5&#45;&gt;element6</title>
<path fill="none" stroke="green" d="M846.531,-79.6667C846.531,-79.6667 873.158,-79.6667 873.158,-79.6667"/>
<polygon fill="green" stroke="green" points="873.158,-83.1668 883.158,-79.6667 873.158,-76.1668 873.158,-83.1668"/>
</g>
<!-- element7 -->
<g id="node8" class="node"><title>element7</title>
<path fill="#99ff66" stroke="black" d="M1043.5,-18.25C1043.5,-18.25 1130.5,-18.25 1130.5,-18.25 1136.5,-18.25 1142.5,-24.25 1142.5,-30.25 1142.5,-30.25 1142.5,-98.25 1142.5,-98.25 1142.5,-104.25 1136.5,-110.25 1130.5,-110.25 1130.5,-110.25 1043.5,-110.25 1043.5,-110.25 1037.5,-110.25 1031.5,-104.25 1031.5,-98.25 1031.5,-98.25 1031.5,-30.25 1031.5,-30.25 1031.5,-24.25 1037.5,-18.25 1043.5,-18.25"/>
<text text-anchor="middle" x="1087" y="-95.05" font-family="Times,serif" font-size="14.00">idx = [7]</text>
<polyline fill="none" stroke="black" points="1031.5,-87.25 1142.5,-87.25 "/>
<text text-anchor="middle" x="1087" y="-72.05" font-family="Times,serif" font-size="14.00">data = [&#45;666]</text>
<polyline fill="none" stroke="black" points="1031.5,-64.25 1142.5,-64.25 "/>
<text text-anchor="middle" x="1087" y="-49.05" font-family="Times,serif" font-size="14.00">prev = [&#45;1]</text>
<polyline fill="none" stroke="black" points="1031.5,-41.25 1142.5,-41.25 "/>
<text text-anchor="middle" x="1087" y="-26.05" font-family="Times,serif" font-size="14.00">next = [8]</text>
</g>
<!-- element6&#45;&gt;element7 -->
<g id="edge7" class="edge"><title>element6&#45;&gt;element7</title>
<path fill="none" stroke="none" d="M994.531,-48.8333C994.531,-48.8333 1021.16,-48.8333 1021.16,-48.8333"/>
<polygon fill="none" stroke="none" points="1021.16,-52.3334 1031.16,-48.8333 1021.16,-45.3334 1021.16,-52.3334"/>
</g>
<!-- element6&#45;&gt;element7 -->
<g id="edge17" class="edge"><title>element6&#45;&gt;element7</title>
<path fill="none" stroke="green" d="M994.531,-79.6667C994.531,-79.6667 1021.16,-79.6667 1021.16,-79.6667"/>
<polygon fill="green" stroke="green" points="1021.16,-83.1668 1031.16,-79.6667 1021.16,-76.1668 1021.16,-83.1668"/>
</g>
<!-- element8 -->
<g id="node9" class="node"><title>element8</title>
<path fill="#99ff66" stroke="black" d="M1191.5,-18.25C1191.5,-18.25 1278.5,-18.25 1278.5,-18.25 1284.5,-18.25 1290.5,-24.25 1290.5,-30.25 1290.5,-30.25 1290.5,-98.25 1290.5,-98.25 1290.5,-104.25 1284.5,-110.25 1278.5,-110.25 1278.5,-110.25 1191.5,-110.25 1191.5,-110.25 1185.5,-110.25 1179.5,-104.25 1179.5,-98.25 1179.5,-98.25 1179.5,-30.25 1179.5,-30.25 1179.5,-24.25 1185.5,-18.25 1191.5,-18.25"/>
<text text-anchor="middle" x="1235" y="-95.05" font-family="Times,serif" font-size="14.00">idx = [8]</text>
<polyline fill="none" stroke="black" points="1179.5,-87.25 1290.5,-87.25 "/>
<text text-anchor="middle" x="1235" y="-72.05" font-family="Times,serif" font-size="14.00">data = [&#45;666]</text>
<polyline fill="none" stroke="black" points="1179.5,-64.25 1290.5,-64.25 "/>
<text text-anchor="middle" x="1235" y="-49.05" font-family="Times,serif" font-size="14.00">prev = [&#45;1]</text>
<polyline fill="none" stroke="black" points="1179.5,-41.25 1290.5,-41.25 "/>
<text text-anchor="middle" x="1235" y="-26.05" font-family="Times,serif" font-size="14.00">next = [9]</text>
</g>
<!-- element7&#45;&gt;element8 -->
<g id="edge8" class="edge"><title>element7&#45;&gt;element8</title>
<path fill="none" stroke="none" d="M1142.53,-48.8333C1142.53,-48.8333 1169.16,-48.8333 1169.16,-48.8333"/>
<polygon fill="none" stroke="none" points="1169.16,-52.3334 1179.16,-48.8333 1169.16,-45.3334 1169.16,-52.3334"/>
</g>
<!-- element7&#45;&gt;element8 -->
<g id="edge18" class="edge"><title>element7&#45;&gt;element8</title>
<path fill="none" stroke="green" d="M1142.53,-79.6667C1142.53,-79.6667 1169.16,-79.6667 1169.16,-79.6667"/>
<polygon fill="green" stroke="green" points="1169.16,-83.1668 1179.16,-79.6667 1169.16,-76.1668 1169.16,-83.1668"/>
</g>
<!-- element9 -->
<g id="node10" class="node"><title>element9</title>
<path fill="#99ff66" stroke="black" d="M1339.5,-18.25C1339.5,-18.25 1426.5,-18.25 1426.5,-18.25 1432.5,-18.25 1438.5,-24.25 1438.5,-30.25 1438.5,-30.25 1438.5,-98.25 1438.5,-98.25 1438.5,-104.25 1432.5,-110.25 1426.5,-110.25 1426.5,-110.25 1339.5,-110.25 1339.5,-110.25 1333.5,-110.25 1327.5,-104.25 1327.5,-98.25 1327.5,-98.25 1327.5,-30.25 1327.5,-30.25 1327.5,-24.25 1333.5,-18.25 1339.5,-18.25"/>
<text text-anchor="middle" x="1383" y="-95.05" font-family="Times,serif" font-size="14.00">idx = [9]</text>
<polyline fill="none" stroke="black" points="1327.5,-87.25 1438.5,-87.25 "/>
<text text-anchor="middle" x="1383" y="-72.05" font-family="Times,serif" font-size="14.00">data = [&#45;666]</text>
<polyline fill="none" stroke="black" points="1327.5,-64.25 1438.5,-64.25 "/>
<text text-anchor="middle" x="1383" y="-49.05" font-family="Times,serif" font-size="14.00">prev = [&#45;1]</text>
<polyline fill="none" stroke="black" points="1327.5,-41.25 1438.5,-41.25 "/>
<text text-anchor="middle" x="1383" y="-26.05" font-family="Times,serif" font-size="14.00">next = [10]</text>
</g>
<!-- element8&#45;&gt;element9 -->
<g id="edge9" class="edge"><title>element8&#45;&gt;element9</title>
<path fill="none" stroke="none" d="M1290.53,-48.8333C1290.53,-48.8333 1317.16,-48.8333 1317.16,-48.8333"/>
<polygon fill="none" stroke="none" points="1317.16,-52.3334 1327.16,-48.8333 1317.16,-45.3334 1317.16,-52.3334"/>
</g>
<!-- element8&#45;&gt;element9 -->
<g id="edge19" class="edge"><title>element8&#45;&gt;element9</title>
<path fill="none" stroke="green" d="M1290.53,-79.6667C1290.53,-79.6667 1317.16,-79.6667 1317.16,-79.6667"/>
<polygon fill="green" stroke="green" points="1317.16,-83.1668 1327.16,-79.6667 1317.16,-76.1668 1317.16,-83.1668"/>
</g>
<!-- element10 -->
<g id="node11" class="node"><title>element10</title>
<path fill="#99ff66" stroke="black" d="M1487.5,-18.25C1487.5,-18.25 1574.5,-18.25 1574.5,-18.25 1580.5,-18.25 1586.5,-24.25 1586.5,-30.25 1586.5,-30.25 1586.5,-98.25 1586.5,-98.25 1586.5,-104.25 1580.5,-110.25 1574.5,-110.25 1574.5,-110.25 1487.5,-110.25 1487.5,-110.25 1481.5,-110.25 1475.5,-104.25 1475.5,-98.25 1475.5,-98.25 1475.5,-30.25 1475.5,-30.25 1475.5,-24.25 1481.5,-18.25 1487.5,-18.25"/>
<text text-anchor="middle" x="1531" y="-95.05" font-family="Times,serif" font-size="14.00">idx = [10]</text>
<polyline fill="none" stroke="black" points="1475.5,-87.25 1586.5,-87.25 "/>
<text text-anchor="middle" x="1531" y="-72.05" font-family="Times,serif" font-size="14.00">data = [&#45;666]</text>
<polyline fill="none" stroke="black" points="1475.5,-64.25 1586.5,-64.25 "/>
<text text-anchor="middle" x="1531" y="-49.05" font-family="Times,serif" font-size="14.00">prev = [&#45;1]</text>
<polyline fill="none" stroke="black" points="1475.5,-41.25 1586.5,-41.25 "/>
<text text-anchor="middle" x="1531" y="-26.05" font-family="Times,serif" font-size="14.00">next = [0]</text>
</g>
<!-- element9&#45;&gt;element10 -->
<g id="edge10" class="edge"><title>element9&#45;&gt;element10</title>
<path fill="none" stroke="none" d="M1438.53,-48.8333C1438.53,-48.8333 1465.16,-48.8333 1465.16,-48.8333"/>
<polygon fill="none" stroke="none" points="1465.16,-52.3334 1475.16,-48.8333 1465.16,-45.3334 1465.16,-52.3334"/>
</g>
<!-- element9&#45;&gt;element10 -->
<g id="edge20" class="edge"><title>element9&#45;&gt;element10</title>
<path fill="none" stroke="green" d="M1438.53,-79.6667C1438.53,-79.6667 1465.16,-79.6667 1465.16,-79.6667"/>
<polygon fill="green" stroke="green" points="1465.16,-83.1668 1475.16,-79.6667 1465.16,-76.1668 1465.16,-83.1668"/>
</g>
</g>
</svg>
