<?xml version="1.0" encoding="UTF-8" standalone="no"?>
<!DOCTYPE svg PUBLIC "-//W3C//DTD SVG 1.1//EN"
 "http://www.w3.org/Graphics/SVG/1.1/DTD/svg11.dtd">
<!-- Generated by graphviz version 2.30.1 (20201013.1554)
 -->
<!-- Title: G Pages: 1 -->
<svg width="1544pt" height="118pt"
 viewBox="0.00 0.00 1544.00 118.25" xmlns="http://www.w3.org/2000/svg" xmlns:xlink="http://www.w3.org/1999/xlink">
<g id="graph0" class="graph" transform="scale(1 1) rotate(0) translate(4 114.25)">
<title>G</title>
<polygon fill="white" stroke="white" points="-4,5 -4,-114.25 1541,-114.25 1541,5 -4,5"/>
<!-- element0 -->
<g id="node1" class="node"><title>element0</title>
<path fill="#ebebe0" stroke="black" d="M12.5,-18.25C12.5,-18.25 77.5,-18.25 77.5,-18.25 83.5,-18.25 89.5,-24.25 89.5,-30.25 89.5,-30.25 89.5,-98.25 89.5,-98.25 89.5,-104.25 83.5,-110.25 77.5,-110.25 77.5,-110.25 12.5,-110.25 12.5,-110.25 6.5,-110.25 0.5,-104.25 0.5,-98.25 0.5,-98.25 0.5,-30.25 0.5,-30.25 0.5,-24.25 6.5,-18.25 12.5,-18.25"/>
<text text-anchor="middle" x="45" y="-95.05" font-family="Times,serif" font-size="14.00">idx = [0]</text>
<polyline fill="none" stroke="black" points="0.5,-87.25 89.5,-87.25 "/>
<text text-anchor="middle" x="45" y="-72.05" font-family="Times,serif" font-size="14.00">data = [0]</text>
<polyline fill="none" stroke="black" points="0.5,-64.25 89.5,-64.25 "/>
<text text-anchor="middle" x="45" y="-49.05" font-family="Times,serif" font-size="14.00">prev = [4]</text>
<polyline fill="none" stroke="black" points="0.5,-41.25 89.5,-41.25 "/>
<text text-anchor="middle" x="45" y="-26.05" font-family="Times,serif" font-size="14.00">next = [1]</text>
</g>
<!-- element1 -->
<g id="node2" class="node"><title>element1</title>
<path fill="#cc99ff" stroke="black" d="M138.5,-18.25C138.5,-18.25 203.5,-18.25 203.5,-18.25 209.5,-18.25 215.5,-24.25 215.5,-30.25 215.5,-30.25 215.5,-98.25 215.5,-98.25 215.5,-104.25 209.5,-110.25 203.5,-110.25 203.5,-110.25 138.5,-110.25 138.5,-110.25 132.5,-110.25 126.5,-104.25 126.5,-98.25 126.5,-98.25 126.5,-30.25 126.5,-30.25 126.5,-24.25 132.5,-18.25 138.5,-18.25"/>
<text text-anchor="middle" x="171" y="-95.05" font-family="Times,serif" font-size="14.00">idx = [1]</text>
<polyline fill="none" stroke="black" points="126.5,-87.25 215.5,-87.25 "/>
<text text-anchor="middle" x="171" y="-72.05" font-family="Times,serif" font-size="14.00">data = [0]</text>
<polyline fill="none" stroke="black" points="126.5,-64.25 215.5,-64.25 "/>
<text text-anchor="middle" x="171" y="-49.05" font-family="Times,serif" font-size="14.00">prev = [0]</text>
<polyline fill="none" stroke="black" points="126.5,-41.25 215.5,-41.25 "/>
<text text-anchor="middle" x="171" y="-26.05" font-family="Times,serif" font-size="14.00">next = [2]</text>
</g>
<!-- element0&#45;&gt;element1 -->
<g id="edge1" class="edge"><title>element0&#45;&gt;element1</title>
<path fill="none" stroke="none" d="M89.7777,-48.8333C89.7777,-48.8333 116.367,-48.8333 116.367,-48.8333"/>
<polygon fill="none" stroke="none" points="116.367,-52.3334 126.367,-48.8333 116.366,-45.3334 116.367,-52.3334"/>
</g>
<!-- element0&#45;&gt;element1 -->
<g id="edge11" class="edge"><title>element0&#45;&gt;element1</title>
<path fill="none" stroke="black" d="M99.7777,-79.6667C99.7777,-79.6667 116.367,-79.6667 116.367,-79.6667"/>
<polygon fill="black" stroke="black" points="116.367,-83.1667 126.367,-79.6667 116.367,-76.1667 116.367,-83.1667"/>
<polygon fill="black" stroke="black" points="99.7777,-76.1667 89.7777,-79.6667 99.7776,-83.1667 99.7777,-76.1667"/>
</g>
<!-- element2 -->
<g id="node3" class="node"><title>element2</title>
<path fill="#66ccff" stroke="black" d="M264.5,-18.25C264.5,-18.25 347.5,-18.25 347.5,-18.25 353.5,-18.25 359.5,-24.25 359.5,-30.25 359.5,-30.25 359.5,-98.25 359.5,-98.25 359.5,-104.25 353.5,-110.25 347.5,-110.25 347.5,-110.25 264.5,-110.25 264.5,-110.25 258.5,-110.25 252.5,-104.25 252.5,-98.25 252.5,-98.25 252.5,-30.25 252.5,-30.25 252.5,-24.25 258.5,-18.25 264.5,-18.25"/>
<text text-anchor="middle" x="306" y="-95.05" font-family="Times,serif" font-size="14.00">idx = [2]</text>
<polyline fill="none" stroke="black" points="252.5,-87.25 359.5,-87.25 "/>
<text text-anchor="middle" x="306" y="-72.05" font-family="Times,serif" font-size="14.00">data = [101]</text>
<polyline fill="none" stroke="black" points="252.5,-64.25 359.5,-64.25 "/>
<text text-anchor="middle" x="306" y="-49.05" font-family="Times,serif" font-size="14.00">prev = [1]</text>
<polyline fill="none" stroke="black" points="252.5,-41.25 359.5,-41.25 "/>
<text text-anchor="middle" x="306" y="-26.05" font-family="Times,serif" font-size="14.00">next = [3]</text>
</g>
<!-- element1&#45;&gt;element2 -->
<g id="edge2" class="edge"><title>element1&#45;&gt;element2</title>
<path fill="none" stroke="none" d="M215.578,-48.8333C215.578,-48.8333 242.068,-48.8333 242.068,-48.8333"/>
<polygon fill="none" stroke="none" points="242.069,-52.3334 252.068,-48.8333 242.068,-45.3334 242.069,-52.3334"/>
</g>
<!-- element1&#45;&gt;element2 -->
<g id="edge12" class="edge"><title>element1&#45;&gt;element2</title>
<path fill="none" stroke="black" d="M225.578,-79.6667C225.578,-79.6667 242.068,-79.6667 242.068,-79.6667"/>
<polygon fill="black" stroke="black" points="242.068,-83.1667 252.068,-79.6667 242.068,-76.1667 242.068,-83.1667"/>
<polygon fill="black" stroke="black" points="225.578,-76.1667 215.578,-79.6667 225.578,-83.1667 225.578,-76.1667"/>
</g>
<!-- element3 -->
<g id="node4" class="node"><title>element3</title>
<path fill="#66ccff" stroke="black" d="M408.5,-18.25C408.5,-18.25 491.5,-18.25 491.5,-18.25 497.5,-18.25 503.5,-24.25 503.5,-30.25 503.5,-30.25 503.5,-98.25 503.5,-98.25 503.5,-104.25 497.5,-110.25 491.5,-110.25 491.5,-110.25 408.5,-110.25 408.5,-110.25 402.5,-110.25 396.5,-104.25 396.5,-98.25 396.5,-98.25 396.5,-30.25 396.5,-30.25 396.5,-24.25 402.5,-18.25 408.5,-18.25"/>
<text text-anchor="middle" x="450" y="-95.05" font-family="Times,serif" font-size="14.00">idx = [3]</text>
<polyline fill="none" stroke="black" points="396.5,-87.25 503.5,-87.25 "/>
<text text-anchor="middle" x="450" y="-72.05" font-family="Times,serif" font-size="14.00">data = [202]</text>
<polyline fill="none" stroke="black" points="396.5,-64.25 503.5,-64.25 "/>
<text text-anchor="middle" x="450" y="-49.05" font-family="Times,serif" font-size="14.00">prev = [2]</text>
<polyline fill="none" stroke="black" points="396.5,-41.25 503.5,-41.25 "/>
<text text-anchor="middle" x="450" y="-26.05" font-family="Times,serif" font-size="14.00">next = [4]</text>
</g>
<!-- element2&#45;&gt;element3 -->
<g id="edge3" class="edge"><title>element2&#45;&gt;element3</title>
<path fill="none" stroke="none" d="M359.62,-48.8333C359.62,-48.8333 386.335,-48.8333 386.335,-48.8333"/>
<polygon fill="none" stroke="none" points="386.335,-52.3334 396.335,-48.8333 386.335,-45.3334 386.335,-52.3334"/>
</g>
<!-- element2&#45;&gt;element3 -->
<g id="edge13" class="edge"><title>element2&#45;&gt;element3</title>
<path fill="none" stroke="black" d="M369.62,-79.6667C369.62,-79.6667 386.335,-79.6667 386.335,-79.6667"/>
<polygon fill="black" stroke="black" points="386.335,-83.1667 396.335,-79.6667 386.335,-76.1667 386.335,-83.1667"/>
<polygon fill="black" stroke="black" points="369.62,-76.1667 359.62,-79.6667 369.62,-83.1667 369.62,-76.1667"/>
</g>
<!-- element4 -->
<g id="node5" class="node"><title>element4</title>
<path fill="#66ccff" stroke="black" d="M552.5,-18.25C552.5,-18.25 635.5,-18.25 635.5,-18.25 641.5,-18.25 647.5,-24.25 647.5,-30.25 647.5,-30.25 647.5,-98.25 647.5,-98.25 647.5,-104.25 641.5,-110.25 635.5,-110.25 635.5,-110.25 552.5,-110.25 552.5,-110.25 546.5,-110.25 540.5,-104.25 540.5,-98.25 540.5,-98.25 540.5,-30.25 540.5,-30.25 540.5,-24.25 546.5,-18.25 552.5,-18.25"/>
<text text-anchor="middle" x="594" y="-95.05" font-family="Times,serif" font-size="14.00">idx = [4]</text>
<polyline fill="none" stroke="black" points="540.5,-87.25 647.5,-87.25 "/>
<text text-anchor="middle" x="594" y="-72.05" font-family="Times,serif" font-size="14.00">data = [303]</text>
<polyline fill="none" stroke="black" points="540.5,-64.25 647.5,-64.25 "/>
<text text-anchor="middle" x="594" y="-49.05" font-family="Times,serif" font-size="14.00">prev = [3]</text>
<polyline fill="none" stroke="black" points="540.5,-41.25 647.5,-41.25 "/>
<text text-anchor="middle" x="594" y="-26.05" font-family="Times,serif" font-size="14.00">next = [0]</text>
</g>
<!-- element3&#45;&gt;element4 -->
<g id="edge4" class="edge"><title>element3&#45;&gt;element4</title>
<path fill="none" stroke="none" d="M503.62,-48.8333C503.62,-48.8333 530.335,-48.8333 530.335,-48.8333"/>
<polygon fill="none" stroke="none" points="530.335,-52.3334 540.335,-48.8333 530.335,-45.3334 530.335,-52.3334"/>
</g>
<!-- element3&#45;&gt;element4 -->
<g id="edge14" class="edge"><title>element3&#45;&gt;element4</title>
<path fill="none" stroke="black" d="M513.62,-79.6667C513.62,-79.6667 530.335,-79.6667 530.335,-79.6667"/>
<polygon fill="black" stroke="black" points="530.335,-83.1667 540.335,-79.6667 530.335,-76.1667 530.335,-83.1667"/>
<polygon fill="black" stroke="black" points="513.62,-76.1667 503.62,-79.6667 513.62,-83.1667 513.62,-76.1667"/>
</g>
<!-- element5 -->
<g id="node6" class="node"><title>element5</title>
<path fill="#33cc33" stroke="black" d="M696.5,-18.25C696.5,-18.25 783.5,-18.25 783.5,-18.25 789.5,-18.25 795.5,-24.25 795.5,-30.25 795.5,-30.25 795.5,-98.25 795.5,-98.25 795.5,-104.25 789.5,-110.25 783.5,-110.25 783.5,-110.25 696.5,-110.25 696.5,-110.25 690.5,-110.25 684.5,-104.25 684.5,-98.25 684.5,-98.25 684.5,-30.25 684.5,-30.25 684.5,-24.25 690.5,-18.25 696.5,-18.25"/>
<text text-anchor="middle" x="740" y="-95.05" font-family="Times,serif" font-size="14.00">idx = [5]</text>
<polyline fill="none" stroke="black" points="684.5,-87.25 795.5,-87.25 "/>
<text text-anchor="middle" x="740" y="-72.05" font-family="Times,serif" font-size="14.00">data = [&#45;666]</text>
<polyline fill="none" stroke="black" points="684.5,-64.25 795.5,-64.25 "/>
<text text-anchor="middle" x="740" y="-49.05" font-family="Times,serif" font-size="14.00">prev = [&#45;1]</text>
<polyline fill="none" stroke="black" points="684.5,-41.25 795.5,-41.25 "/>
<text text-anchor="middle" x="740" y="-26.05" font-family="Times,serif" font-size="14.00">next = [6]</text>
</g>
<!-- element4&#45;&gt;element5 -->
<g id="edge5" class="edge"><title>element4&#45;&gt;element5</title>
<path fill="none" stroke="none" d="M647.536,-64.25C647.536,-64.25 674.019,-64.25 674.019,-64.25"/>
<polygon fill="none" stroke="none" points="674.019,-67.7501 684.019,-64.25 674.019,-60.7501 674.019,-67.7501"/>
</g>
<!-- element4&#45;&gt;element0 -->
<g id="edge15" class="edge"><title>element4&#45;&gt;element0</title>
<path fill="none" stroke="black" d="M594,-8.23961C594,-8.23961 594,-0 594,-0 594,-0 45,-0 45,-0 45,-0 45,-8.23961 45,-8.23961"/>
<polygon fill="black" stroke="black" points="590.5,-8.23958 594,-18.2396 597.5,-8.23965 590.5,-8.23958"/>
<polygon fill="black" stroke="black" points="41.5001,-8.23958 45,-18.2396 48.5001,-8.23965 41.5001,-8.23958"/>
</g>
<!-- element6 -->
<g id="node7" class="node"><title>element6</title>
<path fill="#99ff66" stroke="black" d="M844.5,-18.25C844.5,-18.25 931.5,-18.25 931.5,-18.25 937.5,-18.25 943.5,-24.25 943.5,-30.25 943.5,-30.25 943.5,-98.25 943.5,-98.25 943.5,-104.25 937.5,-110.25 931.5,-110.25 931.5,-110.25 844.5,-110.25 844.5,-110.25 838.5,-110.25 832.5,-104.25 832.5,-98.25 832.5,-98.25 832.5,-30.25 832.5,-30.25 832.5,-24.25 838.5,-18.25 844.5,-18.25"/>
<text text-anchor="middle" x="888" y="-95.05" font-family="Times,serif" font-size="14.00">idx = [6]</text>
<polyline fill="none" stroke="black" points="832.5,-87.25 943.5,-87.25 "/>
<text text-anchor="middle" x="888" y="-72.05" font-family="Times,serif" font-size="14.00">data = [&#45;666]</text>
<polyline fill="none" stroke="black" points="832.5,-64.25 943.5,-64.25 "/>
<text text-anchor="middle" x="888" y="-49.05" font-family="Times,serif" font-size="14.00">prev = [&#45;1]</text>
<polyline fill="none" stroke="black" points="832.5,-41.25 943.5,-41.25 "/>
<text text-anchor="middle" x="888" y="-26.05" font-family="Times,serif" font-size="14.00">next = [7]</text>
</g>
<!-- element5&#45;&gt;element6 -->
<g id="edge6" class="edge"><title>element5&#45;&gt;element6</title>
<path fill="none" stroke="none" d="M795.531,-48.8333C795.531,-48.8333 822.158,-48.8333 822.158,-48.8333"/>
<polygon fill="none" stroke="none" points="822.158,-52.3334 832.158,-48.8333 822.158,-45.3334 822.158,-52.3334"/>
</g>
<!-- element5&#45;&gt;element6 -->
<g id="edge16" class="edge"><title>element5&#45;&gt;element6</title>
<path fill="none" stroke="green" d="M795.531,-79.6667C795.531,-79.6667 822.158,-79.6667 822.158,-79.6667"/>
<polygon fill="green" stroke="green" points="822.158,-83.1668 832.158,-79.6667 822.158,-76.1668 822.158,-83.1668"/>
</g>
<!-- element7 -->
<g id="node8" class="node"><title>element7</title>
<path fill="#99ff66" stroke="black" d="M992.5,-18.25C992.5,-18.25 1079.5,-18.25 1079.5,-18.25 1085.5,-18.25 1091.5,-24.25 1091.5,-30.25 1091.5,-30.25 1091.5,-98.25 1091.5,-98.25 1091.5,-104.25 1085.5,-110.25 1079.5,-110.25 1079.5,-110.25 992.5,-110.25 992.5,-110.25 986.5,-110.25 980.5,-104.25 980.5,-98.25 980.5,-98.25 980.5,-30.25 980.5,-30.25 980.5,-24.25 986.5,-18.25 992.5,-18.25"/>
<text text-anchor="middle" x="1036" y="-95.05" font-family="Times,serif" font-size="14.00">idx = [7]</text>
<polyline fill="none" stroke="black" points="980.5,-87.25 1091.5,-87.25 "/>
<text text-anchor="middle" x="1036" y="-72.05" font-family="Times,serif" font-size="14.00">data = [&#45;666]</text>
<polyline fill="none" stroke="black" points="980.5,-64.25 1091.5,-64.25 "/>
<text text-anchor="middle" x="1036" y="-49.05" font-family="Times,serif" font-size="14.00">prev = [&#45;1]</text>
<polyline fill="none" stroke="black" points="980.5,-41.25 1091.5,-41.25 "/>
<text text-anchor="middle" x="1036" y="-26.05" font-family="Times,serif" font-size="14.00">next = [8]</text>
</g>
<!-- element6&#45;&gt;element7 -->
<g id="edge7" class="edge"><title>element6&#45;&gt;element7</title>
<path fill="none" stroke="none" d="M943.531,-48.8333C943.531,-48.8333 970.158,-48.8333 970.158,-48.8333"/>
<polygon fill="none" stroke="none" points="970.158,-52.3334 980.158,-48.8333 970.158,-45.3334 970.158,-52.3334"/>
</g>
<!-- element6&#45;&gt;element7 -->
<g id="edge17" class="edge"><title>element6&#45;&gt;element7</title>
<path fill="none" stroke="green" d="M943.531,-79.6667C943.531,-79.6667 970.158,-79.6667 970.158,-79.6667"/>
<polygon fill="green" stroke="green" points="970.158,-83.1668 980.158,-79.6667 970.158,-76.1668 970.158,-83.1668"/>
</g>
<!-- element8 -->
<g id="node9" class="node"><title>element8</title>
<path fill="#99ff66" stroke="black" d="M1140.5,-18.25C1140.5,-18.25 1227.5,-18.25 1227.5,-18.25 1233.5,-18.25 1239.5,-24.25 1239.5,-30.25 1239.5,-30.25 1239.5,-98.25 1239.5,-98.25 1239.5,-104.25 1233.5,-110.25 1227.5,-110.25 1227.5,-110.25 1140.5,-110.25 1140.5,-110.25 1134.5,-110.25 1128.5,-104.25 1128.5,-98.25 1128.5,-98.25 1128.5,-30.25 1128.5,-30.25 1128.5,-24.25 1134.5,-18.25 1140.5,-18.25"/>
<text text-anchor="middle" x="1184" y="-95.05" font-family="Times,serif" font-size="14.00">idx = [8]</text>
<polyline fill="none" stroke="black" points="1128.5,-87.25 1239.5,-87.25 "/>
<text text-anchor="middle" x="1184" y="-72.05" font-family="Times,serif" font-size="14.00">data = [&#45;666]</text>
<polyline fill="none" stroke="black" points="1128.5,-64.25 1239.5,-64.25 "/>
<text text-anchor="middle" x="1184" y="-49.05" font-family="Times,serif" font-size="14.00">prev = [&#45;1]</text>
<polyline fill="none" stroke="black" points="1128.5,-41.25 1239.5,-41.25 "/>
<text text-anchor="middle" x="1184" y="-26.05" font-family="Times,serif" font-size="14.00">next = [9]</text>
</g>
<!-- element7&#45;&gt;element8 -->
<g id="edge8" class="edge"><title>element7&#45;&gt;element8</title>
<path fill="none" stroke="none" d="M1091.53,-48.8333C1091.53,-48.8333 1118.16,-48.8333 1118.16,-48.8333"/>
<polygon fill="none" stroke="none" points="1118.16,-52.3334 1128.16,-48.8333 1118.16,-45.3334 1118.16,-52.3334"/>
</g>
<!-- element7&#45;&gt;element8 -->
<g id="edge18" class="edge"><title>element7&#45;&gt;element8</title>
<path fill="none" stroke="green" d="M1091.53,-79.6667C1091.53,-79.6667 1118.16,-79.6667 1118.16,-79.6667"/>
<polygon fill="green" stroke="green" points="1118.16,-83.1668 1128.16,-79.6667 1118.16,-76.1668 1118.16,-83.1668"/>
</g>
<!-- element9 -->
<g id="node10" class="node"><title>element9</title>
<path fill="#99ff66" stroke="black" d="M1288.5,-18.25C1288.5,-18.25 1375.5,-18.25 1375.5,-18.25 1381.5,-18.25 1387.5,-24.25 1387.5,-30.25 1387.5,-30.25 1387.5,-98.25 1387.5,-98.25 1387.5,-104.25 1381.5,-110.25 1375.5,-110.25 1375.5,-110.25 1288.5,-110.25 1288.5,-110.25 1282.5,-110.25 1276.5,-104.25 1276.5,-98.25 1276.5,-98.25 1276.5,-30.25 1276.5,-30.25 1276.5,-24.25 1282.5,-18.25 1288.5,-18.25"/>
<text text-anchor="middle" x="1332" y="-95.05" font-family="Times,serif" font-size="14.00">idx = [9]</text>
<polyline fill="none" stroke="black" points="1276.5,-87.25 1387.5,-87.25 "/>
<text text-anchor="middle" x="1332" y="-72.05" font-family="Times,serif" font-size="14.00">data = [&#45;666]</text>
<polyline fill="none" stroke="black" points="1276.5,-64.25 1387.5,-64.25 "/>
<text text-anchor="middle" x="1332" y="-49.05" font-family="Times,serif" font-size="14.00">prev = [&#45;1]</text>
<polyline fill="none" stroke="black" points="1276.5,-41.25 1387.5,-41.25 "/>
<text text-anchor="middle" x="1332" y="-26.05" font-family="Times,serif" font-size="14.00">next = [10]</text>
</g>
<!-- element8&#45;&gt;element9 -->
<g id="edge9" class="edge"><title>element8&#45;&gt;element9</title>
<path fill="none" stroke="none" d="M1239.53,-48.8333C1239.53,-48.8333 1266.16,-48.8333 1266.16,-48.8333"/>
<polygon fill="none" stroke="none" points="1266.16,-52.3334 1276.16,-48.8333 1266.16,-45.3334 1266.16,-52.3334"/>
</g>
<!-- element8&#45;&gt;element9 -->
<g id="edge19" class="edge"><title>element8&#45;&gt;element9</title>
<path fill="none" stroke="green" d="M1239.53,-79.6667C1239.53,-79.6667 1266.16,-79.6667 1266.16,-79.6667"/>
<polygon fill="green" stroke="green" points="1266.16,-83.1668 1276.16,-79.6667 1266.16,-76.1668 1266.16,-83.1668"/>
</g>
<!-- element10 -->
<g id="node11" class="node"><title>element10</title>
<path fill="#99ff66" stroke="black" d="M1436.5,-18.25C1436.5,-18.25 1523.5,-18.25 1523.5,-18.25 1529.5,-18.25 1535.5,-24.25 1535.5,-30.25 1535.5,-30.25 1535.5,-98.25 1535.5,-98.25 1535.5,-104.25 1529.5,-110.25 1523.5,-110.25 1523.5,-110.25 1436.5,-110.25 1436.5,-110.25 1430.5,-110.25 1424.5,-104.25 1424.5,-98.25 1424.5,-98.25 1424.5,-30.25 1424.5,-30.25 1424.5,-24.25 1430.5,-18.25 1436.5,-18.25"/>
<text text-anchor="middle" x="1480" y="-95.05" font-family="Times,serif" font-size="14.00">idx = [10]</text>
<polyline fill="none" stroke="black" points="1424.5,-87.25 1535.5,-87.25 "/>
<text text-anchor="middle" x="1480" y="-72.05" font-family="Times,serif" font-size="14.00">data = [&#45;666]</text>
<polyline fill="none" stroke="black" points="1424.5,-64.25 1535.5,-64.25 "/>
<text text-anchor="middle" x="1480" y="-49.05" font-family="Times,serif" font-size="14.00">prev = [&#45;1]</text>
<polyline fill="none" stroke="black" points="1424.5,-41.25 1535.5,-41.25 "/>
<text text-anchor="middle" x="1480" y="-26.05" font-family="Times,serif" font-size="14.00">next = [0]</text>
</g>
<!-- element9&#45;&gt;element10 -->
<g id="edge10" class="edge"><title>element9&#45;&gt;element10</title>
<path fill="none" stroke="none" d="M1387.53,-48.8333C1387.53,-48.8333 1414.16,-48.8333 1414.16,-48.8333"/>
<polygon fill="none" stroke="none" points="1414.16,-52.3334 1424.16,-48.8333 1414.16,-45.3334 1414.16,-52.3334"/>
</g>
<!-- element9&#45;&gt;element10 -->
<g id="edge20" class="edge"><title>element9&#45;&gt;element10</title>
<path fill="none" stroke="green" d="M1387.53,-79.6667C1387.53,-79.6667 1414.16,-79.6667 1414.16,-79.6667"/>
<polygon fill="green" stroke="green" points="1414.16,-83.1668 1424.16,-79.6667 1414.16,-76.1668 1414.16,-83.1668"/>
</g>
</g>
</svg>
