<?xml version="1.0" encoding="UTF-8" standalone="no"?>
<!DOCTYPE svg PUBLIC "-//W3C//DTD SVG 1.1//EN"
 "http://www.w3.org/Graphics/SVG/1.1/DTD/svg11.dtd">
<!-- Generated by graphviz version 2.30.1 (20201013.1554)
 -->
<!-- Title: G Pages: 1 -->
<svg width="1528pt" height="118pt"
 viewBox="0.00 0.00 1528.00 118.25" xmlns="http://www.w3.org/2000/svg" xmlns:xlink="http://www.w3.org/1999/xlink">
<g id="graph0" class="graph" transform="scale(1 1) rotate(0) translate(4 114.25)">
<title>G</title>
<polygon fill="white" stroke="white" points="-4,5 -4,-114.25 1525,-114.25 1525,5 -4,5"/>
<!-- element0 -->
<g id="node1" class="node"><title>element0</title>
<path fill="#ebebe0" stroke="black" d="M12.5,-0C12.5,-0 77.5,-0 77.5,-0 83.5,-0 89.5,-6 89.5,-12 89.5,-12 89.5,-80 89.5,-80 89.5,-86 83.5,-92 77.5,-92 77.5,-92 12.5,-92 12.5,-92 6.5,-92 0.5,-86 0.5,-80 0.5,-80 0.5,-12 0.5,-12 0.5,-6 6.5,-0 12.5,-0"/>
<text text-anchor="middle" x="45" y="-76.8" font-family="Times,serif" font-size="14.00">idx = [0]</text>
<polyline fill="none" stroke="black" points="0.5,-69 89.5,-69 "/>
<text text-anchor="middle" x="45" y="-53.8" font-family="Times,serif" font-size="14.00">data = [0]</text>
<polyline fill="none" stroke="black" points="0.5,-46 89.5,-46 "/>
<text text-anchor="middle" x="45" y="-30.8" font-family="Times,serif" font-size="14.00">prev = [8]</text>
<polyline fill="none" stroke="black" points="0.5,-23 89.5,-23 "/>
<text text-anchor="middle" x="45" y="-7.8" font-family="Times,serif" font-size="14.00">next = [1]</text>
</g>
<!-- element1 -->
<g id="node2" class="node"><title>element1</title>
<path fill="#cc99ff" stroke="black" d="M138.5,-0C138.5,-0 203.5,-0 203.5,-0 209.5,-0 215.5,-6 215.5,-12 215.5,-12 215.5,-80 215.5,-80 215.5,-86 209.5,-92 203.5,-92 203.5,-92 138.5,-92 138.5,-92 132.5,-92 126.5,-86 126.5,-80 126.5,-80 126.5,-12 126.5,-12 126.5,-6 132.5,-0 138.5,-0"/>
<text text-anchor="middle" x="171" y="-76.8" font-family="Times,serif" font-size="14.00">idx = [1]</text>
<polyline fill="none" stroke="black" points="126.5,-69 215.5,-69 "/>
<text text-anchor="middle" x="171" y="-53.8" font-family="Times,serif" font-size="14.00">data = [0]</text>
<polyline fill="none" stroke="black" points="126.5,-46 215.5,-46 "/>
<text text-anchor="middle" x="171" y="-30.8" font-family="Times,serif" font-size="14.00">prev = [0]</text>
<polyline fill="none" stroke="black" points="126.5,-23 215.5,-23 "/>
<text text-anchor="middle" x="171" y="-7.8" font-family="Times,serif" font-size="14.00">next = [2]</text>
</g>
<!-- element0&#45;&gt;element1 -->
<g id="edge1" class="edge"><title>element0&#45;&gt;element1</title>
<path fill="none" stroke="none" d="M89.7777,-30.5833C89.7777,-30.5833 116.367,-30.5833 116.367,-30.5833"/>
<polygon fill="none" stroke="none" points="116.367,-34.0834 126.367,-30.5833 116.366,-27.0834 116.367,-34.0834"/>
</g>
<!-- element0&#45;&gt;element1 -->
<g id="edge11" class="edge"><title>element0&#45;&gt;element1</title>
<path fill="none" stroke="black" d="M99.7777,-61.4167C99.7777,-61.4167 116.367,-61.4167 116.367,-61.4167"/>
<polygon fill="black" stroke="black" points="116.367,-64.9167 126.367,-61.4167 116.367,-57.9167 116.367,-64.9167"/>
<polygon fill="black" stroke="black" points="99.7777,-57.9167 89.7777,-61.4167 99.7776,-64.9167 99.7777,-57.9167"/>
</g>
<!-- element2 -->
<g id="node3" class="node"><title>element2</title>
<path fill="#66ccff" stroke="black" d="M264.5,-0C264.5,-0 347.5,-0 347.5,-0 353.5,-0 359.5,-6 359.5,-12 359.5,-12 359.5,-80 359.5,-80 359.5,-86 353.5,-92 347.5,-92 347.5,-92 264.5,-92 264.5,-92 258.5,-92 252.5,-86 252.5,-80 252.5,-80 252.5,-12 252.5,-12 252.5,-6 258.5,-0 264.5,-0"/>
<text text-anchor="middle" x="306" y="-76.8" font-family="Times,serif" font-size="14.00">idx = [2]</text>
<polyline fill="none" stroke="black" points="252.5,-69 359.5,-69 "/>
<text text-anchor="middle" x="306" y="-53.8" font-family="Times,serif" font-size="14.00">data = [101]</text>
<polyline fill="none" stroke="black" points="252.5,-46 359.5,-46 "/>
<text text-anchor="middle" x="306" y="-30.8" font-family="Times,serif" font-size="14.00">prev = [1]</text>
<polyline fill="none" stroke="black" points="252.5,-23 359.5,-23 "/>
<text text-anchor="middle" x="306" y="-7.8" font-family="Times,serif" font-size="14.00">next = [3]</text>
</g>
<!-- element1&#45;&gt;element2 -->
<g id="edge2" class="edge"><title>element1&#45;&gt;element2</title>
<path fill="none" stroke="none" d="M215.578,-30.5833C215.578,-30.5833 242.068,-30.5833 242.068,-30.5833"/>
<polygon fill="none" stroke="none" points="242.069,-34.0834 252.068,-30.5833 242.068,-27.0834 242.069,-34.0834"/>
</g>
<!-- element1&#45;&gt;element2 -->
<g id="edge12" class="edge"><title>element1&#45;&gt;element2</title>
<path fill="none" stroke="black" d="M225.578,-61.4167C225.578,-61.4167 242.068,-61.4167 242.068,-61.4167"/>
<polygon fill="black" stroke="black" points="242.068,-64.9167 252.068,-61.4167 242.068,-57.9167 242.068,-64.9167"/>
<polygon fill="black" stroke="black" points="225.578,-57.9167 215.578,-61.4167 225.578,-64.9167 225.578,-57.9167"/>
</g>
<!-- element3 -->
<g id="node4" class="node"><title>element3</title>
<path fill="#66ccff" stroke="black" d="M408.5,-0C408.5,-0 491.5,-0 491.5,-0 497.5,-0 503.5,-6 503.5,-12 503.5,-12 503.5,-80 503.5,-80 503.5,-86 497.5,-92 491.5,-92 491.5,-92 408.5,-92 408.5,-92 402.5,-92 396.5,-86 396.5,-80 396.5,-80 396.5,-12 396.5,-12 396.5,-6 402.5,-0 408.5,-0"/>
<text text-anchor="middle" x="450" y="-76.8" font-family="Times,serif" font-size="14.00">idx = [3]</text>
<polyline fill="none" stroke="black" points="396.5,-69 503.5,-69 "/>
<text text-anchor="middle" x="450" y="-53.8" font-family="Times,serif" font-size="14.00">data = [202]</text>
<polyline fill="none" stroke="black" points="396.5,-46 503.5,-46 "/>
<text text-anchor="middle" x="450" y="-30.8" font-family="Times,serif" font-size="14.00">prev = [2]</text>
<polyline fill="none" stroke="black" points="396.5,-23 503.5,-23 "/>
<text text-anchor="middle" x="450" y="-7.8" font-family="Times,serif" font-size="14.00">next = [4]</text>
</g>
<!-- element2&#45;&gt;element3 -->
<g id="edge3" class="edge"><title>element2&#45;&gt;element3</title>
<path fill="none" stroke="none" d="M359.62,-30.5833C359.62,-30.5833 386.335,-30.5833 386.335,-30.5833"/>
<polygon fill="none" stroke="none" points="386.335,-34.0834 396.335,-30.5833 386.335,-27.0834 386.335,-34.0834"/>
</g>
<!-- element2&#45;&gt;element3 -->
<g id="edge13" class="edge"><title>element2&#45;&gt;element3</title>
<path fill="none" stroke="black" d="M369.62,-61.4167C369.62,-61.4167 386.335,-61.4167 386.335,-61.4167"/>
<polygon fill="black" stroke="black" points="386.335,-64.9167 396.335,-61.4167 386.335,-57.9167 386.335,-64.9167"/>
<polygon fill="black" stroke="black" points="369.62,-57.9167 359.62,-61.4167 369.62,-64.9167 369.62,-57.9167"/>
</g>
<!-- element4 -->
<g id="node5" class="node"><title>element4</title>
<path fill="#66ccff" stroke="black" d="M552.5,-0C552.5,-0 635.5,-0 635.5,-0 641.5,-0 647.5,-6 647.5,-12 647.5,-12 647.5,-80 647.5,-80 647.5,-86 641.5,-92 635.5,-92 635.5,-92 552.5,-92 552.5,-92 546.5,-92 540.5,-86 540.5,-80 540.5,-80 540.5,-12 540.5,-12 540.5,-6 546.5,-0 552.5,-0"/>
<text text-anchor="middle" x="594" y="-76.8" font-family="Times,serif" font-size="14.00">idx = [4]</text>
<polyline fill="none" stroke="black" points="540.5,-69 647.5,-69 "/>
<text text-anchor="middle" x="594" y="-53.8" font-family="Times,serif" font-size="14.00">data = [303]</text>
<polyline fill="none" stroke="black" points="540.5,-46 647.5,-46 "/>
<text text-anchor="middle" x="594" y="-30.8" font-family="Times,serif" font-size="14.00">prev = [3]</text>
<polyline fill="none" stroke="black" points="540.5,-23 647.5,-23 "/>
<text text-anchor="middle" x="594" y="-7.8" font-family="Times,serif" font-size="14.00">next = [5]</text>
</g>
<!-- element3&#45;&gt;element4 -->
<g id="edge4" class="edge"><title>element3&#45;&gt;element4</title>
<path fill="none" stroke="none" d="M503.62,-30.5833C503.62,-30.5833 530.335,-30.5833 530.335,-30.5833"/>
<polygon fill="none" stroke="none" points="530.335,-34.0834 540.335,-30.5833 530.335,-27.0834 530.335,-34.0834"/>
</g>
<!-- element3&#45;&gt;element4 -->
<g id="edge14" class="edge"><title>element3&#45;&gt;element4</title>
<path fill="none" stroke="black" d="M513.62,-61.4167C513.62,-61.4167 530.335,-61.4167 530.335,-61.4167"/>
<polygon fill="black" stroke="black" points="530.335,-64.9167 540.335,-61.4167 530.335,-57.9167 530.335,-64.9167"/>
<polygon fill="black" stroke="black" points="513.62,-57.9167 503.62,-61.4167 513.62,-64.9167 513.62,-57.9167"/>
</g>
<!-- element5 -->
<g id="node6" class="node"><title>element5</title>
<path fill="#66ccff" stroke="black" d="M696.5,-0C696.5,-0 779.5,-0 779.5,-0 785.5,-0 791.5,-6 791.5,-12 791.5,-12 791.5,-80 791.5,-80 791.5,-86 785.5,-92 779.5,-92 779.5,-92 696.5,-92 696.5,-92 690.5,-92 684.5,-86 684.5,-80 684.5,-80 684.5,-12 684.5,-12 684.5,-6 690.5,-0 696.5,-0"/>
<text text-anchor="middle" x="738" y="-76.8" font-family="Times,serif" font-size="14.00">idx = [5]</text>
<polyline fill="none" stroke="black" points="684.5,-69 791.5,-69 "/>
<text text-anchor="middle" x="738" y="-53.8" font-family="Times,serif" font-size="14.00">data = [404]</text>
<polyline fill="none" stroke="black" points="684.5,-46 791.5,-46 "/>
<text text-anchor="middle" x="738" y="-30.8" font-family="Times,serif" font-size="14.00">prev = [4]</text>
<polyline fill="none" stroke="black" points="684.5,-23 791.5,-23 "/>
<text text-anchor="middle" x="738" y="-7.8" font-family="Times,serif" font-size="14.00">next = [6]</text>
</g>
<!-- element4&#45;&gt;element5 -->
<g id="edge5" class="edge"><title>element4&#45;&gt;element5</title>
<path fill="none" stroke="none" d="M647.62,-30.5833C647.62,-30.5833 674.335,-30.5833 674.335,-30.5833"/>
<polygon fill="none" stroke="none" points="674.335,-34.0834 684.335,-30.5833 674.335,-27.0834 674.335,-34.0834"/>
</g>
<!-- element4&#45;&gt;element5 -->
<g id="edge15" class="edge"><title>element4&#45;&gt;element5</title>
<path fill="none" stroke="black" d="M657.62,-61.4167C657.62,-61.4167 674.335,-61.4167 674.335,-61.4167"/>
<polygon fill="black" stroke="black" points="674.335,-64.9167 684.335,-61.4167 674.335,-57.9167 674.335,-64.9167"/>
<polygon fill="black" stroke="black" points="657.62,-57.9167 647.62,-61.4167 657.62,-64.9167 657.62,-57.9167"/>
</g>
<!-- element6 -->
<g id="node7" class="node"><title>element6</title>
<path fill="#66ccff" stroke="black" d="M840.5,-0C840.5,-0 923.5,-0 923.5,-0 929.5,-0 935.5,-6 935.5,-12 935.5,-12 935.5,-80 935.5,-80 935.5,-86 929.5,-92 923.5,-92 923.5,-92 840.5,-92 840.5,-92 834.5,-92 828.5,-86 828.5,-80 828.5,-80 828.5,-12 828.5,-12 828.5,-6 834.5,-0 840.5,-0"/>
<text text-anchor="middle" x="882" y="-76.8" font-family="Times,serif" font-size="14.00">idx = [6]</text>
<polyline fill="none" stroke="black" points="828.5,-69 935.5,-69 "/>
<text text-anchor="middle" x="882" y="-53.8" font-family="Times,serif" font-size="14.00">data = [505]</text>
<polyline fill="none" stroke="black" points="828.5,-46 935.5,-46 "/>
<text text-anchor="middle" x="882" y="-30.8" font-family="Times,serif" font-size="14.00">prev = [5]</text>
<polyline fill="none" stroke="black" points="828.5,-23 935.5,-23 "/>
<text text-anchor="middle" x="882" y="-7.8" font-family="Times,serif" font-size="14.00">next = [7]</text>
</g>
<!-- element5&#45;&gt;element6 -->
<g id="edge6" class="edge"><title>element5&#45;&gt;element6</title>
<path fill="none" stroke="none" d="M791.62,-30.5833C791.62,-30.5833 818.335,-30.5833 818.335,-30.5833"/>
<polygon fill="none" stroke="none" points="818.335,-34.0834 828.335,-30.5833 818.335,-27.0834 818.335,-34.0834"/>
</g>
<!-- element5&#45;&gt;element6 -->
<g id="edge16" class="edge"><title>element5&#45;&gt;element6</title>
<path fill="none" stroke="black" d="M801.62,-61.4167C801.62,-61.4167 818.335,-61.4167 818.335,-61.4167"/>
<polygon fill="black" stroke="black" points="818.335,-64.9167 828.335,-61.4167 818.335,-57.9167 818.335,-64.9167"/>
<polygon fill="black" stroke="black" points="801.62,-57.9167 791.62,-61.4167 801.62,-64.9167 801.62,-57.9167"/>
</g>
<!-- element7 -->
<g id="node8" class="node"><title>element7</title>
<path fill="#66ccff" stroke="black" d="M984.5,-0C984.5,-0 1067.5,-0 1067.5,-0 1073.5,-0 1079.5,-6 1079.5,-12 1079.5,-12 1079.5,-80 1079.5,-80 1079.5,-86 1073.5,-92 1067.5,-92 1067.5,-92 984.5,-92 984.5,-92 978.5,-92 972.5,-86 972.5,-80 972.5,-80 972.5,-12 972.5,-12 972.5,-6 978.5,-0 984.5,-0"/>
<text text-anchor="middle" x="1026" y="-76.8" font-family="Times,serif" font-size="14.00">idx = [7]</text>
<polyline fill="none" stroke="black" points="972.5,-69 1079.5,-69 "/>
<text text-anchor="middle" x="1026" y="-53.8" font-family="Times,serif" font-size="14.00">data = [606]</text>
<polyline fill="none" stroke="black" points="972.5,-46 1079.5,-46 "/>
<text text-anchor="middle" x="1026" y="-30.8" font-family="Times,serif" font-size="14.00">prev = [6]</text>
<polyline fill="none" stroke="black" points="972.5,-23 1079.5,-23 "/>
<text text-anchor="middle" x="1026" y="-7.8" font-family="Times,serif" font-size="14.00">next = [8]</text>
</g>
<!-- element6&#45;&gt;element7 -->
<g id="edge7" class="edge"><title>element6&#45;&gt;element7</title>
<path fill="none" stroke="none" d="M935.62,-30.5833C935.62,-30.5833 962.335,-30.5833 962.335,-30.5833"/>
<polygon fill="none" stroke="none" points="962.335,-34.0834 972.335,-30.5833 962.335,-27.0834 962.335,-34.0834"/>
</g>
<!-- element6&#45;&gt;element7 -->
<g id="edge17" class="edge"><title>element6&#45;&gt;element7</title>
<path fill="none" stroke="black" d="M945.62,-61.4167C945.62,-61.4167 962.335,-61.4167 962.335,-61.4167"/>
<polygon fill="black" stroke="black" points="962.335,-64.9167 972.335,-61.4167 962.335,-57.9167 962.335,-64.9167"/>
<polygon fill="black" stroke="black" points="945.62,-57.9167 935.62,-61.4167 945.62,-64.9167 945.62,-57.9167"/>
</g>
<!-- element8 -->
<g id="node9" class="node"><title>element8</title>
<path fill="#66ccff" stroke="black" d="M1128.5,-0C1128.5,-0 1211.5,-0 1211.5,-0 1217.5,-0 1223.5,-6 1223.5,-12 1223.5,-12 1223.5,-80 1223.5,-80 1223.5,-86 1217.5,-92 1211.5,-92 1211.5,-92 1128.5,-92 1128.5,-92 1122.5,-92 1116.5,-86 1116.5,-80 1116.5,-80 1116.5,-12 1116.5,-12 1116.5,-6 1122.5,-0 1128.5,-0"/>
<text text-anchor="middle" x="1170" y="-76.8" font-family="Times,serif" font-size="14.00">idx = [8]</text>
<polyline fill="none" stroke="black" points="1116.5,-69 1223.5,-69 "/>
<text text-anchor="middle" x="1170" y="-53.8" font-family="Times,serif" font-size="14.00">data = [707]</text>
<polyline fill="none" stroke="black" points="1116.5,-46 1223.5,-46 "/>
<text text-anchor="middle" x="1170" y="-30.8" font-family="Times,serif" font-size="14.00">prev = [7]</text>
<polyline fill="none" stroke="black" points="1116.5,-23 1223.5,-23 "/>
<text text-anchor="middle" x="1170" y="-7.8" font-family="Times,serif" font-size="14.00">next = [0]</text>
</g>
<!-- element7&#45;&gt;element8 -->
<g id="edge8" class="edge"><title>element7&#45;&gt;element8</title>
<path fill="none" stroke="none" d="M1079.62,-30.5833C1079.62,-30.5833 1106.33,-30.5833 1106.33,-30.5833"/>
<polygon fill="none" stroke="none" points="1106.33,-34.0834 1116.33,-30.5833 1106.33,-27.0834 1106.33,-34.0834"/>
</g>
<!-- element7&#45;&gt;element8 -->
<g id="edge18" class="edge"><title>element7&#45;&gt;element8</title>
<path fill="none" stroke="black" d="M1089.62,-61.4167C1089.62,-61.4167 1106.33,-61.4167 1106.33,-61.4167"/>
<polygon fill="black" stroke="black" points="1106.33,-64.9167 1116.33,-61.4167 1106.33,-57.9167 1106.33,-64.9167"/>
<polygon fill="black" stroke="black" points="1089.62,-57.9167 1079.62,-61.4167 1089.62,-64.9167 1089.62,-57.9167"/>
</g>
<!-- element9 -->
<g id="node10" class="node"><title>element9</title>
<path fill="#33cc33" stroke="black" d="M1272.5,-0C1272.5,-0 1359.5,-0 1359.5,-0 1365.5,-0 1371.5,-6 1371.5,-12 1371.5,-12 1371.5,-80 1371.5,-80 1371.5,-86 1365.5,-92 1359.5,-92 1359.5,-92 1272.5,-92 1272.5,-92 1266.5,-92 1260.5,-86 1260.5,-80 1260.5,-80 1260.5,-12 1260.5,-12 1260.5,-6 1266.5,-0 1272.5,-0"/>
<text text-anchor="middle" x="1316" y="-76.8" font-family="Times,serif" font-size="14.00">idx = [9]</text>
<polyline fill="none" stroke="black" points="1260.5,-69 1371.5,-69 "/>
<text text-anchor="middle" x="1316" y="-53.8" font-family="Times,serif" font-size="14.00">data = [&#45;666]</text>
<polyline fill="none" stroke="black" points="1260.5,-46 1371.5,-46 "/>
<text text-anchor="middle" x="1316" y="-30.8" font-family="Times,serif" font-size="14.00">prev = [&#45;1]</text>
<polyline fill="none" stroke="black" points="1260.5,-23 1371.5,-23 "/>
<text text-anchor="middle" x="1316" y="-7.8" font-family="Times,serif" font-size="14.00">next = [10]</text>
</g>
<!-- element8&#45;&gt;element9 -->
<g id="edge9" class="edge"><title>element8&#45;&gt;element9</title>
<path fill="none" stroke="none" d="M1223.54,-46C1223.54,-46 1250.02,-46 1250.02,-46"/>
<polygon fill="none" stroke="none" points="1250.02,-49.5001 1260.02,-46 1250.02,-42.5001 1250.02,-49.5001"/>
</g>
<!-- element8&#45;&gt;element0 -->
<g id="edge19" class="edge"><title>element8&#45;&gt;element0</title>
<path fill="none" stroke="black" d="M1170,-102.01C1170,-102.01 1170,-110.25 1170,-110.25 1170,-110.25 45,-110.25 45,-110.25 45,-110.25 45,-102.01 45,-102.01"/>
<polygon fill="black" stroke="black" points="1173.5,-102.01 1170,-92.0104 1166.5,-102.01 1173.5,-102.01"/>
<polygon fill="black" stroke="black" points="48.5001,-102.01 45,-92.0104 41.5001,-102.01 48.5001,-102.01"/>
</g>
<!-- element10 -->
<g id="node11" class="node"><title>element10</title>
<path fill="#99ff66" stroke="black" d="M1420.5,-0C1420.5,-0 1507.5,-0 1507.5,-0 1513.5,-0 1519.5,-6 1519.5,-12 1519.5,-12 1519.5,-80 1519.5,-80 1519.5,-86 1513.5,-92 1507.5,-92 1507.5,-92 1420.5,-92 1420.5,-92 1414.5,-92 1408.5,-86 1408.5,-80 1408.5,-80 1408.5,-12 1408.5,-12 1408.5,-6 1414.5,-0 1420.5,-0"/>
<text text-anchor="middle" x="1464" y="-76.8" font-family="Times,serif" font-size="14.00">idx = [10]</text>
<polyline fill="none" stroke="black" points="1408.5,-69 1519.5,-69 "/>
<text text-anchor="middle" x="1464" y="-53.8" font-family="Times,serif" font-size="14.00">data = [&#45;666]</text>
<polyline fill="none" stroke="black" points="1408.5,-46 1519.5,-46 "/>
<text text-anchor="middle" x="1464" y="-30.8" font-family="Times,serif" font-size="14.00">prev = [&#45;1]</text>
<polyline fill="none" stroke="black" points="1408.5,-23 1519.5,-23 "/>
<text text-anchor="middle" x="1464" y="-7.8" font-family="Times,serif" font-size="14.00">next = [0]</text>
</g>
<!-- element9&#45;&gt;element10 -->
<g id="edge10" class="edge"><title>element9&#45;&gt;element10</title>
<path fill="none" stroke="none" d="M1371.53,-30.5833C1371.53,-30.5833 1398.16,-30.5833 1398.16,-30.5833"/>
<polygon fill="none" stroke="none" points="1398.16,-34.0834 1408.16,-30.5833 1398.16,-27.0834 1398.16,-34.0834"/>
</g>
<!-- element9&#45;&gt;element10 -->
<g id="edge20" class="edge"><title>element9&#45;&gt;element10</title>
<path fill="none" stroke="green" d="M1371.53,-61.4167C1371.53,-61.4167 1398.16,-61.4167 1398.16,-61.4167"/>
<polygon fill="green" stroke="green" points="1398.16,-64.9168 1408.16,-61.4167 1398.16,-57.9168 1398.16,-64.9168"/>
</g>
</g>
</svg>
