<?xml version="1.0" encoding="UTF-8" standalone="no"?>
<!DOCTYPE svg PUBLIC "-//W3C//DTD SVG 1.1//EN"
 "http://www.w3.org/Graphics/SVG/1.1/DTD/svg11.dtd">
<!-- Generated by graphviz version 2.30.1 (20201013.1554)
 -->
<!-- Title: G Pages: 1 -->
<svg width="1528pt" height="100pt"
 viewBox="0.00 0.00 1528.00 100.00" xmlns="http://www.w3.org/2000/svg" xmlns:xlink="http://www.w3.org/1999/xlink">
<g id="graph0" class="graph" transform="scale(1 1) rotate(0) translate(4 96)">
<title>G</title>
<polygon fill="white" stroke="white" points="-4,5 -4,-96 1525,-96 1525,5 -4,5"/>
<!-- element0 -->
<g id="node1" class="node"><title>element0</title>
<path fill="#ebebe0" stroke="black" d="M12,-0C12,-0 86,-0 86,-0 92,-0 98,-6 98,-12 98,-12 98,-80 98,-80 98,-86 92,-92 86,-92 86,-92 12,-92 12,-92 6,-92 0,-86 0,-80 0,-80 0,-12 0,-12 0,-6 6,-0 12,-0"/>
<text text-anchor="middle" x="49" y="-76.8" font-family="Times,serif" font-size="14.00">idx = [0]</text>
<polyline fill="none" stroke="black" points="0,-69 98,-69 "/>
<text text-anchor="middle" x="49" y="-53.8" font-family="Times,serif" font-size="14.00">data = [0]</text>
<polyline fill="none" stroke="black" points="0,-46 98,-46 "/>
<text text-anchor="middle" x="49" y="-30.8" font-family="Times,serif" font-size="14.00">prev = [10]</text>
<polyline fill="none" stroke="black" points="0,-23 98,-23 "/>
<text text-anchor="middle" x="49" y="-7.8" font-family="Times,serif" font-size="14.00">next = [1]</text>
</g>
<!-- element1 -->
<g id="node2" class="node"><title>element1</title>
<path fill="#cc99ff" stroke="black" d="M146.5,-0C146.5,-0 211.5,-0 211.5,-0 217.5,-0 223.5,-6 223.5,-12 223.5,-12 223.5,-80 223.5,-80 223.5,-86 217.5,-92 211.5,-92 211.5,-92 146.5,-92 146.5,-92 140.5,-92 134.5,-86 134.5,-80 134.5,-80 134.5,-12 134.5,-12 134.5,-6 140.5,-0 146.5,-0"/>
<text text-anchor="middle" x="179" y="-76.8" font-family="Times,serif" font-size="14.00">idx = [1]</text>
<polyline fill="none" stroke="black" points="134.5,-69 223.5,-69 "/>
<text text-anchor="middle" x="179" y="-53.8" font-family="Times,serif" font-size="14.00">data = [0]</text>
<polyline fill="none" stroke="black" points="134.5,-46 223.5,-46 "/>
<text text-anchor="middle" x="179" y="-30.8" font-family="Times,serif" font-size="14.00">prev = [0]</text>
<polyline fill="none" stroke="black" points="134.5,-23 223.5,-23 "/>
<text text-anchor="middle" x="179" y="-7.8" font-family="Times,serif" font-size="14.00">next = [2]</text>
</g>
<!-- element0&#45;&gt;element1 -->
<g id="edge1" class="edge"><title>element0&#45;&gt;element1</title>
<path fill="none" stroke="none" d="M98.1474,-30.5833C98.1474,-30.5833 124.486,-30.5833 124.486,-30.5833"/>
<polygon fill="none" stroke="none" points="124.486,-34.0834 134.486,-30.5833 124.486,-27.0834 124.486,-34.0834"/>
</g>
<!-- element0&#45;&gt;element1 -->
<g id="edge11" class="edge"><title>element0&#45;&gt;element1</title>
<path fill="none" stroke="black" d="M108.147,-61.4167C108.147,-61.4167 124.486,-61.4167 124.486,-61.4167"/>
<polygon fill="black" stroke="black" points="124.486,-64.9167 134.486,-61.4167 124.486,-57.9167 124.486,-64.9167"/>
<polygon fill="black" stroke="black" points="108.147,-57.9167 98.1474,-61.4167 108.147,-64.9167 108.147,-57.9167"/>
</g>
<!-- element2 -->
<g id="node3" class="node"><title>element2</title>
<path fill="#66ccff" stroke="black" d="M272.5,-0C272.5,-0 355.5,-0 355.5,-0 361.5,-0 367.5,-6 367.5,-12 367.5,-12 367.5,-80 367.5,-80 367.5,-86 361.5,-92 355.5,-92 355.5,-92 272.5,-92 272.5,-92 266.5,-92 260.5,-86 260.5,-80 260.5,-80 260.5,-12 260.5,-12 260.5,-6 266.5,-0 272.5,-0"/>
<text text-anchor="middle" x="314" y="-76.8" font-family="Times,serif" font-size="14.00">idx = [2]</text>
<polyline fill="none" stroke="black" points="260.5,-69 367.5,-69 "/>
<text text-anchor="middle" x="314" y="-53.8" font-family="Times,serif" font-size="14.00">data = [101]</text>
<polyline fill="none" stroke="black" points="260.5,-46 367.5,-46 "/>
<text text-anchor="middle" x="314" y="-30.8" font-family="Times,serif" font-size="14.00">prev = [1]</text>
<polyline fill="none" stroke="black" points="260.5,-23 367.5,-23 "/>
<text text-anchor="middle" x="314" y="-7.8" font-family="Times,serif" font-size="14.00">next = [3]</text>
</g>
<!-- element1&#45;&gt;element2 -->
<g id="edge2" class="edge"><title>element1&#45;&gt;element2</title>
<path fill="none" stroke="none" d="M223.578,-30.5833C223.578,-30.5833 250.068,-30.5833 250.068,-30.5833"/>
<polygon fill="none" stroke="none" points="250.069,-34.0834 260.068,-30.5833 250.068,-27.0834 250.069,-34.0834"/>
</g>
<!-- element1&#45;&gt;element2 -->
<g id="edge12" class="edge"><title>element1&#45;&gt;element2</title>
<path fill="none" stroke="black" d="M233.578,-61.4167C233.578,-61.4167 250.068,-61.4167 250.068,-61.4167"/>
<polygon fill="black" stroke="black" points="250.068,-64.9167 260.068,-61.4167 250.068,-57.9167 250.068,-64.9167"/>
<polygon fill="black" stroke="black" points="233.578,-57.9167 223.578,-61.4167 233.578,-64.9167 233.578,-57.9167"/>
</g>
<!-- element3 -->
<g id="node4" class="node"><title>element3</title>
<path fill="#66ccff" stroke="black" d="M416.5,-0C416.5,-0 499.5,-0 499.5,-0 505.5,-0 511.5,-6 511.5,-12 511.5,-12 511.5,-80 511.5,-80 511.5,-86 505.5,-92 499.5,-92 499.5,-92 416.5,-92 416.5,-92 410.5,-92 404.5,-86 404.5,-80 404.5,-80 404.5,-12 404.5,-12 404.5,-6 410.5,-0 416.5,-0"/>
<text text-anchor="middle" x="458" y="-76.8" font-family="Times,serif" font-size="14.00">idx = [3]</text>
<polyline fill="none" stroke="black" points="404.5,-69 511.5,-69 "/>
<text text-anchor="middle" x="458" y="-53.8" font-family="Times,serif" font-size="14.00">data = [202]</text>
<polyline fill="none" stroke="black" points="404.5,-46 511.5,-46 "/>
<text text-anchor="middle" x="458" y="-30.8" font-family="Times,serif" font-size="14.00">prev = [2]</text>
<polyline fill="none" stroke="black" points="404.5,-23 511.5,-23 "/>
<text text-anchor="middle" x="458" y="-7.8" font-family="Times,serif" font-size="14.00">next = [4]</text>
</g>
<!-- element2&#45;&gt;element3 -->
<g id="edge3" class="edge"><title>element2&#45;&gt;element3</title>
<path fill="none" stroke="none" d="M367.62,-30.5833C367.62,-30.5833 394.335,-30.5833 394.335,-30.5833"/>
<polygon fill="none" stroke="none" points="394.335,-34.0834 404.335,-30.5833 394.335,-27.0834 394.335,-34.0834"/>
</g>
<!-- element2&#45;&gt;element3 -->
<g id="edge13" class="edge"><title>element2&#45;&gt;element3</title>
<path fill="none" stroke="black" d="M377.62,-61.4167C377.62,-61.4167 394.335,-61.4167 394.335,-61.4167"/>
<polygon fill="black" stroke="black" points="394.335,-64.9167 404.335,-61.4167 394.335,-57.9167 394.335,-64.9167"/>
<polygon fill="black" stroke="black" points="377.62,-57.9167 367.62,-61.4167 377.62,-64.9167 377.62,-57.9167"/>
</g>
<!-- element4 -->
<g id="node5" class="node"><title>element4</title>
<path fill="#66ccff" stroke="black" d="M560.5,-0C560.5,-0 643.5,-0 643.5,-0 649.5,-0 655.5,-6 655.5,-12 655.5,-12 655.5,-80 655.5,-80 655.5,-86 649.5,-92 643.5,-92 643.5,-92 560.5,-92 560.5,-92 554.5,-92 548.5,-86 548.5,-80 548.5,-80 548.5,-12 548.5,-12 548.5,-6 554.5,-0 560.5,-0"/>
<text text-anchor="middle" x="602" y="-76.8" font-family="Times,serif" font-size="14.00">idx = [4]</text>
<polyline fill="none" stroke="black" points="548.5,-69 655.5,-69 "/>
<text text-anchor="middle" x="602" y="-53.8" font-family="Times,serif" font-size="14.00">data = [303]</text>
<polyline fill="none" stroke="black" points="548.5,-46 655.5,-46 "/>
<text text-anchor="middle" x="602" y="-30.8" font-family="Times,serif" font-size="14.00">prev = [3]</text>
<polyline fill="none" stroke="black" points="548.5,-23 655.5,-23 "/>
<text text-anchor="middle" x="602" y="-7.8" font-family="Times,serif" font-size="14.00">next = [5]</text>
</g>
<!-- element3&#45;&gt;element4 -->
<g id="edge4" class="edge"><title>element3&#45;&gt;element4</title>
<path fill="none" stroke="none" d="M511.62,-30.5833C511.62,-30.5833 538.335,-30.5833 538.335,-30.5833"/>
<polygon fill="none" stroke="none" points="538.335,-34.0834 548.335,-30.5833 538.335,-27.0834 538.335,-34.0834"/>
</g>
<!-- element3&#45;&gt;element4 -->
<g id="edge14" class="edge"><title>element3&#45;&gt;element4</title>
<path fill="none" stroke="black" d="M521.62,-61.4167C521.62,-61.4167 538.335,-61.4167 538.335,-61.4167"/>
<polygon fill="black" stroke="black" points="538.335,-64.9167 548.335,-61.4167 538.335,-57.9167 538.335,-64.9167"/>
<polygon fill="black" stroke="black" points="521.62,-57.9167 511.62,-61.4167 521.62,-64.9167 521.62,-57.9167"/>
</g>
<!-- element5 -->
<g id="node6" class="node"><title>element5</title>
<path fill="#66ccff" stroke="black" d="M704.5,-0C704.5,-0 787.5,-0 787.5,-0 793.5,-0 799.5,-6 799.5,-12 799.5,-12 799.5,-80 799.5,-80 799.5,-86 793.5,-92 787.5,-92 787.5,-92 704.5,-92 704.5,-92 698.5,-92 692.5,-86 692.5,-80 692.5,-80 692.5,-12 692.5,-12 692.5,-6 698.5,-0 704.5,-0"/>
<text text-anchor="middle" x="746" y="-76.8" font-family="Times,serif" font-size="14.00">idx = [5]</text>
<polyline fill="none" stroke="black" points="692.5,-69 799.5,-69 "/>
<text text-anchor="middle" x="746" y="-53.8" font-family="Times,serif" font-size="14.00">data = [404]</text>
<polyline fill="none" stroke="black" points="692.5,-46 799.5,-46 "/>
<text text-anchor="middle" x="746" y="-30.8" font-family="Times,serif" font-size="14.00">prev = [4]</text>
<polyline fill="none" stroke="black" points="692.5,-23 799.5,-23 "/>
<text text-anchor="middle" x="746" y="-7.8" font-family="Times,serif" font-size="14.00">next = [6]</text>
</g>
<!-- element4&#45;&gt;element5 -->
<g id="edge5" class="edge"><title>element4&#45;&gt;element5</title>
<path fill="none" stroke="none" d="M655.62,-30.5833C655.62,-30.5833 682.335,-30.5833 682.335,-30.5833"/>
<polygon fill="none" stroke="none" points="682.335,-34.0834 692.335,-30.5833 682.335,-27.0834 682.335,-34.0834"/>
</g>
<!-- element4&#45;&gt;element5 -->
<g id="edge15" class="edge"><title>element4&#45;&gt;element5</title>
<path fill="none" stroke="black" d="M665.62,-61.4167C665.62,-61.4167 682.335,-61.4167 682.335,-61.4167"/>
<polygon fill="black" stroke="black" points="682.335,-64.9167 692.335,-61.4167 682.335,-57.9167 682.335,-64.9167"/>
<polygon fill="black" stroke="black" points="665.62,-57.9167 655.62,-61.4167 665.62,-64.9167 665.62,-57.9167"/>
</g>
<!-- element6 -->
<g id="node7" class="node"><title>element6</title>
<path fill="#66ccff" stroke="black" d="M848.5,-0C848.5,-0 931.5,-0 931.5,-0 937.5,-0 943.5,-6 943.5,-12 943.5,-12 943.5,-80 943.5,-80 943.5,-86 937.5,-92 931.5,-92 931.5,-92 848.5,-92 848.5,-92 842.5,-92 836.5,-86 836.5,-80 836.5,-80 836.5,-12 836.5,-12 836.5,-6 842.5,-0 848.5,-0"/>
<text text-anchor="middle" x="890" y="-76.8" font-family="Times,serif" font-size="14.00">idx = [6]</text>
<polyline fill="none" stroke="black" points="836.5,-69 943.5,-69 "/>
<text text-anchor="middle" x="890" y="-53.8" font-family="Times,serif" font-size="14.00">data = [505]</text>
<polyline fill="none" stroke="black" points="836.5,-46 943.5,-46 "/>
<text text-anchor="middle" x="890" y="-30.8" font-family="Times,serif" font-size="14.00">prev = [5]</text>
<polyline fill="none" stroke="black" points="836.5,-23 943.5,-23 "/>
<text text-anchor="middle" x="890" y="-7.8" font-family="Times,serif" font-size="14.00">next = [7]</text>
</g>
<!-- element5&#45;&gt;element6 -->
<g id="edge6" class="edge"><title>element5&#45;&gt;element6</title>
<path fill="none" stroke="none" d="M799.62,-30.5833C799.62,-30.5833 826.335,-30.5833 826.335,-30.5833"/>
<polygon fill="none" stroke="none" points="826.335,-34.0834 836.335,-30.5833 826.335,-27.0834 826.335,-34.0834"/>
</g>
<!-- element5&#45;&gt;element6 -->
<g id="edge16" class="edge"><title>element5&#45;&gt;element6</title>
<path fill="none" stroke="black" d="M809.62,-61.4167C809.62,-61.4167 826.335,-61.4167 826.335,-61.4167"/>
<polygon fill="black" stroke="black" points="826.335,-64.9167 836.335,-61.4167 826.335,-57.9167 826.335,-64.9167"/>
<polygon fill="black" stroke="black" points="809.62,-57.9167 799.62,-61.4167 809.62,-64.9167 809.62,-57.9167"/>
</g>
<!-- element7 -->
<g id="node8" class="node"><title>element7</title>
<path fill="#66ccff" stroke="black" d="M992.5,-0C992.5,-0 1075.5,-0 1075.5,-0 1081.5,-0 1087.5,-6 1087.5,-12 1087.5,-12 1087.5,-80 1087.5,-80 1087.5,-86 1081.5,-92 1075.5,-92 1075.5,-92 992.5,-92 992.5,-92 986.5,-92 980.5,-86 980.5,-80 980.5,-80 980.5,-12 980.5,-12 980.5,-6 986.5,-0 992.5,-0"/>
<text text-anchor="middle" x="1034" y="-76.8" font-family="Times,serif" font-size="14.00">idx = [7]</text>
<polyline fill="none" stroke="black" points="980.5,-69 1087.5,-69 "/>
<text text-anchor="middle" x="1034" y="-53.8" font-family="Times,serif" font-size="14.00">data = [606]</text>
<polyline fill="none" stroke="black" points="980.5,-46 1087.5,-46 "/>
<text text-anchor="middle" x="1034" y="-30.8" font-family="Times,serif" font-size="14.00">prev = [6]</text>
<polyline fill="none" stroke="black" points="980.5,-23 1087.5,-23 "/>
<text text-anchor="middle" x="1034" y="-7.8" font-family="Times,serif" font-size="14.00">next = [8]</text>
</g>
<!-- element6&#45;&gt;element7 -->
<g id="edge7" class="edge"><title>element6&#45;&gt;element7</title>
<path fill="none" stroke="none" d="M943.62,-30.5833C943.62,-30.5833 970.335,-30.5833 970.335,-30.5833"/>
<polygon fill="none" stroke="none" points="970.335,-34.0834 980.335,-30.5833 970.335,-27.0834 970.335,-34.0834"/>
</g>
<!-- element6&#45;&gt;element7 -->
<g id="edge17" class="edge"><title>element6&#45;&gt;element7</title>
<path fill="none" stroke="black" d="M953.62,-61.4167C953.62,-61.4167 970.335,-61.4167 970.335,-61.4167"/>
<polygon fill="black" stroke="black" points="970.335,-64.9167 980.335,-61.4167 970.335,-57.9167 970.335,-64.9167"/>
<polygon fill="black" stroke="black" points="953.62,-57.9167 943.62,-61.4167 953.62,-64.9167 953.62,-57.9167"/>
</g>
<!-- element8 -->
<g id="node9" class="node"><title>element8</title>
<path fill="#66ccff" stroke="black" d="M1136.5,-0C1136.5,-0 1219.5,-0 1219.5,-0 1225.5,-0 1231.5,-6 1231.5,-12 1231.5,-12 1231.5,-80 1231.5,-80 1231.5,-86 1225.5,-92 1219.5,-92 1219.5,-92 1136.5,-92 1136.5,-92 1130.5,-92 1124.5,-86 1124.5,-80 1124.5,-80 1124.5,-12 1124.5,-12 1124.5,-6 1130.5,-0 1136.5,-0"/>
<text text-anchor="middle" x="1178" y="-76.8" font-family="Times,serif" font-size="14.00">idx = [8]</text>
<polyline fill="none" stroke="black" points="1124.5,-69 1231.5,-69 "/>
<text text-anchor="middle" x="1178" y="-53.8" font-family="Times,serif" font-size="14.00">data = [707]</text>
<polyline fill="none" stroke="black" points="1124.5,-46 1231.5,-46 "/>
<text text-anchor="middle" x="1178" y="-30.8" font-family="Times,serif" font-size="14.00">prev = [7]</text>
<polyline fill="none" stroke="black" points="1124.5,-23 1231.5,-23 "/>
<text text-anchor="middle" x="1178" y="-7.8" font-family="Times,serif" font-size="14.00">next = [9]</text>
</g>
<!-- element7&#45;&gt;element8 -->
<g id="edge8" class="edge"><title>element7&#45;&gt;element8</title>
<path fill="none" stroke="none" d="M1087.62,-30.5833C1087.62,-30.5833 1114.33,-30.5833 1114.33,-30.5833"/>
<polygon fill="none" stroke="none" points="1114.33,-34.0834 1124.33,-30.5833 1114.33,-27.0834 1114.33,-34.0834"/>
</g>
<!-- element7&#45;&gt;element8 -->
<g id="edge18" class="edge"><title>element7&#45;&gt;element8</title>
<path fill="none" stroke="black" d="M1097.62,-61.4167C1097.62,-61.4167 1114.33,-61.4167 1114.33,-61.4167"/>
<polygon fill="black" stroke="black" points="1114.33,-64.9167 1124.33,-61.4167 1114.33,-57.9167 1114.33,-64.9167"/>
<polygon fill="black" stroke="black" points="1097.62,-57.9167 1087.62,-61.4167 1097.62,-64.9167 1097.62,-57.9167"/>
</g>
<!-- element9 -->
<g id="node10" class="node"><title>element9</title>
<path fill="#66ccff" stroke="black" d="M1280.5,-0C1280.5,-0 1363.5,-0 1363.5,-0 1369.5,-0 1375.5,-6 1375.5,-12 1375.5,-12 1375.5,-80 1375.5,-80 1375.5,-86 1369.5,-92 1363.5,-92 1363.5,-92 1280.5,-92 1280.5,-92 1274.5,-92 1268.5,-86 1268.5,-80 1268.5,-80 1268.5,-12 1268.5,-12 1268.5,-6 1274.5,-0 1280.5,-0"/>
<text text-anchor="middle" x="1322" y="-76.8" font-family="Times,serif" font-size="14.00">idx = [9]</text>
<polyline fill="none" stroke="black" points="1268.5,-69 1375.5,-69 "/>
<text text-anchor="middle" x="1322" y="-53.8" font-family="Times,serif" font-size="14.00">data = [808]</text>
<polyline fill="none" stroke="black" points="1268.5,-46 1375.5,-46 "/>
<text text-anchor="middle" x="1322" y="-30.8" font-family="Times,serif" font-size="14.00">prev = [8]</text>
<polyline fill="none" stroke="black" points="1268.5,-23 1375.5,-23 "/>
<text text-anchor="middle" x="1322" y="-7.8" font-family="Times,serif" font-size="14.00">next = [10]</text>
</g>
<!-- element8&#45;&gt;element9 -->
<g id="edge9" class="edge"><title>element8&#45;&gt;element9</title>
<path fill="none" stroke="none" d="M1231.62,-30.5833C1231.62,-30.5833 1258.33,-30.5833 1258.33,-30.5833"/>
<polygon fill="none" stroke="none" points="1258.33,-34.0834 1268.33,-30.5833 1258.33,-27.0834 1258.33,-34.0834"/>
</g>
<!-- element8&#45;&gt;element9 -->
<g id="edge19" class="edge"><title>element8&#45;&gt;element9</title>
<path fill="none" stroke="black" d="M1241.62,-61.4167C1241.62,-61.4167 1258.33,-61.4167 1258.33,-61.4167"/>
<polygon fill="black" stroke="black" points="1258.33,-64.9167 1268.33,-61.4167 1258.33,-57.9167 1258.33,-64.9167"/>
<polygon fill="black" stroke="black" points="1241.62,-57.9167 1231.62,-61.4167 1241.62,-64.9167 1241.62,-57.9167"/>
</g>
<!-- element10 -->
<g id="node11" class="node"><title>element10</title>
<path fill="#66ccff" stroke="black" d="M1424.5,-0C1424.5,-0 1507.5,-0 1507.5,-0 1513.5,-0 1519.5,-6 1519.5,-12 1519.5,-12 1519.5,-80 1519.5,-80 1519.5,-86 1513.5,-92 1507.5,-92 1507.5,-92 1424.5,-92 1424.5,-92 1418.5,-92 1412.5,-86 1412.5,-80 1412.5,-80 1412.5,-12 1412.5,-12 1412.5,-6 1418.5,-0 1424.5,-0"/>
<text text-anchor="middle" x="1466" y="-76.8" font-family="Times,serif" font-size="14.00">idx = [10]</text>
<polyline fill="none" stroke="black" points="1412.5,-69 1519.5,-69 "/>
<text text-anchor="middle" x="1466" y="-53.8" font-family="Times,serif" font-size="14.00">data = [909]</text>
<polyline fill="none" stroke="black" points="1412.5,-46 1519.5,-46 "/>
<text text-anchor="middle" x="1466" y="-30.8" font-family="Times,serif" font-size="14.00">prev = [9]</text>
<polyline fill="none" stroke="black" points="1412.5,-23 1519.5,-23 "/>
<text text-anchor="middle" x="1466" y="-7.8" font-family="Times,serif" font-size="14.00">next = [0]</text>
</g>
<!-- element9&#45;&gt;element10 -->
<g id="edge10" class="edge"><title>element9&#45;&gt;element10</title>
<path fill="none" stroke="none" d="M1375.62,-30.5833C1375.62,-30.5833 1402.33,-30.5833 1402.33,-30.5833"/>
<polygon fill="none" stroke="none" points="1402.33,-34.0834 1412.33,-30.5833 1402.33,-27.0834 1402.33,-34.0834"/>
</g>
<!-- element9&#45;&gt;element10 -->
<g id="edge20" class="edge"><title>element9&#45;&gt;element10</title>
<path fill="none" stroke="black" d="M1385.62,-61.4167C1385.62,-61.4167 1402.33,-61.4167 1402.33,-61.4167"/>
<polygon fill="black" stroke="black" points="1402.33,-64.9167 1412.33,-61.4167 1402.33,-57.9167 1402.33,-64.9167"/>
<polygon fill="black" stroke="black" points="1385.62,-57.9167 1375.62,-61.4167 1385.62,-64.9167 1385.62,-57.9167"/>
</g>
</g>
</svg>
