<?xml version="1.0" encoding="UTF-8" standalone="no"?>
<!DOCTYPE svg PUBLIC "-//W3C//DTD SVG 1.1//EN"
 "http://www.w3.org/Graphics/SVG/1.1/DTD/svg11.dtd">
<!-- Generated by graphviz version 2.30.1 (20201013.1554)
 -->
<!-- Title: G Pages: 1 -->
<svg width="1532pt" height="124pt"
 viewBox="0.00 0.00 1532.00 124.25" xmlns="http://www.w3.org/2000/svg" xmlns:xlink="http://www.w3.org/1999/xlink">
<g id="graph0" class="graph" transform="scale(1 1) rotate(0) translate(4 120.25)">
<title>G</title>
<polygon fill="white" stroke="white" points="-4,5 -4,-120.25 1529,-120.25 1529,5 -4,5"/>
<!-- element0 -->
<g id="node1" class="node"><title>element0</title>
<path fill="#ebebe0" stroke="black" d="M12,-24.25C12,-24.25 86,-24.25 86,-24.25 92,-24.25 98,-30.25 98,-36.25 98,-36.25 98,-104.25 98,-104.25 98,-110.25 92,-116.25 86,-116.25 86,-116.25 12,-116.25 12,-116.25 6,-116.25 0,-110.25 0,-104.25 0,-104.25 0,-36.25 0,-36.25 0,-30.25 6,-24.25 12,-24.25"/>
<text text-anchor="middle" x="49" y="-101.05" font-family="Times,serif" font-size="14.00">idx = [0]</text>
<polyline fill="none" stroke="black" points="0,-93.25 98,-93.25 "/>
<text text-anchor="middle" x="49" y="-78.05" font-family="Times,serif" font-size="14.00">data = [0]</text>
<polyline fill="none" stroke="black" points="0,-70.25 98,-70.25 "/>
<text text-anchor="middle" x="49" y="-55.05" font-family="Times,serif" font-size="14.00">prev = [10]</text>
<polyline fill="none" stroke="black" points="0,-47.25 98,-47.25 "/>
<text text-anchor="middle" x="49" y="-32.05" font-family="Times,serif" font-size="14.00">next = [1]</text>
</g>
<!-- element1 -->
<g id="node2" class="node"><title>element1</title>
<path fill="#cc99ff" stroke="black" d="M146.5,-24.25C146.5,-24.25 211.5,-24.25 211.5,-24.25 217.5,-24.25 223.5,-30.25 223.5,-36.25 223.5,-36.25 223.5,-104.25 223.5,-104.25 223.5,-110.25 217.5,-116.25 211.5,-116.25 211.5,-116.25 146.5,-116.25 146.5,-116.25 140.5,-116.25 134.5,-110.25 134.5,-104.25 134.5,-104.25 134.5,-36.25 134.5,-36.25 134.5,-30.25 140.5,-24.25 146.5,-24.25"/>
<text text-anchor="middle" x="179" y="-101.05" font-family="Times,serif" font-size="14.00">idx = [1]</text>
<polyline fill="none" stroke="black" points="134.5,-93.25 223.5,-93.25 "/>
<text text-anchor="middle" x="179" y="-78.05" font-family="Times,serif" font-size="14.00">data = [0]</text>
<polyline fill="none" stroke="black" points="134.5,-70.25 223.5,-70.25 "/>
<text text-anchor="middle" x="179" y="-55.05" font-family="Times,serif" font-size="14.00">prev = [0]</text>
<polyline fill="none" stroke="black" points="134.5,-47.25 223.5,-47.25 "/>
<text text-anchor="middle" x="179" y="-32.05" font-family="Times,serif" font-size="14.00">next = [2]</text>
</g>
<!-- element0&#45;&gt;element1 -->
<g id="edge1" class="edge"><title>element0&#45;&gt;element1</title>
<path fill="none" stroke="none" d="M98.1474,-54.8333C98.1474,-54.8333 124.486,-54.8333 124.486,-54.8333"/>
<polygon fill="none" stroke="none" points="124.486,-58.3334 134.486,-54.8333 124.486,-51.3334 124.486,-58.3334"/>
</g>
<!-- element0&#45;&gt;element1 -->
<g id="edge11" class="edge"><title>element0&#45;&gt;element1</title>
<path fill="none" stroke="black" d="M108.147,-85.6667C108.147,-85.6667 124.486,-85.6667 124.486,-85.6667"/>
<polygon fill="black" stroke="black" points="124.486,-89.1667 134.486,-85.6667 124.486,-82.1667 124.486,-89.1667"/>
<polygon fill="black" stroke="black" points="108.147,-82.1667 98.1474,-85.6667 108.147,-89.1667 108.147,-82.1667"/>
</g>
<!-- element2 -->
<g id="node3" class="node"><title>element2</title>
<path fill="#66ccff" stroke="black" d="M272.5,-24.25C272.5,-24.25 355.5,-24.25 355.5,-24.25 361.5,-24.25 367.5,-30.25 367.5,-36.25 367.5,-36.25 367.5,-104.25 367.5,-104.25 367.5,-110.25 361.5,-116.25 355.5,-116.25 355.5,-116.25 272.5,-116.25 272.5,-116.25 266.5,-116.25 260.5,-110.25 260.5,-104.25 260.5,-104.25 260.5,-36.25 260.5,-36.25 260.5,-30.25 266.5,-24.25 272.5,-24.25"/>
<text text-anchor="middle" x="314" y="-101.05" font-family="Times,serif" font-size="14.00">idx = [2]</text>
<polyline fill="none" stroke="black" points="260.5,-93.25 367.5,-93.25 "/>
<text text-anchor="middle" x="314" y="-78.05" font-family="Times,serif" font-size="14.00">data = [101]</text>
<polyline fill="none" stroke="black" points="260.5,-70.25 367.5,-70.25 "/>
<text text-anchor="middle" x="314" y="-55.05" font-family="Times,serif" font-size="14.00">prev = [1]</text>
<polyline fill="none" stroke="black" points="260.5,-47.25 367.5,-47.25 "/>
<text text-anchor="middle" x="314" y="-32.05" font-family="Times,serif" font-size="14.00">next = [3]</text>
</g>
<!-- element1&#45;&gt;element2 -->
<g id="edge2" class="edge"><title>element1&#45;&gt;element2</title>
<path fill="none" stroke="none" d="M223.578,-54.8333C223.578,-54.8333 250.068,-54.8333 250.068,-54.8333"/>
<polygon fill="none" stroke="none" points="250.069,-58.3334 260.068,-54.8333 250.068,-51.3334 250.069,-58.3334"/>
</g>
<!-- element1&#45;&gt;element2 -->
<g id="edge12" class="edge"><title>element1&#45;&gt;element2</title>
<path fill="none" stroke="black" d="M233.578,-85.6667C233.578,-85.6667 250.068,-85.6667 250.068,-85.6667"/>
<polygon fill="black" stroke="black" points="250.068,-89.1667 260.068,-85.6667 250.068,-82.1667 250.068,-89.1667"/>
<polygon fill="black" stroke="black" points="233.578,-82.1667 223.578,-85.6667 233.578,-89.1667 233.578,-82.1667"/>
</g>
<!-- element3 -->
<g id="node4" class="node"><title>element3</title>
<path fill="#66ccff" stroke="black" d="M416.5,-24.25C416.5,-24.25 499.5,-24.25 499.5,-24.25 505.5,-24.25 511.5,-30.25 511.5,-36.25 511.5,-36.25 511.5,-104.25 511.5,-104.25 511.5,-110.25 505.5,-116.25 499.5,-116.25 499.5,-116.25 416.5,-116.25 416.5,-116.25 410.5,-116.25 404.5,-110.25 404.5,-104.25 404.5,-104.25 404.5,-36.25 404.5,-36.25 404.5,-30.25 410.5,-24.25 416.5,-24.25"/>
<text text-anchor="middle" x="458" y="-101.05" font-family="Times,serif" font-size="14.00">idx = [3]</text>
<polyline fill="none" stroke="black" points="404.5,-93.25 511.5,-93.25 "/>
<text text-anchor="middle" x="458" y="-78.05" font-family="Times,serif" font-size="14.00">data = [202]</text>
<polyline fill="none" stroke="black" points="404.5,-70.25 511.5,-70.25 "/>
<text text-anchor="middle" x="458" y="-55.05" font-family="Times,serif" font-size="14.00">prev = [2]</text>
<polyline fill="none" stroke="black" points="404.5,-47.25 511.5,-47.25 "/>
<text text-anchor="middle" x="458" y="-32.05" font-family="Times,serif" font-size="14.00">next = [4]</text>
</g>
<!-- element2&#45;&gt;element3 -->
<g id="edge3" class="edge"><title>element2&#45;&gt;element3</title>
<path fill="none" stroke="none" d="M367.62,-54.8333C367.62,-54.8333 394.335,-54.8333 394.335,-54.8333"/>
<polygon fill="none" stroke="none" points="394.335,-58.3334 404.335,-54.8333 394.335,-51.3334 394.335,-58.3334"/>
</g>
<!-- element2&#45;&gt;element3 -->
<g id="edge13" class="edge"><title>element2&#45;&gt;element3</title>
<path fill="none" stroke="black" d="M377.62,-85.6667C377.62,-85.6667 394.335,-85.6667 394.335,-85.6667"/>
<polygon fill="black" stroke="black" points="394.335,-89.1667 404.335,-85.6667 394.335,-82.1667 394.335,-89.1667"/>
<polygon fill="black" stroke="black" points="377.62,-82.1667 367.62,-85.6667 377.62,-89.1667 377.62,-82.1667"/>
</g>
<!-- element4 -->
<g id="node5" class="node"><title>element4</title>
<path fill="#66ccff" stroke="black" d="M560.5,-24.25C560.5,-24.25 643.5,-24.25 643.5,-24.25 649.5,-24.25 655.5,-30.25 655.5,-36.25 655.5,-36.25 655.5,-104.25 655.5,-104.25 655.5,-110.25 649.5,-116.25 643.5,-116.25 643.5,-116.25 560.5,-116.25 560.5,-116.25 554.5,-116.25 548.5,-110.25 548.5,-104.25 548.5,-104.25 548.5,-36.25 548.5,-36.25 548.5,-30.25 554.5,-24.25 560.5,-24.25"/>
<text text-anchor="middle" x="602" y="-101.05" font-family="Times,serif" font-size="14.00">idx = [4]</text>
<polyline fill="none" stroke="black" points="548.5,-93.25 655.5,-93.25 "/>
<text text-anchor="middle" x="602" y="-78.05" font-family="Times,serif" font-size="14.00">data = [303]</text>
<polyline fill="none" stroke="black" points="548.5,-70.25 655.5,-70.25 "/>
<text text-anchor="middle" x="602" y="-55.05" font-family="Times,serif" font-size="14.00">prev = [3]</text>
<polyline fill="none" stroke="black" points="548.5,-47.25 655.5,-47.25 "/>
<text text-anchor="middle" x="602" y="-32.05" font-family="Times,serif" font-size="14.00">next = [6]</text>
</g>
<!-- element3&#45;&gt;element4 -->
<g id="edge4" class="edge"><title>element3&#45;&gt;element4</title>
<path fill="none" stroke="none" d="M511.62,-54.8333C511.62,-54.8333 538.335,-54.8333 538.335,-54.8333"/>
<polygon fill="none" stroke="none" points="538.335,-58.3334 548.335,-54.8333 538.335,-51.3334 538.335,-58.3334"/>
</g>
<!-- element3&#45;&gt;element4 -->
<g id="edge14" class="edge"><title>element3&#45;&gt;element4</title>
<path fill="none" stroke="black" d="M521.62,-85.6667C521.62,-85.6667 538.335,-85.6667 538.335,-85.6667"/>
<polygon fill="black" stroke="black" points="538.335,-89.1667 548.335,-85.6667 538.335,-82.1667 538.335,-89.1667"/>
<polygon fill="black" stroke="black" points="521.62,-82.1667 511.62,-85.6667 521.62,-89.1667 521.62,-82.1667"/>
</g>
<!-- element5 -->
<g id="node6" class="node"><title>element5</title>
<path fill="#33cc33" stroke="black" d="M704.5,-24.25C704.5,-24.25 791.5,-24.25 791.5,-24.25 797.5,-24.25 803.5,-30.25 803.5,-36.25 803.5,-36.25 803.5,-104.25 803.5,-104.25 803.5,-110.25 797.5,-116.25 791.5,-116.25 791.5,-116.25 704.5,-116.25 704.5,-116.25 698.5,-116.25 692.5,-110.25 692.5,-104.25 692.5,-104.25 692.5,-36.25 692.5,-36.25 692.5,-30.25 698.5,-24.25 704.5,-24.25"/>
<text text-anchor="middle" x="748" y="-101.05" font-family="Times,serif" font-size="14.00">idx = [5]</text>
<polyline fill="none" stroke="black" points="692.5,-93.25 803.5,-93.25 "/>
<text text-anchor="middle" x="748" y="-78.05" font-family="Times,serif" font-size="14.00">data = [&#45;666]</text>
<polyline fill="none" stroke="black" points="692.5,-70.25 803.5,-70.25 "/>
<text text-anchor="middle" x="748" y="-55.05" font-family="Times,serif" font-size="14.00">prev = [&#45;1]</text>
<polyline fill="none" stroke="black" points="692.5,-47.25 803.5,-47.25 "/>
<text text-anchor="middle" x="748" y="-32.05" font-family="Times,serif" font-size="14.00">next = [0]</text>
</g>
<!-- element4&#45;&gt;element5 -->
<g id="edge5" class="edge"><title>element4&#45;&gt;element5</title>
<path fill="none" stroke="none" d="M655.536,-70.25C655.536,-70.25 682.019,-70.25 682.019,-70.25"/>
<polygon fill="none" stroke="none" points="682.019,-73.7501 692.019,-70.25 682.019,-66.7501 682.019,-73.7501"/>
</g>
<!-- element6 -->
<g id="node7" class="node"><title>element6</title>
<path fill="#66ccff" stroke="black" d="M852.5,-24.25C852.5,-24.25 935.5,-24.25 935.5,-24.25 941.5,-24.25 947.5,-30.25 947.5,-36.25 947.5,-36.25 947.5,-104.25 947.5,-104.25 947.5,-110.25 941.5,-116.25 935.5,-116.25 935.5,-116.25 852.5,-116.25 852.5,-116.25 846.5,-116.25 840.5,-110.25 840.5,-104.25 840.5,-104.25 840.5,-36.25 840.5,-36.25 840.5,-30.25 846.5,-24.25 852.5,-24.25"/>
<text text-anchor="middle" x="894" y="-101.05" font-family="Times,serif" font-size="14.00">idx = [6]</text>
<polyline fill="none" stroke="black" points="840.5,-93.25 947.5,-93.25 "/>
<text text-anchor="middle" x="894" y="-78.05" font-family="Times,serif" font-size="14.00">data = [505]</text>
<polyline fill="none" stroke="black" points="840.5,-70.25 947.5,-70.25 "/>
<text text-anchor="middle" x="894" y="-55.05" font-family="Times,serif" font-size="14.00">prev = [4]</text>
<polyline fill="none" stroke="black" points="840.5,-47.25 947.5,-47.25 "/>
<text text-anchor="middle" x="894" y="-32.05" font-family="Times,serif" font-size="14.00">next = [7]</text>
</g>
<!-- element4&#45;&gt;element6 -->
<g id="edge15" class="edge"><title>element4&#45;&gt;element6</title>
<path fill="none" stroke="black" d="M602,-14.0694C602,-14.0694 602,-12 602,-12 602,-12 894,-12 894,-12 894,-12 894,-14.0694 894,-14.0694"/>
<polygon fill="black" stroke="black" points="598.5,-14.0694 602,-24.0694 605.5,-14.0695 598.5,-14.0694"/>
<polygon fill="black" stroke="black" points="890.5,-14.0694 894,-24.0694 897.5,-14.0695 890.5,-14.0694"/>
</g>
<!-- element5&#45;&gt;element6 -->
<g id="edge6" class="edge"><title>element5&#45;&gt;element6</title>
<path fill="none" stroke="none" d="M803.613,-70.25C803.613,-70.25 830.469,-70.25 830.469,-70.25"/>
<polygon fill="none" stroke="none" points="830.469,-73.7501 840.469,-70.25 830.469,-66.7501 830.469,-73.7501"/>
</g>
<!-- element5&#45;&gt;element0 -->
<g id="edge16" class="edge"><title>element5&#45;&gt;element0</title>
<path fill="none" stroke="green" d="M748,-24.1761C748,-10.9348 748,-0 748,-0 748,-0 49,-0 49,-0 49,-0 49,-14.1761 49,-14.1761"/>
<polygon fill="green" stroke="green" points="45.5001,-14.176 49,-24.1761 52.5001,-14.1761 45.5001,-14.176"/>
</g>
<!-- element7 -->
<g id="node8" class="node"><title>element7</title>
<path fill="#66ccff" stroke="black" d="M996.5,-24.25C996.5,-24.25 1079.5,-24.25 1079.5,-24.25 1085.5,-24.25 1091.5,-30.25 1091.5,-36.25 1091.5,-36.25 1091.5,-104.25 1091.5,-104.25 1091.5,-110.25 1085.5,-116.25 1079.5,-116.25 1079.5,-116.25 996.5,-116.25 996.5,-116.25 990.5,-116.25 984.5,-110.25 984.5,-104.25 984.5,-104.25 984.5,-36.25 984.5,-36.25 984.5,-30.25 990.5,-24.25 996.5,-24.25"/>
<text text-anchor="middle" x="1038" y="-101.05" font-family="Times,serif" font-size="14.00">idx = [7]</text>
<polyline fill="none" stroke="black" points="984.5,-93.25 1091.5,-93.25 "/>
<text text-anchor="middle" x="1038" y="-78.05" font-family="Times,serif" font-size="14.00">data = [606]</text>
<polyline fill="none" stroke="black" points="984.5,-70.25 1091.5,-70.25 "/>
<text text-anchor="middle" x="1038" y="-55.05" font-family="Times,serif" font-size="14.00">prev = [6]</text>
<polyline fill="none" stroke="black" points="984.5,-47.25 1091.5,-47.25 "/>
<text text-anchor="middle" x="1038" y="-32.05" font-family="Times,serif" font-size="14.00">next = [8]</text>
</g>
<!-- element6&#45;&gt;element7 -->
<g id="edge7" class="edge"><title>element6&#45;&gt;element7</title>
<path fill="none" stroke="none" d="M947.62,-54.8333C947.62,-54.8333 974.335,-54.8333 974.335,-54.8333"/>
<polygon fill="none" stroke="none" points="974.335,-58.3334 984.335,-54.8333 974.335,-51.3334 974.335,-58.3334"/>
</g>
<!-- element6&#45;&gt;element7 -->
<g id="edge17" class="edge"><title>element6&#45;&gt;element7</title>
<path fill="none" stroke="black" d="M957.62,-85.6667C957.62,-85.6667 974.335,-85.6667 974.335,-85.6667"/>
<polygon fill="black" stroke="black" points="974.335,-89.1667 984.335,-85.6667 974.335,-82.1667 974.335,-89.1667"/>
<polygon fill="black" stroke="black" points="957.62,-82.1667 947.62,-85.6667 957.62,-89.1667 957.62,-82.1667"/>
</g>
<!-- element8 -->
<g id="node9" class="node"><title>element8</title>
<path fill="#66ccff" stroke="black" d="M1140.5,-24.25C1140.5,-24.25 1223.5,-24.25 1223.5,-24.25 1229.5,-24.25 1235.5,-30.25 1235.5,-36.25 1235.5,-36.25 1235.5,-104.25 1235.5,-104.25 1235.5,-110.25 1229.5,-116.25 1223.5,-116.25 1223.5,-116.25 1140.5,-116.25 1140.5,-116.25 1134.5,-116.25 1128.5,-110.25 1128.5,-104.25 1128.5,-104.25 1128.5,-36.25 1128.5,-36.25 1128.5,-30.25 1134.5,-24.25 1140.5,-24.25"/>
<text text-anchor="middle" x="1182" y="-101.05" font-family="Times,serif" font-size="14.00">idx = [8]</text>
<polyline fill="none" stroke="black" points="1128.5,-93.25 1235.5,-93.25 "/>
<text text-anchor="middle" x="1182" y="-78.05" font-family="Times,serif" font-size="14.00">data = [707]</text>
<polyline fill="none" stroke="black" points="1128.5,-70.25 1235.5,-70.25 "/>
<text text-anchor="middle" x="1182" y="-55.05" font-family="Times,serif" font-size="14.00">prev = [7]</text>
<polyline fill="none" stroke="black" points="1128.5,-47.25 1235.5,-47.25 "/>
<text text-anchor="middle" x="1182" y="-32.05" font-family="Times,serif" font-size="14.00">next = [9]</text>
</g>
<!-- element7&#45;&gt;element8 -->
<g id="edge8" class="edge"><title>element7&#45;&gt;element8</title>
<path fill="none" stroke="none" d="M1091.62,-54.8333C1091.62,-54.8333 1118.33,-54.8333 1118.33,-54.8333"/>
<polygon fill="none" stroke="none" points="1118.33,-58.3334 1128.33,-54.8333 1118.33,-51.3334 1118.33,-58.3334"/>
</g>
<!-- element7&#45;&gt;element8 -->
<g id="edge18" class="edge"><title>element7&#45;&gt;element8</title>
<path fill="none" stroke="black" d="M1101.62,-85.6667C1101.62,-85.6667 1118.33,-85.6667 1118.33,-85.6667"/>
<polygon fill="black" stroke="black" points="1118.33,-89.1667 1128.33,-85.6667 1118.33,-82.1667 1118.33,-89.1667"/>
<polygon fill="black" stroke="black" points="1101.62,-82.1667 1091.62,-85.6667 1101.62,-89.1667 1101.62,-82.1667"/>
</g>
<!-- element9 -->
<g id="node10" class="node"><title>element9</title>
<path fill="#66ccff" stroke="black" d="M1284.5,-24.25C1284.5,-24.25 1367.5,-24.25 1367.5,-24.25 1373.5,-24.25 1379.5,-30.25 1379.5,-36.25 1379.5,-36.25 1379.5,-104.25 1379.5,-104.25 1379.5,-110.25 1373.5,-116.25 1367.5,-116.25 1367.5,-116.25 1284.5,-116.25 1284.5,-116.25 1278.5,-116.25 1272.5,-110.25 1272.5,-104.25 1272.5,-104.25 1272.5,-36.25 1272.5,-36.25 1272.5,-30.25 1278.5,-24.25 1284.5,-24.25"/>
<text text-anchor="middle" x="1326" y="-101.05" font-family="Times,serif" font-size="14.00">idx = [9]</text>
<polyline fill="none" stroke="black" points="1272.5,-93.25 1379.5,-93.25 "/>
<text text-anchor="middle" x="1326" y="-78.05" font-family="Times,serif" font-size="14.00">data = [808]</text>
<polyline fill="none" stroke="black" points="1272.5,-70.25 1379.5,-70.25 "/>
<text text-anchor="middle" x="1326" y="-55.05" font-family="Times,serif" font-size="14.00">prev = [8]</text>
<polyline fill="none" stroke="black" points="1272.5,-47.25 1379.5,-47.25 "/>
<text text-anchor="middle" x="1326" y="-32.05" font-family="Times,serif" font-size="14.00">next = [10]</text>
</g>
<!-- element8&#45;&gt;element9 -->
<g id="edge9" class="edge"><title>element8&#45;&gt;element9</title>
<path fill="none" stroke="none" d="M1235.62,-54.8333C1235.62,-54.8333 1262.33,-54.8333 1262.33,-54.8333"/>
<polygon fill="none" stroke="none" points="1262.33,-58.3334 1272.33,-54.8333 1262.33,-51.3334 1262.33,-58.3334"/>
</g>
<!-- element8&#45;&gt;element9 -->
<g id="edge19" class="edge"><title>element8&#45;&gt;element9</title>
<path fill="none" stroke="black" d="M1245.62,-85.6667C1245.62,-85.6667 1262.33,-85.6667 1262.33,-85.6667"/>
<polygon fill="black" stroke="black" points="1262.33,-89.1667 1272.33,-85.6667 1262.33,-82.1667 1262.33,-89.1667"/>
<polygon fill="black" stroke="black" points="1245.62,-82.1667 1235.62,-85.6667 1245.62,-89.1667 1245.62,-82.1667"/>
</g>
<!-- element10 -->
<g id="node11" class="node"><title>element10</title>
<path fill="#66ccff" stroke="black" d="M1428.5,-24.25C1428.5,-24.25 1511.5,-24.25 1511.5,-24.25 1517.5,-24.25 1523.5,-30.25 1523.5,-36.25 1523.5,-36.25 1523.5,-104.25 1523.5,-104.25 1523.5,-110.25 1517.5,-116.25 1511.5,-116.25 1511.5,-116.25 1428.5,-116.25 1428.5,-116.25 1422.5,-116.25 1416.5,-110.25 1416.5,-104.25 1416.5,-104.25 1416.5,-36.25 1416.5,-36.25 1416.5,-30.25 1422.5,-24.25 1428.5,-24.25"/>
<text text-anchor="middle" x="1470" y="-101.05" font-family="Times,serif" font-size="14.00">idx = [10]</text>
<polyline fill="none" stroke="black" points="1416.5,-93.25 1523.5,-93.25 "/>
<text text-anchor="middle" x="1470" y="-78.05" font-family="Times,serif" font-size="14.00">data = [909]</text>
<polyline fill="none" stroke="black" points="1416.5,-70.25 1523.5,-70.25 "/>
<text text-anchor="middle" x="1470" y="-55.05" font-family="Times,serif" font-size="14.00">prev = [9]</text>
<polyline fill="none" stroke="black" points="1416.5,-47.25 1523.5,-47.25 "/>
<text text-anchor="middle" x="1470" y="-32.05" font-family="Times,serif" font-size="14.00">next = [0]</text>
</g>
<!-- element9&#45;&gt;element10 -->
<g id="edge10" class="edge"><title>element9&#45;&gt;element10</title>
<path fill="none" stroke="none" d="M1379.62,-54.8333C1379.62,-54.8333 1406.33,-54.8333 1406.33,-54.8333"/>
<polygon fill="none" stroke="none" points="1406.33,-58.3334 1416.33,-54.8333 1406.33,-51.3334 1406.33,-58.3334"/>
</g>
<!-- element9&#45;&gt;element10 -->
<g id="edge20" class="edge"><title>element9&#45;&gt;element10</title>
<path fill="none" stroke="black" d="M1389.62,-85.6667C1389.62,-85.6667 1406.33,-85.6667 1406.33,-85.6667"/>
<polygon fill="black" stroke="black" points="1406.33,-89.1667 1416.33,-85.6667 1406.33,-82.1667 1406.33,-89.1667"/>
<polygon fill="black" stroke="black" points="1389.62,-82.1667 1379.62,-85.6667 1389.62,-89.1667 1389.62,-82.1667"/>
</g>
</g>
</svg>
