<?xml version="1.0" encoding="UTF-8" standalone="no"?>
<!DOCTYPE svg PUBLIC "-//W3C//DTD SVG 1.1//EN"
 "http://www.w3.org/Graphics/SVG/1.1/DTD/svg11.dtd">
<!-- Generated by graphviz version 2.30.1 (20201013.1554)
 -->
<!-- Title: G Pages: 1 -->
<svg width="1536pt" height="146pt"
 viewBox="0.00 0.00 1536.00 145.50" xmlns="http://www.w3.org/2000/svg" xmlns:xlink="http://www.w3.org/1999/xlink">
<g id="graph0" class="graph" transform="scale(1 1) rotate(0) translate(4 141.5)">
<title>G</title>
<polygon fill="white" stroke="white" points="-4,5 -4,-141.5 1533,-141.5 1533,5 -4,5"/>
<!-- element0 -->
<g id="node1" class="node"><title>element0</title>
<path fill="#ebebe0" stroke="black" d="M12,-27.25C12,-27.25 86,-27.25 86,-27.25 92,-27.25 98,-33.25 98,-39.25 98,-39.25 98,-107.25 98,-107.25 98,-113.25 92,-119.25 86,-119.25 86,-119.25 12,-119.25 12,-119.25 6,-119.25 0,-113.25 0,-107.25 0,-107.25 0,-39.25 0,-39.25 0,-33.25 6,-27.25 12,-27.25"/>
<text text-anchor="middle" x="49" y="-104.05" font-family="Times,serif" font-size="14.00">idx = [0]</text>
<polyline fill="none" stroke="black" points="0,-96.25 98,-96.25 "/>
<text text-anchor="middle" x="49" y="-81.05" font-family="Times,serif" font-size="14.00">data = [0]</text>
<polyline fill="none" stroke="black" points="0,-73.25 98,-73.25 "/>
<text text-anchor="middle" x="49" y="-58.05" font-family="Times,serif" font-size="14.00">prev = [10]</text>
<polyline fill="none" stroke="black" points="0,-50.25 98,-50.25 "/>
<text text-anchor="middle" x="49" y="-35.05" font-family="Times,serif" font-size="14.00">next = [1]</text>
</g>
<!-- element1 -->
<g id="node2" class="node"><title>element1</title>
<path fill="#cc99ff" stroke="black" d="M146.5,-27.25C146.5,-27.25 211.5,-27.25 211.5,-27.25 217.5,-27.25 223.5,-33.25 223.5,-39.25 223.5,-39.25 223.5,-107.25 223.5,-107.25 223.5,-113.25 217.5,-119.25 211.5,-119.25 211.5,-119.25 146.5,-119.25 146.5,-119.25 140.5,-119.25 134.5,-113.25 134.5,-107.25 134.5,-107.25 134.5,-39.25 134.5,-39.25 134.5,-33.25 140.5,-27.25 146.5,-27.25"/>
<text text-anchor="middle" x="179" y="-104.05" font-family="Times,serif" font-size="14.00">idx = [1]</text>
<polyline fill="none" stroke="black" points="134.5,-96.25 223.5,-96.25 "/>
<text text-anchor="middle" x="179" y="-81.05" font-family="Times,serif" font-size="14.00">data = [0]</text>
<polyline fill="none" stroke="black" points="134.5,-73.25 223.5,-73.25 "/>
<text text-anchor="middle" x="179" y="-58.05" font-family="Times,serif" font-size="14.00">prev = [0]</text>
<polyline fill="none" stroke="black" points="134.5,-50.25 223.5,-50.25 "/>
<text text-anchor="middle" x="179" y="-35.05" font-family="Times,serif" font-size="14.00">next = [2]</text>
</g>
<!-- element0&#45;&gt;element1 -->
<g id="edge1" class="edge"><title>element0&#45;&gt;element1</title>
<path fill="none" stroke="none" d="M98.1474,-57.8333C98.1474,-57.8333 124.486,-57.8333 124.486,-57.8333"/>
<polygon fill="none" stroke="none" points="124.486,-61.3334 134.486,-57.8333 124.486,-54.3334 124.486,-61.3334"/>
</g>
<!-- element0&#45;&gt;element1 -->
<g id="edge11" class="edge"><title>element0&#45;&gt;element1</title>
<path fill="none" stroke="black" d="M108.147,-88.6667C108.147,-88.6667 124.486,-88.6667 124.486,-88.6667"/>
<polygon fill="black" stroke="black" points="124.486,-92.1667 134.486,-88.6667 124.486,-85.1667 124.486,-92.1667"/>
<polygon fill="black" stroke="black" points="108.147,-85.1667 98.1474,-88.6667 108.147,-92.1667 108.147,-85.1667"/>
</g>
<!-- element2 -->
<g id="node3" class="node"><title>element2</title>
<path fill="#66ccff" stroke="black" d="M272.5,-27.25C272.5,-27.25 355.5,-27.25 355.5,-27.25 361.5,-27.25 367.5,-33.25 367.5,-39.25 367.5,-39.25 367.5,-107.25 367.5,-107.25 367.5,-113.25 361.5,-119.25 355.5,-119.25 355.5,-119.25 272.5,-119.25 272.5,-119.25 266.5,-119.25 260.5,-113.25 260.5,-107.25 260.5,-107.25 260.5,-39.25 260.5,-39.25 260.5,-33.25 266.5,-27.25 272.5,-27.25"/>
<text text-anchor="middle" x="314" y="-104.05" font-family="Times,serif" font-size="14.00">idx = [2]</text>
<polyline fill="none" stroke="black" points="260.5,-96.25 367.5,-96.25 "/>
<text text-anchor="middle" x="314" y="-81.05" font-family="Times,serif" font-size="14.00">data = [101]</text>
<polyline fill="none" stroke="black" points="260.5,-73.25 367.5,-73.25 "/>
<text text-anchor="middle" x="314" y="-58.05" font-family="Times,serif" font-size="14.00">prev = [1]</text>
<polyline fill="none" stroke="black" points="260.5,-50.25 367.5,-50.25 "/>
<text text-anchor="middle" x="314" y="-35.05" font-family="Times,serif" font-size="14.00">next = [3]</text>
</g>
<!-- element1&#45;&gt;element2 -->
<g id="edge2" class="edge"><title>element1&#45;&gt;element2</title>
<path fill="none" stroke="none" d="M223.578,-57.8333C223.578,-57.8333 250.068,-57.8333 250.068,-57.8333"/>
<polygon fill="none" stroke="none" points="250.069,-61.3334 260.068,-57.8333 250.068,-54.3334 250.069,-61.3334"/>
</g>
<!-- element1&#45;&gt;element2 -->
<g id="edge12" class="edge"><title>element1&#45;&gt;element2</title>
<path fill="none" stroke="black" d="M233.578,-88.6667C233.578,-88.6667 250.068,-88.6667 250.068,-88.6667"/>
<polygon fill="black" stroke="black" points="250.068,-92.1667 260.068,-88.6667 250.068,-85.1667 250.068,-92.1667"/>
<polygon fill="black" stroke="black" points="233.578,-85.1667 223.578,-88.6667 233.578,-92.1667 233.578,-85.1667"/>
</g>
<!-- element3 -->
<g id="node4" class="node"><title>element3</title>
<path fill="#66ccff" stroke="black" d="M416.5,-27.25C416.5,-27.25 499.5,-27.25 499.5,-27.25 505.5,-27.25 511.5,-33.25 511.5,-39.25 511.5,-39.25 511.5,-107.25 511.5,-107.25 511.5,-113.25 505.5,-119.25 499.5,-119.25 499.5,-119.25 416.5,-119.25 416.5,-119.25 410.5,-119.25 404.5,-113.25 404.5,-107.25 404.5,-107.25 404.5,-39.25 404.5,-39.25 404.5,-33.25 410.5,-27.25 416.5,-27.25"/>
<text text-anchor="middle" x="458" y="-104.05" font-family="Times,serif" font-size="14.00">idx = [3]</text>
<polyline fill="none" stroke="black" points="404.5,-96.25 511.5,-96.25 "/>
<text text-anchor="middle" x="458" y="-81.05" font-family="Times,serif" font-size="14.00">data = [202]</text>
<polyline fill="none" stroke="black" points="404.5,-73.25 511.5,-73.25 "/>
<text text-anchor="middle" x="458" y="-58.05" font-family="Times,serif" font-size="14.00">prev = [2]</text>
<polyline fill="none" stroke="black" points="404.5,-50.25 511.5,-50.25 "/>
<text text-anchor="middle" x="458" y="-35.05" font-family="Times,serif" font-size="14.00">next = [4]</text>
</g>
<!-- element2&#45;&gt;element3 -->
<g id="edge3" class="edge"><title>element2&#45;&gt;element3</title>
<path fill="none" stroke="none" d="M367.62,-57.8333C367.62,-57.8333 394.335,-57.8333 394.335,-57.8333"/>
<polygon fill="none" stroke="none" points="394.335,-61.3334 404.335,-57.8333 394.335,-54.3334 394.335,-61.3334"/>
</g>
<!-- element2&#45;&gt;element3 -->
<g id="edge13" class="edge"><title>element2&#45;&gt;element3</title>
<path fill="none" stroke="black" d="M377.62,-88.6667C377.62,-88.6667 394.335,-88.6667 394.335,-88.6667"/>
<polygon fill="black" stroke="black" points="394.335,-92.1667 404.335,-88.6667 394.335,-85.1667 394.335,-92.1667"/>
<polygon fill="black" stroke="black" points="377.62,-85.1667 367.62,-88.6667 377.62,-92.1667 377.62,-85.1667"/>
</g>
<!-- element4 -->
<g id="node5" class="node"><title>element4</title>
<path fill="#66ccff" stroke="black" d="M560.5,-27.25C560.5,-27.25 643.5,-27.25 643.5,-27.25 649.5,-27.25 655.5,-33.25 655.5,-39.25 655.5,-39.25 655.5,-107.25 655.5,-107.25 655.5,-113.25 649.5,-119.25 643.5,-119.25 643.5,-119.25 560.5,-119.25 560.5,-119.25 554.5,-119.25 548.5,-113.25 548.5,-107.25 548.5,-107.25 548.5,-39.25 548.5,-39.25 548.5,-33.25 554.5,-27.25 560.5,-27.25"/>
<text text-anchor="middle" x="602" y="-104.05" font-family="Times,serif" font-size="14.00">idx = [4]</text>
<polyline fill="none" stroke="black" points="548.5,-96.25 655.5,-96.25 "/>
<text text-anchor="middle" x="602" y="-81.05" font-family="Times,serif" font-size="14.00">data = [303]</text>
<polyline fill="none" stroke="black" points="548.5,-73.25 655.5,-73.25 "/>
<text text-anchor="middle" x="602" y="-58.05" font-family="Times,serif" font-size="14.00">prev = [3]</text>
<polyline fill="none" stroke="black" points="548.5,-50.25 655.5,-50.25 "/>
<text text-anchor="middle" x="602" y="-35.05" font-family="Times,serif" font-size="14.00">next = [6]</text>
</g>
<!-- element3&#45;&gt;element4 -->
<g id="edge4" class="edge"><title>element3&#45;&gt;element4</title>
<path fill="none" stroke="none" d="M511.62,-57.8333C511.62,-57.8333 538.335,-57.8333 538.335,-57.8333"/>
<polygon fill="none" stroke="none" points="538.335,-61.3334 548.335,-57.8333 538.335,-54.3334 538.335,-61.3334"/>
</g>
<!-- element3&#45;&gt;element4 -->
<g id="edge14" class="edge"><title>element3&#45;&gt;element4</title>
<path fill="none" stroke="black" d="M521.62,-88.6667C521.62,-88.6667 538.335,-88.6667 538.335,-88.6667"/>
<polygon fill="black" stroke="black" points="538.335,-92.1667 548.335,-88.6667 538.335,-85.1667 538.335,-92.1667"/>
<polygon fill="black" stroke="black" points="521.62,-85.1667 511.62,-88.6667 521.62,-92.1667 521.62,-85.1667"/>
</g>
<!-- element5 -->
<g id="node6" class="node"><title>element5</title>
<path fill="#99ff66" stroke="black" d="M704.5,-27.25C704.5,-27.25 791.5,-27.25 791.5,-27.25 797.5,-27.25 803.5,-33.25 803.5,-39.25 803.5,-39.25 803.5,-107.25 803.5,-107.25 803.5,-113.25 797.5,-119.25 791.5,-119.25 791.5,-119.25 704.5,-119.25 704.5,-119.25 698.5,-119.25 692.5,-113.25 692.5,-107.25 692.5,-107.25 692.5,-39.25 692.5,-39.25 692.5,-33.25 698.5,-27.25 704.5,-27.25"/>
<text text-anchor="middle" x="748" y="-104.05" font-family="Times,serif" font-size="14.00">idx = [5]</text>
<polyline fill="none" stroke="black" points="692.5,-96.25 803.5,-96.25 "/>
<text text-anchor="middle" x="748" y="-81.05" font-family="Times,serif" font-size="14.00">data = [&#45;666]</text>
<polyline fill="none" stroke="black" points="692.5,-73.25 803.5,-73.25 "/>
<text text-anchor="middle" x="748" y="-58.05" font-family="Times,serif" font-size="14.00">prev = [&#45;1]</text>
<polyline fill="none" stroke="black" points="692.5,-50.25 803.5,-50.25 "/>
<text text-anchor="middle" x="748" y="-35.05" font-family="Times,serif" font-size="14.00">next = [0]</text>
</g>
<!-- element4&#45;&gt;element5 -->
<g id="edge5" class="edge"><title>element4&#45;&gt;element5</title>
<path fill="none" stroke="none" d="M655.536,-73.25C655.536,-73.25 682.019,-73.25 682.019,-73.25"/>
<polygon fill="none" stroke="none" points="682.019,-76.7501 692.019,-73.25 682.019,-69.7501 682.019,-76.7501"/>
</g>
<!-- element6 -->
<g id="node7" class="node"><title>element6</title>
<path fill="#66ccff" stroke="black" d="M852.5,-27.25C852.5,-27.25 935.5,-27.25 935.5,-27.25 941.5,-27.25 947.5,-33.25 947.5,-39.25 947.5,-39.25 947.5,-107.25 947.5,-107.25 947.5,-113.25 941.5,-119.25 935.5,-119.25 935.5,-119.25 852.5,-119.25 852.5,-119.25 846.5,-119.25 840.5,-113.25 840.5,-107.25 840.5,-107.25 840.5,-39.25 840.5,-39.25 840.5,-33.25 846.5,-27.25 852.5,-27.25"/>
<text text-anchor="middle" x="894" y="-104.05" font-family="Times,serif" font-size="14.00">idx = [6]</text>
<polyline fill="none" stroke="black" points="840.5,-96.25 947.5,-96.25 "/>
<text text-anchor="middle" x="894" y="-81.05" font-family="Times,serif" font-size="14.00">data = [505]</text>
<polyline fill="none" stroke="black" points="840.5,-73.25 947.5,-73.25 "/>
<text text-anchor="middle" x="894" y="-58.05" font-family="Times,serif" font-size="14.00">prev = [4]</text>
<polyline fill="none" stroke="black" points="840.5,-50.25 947.5,-50.25 "/>
<text text-anchor="middle" x="894" y="-35.05" font-family="Times,serif" font-size="14.00">next = [7]</text>
</g>
<!-- element4&#45;&gt;element6 -->
<g id="edge15" class="edge"><title>element4&#45;&gt;element6</title>
<path fill="none" stroke="black" d="M602,-18.9123C602,-18.9123 602,-18 602,-18 602,-18 894,-18 894,-18 894,-18 894,-18.9123 894,-18.9123"/>
<polygon fill="black" stroke="black" points="598.5,-17.1234 602,-27.1234 605.5,-17.1235 598.5,-17.1234"/>
<polygon fill="black" stroke="black" points="890.5,-17.1234 894,-27.1234 897.5,-17.1235 890.5,-17.1234"/>
</g>
<!-- element5&#45;&gt;element6 -->
<g id="edge6" class="edge"><title>element5&#45;&gt;element6</title>
<path fill="none" stroke="none" d="M803.613,-73.25C803.613,-73.25 830.469,-73.25 830.469,-73.25"/>
<polygon fill="none" stroke="none" points="830.469,-76.7501 840.469,-73.25 830.469,-69.7501 830.469,-76.7501"/>
</g>
<!-- element5&#45;&gt;element0 -->
<g id="edge16" class="edge"><title>element5&#45;&gt;element0</title>
<path fill="none" stroke="green" d="M748,-26.8597C748,-12.3227 748,-0 748,-0 748,-0 49,-0 49,-0 49,-0 49,-16.8597 49,-16.8597"/>
<polygon fill="green" stroke="green" points="45.5001,-16.8596 49,-26.8597 52.5001,-16.8597 45.5001,-16.8596"/>
</g>
<!-- element7 -->
<g id="node8" class="node"><title>element7</title>
<path fill="#66ccff" stroke="black" d="M996.5,-27.25C996.5,-27.25 1079.5,-27.25 1079.5,-27.25 1085.5,-27.25 1091.5,-33.25 1091.5,-39.25 1091.5,-39.25 1091.5,-107.25 1091.5,-107.25 1091.5,-113.25 1085.5,-119.25 1079.5,-119.25 1079.5,-119.25 996.5,-119.25 996.5,-119.25 990.5,-119.25 984.5,-113.25 984.5,-107.25 984.5,-107.25 984.5,-39.25 984.5,-39.25 984.5,-33.25 990.5,-27.25 996.5,-27.25"/>
<text text-anchor="middle" x="1038" y="-104.05" font-family="Times,serif" font-size="14.00">idx = [7]</text>
<polyline fill="none" stroke="black" points="984.5,-96.25 1091.5,-96.25 "/>
<text text-anchor="middle" x="1038" y="-81.05" font-family="Times,serif" font-size="14.00">data = [606]</text>
<polyline fill="none" stroke="black" points="984.5,-73.25 1091.5,-73.25 "/>
<text text-anchor="middle" x="1038" y="-58.05" font-family="Times,serif" font-size="14.00">prev = [6]</text>
<polyline fill="none" stroke="black" points="984.5,-50.25 1091.5,-50.25 "/>
<text text-anchor="middle" x="1038" y="-35.05" font-family="Times,serif" font-size="14.00">next = [9]</text>
</g>
<!-- element6&#45;&gt;element7 -->
<g id="edge7" class="edge"><title>element6&#45;&gt;element7</title>
<path fill="none" stroke="none" d="M947.62,-57.8333C947.62,-57.8333 974.335,-57.8333 974.335,-57.8333"/>
<polygon fill="none" stroke="none" points="974.335,-61.3334 984.335,-57.8333 974.335,-54.3334 974.335,-61.3334"/>
</g>
<!-- element6&#45;&gt;element7 -->
<g id="edge17" class="edge"><title>element6&#45;&gt;element7</title>
<path fill="none" stroke="black" d="M957.62,-88.6667C957.62,-88.6667 974.335,-88.6667 974.335,-88.6667"/>
<polygon fill="black" stroke="black" points="974.335,-92.1667 984.335,-88.6667 974.335,-85.1667 974.335,-92.1667"/>
<polygon fill="black" stroke="black" points="957.62,-85.1667 947.62,-88.6667 957.62,-92.1667 957.62,-85.1667"/>
</g>
<!-- element8 -->
<g id="node9" class="node"><title>element8</title>
<path fill="#33cc33" stroke="black" d="M1140.5,-27.25C1140.5,-27.25 1227.5,-27.25 1227.5,-27.25 1233.5,-27.25 1239.5,-33.25 1239.5,-39.25 1239.5,-39.25 1239.5,-107.25 1239.5,-107.25 1239.5,-113.25 1233.5,-119.25 1227.5,-119.25 1227.5,-119.25 1140.5,-119.25 1140.5,-119.25 1134.5,-119.25 1128.5,-113.25 1128.5,-107.25 1128.5,-107.25 1128.5,-39.25 1128.5,-39.25 1128.5,-33.25 1134.5,-27.25 1140.5,-27.25"/>
<text text-anchor="middle" x="1184" y="-104.05" font-family="Times,serif" font-size="14.00">idx = [8]</text>
<polyline fill="none" stroke="black" points="1128.5,-96.25 1239.5,-96.25 "/>
<text text-anchor="middle" x="1184" y="-81.05" font-family="Times,serif" font-size="14.00">data = [&#45;666]</text>
<polyline fill="none" stroke="black" points="1128.5,-73.25 1239.5,-73.25 "/>
<text text-anchor="middle" x="1184" y="-58.05" font-family="Times,serif" font-size="14.00">prev = [&#45;1]</text>
<polyline fill="none" stroke="black" points="1128.5,-50.25 1239.5,-50.25 "/>
<text text-anchor="middle" x="1184" y="-35.05" font-family="Times,serif" font-size="14.00">next = [5]</text>
</g>
<!-- element7&#45;&gt;element8 -->
<g id="edge8" class="edge"><title>element7&#45;&gt;element8</title>
<path fill="none" stroke="none" d="M1091.54,-73.25C1091.54,-73.25 1118.02,-73.25 1118.02,-73.25"/>
<polygon fill="none" stroke="none" points="1118.02,-76.7501 1128.02,-73.25 1118.02,-69.7501 1118.02,-76.7501"/>
</g>
<!-- element9 -->
<g id="node10" class="node"><title>element9</title>
<path fill="#66ccff" stroke="black" d="M1288.5,-27.25C1288.5,-27.25 1371.5,-27.25 1371.5,-27.25 1377.5,-27.25 1383.5,-33.25 1383.5,-39.25 1383.5,-39.25 1383.5,-107.25 1383.5,-107.25 1383.5,-113.25 1377.5,-119.25 1371.5,-119.25 1371.5,-119.25 1288.5,-119.25 1288.5,-119.25 1282.5,-119.25 1276.5,-113.25 1276.5,-107.25 1276.5,-107.25 1276.5,-39.25 1276.5,-39.25 1276.5,-33.25 1282.5,-27.25 1288.5,-27.25"/>
<text text-anchor="middle" x="1330" y="-104.05" font-family="Times,serif" font-size="14.00">idx = [9]</text>
<polyline fill="none" stroke="black" points="1276.5,-96.25 1383.5,-96.25 "/>
<text text-anchor="middle" x="1330" y="-81.05" font-family="Times,serif" font-size="14.00">data = [808]</text>
<polyline fill="none" stroke="black" points="1276.5,-73.25 1383.5,-73.25 "/>
<text text-anchor="middle" x="1330" y="-58.05" font-family="Times,serif" font-size="14.00">prev = [7]</text>
<polyline fill="none" stroke="black" points="1276.5,-50.25 1383.5,-50.25 "/>
<text text-anchor="middle" x="1330" y="-35.05" font-family="Times,serif" font-size="14.00">next = [10]</text>
</g>
<!-- element7&#45;&gt;element9 -->
<g id="edge18" class="edge"><title>element7&#45;&gt;element9</title>
<path fill="none" stroke="black" d="M1038,-17.2396C1038,-17.2396 1038,-9 1038,-9 1038,-9 1330,-9 1330,-9 1330,-9 1330,-17.2396 1330,-17.2396"/>
<polygon fill="black" stroke="black" points="1034.5,-17.2396 1038,-27.2396 1041.5,-17.2396 1034.5,-17.2396"/>
<polygon fill="black" stroke="black" points="1326.5,-17.2396 1330,-27.2396 1333.5,-17.2396 1326.5,-17.2396"/>
</g>
<!-- element8&#45;&gt;element9 -->
<g id="edge9" class="edge"><title>element8&#45;&gt;element9</title>
<path fill="none" stroke="none" d="M1239.61,-73.25C1239.61,-73.25 1266.47,-73.25 1266.47,-73.25"/>
<polygon fill="none" stroke="none" points="1266.47,-76.7501 1276.47,-73.25 1266.47,-69.7501 1266.47,-76.7501"/>
</g>
<!-- element8&#45;&gt;element5 -->
<g id="edge19" class="edge"><title>element8&#45;&gt;element5</title>
<path fill="none" stroke="green" d="M1184,-119.26C1184,-129.559 1184,-137.5 1184,-137.5 1184,-137.5 748,-137.5 748,-137.5 748,-137.5 748,-129.26 748,-129.26"/>
<polygon fill="green" stroke="green" points="751.5,-129.26 748,-119.26 744.5,-129.26 751.5,-129.26"/>
</g>
<!-- element10 -->
<g id="node11" class="node"><title>element10</title>
<path fill="#66ccff" stroke="black" d="M1432.5,-27.25C1432.5,-27.25 1515.5,-27.25 1515.5,-27.25 1521.5,-27.25 1527.5,-33.25 1527.5,-39.25 1527.5,-39.25 1527.5,-107.25 1527.5,-107.25 1527.5,-113.25 1521.5,-119.25 1515.5,-119.25 1515.5,-119.25 1432.5,-119.25 1432.5,-119.25 1426.5,-119.25 1420.5,-113.25 1420.5,-107.25 1420.5,-107.25 1420.5,-39.25 1420.5,-39.25 1420.5,-33.25 1426.5,-27.25 1432.5,-27.25"/>
<text text-anchor="middle" x="1474" y="-104.05" font-family="Times,serif" font-size="14.00">idx = [10]</text>
<polyline fill="none" stroke="black" points="1420.5,-96.25 1527.5,-96.25 "/>
<text text-anchor="middle" x="1474" y="-81.05" font-family="Times,serif" font-size="14.00">data = [909]</text>
<polyline fill="none" stroke="black" points="1420.5,-73.25 1527.5,-73.25 "/>
<text text-anchor="middle" x="1474" y="-58.05" font-family="Times,serif" font-size="14.00">prev = [9]</text>
<polyline fill="none" stroke="black" points="1420.5,-50.25 1527.5,-50.25 "/>
<text text-anchor="middle" x="1474" y="-35.05" font-family="Times,serif" font-size="14.00">next = [0]</text>
</g>
<!-- element9&#45;&gt;element10 -->
<g id="edge10" class="edge"><title>element9&#45;&gt;element10</title>
<path fill="none" stroke="none" d="M1383.62,-57.8333C1383.62,-57.8333 1410.33,-57.8333 1410.33,-57.8333"/>
<polygon fill="none" stroke="none" points="1410.33,-61.3334 1420.33,-57.8333 1410.33,-54.3334 1410.33,-61.3334"/>
</g>
<!-- element9&#45;&gt;element10 -->
<g id="edge20" class="edge"><title>element9&#45;&gt;element10</title>
<path fill="none" stroke="black" d="M1393.62,-88.6667C1393.62,-88.6667 1410.33,-88.6667 1410.33,-88.6667"/>
<polygon fill="black" stroke="black" points="1410.33,-92.1667 1420.33,-88.6667 1410.33,-85.1667 1410.33,-92.1667"/>
<polygon fill="black" stroke="black" points="1393.62,-85.1667 1383.62,-88.6667 1393.62,-92.1667 1393.62,-85.1667"/>
</g>
</g>
</svg>
