<?xml version="1.0" encoding="UTF-8" standalone="no"?>
<!DOCTYPE svg PUBLIC "-//W3C//DTD SVG 1.1//EN"
 "http://www.w3.org/Graphics/SVG/1.1/DTD/svg11.dtd">
<!-- Generated by graphviz version 2.30.1 (20201013.1554)
 -->
<!-- Title: G Pages: 1 -->
<svg width="1580pt" height="268pt"
 viewBox="0.00 0.00 1580.00 268.00" xmlns="http://www.w3.org/2000/svg" xmlns:xlink="http://www.w3.org/1999/xlink">
<g id="graph0" class="graph" transform="scale(1 1) rotate(0) translate(4 264)">
<title>G</title>
<polygon fill="white" stroke="white" points="-4,5 -4,-264 1577,-264 1577,5 -4,5"/>
<!-- element0 -->
<g id="node1" class="node"><title>element0</title>
<path fill="#ebebe0" stroke="black" d="M34,-167C34,-167 108,-167 108,-167 114,-167 120,-173 120,-179 120,-179 120,-247 120,-247 120,-253 114,-259 108,-259 108,-259 34,-259 34,-259 28,-259 22,-253 22,-247 22,-247 22,-179 22,-179 22,-173 28,-167 34,-167"/>
<text text-anchor="middle" x="71" y="-243.8" font-family="Times,serif" font-size="14.00">idx = [0]</text>
<polyline fill="none" stroke="black" points="22,-236 120,-236 "/>
<text text-anchor="middle" x="71" y="-220.8" font-family="Times,serif" font-size="14.00">data = [0]</text>
<polyline fill="none" stroke="black" points="22,-213 120,-213 "/>
<text text-anchor="middle" x="71" y="-197.8" font-family="Times,serif" font-size="14.00">prev = [10]</text>
<polyline fill="none" stroke="black" points="22,-190 120,-190 "/>
<text text-anchor="middle" x="71" y="-174.8" font-family="Times,serif" font-size="14.00">next = [1]</text>
</g>
<!-- element1 -->
<g id="node2" class="node"><title>element1</title>
<path fill="#cc99ff" stroke="black" d="M190.5,-167C190.5,-167 255.5,-167 255.5,-167 261.5,-167 267.5,-173 267.5,-179 267.5,-179 267.5,-247 267.5,-247 267.5,-253 261.5,-259 255.5,-259 255.5,-259 190.5,-259 190.5,-259 184.5,-259 178.5,-253 178.5,-247 178.5,-247 178.5,-179 178.5,-179 178.5,-173 184.5,-167 190.5,-167"/>
<text text-anchor="middle" x="223" y="-243.8" font-family="Times,serif" font-size="14.00">idx = [1]</text>
<polyline fill="none" stroke="black" points="178.5,-236 267.5,-236 "/>
<text text-anchor="middle" x="223" y="-220.8" font-family="Times,serif" font-size="14.00">data = [0]</text>
<polyline fill="none" stroke="black" points="178.5,-213 267.5,-213 "/>
<text text-anchor="middle" x="223" y="-197.8" font-family="Times,serif" font-size="14.00">prev = [0]</text>
<polyline fill="none" stroke="black" points="178.5,-190 267.5,-190 "/>
<text text-anchor="middle" x="223" y="-174.8" font-family="Times,serif" font-size="14.00">next = [2]</text>
</g>
<!-- element0&#45;&gt;element1 -->
<g id="edge1" class="edge"><title>element0&#45;&gt;element1</title>
<path fill="none" stroke="none" d="M120.35,-197.583C120.35,-197.583 168.264,-197.583 168.264,-197.583"/>
<polygon fill="none" stroke="none" points="168.264,-201.083 178.264,-197.583 168.264,-194.083 168.264,-201.083"/>
</g>
<!-- element0&#45;&gt;element1 -->
<g id="edge11" class="edge"><title>element0&#45;&gt;element1</title>
<path fill="none" stroke="black" d="M130.35,-228.417C130.35,-228.417 168.264,-228.417 168.264,-228.417"/>
<polygon fill="black" stroke="black" points="168.264,-231.917 178.264,-228.417 168.264,-224.917 168.264,-231.917"/>
<polygon fill="black" stroke="black" points="130.35,-224.917 120.35,-228.417 130.35,-231.917 130.35,-224.917"/>
</g>
<!-- element2 -->
<g id="node3" class="node"><title>element2</title>
<path fill="#66ccff" stroke="black" d="M316.5,-167C316.5,-167 399.5,-167 399.5,-167 405.5,-167 411.5,-173 411.5,-179 411.5,-179 411.5,-247 411.5,-247 411.5,-253 405.5,-259 399.5,-259 399.5,-259 316.5,-259 316.5,-259 310.5,-259 304.5,-253 304.5,-247 304.5,-247 304.5,-179 304.5,-179 304.5,-173 310.5,-167 316.5,-167"/>
<text text-anchor="middle" x="358" y="-243.8" font-family="Times,serif" font-size="14.00">idx = [2]</text>
<polyline fill="none" stroke="black" points="304.5,-236 411.5,-236 "/>
<text text-anchor="middle" x="358" y="-220.8" font-family="Times,serif" font-size="14.00">data = [101]</text>
<polyline fill="none" stroke="black" points="304.5,-213 411.5,-213 "/>
<text text-anchor="middle" x="358" y="-197.8" font-family="Times,serif" font-size="14.00">prev = [1]</text>
<polyline fill="none" stroke="black" points="304.5,-190 411.5,-190 "/>
<text text-anchor="middle" x="358" y="-174.8" font-family="Times,serif" font-size="14.00">next = [3]</text>
</g>
<!-- element1&#45;&gt;element2 -->
<g id="edge2" class="edge"><title>element1&#45;&gt;element2</title>
<path fill="none" stroke="none" d="M267.578,-197.583C267.578,-197.583 294.068,-197.583 294.068,-197.583"/>
<polygon fill="none" stroke="none" points="294.069,-201.083 304.068,-197.583 294.068,-194.083 294.069,-201.083"/>
</g>
<!-- element1&#45;&gt;element2 -->
<g id="edge12" class="edge"><title>element1&#45;&gt;element2</title>
<path fill="none" stroke="black" d="M277.578,-228.417C277.578,-228.417 294.068,-228.417 294.068,-228.417"/>
<polygon fill="black" stroke="black" points="294.068,-231.917 304.068,-228.417 294.068,-224.917 294.068,-231.917"/>
<polygon fill="black" stroke="black" points="277.578,-224.917 267.578,-228.417 277.578,-231.917 277.578,-224.917"/>
</g>
<!-- element3 -->
<g id="node4" class="node"><title>element3</title>
<path fill="#66ccff" stroke="black" d="M460.5,-167C460.5,-167 543.5,-167 543.5,-167 549.5,-167 555.5,-173 555.5,-179 555.5,-179 555.5,-247 555.5,-247 555.5,-253 549.5,-259 543.5,-259 543.5,-259 460.5,-259 460.5,-259 454.5,-259 448.5,-253 448.5,-247 448.5,-247 448.5,-179 448.5,-179 448.5,-173 454.5,-167 460.5,-167"/>
<text text-anchor="middle" x="502" y="-243.8" font-family="Times,serif" font-size="14.00">idx = [3]</text>
<polyline fill="none" stroke="black" points="448.5,-236 555.5,-236 "/>
<text text-anchor="middle" x="502" y="-220.8" font-family="Times,serif" font-size="14.00">data = [202]</text>
<polyline fill="none" stroke="black" points="448.5,-213 555.5,-213 "/>
<text text-anchor="middle" x="502" y="-197.8" font-family="Times,serif" font-size="14.00">prev = [666]</text>
<polyline fill="none" stroke="black" points="448.5,-190 555.5,-190 "/>
<text text-anchor="middle" x="502" y="-174.8" font-family="Times,serif" font-size="14.00">next = [4]</text>
</g>
<!-- element2&#45;&gt;element3 -->
<g id="edge3" class="edge"><title>element2&#45;&gt;element3</title>
<path fill="none" stroke="none" d="M411.62,-197.583C411.62,-197.583 438.335,-197.583 438.335,-197.583"/>
<polygon fill="none" stroke="none" points="438.335,-201.083 448.335,-197.583 438.335,-194.083 438.335,-201.083"/>
</g>
<!-- element2&#45;&gt;element3 -->
<g id="edge13" class="edge"><title>element2&#45;&gt;element3</title>
<path fill="none" stroke="blue" stroke-width="2" d="M411.62,-228.417C411.62,-228.417 438.335,-228.417 438.335,-228.417"/>
<polygon fill="blue" stroke="blue" points="438.335,-231.917 448.335,-228.417 438.335,-224.917 438.335,-231.917"/>
</g>
<!-- element4 -->
<g id="node5" class="node"><title>element4</title>
<path fill="#66ccff" stroke="black" d="M604.5,-167C604.5,-167 687.5,-167 687.5,-167 693.5,-167 699.5,-173 699.5,-179 699.5,-179 699.5,-247 699.5,-247 699.5,-253 693.5,-259 687.5,-259 687.5,-259 604.5,-259 604.5,-259 598.5,-259 592.5,-253 592.5,-247 592.5,-247 592.5,-179 592.5,-179 592.5,-173 598.5,-167 604.5,-167"/>
<text text-anchor="middle" x="646" y="-243.8" font-family="Times,serif" font-size="14.00">idx = [4]</text>
<polyline fill="none" stroke="black" points="592.5,-236 699.5,-236 "/>
<text text-anchor="middle" x="646" y="-220.8" font-family="Times,serif" font-size="14.00">data = [303]</text>
<polyline fill="none" stroke="black" points="592.5,-213 699.5,-213 "/>
<text text-anchor="middle" x="646" y="-197.8" font-family="Times,serif" font-size="14.00">prev = [3]</text>
<polyline fill="none" stroke="black" points="592.5,-190 699.5,-190 "/>
<text text-anchor="middle" x="646" y="-174.8" font-family="Times,serif" font-size="14.00">next = [6]</text>
</g>
<!-- element3&#45;&gt;element4 -->
<g id="edge4" class="edge"><title>element3&#45;&gt;element4</title>
<path fill="none" stroke="none" d="M555.62,-197.583C555.62,-197.583 582.335,-197.583 582.335,-197.583"/>
<polygon fill="none" stroke="none" points="582.335,-201.083 592.335,-197.583 582.335,-194.083 582.335,-201.083"/>
</g>
<!-- element3&#45;&gt;element4 -->
<g id="edge14" class="edge"><title>element3&#45;&gt;element4</title>
<path fill="none" stroke="black" d="M565.62,-228.417C565.62,-228.417 582.335,-228.417 582.335,-228.417"/>
<polygon fill="black" stroke="black" points="582.335,-231.917 592.335,-228.417 582.335,-224.917 582.335,-231.917"/>
<polygon fill="black" stroke="black" points="565.62,-224.917 555.62,-228.417 565.62,-231.917 565.62,-224.917"/>
</g>
<!-- element666 -->
<g id="node12" class="node"><title>element666</title>
<polygon fill="#ff8080" stroke="black" points="142.106,-10.5442 142.106,-25.4558 100.453,-36 41.5471,-36 -0.105526,-25.4558 -0.105526,-10.5442 41.5471,-3.55271e-15 100.453,-0 142.106,-10.5442"/>
<text text-anchor="middle" x="71" y="-14.3" font-family="Times,serif" font-size="14.00">element666</text>
</g>
<!-- element3&#45;&gt;element666 -->
<g id="edge15" class="edge"><title>element3&#45;&gt;element666</title>
<path fill="none" stroke="red" stroke-width="2" d="M502,-166.788C502,-109.124 502,-18 502,-18 502,-18 152.171,-18 152.171,-18"/>
<polygon fill="red" stroke="red" points="152.171,-14.5001 142.171,-18 152.171,-21.5001 152.171,-14.5001"/>
</g>
<!-- element5 -->
<g id="node6" class="node"><title>element5</title>
<path fill="#99ff66" stroke="black" d="M748.5,-167C748.5,-167 835.5,-167 835.5,-167 841.5,-167 847.5,-173 847.5,-179 847.5,-179 847.5,-247 847.5,-247 847.5,-253 841.5,-259 835.5,-259 835.5,-259 748.5,-259 748.5,-259 742.5,-259 736.5,-253 736.5,-247 736.5,-247 736.5,-179 736.5,-179 736.5,-173 742.5,-167 748.5,-167"/>
<text text-anchor="middle" x="792" y="-243.8" font-family="Times,serif" font-size="14.00">idx = [5]</text>
<polyline fill="none" stroke="black" points="736.5,-236 847.5,-236 "/>
<text text-anchor="middle" x="792" y="-220.8" font-family="Times,serif" font-size="14.00">data = [&#45;666]</text>
<polyline fill="none" stroke="black" points="736.5,-213 847.5,-213 "/>
<text text-anchor="middle" x="792" y="-197.8" font-family="Times,serif" font-size="14.00">prev = [&#45;1]</text>
<polyline fill="none" stroke="black" points="736.5,-190 847.5,-190 "/>
<text text-anchor="middle" x="792" y="-174.8" font-family="Times,serif" font-size="14.00">next = [272]</text>
</g>
<!-- element4&#45;&gt;element5 -->
<g id="edge5" class="edge"><title>element4&#45;&gt;element5</title>
<path fill="none" stroke="none" d="M699.536,-213C699.536,-213 726.019,-213 726.019,-213"/>
<polygon fill="none" stroke="none" points="726.019,-216.5 736.019,-213 726.019,-209.5 726.019,-216.5"/>
</g>
<!-- element6 -->
<g id="node7" class="node"><title>element6</title>
<path fill="#66ccff" stroke="black" d="M896.5,-167C896.5,-167 979.5,-167 979.5,-167 985.5,-167 991.5,-173 991.5,-179 991.5,-179 991.5,-247 991.5,-247 991.5,-253 985.5,-259 979.5,-259 979.5,-259 896.5,-259 896.5,-259 890.5,-259 884.5,-253 884.5,-247 884.5,-247 884.5,-179 884.5,-179 884.5,-173 890.5,-167 896.5,-167"/>
<text text-anchor="middle" x="938" y="-243.8" font-family="Times,serif" font-size="14.00">idx = [6]</text>
<polyline fill="none" stroke="black" points="884.5,-236 991.5,-236 "/>
<text text-anchor="middle" x="938" y="-220.8" font-family="Times,serif" font-size="14.00">data = [505]</text>
<polyline fill="none" stroke="black" points="884.5,-213 991.5,-213 "/>
<text text-anchor="middle" x="938" y="-197.8" font-family="Times,serif" font-size="14.00">prev = [4]</text>
<polyline fill="none" stroke="black" points="884.5,-190 991.5,-190 "/>
<text text-anchor="middle" x="938" y="-174.8" font-family="Times,serif" font-size="14.00">next = [228]</text>
</g>
<!-- element4&#45;&gt;element6 -->
<g id="edge16" class="edge"><title>element4&#45;&gt;element6</title>
<path fill="none" stroke="black" d="M646,-161.618C646,-161.618 646,-161.062 646,-161.062 646,-161.062 956,-161.062 956,-161.062 956,-161.062 956,-161.618 956,-161.618"/>
<polygon fill="black" stroke="black" points="642.5,-156.621 646,-166.621 649.5,-156.621 642.5,-156.621"/>
<polygon fill="black" stroke="black" points="952.5,-156.621 956,-166.621 959.5,-156.621 952.5,-156.621"/>
</g>
<!-- element5&#45;&gt;element6 -->
<g id="edge6" class="edge"><title>element5&#45;&gt;element6</title>
<path fill="none" stroke="none" d="M847.613,-213C847.613,-213 874.469,-213 874.469,-213"/>
<polygon fill="none" stroke="none" points="874.469,-216.5 884.469,-213 874.469,-209.5 874.469,-216.5"/>
</g>
<!-- element272 -->
<g id="node13" class="node"><title>element272</title>
<polygon fill="#ff8080" stroke="black" points="142.106,-64.5442 142.106,-79.4558 100.453,-90 41.5471,-90 -0.105526,-79.4558 -0.105526,-64.5442 41.5471,-54 100.453,-54 142.106,-64.5442"/>
<text text-anchor="middle" x="71" y="-68.3" font-family="Times,serif" font-size="14.00">element272</text>
</g>
<!-- element5&#45;&gt;element272 -->
<g id="edge17" class="edge"><title>element5&#45;&gt;element272</title>
<path fill="none" stroke="red" stroke-width="2" d="M774,-166.831C774,-125.71 774,-72 774,-72 774,-72 152.276,-72 152.276,-72"/>
<polygon fill="red" stroke="red" points="152.276,-68.5001 142.276,-72 152.276,-75.5001 152.276,-68.5001"/>
</g>
<!-- element7 -->
<g id="node8" class="node"><title>element7</title>
<path fill="#66ccff" stroke="black" d="M1040.5,-167C1040.5,-167 1123.5,-167 1123.5,-167 1129.5,-167 1135.5,-173 1135.5,-179 1135.5,-179 1135.5,-247 1135.5,-247 1135.5,-253 1129.5,-259 1123.5,-259 1123.5,-259 1040.5,-259 1040.5,-259 1034.5,-259 1028.5,-253 1028.5,-247 1028.5,-247 1028.5,-179 1028.5,-179 1028.5,-173 1034.5,-167 1040.5,-167"/>
<text text-anchor="middle" x="1082" y="-243.8" font-family="Times,serif" font-size="14.00">idx = [7]</text>
<polyline fill="none" stroke="black" points="1028.5,-236 1135.5,-236 "/>
<text text-anchor="middle" x="1082" y="-220.8" font-family="Times,serif" font-size="14.00">data = [606]</text>
<polyline fill="none" stroke="black" points="1028.5,-213 1135.5,-213 "/>
<text text-anchor="middle" x="1082" y="-197.8" font-family="Times,serif" font-size="14.00">prev = [6]</text>
<polyline fill="none" stroke="black" points="1028.5,-190 1135.5,-190 "/>
<text text-anchor="middle" x="1082" y="-174.8" font-family="Times,serif" font-size="14.00">next = [9]</text>
</g>
<!-- element6&#45;&gt;element7 -->
<g id="edge7" class="edge"><title>element6&#45;&gt;element7</title>
<path fill="none" stroke="none" d="M991.62,-197.583C991.62,-197.583 1018.33,-197.583 1018.33,-197.583"/>
<polygon fill="none" stroke="none" points="1018.33,-201.083 1028.33,-197.583 1018.33,-194.083 1018.33,-201.083"/>
</g>
<!-- element228 -->
<g id="node14" class="node"><title>element228</title>
<polygon fill="#ff8080" stroke="black" points="142.106,-118.544 142.106,-133.456 100.453,-144 41.5471,-144 -0.105526,-133.456 -0.105526,-118.544 41.5471,-108 100.453,-108 142.106,-118.544"/>
<text text-anchor="middle" x="71" y="-122.3" font-family="Times,serif" font-size="14.00">element228</text>
</g>
<!-- element6&#45;&gt;element228 -->
<g id="edge18" class="edge"><title>element6&#45;&gt;element228</title>
<path fill="none" stroke="red" stroke-width="2" d="M921,-166.952C921,-146.084 921,-126 921,-126 921,-126 152.373,-126 152.373,-126"/>
<polygon fill="red" stroke="red" points="152.373,-122.5 142.373,-126 152.373,-129.5 152.373,-122.5"/>
</g>
<!-- element8 -->
<g id="node9" class="node"><title>element8</title>
<path fill="#33cc33" stroke="black" d="M1184.5,-167C1184.5,-167 1271.5,-167 1271.5,-167 1277.5,-167 1283.5,-173 1283.5,-179 1283.5,-179 1283.5,-247 1283.5,-247 1283.5,-253 1277.5,-259 1271.5,-259 1271.5,-259 1184.5,-259 1184.5,-259 1178.5,-259 1172.5,-253 1172.5,-247 1172.5,-247 1172.5,-179 1172.5,-179 1172.5,-173 1178.5,-167 1184.5,-167"/>
<text text-anchor="middle" x="1228" y="-243.8" font-family="Times,serif" font-size="14.00">idx = [8]</text>
<polyline fill="none" stroke="black" points="1172.5,-236 1283.5,-236 "/>
<text text-anchor="middle" x="1228" y="-220.8" font-family="Times,serif" font-size="14.00">data = [&#45;666]</text>
<polyline fill="none" stroke="black" points="1172.5,-213 1283.5,-213 "/>
<text text-anchor="middle" x="1228" y="-197.8" font-family="Times,serif" font-size="14.00">prev = [&#45;1]</text>
<polyline fill="none" stroke="black" points="1172.5,-190 1283.5,-190 "/>
<text text-anchor="middle" x="1228" y="-174.8" font-family="Times,serif" font-size="14.00">next = [5]</text>
</g>
<!-- element7&#45;&gt;element8 -->
<g id="edge8" class="edge"><title>element7&#45;&gt;element8</title>
<path fill="none" stroke="none" d="M1135.54,-213C1135.54,-213 1162.02,-213 1162.02,-213"/>
<polygon fill="none" stroke="none" points="1162.02,-216.5 1172.02,-213 1162.02,-209.5 1162.02,-216.5"/>
</g>
<!-- element9 -->
<g id="node10" class="node"><title>element9</title>
<path fill="#66ccff" stroke="black" d="M1332.5,-167C1332.5,-167 1415.5,-167 1415.5,-167 1421.5,-167 1427.5,-173 1427.5,-179 1427.5,-179 1427.5,-247 1427.5,-247 1427.5,-253 1421.5,-259 1415.5,-259 1415.5,-259 1332.5,-259 1332.5,-259 1326.5,-259 1320.5,-253 1320.5,-247 1320.5,-247 1320.5,-179 1320.5,-179 1320.5,-173 1326.5,-167 1332.5,-167"/>
<text text-anchor="middle" x="1374" y="-243.8" font-family="Times,serif" font-size="14.00">idx = [9]</text>
<polyline fill="none" stroke="black" points="1320.5,-236 1427.5,-236 "/>
<text text-anchor="middle" x="1374" y="-220.8" font-family="Times,serif" font-size="14.00">data = [808]</text>
<polyline fill="none" stroke="black" points="1320.5,-213 1427.5,-213 "/>
<text text-anchor="middle" x="1374" y="-197.8" font-family="Times,serif" font-size="14.00">prev = [7]</text>
<polyline fill="none" stroke="black" points="1320.5,-190 1427.5,-190 "/>
<text text-anchor="middle" x="1374" y="-174.8" font-family="Times,serif" font-size="14.00">next = [10]</text>
</g>
<!-- element7&#45;&gt;element9 -->
<g id="edge19" class="edge"><title>element7&#45;&gt;element9</title>
<path fill="none" stroke="black" d="M1082,-156.76C1082,-156.76 1082,-155.375 1082,-155.375 1082,-155.375 1374,-155.375 1374,-155.375 1374,-155.375 1374,-156.76 1374,-156.76"/>
<polygon fill="black" stroke="black" points="1078.5,-156.76 1082,-166.76 1085.5,-156.76 1078.5,-156.76"/>
<polygon fill="black" stroke="black" points="1370.5,-156.76 1374,-166.76 1377.5,-156.76 1370.5,-156.76"/>
</g>
<!-- element7&#45;&gt;element6 -->
<g id="edge20" class="edge"><title>element7&#45;&gt;element6</title>
<path fill="none" stroke="orange" stroke-width="2" d="M1028.38,-228.417C1028.38,-228.417 1001.67,-228.417 1001.67,-228.417"/>
<polygon fill="orange" stroke="orange" points="1001.67,-224.917 991.665,-228.417 1001.67,-231.917 1001.67,-224.917"/>
</g>
<!-- element8&#45;&gt;element9 -->
<g id="edge9" class="edge"><title>element8&#45;&gt;element9</title>
<path fill="none" stroke="none" d="M1283.61,-213C1283.61,-213 1310.47,-213 1310.47,-213"/>
<polygon fill="none" stroke="none" points="1310.47,-216.5 1320.47,-213 1310.47,-209.5 1310.47,-216.5"/>
</g>
<!-- element8&#45;&gt;element5 -->
<g id="edge21" class="edge"><title>element8&#45;&gt;element5</title>
<path fill="none" stroke="green" d="M1228,-166.988C1228,-157.169 1228,-149.688 1228,-149.688 1228,-149.688 811,-149.688 811,-149.688 811,-149.688 811,-156.988 811,-156.988"/>
<polygon fill="green" stroke="green" points="807.5,-156.988 811,-166.988 814.5,-156.988 807.5,-156.988"/>
</g>
<!-- element10 -->
<g id="node11" class="node"><title>element10</title>
<path fill="#66ccff" stroke="black" d="M1476.5,-167C1476.5,-167 1559.5,-167 1559.5,-167 1565.5,-167 1571.5,-173 1571.5,-179 1571.5,-179 1571.5,-247 1571.5,-247 1571.5,-253 1565.5,-259 1559.5,-259 1559.5,-259 1476.5,-259 1476.5,-259 1470.5,-259 1464.5,-253 1464.5,-247 1464.5,-247 1464.5,-179 1464.5,-179 1464.5,-173 1470.5,-167 1476.5,-167"/>
<text text-anchor="middle" x="1518" y="-243.8" font-family="Times,serif" font-size="14.00">idx = [10]</text>
<polyline fill="none" stroke="black" points="1464.5,-236 1571.5,-236 "/>
<text text-anchor="middle" x="1518" y="-220.8" font-family="Times,serif" font-size="14.00">data = [909]</text>
<polyline fill="none" stroke="black" points="1464.5,-213 1571.5,-213 "/>
<text text-anchor="middle" x="1518" y="-197.8" font-family="Times,serif" font-size="14.00">prev = [9]</text>
<polyline fill="none" stroke="black" points="1464.5,-190 1571.5,-190 "/>
<text text-anchor="middle" x="1518" y="-174.8" font-family="Times,serif" font-size="14.00">next = [0]</text>
</g>
<!-- element9&#45;&gt;element10 -->
<g id="edge10" class="edge"><title>element9&#45;&gt;element10</title>
<path fill="none" stroke="none" d="M1427.62,-197.583C1427.62,-197.583 1454.33,-197.583 1454.33,-197.583"/>
<polygon fill="none" stroke="none" points="1454.33,-201.083 1464.33,-197.583 1454.33,-194.083 1454.33,-201.083"/>
</g>
<!-- element9&#45;&gt;element10 -->
<g id="edge22" class="edge"><title>element9&#45;&gt;element10</title>
<path fill="none" stroke="black" d="M1437.62,-228.417C1437.62,-228.417 1454.33,-228.417 1454.33,-228.417"/>
<polygon fill="black" stroke="black" points="1454.33,-231.917 1464.33,-228.417 1454.33,-224.917 1454.33,-231.917"/>
<polygon fill="black" stroke="black" points="1437.62,-224.917 1427.62,-228.417 1437.62,-231.917 1437.62,-224.917"/>
</g>
</g>
</svg>
