<?xml version="1.0" encoding="UTF-8" standalone="no"?>
<!DOCTYPE svg PUBLIC "-//W3C//DTD SVG 1.1//EN"
 "http://www.w3.org/Graphics/SVG/1.1/DTD/svg11.dtd">
<!-- Generated by graphviz version 2.30.1 (20201013.1554)
 -->
<!-- Title: G Pages: 1 -->
<svg width="1556pt" height="100pt"
 viewBox="0.00 0.00 1556.00 100.00" xmlns="http://www.w3.org/2000/svg" xmlns:xlink="http://www.w3.org/1999/xlink">
<g id="graph0" class="graph" transform="scale(1 1) rotate(0) translate(4 96)">
<title>G</title>
<polygon fill="white" stroke="white" points="-4,5 -4,-96 1553,-96 1553,5 -4,5"/>
<!-- element0 -->
<g id="node1" class="node"><title>element0</title>
<path fill="#ebebe0" stroke="black" d="M12.5,-0C12.5,-0 77.5,-0 77.5,-0 83.5,-0 89.5,-6 89.5,-12 89.5,-12 89.5,-80 89.5,-80 89.5,-86 83.5,-92 77.5,-92 77.5,-92 12.5,-92 12.5,-92 6.5,-92 0.5,-86 0.5,-80 0.5,-80 0.5,-12 0.5,-12 0.5,-6 6.5,-0 12.5,-0"/>
<text text-anchor="middle" x="45" y="-76.8" font-family="Times,serif" font-size="14.00">idx = [0]</text>
<polyline fill="none" stroke="black" points="0.5,-69 89.5,-69 "/>
<text text-anchor="middle" x="45" y="-53.8" font-family="Times,serif" font-size="14.00">data = [0]</text>
<polyline fill="none" stroke="black" points="0.5,-46 89.5,-46 "/>
<text text-anchor="middle" x="45" y="-30.8" font-family="Times,serif" font-size="14.00">prev = [1]</text>
<polyline fill="none" stroke="black" points="0.5,-23 89.5,-23 "/>
<text text-anchor="middle" x="45" y="-7.8" font-family="Times,serif" font-size="14.00">next = [1]</text>
</g>
<!-- element1 -->
<g id="node2" class="node"><title>element1</title>
<path fill="#cc99ff" stroke="black" d="M138.5,-0C138.5,-0 203.5,-0 203.5,-0 209.5,-0 215.5,-6 215.5,-12 215.5,-12 215.5,-80 215.5,-80 215.5,-86 209.5,-92 203.5,-92 203.5,-92 138.5,-92 138.5,-92 132.5,-92 126.5,-86 126.5,-80 126.5,-80 126.5,-12 126.5,-12 126.5,-6 132.5,-0 138.5,-0"/>
<text text-anchor="middle" x="171" y="-76.8" font-family="Times,serif" font-size="14.00">idx = [1]</text>
<polyline fill="none" stroke="black" points="126.5,-69 215.5,-69 "/>
<text text-anchor="middle" x="171" y="-53.8" font-family="Times,serif" font-size="14.00">data = [0]</text>
<polyline fill="none" stroke="black" points="126.5,-46 215.5,-46 "/>
<text text-anchor="middle" x="171" y="-30.8" font-family="Times,serif" font-size="14.00">prev = [0]</text>
<polyline fill="none" stroke="black" points="126.5,-23 215.5,-23 "/>
<text text-anchor="middle" x="171" y="-7.8" font-family="Times,serif" font-size="14.00">next = [0]</text>
</g>
<!-- element0&#45;&gt;element1 -->
<g id="edge1" class="edge"><title>element0&#45;&gt;element1</title>
<path fill="none" stroke="none" d="M89.7777,-22.875C89.7777,-22.875 116.367,-22.875 116.367,-22.875"/>
<polygon fill="none" stroke="none" points="116.367,-26.3751 126.367,-22.875 116.366,-19.3751 116.367,-26.3751"/>
</g>
<!-- element0&#45;&gt;element1 -->
<g id="edge11" class="edge"><title>element0&#45;&gt;element1</title>
<path fill="none" stroke="black" d="M99.7777,-46C99.7777,-46 116.367,-46 116.367,-46"/>
<polygon fill="black" stroke="black" points="116.367,-49.5 126.367,-46 116.367,-42.5 116.367,-49.5"/>
<polygon fill="black" stroke="black" points="99.7777,-42.5 89.7777,-46 99.7776,-49.5 99.7777,-42.5"/>
</g>
<!-- element2 -->
<g id="node3" class="node"><title>element2</title>
<path fill="#33cc33" stroke="black" d="M264.5,-0C264.5,-0 351.5,-0 351.5,-0 357.5,-0 363.5,-6 363.5,-12 363.5,-12 363.5,-80 363.5,-80 363.5,-86 357.5,-92 351.5,-92 351.5,-92 264.5,-92 264.5,-92 258.5,-92 252.5,-86 252.5,-80 252.5,-80 252.5,-12 252.5,-12 252.5,-6 258.5,-0 264.5,-0"/>
<text text-anchor="middle" x="308" y="-76.8" font-family="Times,serif" font-size="14.00">idx = [2]</text>
<polyline fill="none" stroke="black" points="252.5,-69 363.5,-69 "/>
<text text-anchor="middle" x="308" y="-53.8" font-family="Times,serif" font-size="14.00">data = [&#45;666]</text>
<polyline fill="none" stroke="black" points="252.5,-46 363.5,-46 "/>
<text text-anchor="middle" x="308" y="-30.8" font-family="Times,serif" font-size="14.00">prev = [&#45;1]</text>
<polyline fill="none" stroke="black" points="252.5,-23 363.5,-23 "/>
<text text-anchor="middle" x="308" y="-7.8" font-family="Times,serif" font-size="14.00">next = [3]</text>
</g>
<!-- element1&#45;&gt;element2 -->
<g id="edge2" class="edge"><title>element1&#45;&gt;element2</title>
<path fill="none" stroke="none" d="M215.859,-46C215.859,-46 242.017,-46 242.017,-46"/>
<polygon fill="none" stroke="none" points="242.018,-49.5001 252.017,-46 242.017,-42.5001 242.018,-49.5001"/>
</g>
<!-- element1&#45;&gt;element0 -->
<g id="edge12" class="edge"><title>element1&#45;&gt;element0</title>
<path fill="none" stroke="black" d="M116.222,-69.125C116.222,-69.125 99.6335,-69.125 99.6335,-69.125"/>
<polygon fill="black" stroke="black" points="99.6335,-65.625 89.6335,-69.125 99.6335,-72.625 99.6335,-65.625"/>
<polygon fill="black" stroke="black" points="116.222,-72.625 126.222,-69.125 116.222,-65.625 116.222,-72.625"/>
</g>
<!-- element3 -->
<g id="node4" class="node"><title>element3</title>
<path fill="#99ff66" stroke="black" d="M412.5,-0C412.5,-0 499.5,-0 499.5,-0 505.5,-0 511.5,-6 511.5,-12 511.5,-12 511.5,-80 511.5,-80 511.5,-86 505.5,-92 499.5,-92 499.5,-92 412.5,-92 412.5,-92 406.5,-92 400.5,-86 400.5,-80 400.5,-80 400.5,-12 400.5,-12 400.5,-6 406.5,-0 412.5,-0"/>
<text text-anchor="middle" x="456" y="-76.8" font-family="Times,serif" font-size="14.00">idx = [3]</text>
<polyline fill="none" stroke="black" points="400.5,-69 511.5,-69 "/>
<text text-anchor="middle" x="456" y="-53.8" font-family="Times,serif" font-size="14.00">data = [&#45;666]</text>
<polyline fill="none" stroke="black" points="400.5,-46 511.5,-46 "/>
<text text-anchor="middle" x="456" y="-30.8" font-family="Times,serif" font-size="14.00">prev = [&#45;1]</text>
<polyline fill="none" stroke="black" points="400.5,-23 511.5,-23 "/>
<text text-anchor="middle" x="456" y="-7.8" font-family="Times,serif" font-size="14.00">next = [4]</text>
</g>
<!-- element2&#45;&gt;element3 -->
<g id="edge3" class="edge"><title>element2&#45;&gt;element3</title>
<path fill="none" stroke="none" d="M363.531,-30.5833C363.531,-30.5833 390.158,-30.5833 390.158,-30.5833"/>
<polygon fill="none" stroke="none" points="390.158,-34.0834 400.158,-30.5833 390.158,-27.0834 390.158,-34.0834"/>
</g>
<!-- element2&#45;&gt;element3 -->
<g id="edge13" class="edge"><title>element2&#45;&gt;element3</title>
<path fill="none" stroke="green" d="M363.531,-61.4167C363.531,-61.4167 390.158,-61.4167 390.158,-61.4167"/>
<polygon fill="green" stroke="green" points="390.158,-64.9168 400.158,-61.4167 390.158,-57.9168 390.158,-64.9168"/>
</g>
<!-- element4 -->
<g id="node5" class="node"><title>element4</title>
<path fill="#99ff66" stroke="black" d="M560.5,-0C560.5,-0 647.5,-0 647.5,-0 653.5,-0 659.5,-6 659.5,-12 659.5,-12 659.5,-80 659.5,-80 659.5,-86 653.5,-92 647.5,-92 647.5,-92 560.5,-92 560.5,-92 554.5,-92 548.5,-86 548.5,-80 548.5,-80 548.5,-12 548.5,-12 548.5,-6 554.5,-0 560.5,-0"/>
<text text-anchor="middle" x="604" y="-76.8" font-family="Times,serif" font-size="14.00">idx = [4]</text>
<polyline fill="none" stroke="black" points="548.5,-69 659.5,-69 "/>
<text text-anchor="middle" x="604" y="-53.8" font-family="Times,serif" font-size="14.00">data = [&#45;666]</text>
<polyline fill="none" stroke="black" points="548.5,-46 659.5,-46 "/>
<text text-anchor="middle" x="604" y="-30.8" font-family="Times,serif" font-size="14.00">prev = [&#45;1]</text>
<polyline fill="none" stroke="black" points="548.5,-23 659.5,-23 "/>
<text text-anchor="middle" x="604" y="-7.8" font-family="Times,serif" font-size="14.00">next = [5]</text>
</g>
<!-- element3&#45;&gt;element4 -->
<g id="edge4" class="edge"><title>element3&#45;&gt;element4</title>
<path fill="none" stroke="none" d="M511.531,-30.5833C511.531,-30.5833 538.158,-30.5833 538.158,-30.5833"/>
<polygon fill="none" stroke="none" points="538.158,-34.0834 548.158,-30.5833 538.158,-27.0834 538.158,-34.0834"/>
</g>
<!-- element3&#45;&gt;element4 -->
<g id="edge14" class="edge"><title>element3&#45;&gt;element4</title>
<path fill="none" stroke="green" d="M511.531,-61.4167C511.531,-61.4167 538.158,-61.4167 538.158,-61.4167"/>
<polygon fill="green" stroke="green" points="538.158,-64.9168 548.158,-61.4167 538.158,-57.9168 538.158,-64.9168"/>
</g>
<!-- element5 -->
<g id="node6" class="node"><title>element5</title>
<path fill="#99ff66" stroke="black" d="M708.5,-0C708.5,-0 795.5,-0 795.5,-0 801.5,-0 807.5,-6 807.5,-12 807.5,-12 807.5,-80 807.5,-80 807.5,-86 801.5,-92 795.5,-92 795.5,-92 708.5,-92 708.5,-92 702.5,-92 696.5,-86 696.5,-80 696.5,-80 696.5,-12 696.5,-12 696.5,-6 702.5,-0 708.5,-0"/>
<text text-anchor="middle" x="752" y="-76.8" font-family="Times,serif" font-size="14.00">idx = [5]</text>
<polyline fill="none" stroke="black" points="696.5,-69 807.5,-69 "/>
<text text-anchor="middle" x="752" y="-53.8" font-family="Times,serif" font-size="14.00">data = [&#45;666]</text>
<polyline fill="none" stroke="black" points="696.5,-46 807.5,-46 "/>
<text text-anchor="middle" x="752" y="-30.8" font-family="Times,serif" font-size="14.00">prev = [&#45;1]</text>
<polyline fill="none" stroke="black" points="696.5,-23 807.5,-23 "/>
<text text-anchor="middle" x="752" y="-7.8" font-family="Times,serif" font-size="14.00">next = [6]</text>
</g>
<!-- element4&#45;&gt;element5 -->
<g id="edge5" class="edge"><title>element4&#45;&gt;element5</title>
<path fill="none" stroke="none" d="M659.531,-30.5833C659.531,-30.5833 686.158,-30.5833 686.158,-30.5833"/>
<polygon fill="none" stroke="none" points="686.158,-34.0834 696.158,-30.5833 686.158,-27.0834 686.158,-34.0834"/>
</g>
<!-- element4&#45;&gt;element5 -->
<g id="edge15" class="edge"><title>element4&#45;&gt;element5</title>
<path fill="none" stroke="green" d="M659.531,-61.4167C659.531,-61.4167 686.158,-61.4167 686.158,-61.4167"/>
<polygon fill="green" stroke="green" points="686.158,-64.9168 696.158,-61.4167 686.158,-57.9168 686.158,-64.9168"/>
</g>
<!-- element6 -->
<g id="node7" class="node"><title>element6</title>
<path fill="#99ff66" stroke="black" d="M856.5,-0C856.5,-0 943.5,-0 943.5,-0 949.5,-0 955.5,-6 955.5,-12 955.5,-12 955.5,-80 955.5,-80 955.5,-86 949.5,-92 943.5,-92 943.5,-92 856.5,-92 856.5,-92 850.5,-92 844.5,-86 844.5,-80 844.5,-80 844.5,-12 844.5,-12 844.5,-6 850.5,-0 856.5,-0"/>
<text text-anchor="middle" x="900" y="-76.8" font-family="Times,serif" font-size="14.00">idx = [6]</text>
<polyline fill="none" stroke="black" points="844.5,-69 955.5,-69 "/>
<text text-anchor="middle" x="900" y="-53.8" font-family="Times,serif" font-size="14.00">data = [&#45;666]</text>
<polyline fill="none" stroke="black" points="844.5,-46 955.5,-46 "/>
<text text-anchor="middle" x="900" y="-30.8" font-family="Times,serif" font-size="14.00">prev = [&#45;1]</text>
<polyline fill="none" stroke="black" points="844.5,-23 955.5,-23 "/>
<text text-anchor="middle" x="900" y="-7.8" font-family="Times,serif" font-size="14.00">next = [7]</text>
</g>
<!-- element5&#45;&gt;element6 -->
<g id="edge6" class="edge"><title>element5&#45;&gt;element6</title>
<path fill="none" stroke="none" d="M807.531,-30.5833C807.531,-30.5833 834.158,-30.5833 834.158,-30.5833"/>
<polygon fill="none" stroke="none" points="834.158,-34.0834 844.158,-30.5833 834.158,-27.0834 834.158,-34.0834"/>
</g>
<!-- element5&#45;&gt;element6 -->
<g id="edge16" class="edge"><title>element5&#45;&gt;element6</title>
<path fill="none" stroke="green" d="M807.531,-61.4167C807.531,-61.4167 834.158,-61.4167 834.158,-61.4167"/>
<polygon fill="green" stroke="green" points="834.158,-64.9168 844.158,-61.4167 834.158,-57.9168 834.158,-64.9168"/>
</g>
<!-- element7 -->
<g id="node8" class="node"><title>element7</title>
<path fill="#99ff66" stroke="black" d="M1004.5,-0C1004.5,-0 1091.5,-0 1091.5,-0 1097.5,-0 1103.5,-6 1103.5,-12 1103.5,-12 1103.5,-80 1103.5,-80 1103.5,-86 1097.5,-92 1091.5,-92 1091.5,-92 1004.5,-92 1004.5,-92 998.5,-92 992.5,-86 992.5,-80 992.5,-80 992.5,-12 992.5,-12 992.5,-6 998.5,-0 1004.5,-0"/>
<text text-anchor="middle" x="1048" y="-76.8" font-family="Times,serif" font-size="14.00">idx = [7]</text>
<polyline fill="none" stroke="black" points="992.5,-69 1103.5,-69 "/>
<text text-anchor="middle" x="1048" y="-53.8" font-family="Times,serif" font-size="14.00">data = [&#45;666]</text>
<polyline fill="none" stroke="black" points="992.5,-46 1103.5,-46 "/>
<text text-anchor="middle" x="1048" y="-30.8" font-family="Times,serif" font-size="14.00">prev = [&#45;1]</text>
<polyline fill="none" stroke="black" points="992.5,-23 1103.5,-23 "/>
<text text-anchor="middle" x="1048" y="-7.8" font-family="Times,serif" font-size="14.00">next = [8]</text>
</g>
<!-- element6&#45;&gt;element7 -->
<g id="edge7" class="edge"><title>element6&#45;&gt;element7</title>
<path fill="none" stroke="none" d="M955.531,-30.5833C955.531,-30.5833 982.158,-30.5833 982.158,-30.5833"/>
<polygon fill="none" stroke="none" points="982.158,-34.0834 992.158,-30.5833 982.158,-27.0834 982.158,-34.0834"/>
</g>
<!-- element6&#45;&gt;element7 -->
<g id="edge17" class="edge"><title>element6&#45;&gt;element7</title>
<path fill="none" stroke="green" d="M955.531,-61.4167C955.531,-61.4167 982.158,-61.4167 982.158,-61.4167"/>
<polygon fill="green" stroke="green" points="982.158,-64.9168 992.158,-61.4167 982.158,-57.9168 982.158,-64.9168"/>
</g>
<!-- element8 -->
<g id="node9" class="node"><title>element8</title>
<path fill="#99ff66" stroke="black" d="M1152.5,-0C1152.5,-0 1239.5,-0 1239.5,-0 1245.5,-0 1251.5,-6 1251.5,-12 1251.5,-12 1251.5,-80 1251.5,-80 1251.5,-86 1245.5,-92 1239.5,-92 1239.5,-92 1152.5,-92 1152.5,-92 1146.5,-92 1140.5,-86 1140.5,-80 1140.5,-80 1140.5,-12 1140.5,-12 1140.5,-6 1146.5,-0 1152.5,-0"/>
<text text-anchor="middle" x="1196" y="-76.8" font-family="Times,serif" font-size="14.00">idx = [8]</text>
<polyline fill="none" stroke="black" points="1140.5,-69 1251.5,-69 "/>
<text text-anchor="middle" x="1196" y="-53.8" font-family="Times,serif" font-size="14.00">data = [&#45;666]</text>
<polyline fill="none" stroke="black" points="1140.5,-46 1251.5,-46 "/>
<text text-anchor="middle" x="1196" y="-30.8" font-family="Times,serif" font-size="14.00">prev = [&#45;1]</text>
<polyline fill="none" stroke="black" points="1140.5,-23 1251.5,-23 "/>
<text text-anchor="middle" x="1196" y="-7.8" font-family="Times,serif" font-size="14.00">next = [9]</text>
</g>
<!-- element7&#45;&gt;element8 -->
<g id="edge8" class="edge"><title>element7&#45;&gt;element8</title>
<path fill="none" stroke="none" d="M1103.53,-30.5833C1103.53,-30.5833 1130.16,-30.5833 1130.16,-30.5833"/>
<polygon fill="none" stroke="none" points="1130.16,-34.0834 1140.16,-30.5833 1130.16,-27.0834 1130.16,-34.0834"/>
</g>
<!-- element7&#45;&gt;element8 -->
<g id="edge18" class="edge"><title>element7&#45;&gt;element8</title>
<path fill="none" stroke="green" d="M1103.53,-61.4167C1103.53,-61.4167 1130.16,-61.4167 1130.16,-61.4167"/>
<polygon fill="green" stroke="green" points="1130.16,-64.9168 1140.16,-61.4167 1130.16,-57.9168 1130.16,-64.9168"/>
</g>
<!-- element9 -->
<g id="node10" class="node"><title>element9</title>
<path fill="#99ff66" stroke="black" d="M1300.5,-0C1300.5,-0 1387.5,-0 1387.5,-0 1393.5,-0 1399.5,-6 1399.5,-12 1399.5,-12 1399.5,-80 1399.5,-80 1399.5,-86 1393.5,-92 1387.5,-92 1387.5,-92 1300.5,-92 1300.5,-92 1294.5,-92 1288.5,-86 1288.5,-80 1288.5,-80 1288.5,-12 1288.5,-12 1288.5,-6 1294.5,-0 1300.5,-0"/>
<text text-anchor="middle" x="1344" y="-76.8" font-family="Times,serif" font-size="14.00">idx = [9]</text>
<polyline fill="none" stroke="black" points="1288.5,-69 1399.5,-69 "/>
<text text-anchor="middle" x="1344" y="-53.8" font-family="Times,serif" font-size="14.00">data = [&#45;666]</text>
<polyline fill="none" stroke="black" points="1288.5,-46 1399.5,-46 "/>
<text text-anchor="middle" x="1344" y="-30.8" font-family="Times,serif" font-size="14.00">prev = [&#45;1]</text>
<polyline fill="none" stroke="black" points="1288.5,-23 1399.5,-23 "/>
<text text-anchor="middle" x="1344" y="-7.8" font-family="Times,serif" font-size="14.00">next = [10]</text>
</g>
<!-- element8&#45;&gt;element9 -->
<g id="edge9" class="edge"><title>element8&#45;&gt;element9</title>
<path fill="none" stroke="none" d="M1251.53,-30.5833C1251.53,-30.5833 1278.16,-30.5833 1278.16,-30.5833"/>
<polygon fill="none" stroke="none" points="1278.16,-34.0834 1288.16,-30.5833 1278.16,-27.0834 1278.16,-34.0834"/>
</g>
<!-- element8&#45;&gt;element9 -->
<g id="edge19" class="edge"><title>element8&#45;&gt;element9</title>
<path fill="none" stroke="green" d="M1251.53,-61.4167C1251.53,-61.4167 1278.16,-61.4167 1278.16,-61.4167"/>
<polygon fill="green" stroke="green" points="1278.16,-64.9168 1288.16,-61.4167 1278.16,-57.9168 1278.16,-64.9168"/>
</g>
<!-- element10 -->
<g id="node11" class="node"><title>element10</title>
<path fill="#99ff66" stroke="black" d="M1448.5,-0C1448.5,-0 1535.5,-0 1535.5,-0 1541.5,-0 1547.5,-6 1547.5,-12 1547.5,-12 1547.5,-80 1547.5,-80 1547.5,-86 1541.5,-92 1535.5,-92 1535.5,-92 1448.5,-92 1448.5,-92 1442.5,-92 1436.5,-86 1436.5,-80 1436.5,-80 1436.5,-12 1436.5,-12 1436.5,-6 1442.5,-0 1448.5,-0"/>
<text text-anchor="middle" x="1492" y="-76.8" font-family="Times,serif" font-size="14.00">idx = [10]</text>
<polyline fill="none" stroke="black" points="1436.5,-69 1547.5,-69 "/>
<text text-anchor="middle" x="1492" y="-53.8" font-family="Times,serif" font-size="14.00">data = [&#45;666]</text>
<polyline fill="none" stroke="black" points="1436.5,-46 1547.5,-46 "/>
<text text-anchor="middle" x="1492" y="-30.8" font-family="Times,serif" font-size="14.00">prev = [&#45;1]</text>
<polyline fill="none" stroke="black" points="1436.5,-23 1547.5,-23 "/>
<text text-anchor="middle" x="1492" y="-7.8" font-family="Times,serif" font-size="14.00">next = [0]</text>
</g>
<!-- element9&#45;&gt;element10 -->
<g id="edge10" class="edge"><title>element9&#45;&gt;element10</title>
<path fill="none" stroke="none" d="M1399.53,-30.5833C1399.53,-30.5833 1426.16,-30.5833 1426.16,-30.5833"/>
<polygon fill="none" stroke="none" points="1426.16,-34.0834 1436.16,-30.5833 1426.16,-27.0834 1426.16,-34.0834"/>
</g>
<!-- element9&#45;&gt;element10 -->
<g id="edge20" class="edge"><title>element9&#45;&gt;element10</title>
<path fill="none" stroke="green" d="M1399.53,-61.4167C1399.53,-61.4167 1426.16,-61.4167 1426.16,-61.4167"/>
<polygon fill="green" stroke="green" points="1426.16,-64.9168 1436.16,-61.4167 1426.16,-57.9168 1426.16,-64.9168"/>
</g>
</g>
</svg>
