<?xml version="1.0" encoding="UTF-8" standalone="no"?>
<!DOCTYPE svg PUBLIC "-//W3C//DTD SVG 1.1//EN"
 "http://www.w3.org/Graphics/SVG/1.1/DTD/svg11.dtd">
<!-- Generated by graphviz version 2.30.1 (20201013.1554)
 -->
<!-- Title: G Pages: 1 -->
<svg width="1552pt" height="118pt"
 viewBox="0.00 0.00 1552.00 118.25" xmlns="http://www.w3.org/2000/svg" xmlns:xlink="http://www.w3.org/1999/xlink">
<g id="graph0" class="graph" transform="scale(1 1) rotate(0) translate(4 114.25)">
<title>G</title>
<polygon fill="white" stroke="white" points="-4,5 -4,-114.25 1549,-114.25 1549,5 -4,5"/>
<!-- element0 -->
<g id="node1" class="node"><title>element0</title>
<path fill="#ebebe0" stroke="black" d="M12.5,-18.25C12.5,-18.25 77.5,-18.25 77.5,-18.25 83.5,-18.25 89.5,-24.25 89.5,-30.25 89.5,-30.25 89.5,-98.25 89.5,-98.25 89.5,-104.25 83.5,-110.25 77.5,-110.25 77.5,-110.25 12.5,-110.25 12.5,-110.25 6.5,-110.25 0.5,-104.25 0.5,-98.25 0.5,-98.25 0.5,-30.25 0.5,-30.25 0.5,-24.25 6.5,-18.25 12.5,-18.25"/>
<text text-anchor="middle" x="45" y="-95.05" font-family="Times,serif" font-size="14.00">idx = [0]</text>
<polyline fill="none" stroke="black" points="0.5,-87.25 89.5,-87.25 "/>
<text text-anchor="middle" x="45" y="-72.05" font-family="Times,serif" font-size="14.00">data = [0]</text>
<polyline fill="none" stroke="black" points="0.5,-64.25 89.5,-64.25 "/>
<text text-anchor="middle" x="45" y="-49.05" font-family="Times,serif" font-size="14.00">prev = [2]</text>
<polyline fill="none" stroke="black" points="0.5,-41.25 89.5,-41.25 "/>
<text text-anchor="middle" x="45" y="-26.05" font-family="Times,serif" font-size="14.00">next = [1]</text>
</g>
<!-- element1 -->
<g id="node2" class="node"><title>element1</title>
<path fill="#cc99ff" stroke="black" d="M138.5,-18.25C138.5,-18.25 203.5,-18.25 203.5,-18.25 209.5,-18.25 215.5,-24.25 215.5,-30.25 215.5,-30.25 215.5,-98.25 215.5,-98.25 215.5,-104.25 209.5,-110.25 203.5,-110.25 203.5,-110.25 138.5,-110.25 138.5,-110.25 132.5,-110.25 126.5,-104.25 126.5,-98.25 126.5,-98.25 126.5,-30.25 126.5,-30.25 126.5,-24.25 132.5,-18.25 138.5,-18.25"/>
<text text-anchor="middle" x="171" y="-95.05" font-family="Times,serif" font-size="14.00">idx = [1]</text>
<polyline fill="none" stroke="black" points="126.5,-87.25 215.5,-87.25 "/>
<text text-anchor="middle" x="171" y="-72.05" font-family="Times,serif" font-size="14.00">data = [0]</text>
<polyline fill="none" stroke="black" points="126.5,-64.25 215.5,-64.25 "/>
<text text-anchor="middle" x="171" y="-49.05" font-family="Times,serif" font-size="14.00">prev = [0]</text>
<polyline fill="none" stroke="black" points="126.5,-41.25 215.5,-41.25 "/>
<text text-anchor="middle" x="171" y="-26.05" font-family="Times,serif" font-size="14.00">next = [2]</text>
</g>
<!-- element0&#45;&gt;element1 -->
<g id="edge1" class="edge"><title>element0&#45;&gt;element1</title>
<path fill="none" stroke="none" d="M89.7777,-48.8333C89.7777,-48.8333 116.367,-48.8333 116.367,-48.8333"/>
<polygon fill="none" stroke="none" points="116.367,-52.3334 126.367,-48.8333 116.366,-45.3334 116.367,-52.3334"/>
</g>
<!-- element0&#45;&gt;element1 -->
<g id="edge11" class="edge"><title>element0&#45;&gt;element1</title>
<path fill="none" stroke="black" d="M99.7777,-79.6667C99.7777,-79.6667 116.367,-79.6667 116.367,-79.6667"/>
<polygon fill="black" stroke="black" points="116.367,-83.1667 126.367,-79.6667 116.367,-76.1667 116.367,-83.1667"/>
<polygon fill="black" stroke="black" points="99.7777,-76.1667 89.7777,-79.6667 99.7776,-83.1667 99.7777,-76.1667"/>
</g>
<!-- element2 -->
<g id="node3" class="node"><title>element2</title>
<path fill="#66ccff" stroke="black" d="M264.5,-18.25C264.5,-18.25 347.5,-18.25 347.5,-18.25 353.5,-18.25 359.5,-24.25 359.5,-30.25 359.5,-30.25 359.5,-98.25 359.5,-98.25 359.5,-104.25 353.5,-110.25 347.5,-110.25 347.5,-110.25 264.5,-110.25 264.5,-110.25 258.5,-110.25 252.5,-104.25 252.5,-98.25 252.5,-98.25 252.5,-30.25 252.5,-30.25 252.5,-24.25 258.5,-18.25 264.5,-18.25"/>
<text text-anchor="middle" x="306" y="-95.05" font-family="Times,serif" font-size="14.00">idx = [2]</text>
<polyline fill="none" stroke="black" points="252.5,-87.25 359.5,-87.25 "/>
<text text-anchor="middle" x="306" y="-72.05" font-family="Times,serif" font-size="14.00">data = [101]</text>
<polyline fill="none" stroke="black" points="252.5,-64.25 359.5,-64.25 "/>
<text text-anchor="middle" x="306" y="-49.05" font-family="Times,serif" font-size="14.00">prev = [1]</text>
<polyline fill="none" stroke="black" points="252.5,-41.25 359.5,-41.25 "/>
<text text-anchor="middle" x="306" y="-26.05" font-family="Times,serif" font-size="14.00">next = [0]</text>
</g>
<!-- element1&#45;&gt;element2 -->
<g id="edge2" class="edge"><title>element1&#45;&gt;element2</title>
<path fill="none" stroke="none" d="M215.578,-48.8333C215.578,-48.8333 242.068,-48.8333 242.068,-48.8333"/>
<polygon fill="none" stroke="none" points="242.069,-52.3334 252.068,-48.8333 242.068,-45.3334 242.069,-52.3334"/>
</g>
<!-- element1&#45;&gt;element2 -->
<g id="edge12" class="edge"><title>element1&#45;&gt;element2</title>
<path fill="none" stroke="black" d="M225.578,-79.6667C225.578,-79.6667 242.068,-79.6667 242.068,-79.6667"/>
<polygon fill="black" stroke="black" points="242.068,-83.1667 252.068,-79.6667 242.068,-76.1667 242.068,-83.1667"/>
<polygon fill="black" stroke="black" points="225.578,-76.1667 215.578,-79.6667 225.578,-83.1667 225.578,-76.1667"/>
</g>
<!-- element3 -->
<g id="node4" class="node"><title>element3</title>
<path fill="#33cc33" stroke="black" d="M408.5,-18.25C408.5,-18.25 495.5,-18.25 495.5,-18.25 501.5,-18.25 507.5,-24.25 507.5,-30.25 507.5,-30.25 507.5,-98.25 507.5,-98.25 507.5,-104.25 501.5,-110.25 495.5,-110.25 495.5,-110.25 408.5,-110.25 408.5,-110.25 402.5,-110.25 396.5,-104.25 396.5,-98.25 396.5,-98.25 396.5,-30.25 396.5,-30.25 396.5,-24.25 402.5,-18.25 408.5,-18.25"/>
<text text-anchor="middle" x="452" y="-95.05" font-family="Times,serif" font-size="14.00">idx = [3]</text>
<polyline fill="none" stroke="black" points="396.5,-87.25 507.5,-87.25 "/>
<text text-anchor="middle" x="452" y="-72.05" font-family="Times,serif" font-size="14.00">data = [&#45;666]</text>
<polyline fill="none" stroke="black" points="396.5,-64.25 507.5,-64.25 "/>
<text text-anchor="middle" x="452" y="-49.05" font-family="Times,serif" font-size="14.00">prev = [&#45;1]</text>
<polyline fill="none" stroke="black" points="396.5,-41.25 507.5,-41.25 "/>
<text text-anchor="middle" x="452" y="-26.05" font-family="Times,serif" font-size="14.00">next = [4]</text>
</g>
<!-- element2&#45;&gt;element3 -->
<g id="edge3" class="edge"><title>element2&#45;&gt;element3</title>
<path fill="none" stroke="none" d="M359.536,-64.25C359.536,-64.25 386.019,-64.25 386.019,-64.25"/>
<polygon fill="none" stroke="none" points="386.019,-67.7501 396.019,-64.25 386.019,-60.7501 386.019,-67.7501"/>
</g>
<!-- element2&#45;&gt;element0 -->
<g id="edge13" class="edge"><title>element2&#45;&gt;element0</title>
<path fill="none" stroke="black" d="M306,-8.23961C306,-8.23961 306,-0 306,-0 306,-0 45,-0 45,-0 45,-0 45,-8.23961 45,-8.23961"/>
<polygon fill="black" stroke="black" points="302.5,-8.23958 306,-18.2396 309.5,-8.23965 302.5,-8.23958"/>
<polygon fill="black" stroke="black" points="41.5001,-8.23958 45,-18.2396 48.5001,-8.23965 41.5001,-8.23958"/>
</g>
<!-- element4 -->
<g id="node5" class="node"><title>element4</title>
<path fill="#99ff66" stroke="black" d="M556.5,-18.25C556.5,-18.25 643.5,-18.25 643.5,-18.25 649.5,-18.25 655.5,-24.25 655.5,-30.25 655.5,-30.25 655.5,-98.25 655.5,-98.25 655.5,-104.25 649.5,-110.25 643.5,-110.25 643.5,-110.25 556.5,-110.25 556.5,-110.25 550.5,-110.25 544.5,-104.25 544.5,-98.25 544.5,-98.25 544.5,-30.25 544.5,-30.25 544.5,-24.25 550.5,-18.25 556.5,-18.25"/>
<text text-anchor="middle" x="600" y="-95.05" font-family="Times,serif" font-size="14.00">idx = [4]</text>
<polyline fill="none" stroke="black" points="544.5,-87.25 655.5,-87.25 "/>
<text text-anchor="middle" x="600" y="-72.05" font-family="Times,serif" font-size="14.00">data = [&#45;666]</text>
<polyline fill="none" stroke="black" points="544.5,-64.25 655.5,-64.25 "/>
<text text-anchor="middle" x="600" y="-49.05" font-family="Times,serif" font-size="14.00">prev = [&#45;1]</text>
<polyline fill="none" stroke="black" points="544.5,-41.25 655.5,-41.25 "/>
<text text-anchor="middle" x="600" y="-26.05" font-family="Times,serif" font-size="14.00">next = [5]</text>
</g>
<!-- element3&#45;&gt;element4 -->
<g id="edge4" class="edge"><title>element3&#45;&gt;element4</title>
<path fill="none" stroke="none" d="M507.531,-48.8333C507.531,-48.8333 534.158,-48.8333 534.158,-48.8333"/>
<polygon fill="none" stroke="none" points="534.158,-52.3334 544.158,-48.8333 534.158,-45.3334 534.158,-52.3334"/>
</g>
<!-- element3&#45;&gt;element4 -->
<g id="edge14" class="edge"><title>element3&#45;&gt;element4</title>
<path fill="none" stroke="green" d="M507.531,-79.6667C507.531,-79.6667 534.158,-79.6667 534.158,-79.6667"/>
<polygon fill="green" stroke="green" points="534.158,-83.1668 544.158,-79.6667 534.158,-76.1668 534.158,-83.1668"/>
</g>
<!-- element5 -->
<g id="node6" class="node"><title>element5</title>
<path fill="#99ff66" stroke="black" d="M704.5,-18.25C704.5,-18.25 791.5,-18.25 791.5,-18.25 797.5,-18.25 803.5,-24.25 803.5,-30.25 803.5,-30.25 803.5,-98.25 803.5,-98.25 803.5,-104.25 797.5,-110.25 791.5,-110.25 791.5,-110.25 704.5,-110.25 704.5,-110.25 698.5,-110.25 692.5,-104.25 692.5,-98.25 692.5,-98.25 692.5,-30.25 692.5,-30.25 692.5,-24.25 698.5,-18.25 704.5,-18.25"/>
<text text-anchor="middle" x="748" y="-95.05" font-family="Times,serif" font-size="14.00">idx = [5]</text>
<polyline fill="none" stroke="black" points="692.5,-87.25 803.5,-87.25 "/>
<text text-anchor="middle" x="748" y="-72.05" font-family="Times,serif" font-size="14.00">data = [&#45;666]</text>
<polyline fill="none" stroke="black" points="692.5,-64.25 803.5,-64.25 "/>
<text text-anchor="middle" x="748" y="-49.05" font-family="Times,serif" font-size="14.00">prev = [&#45;1]</text>
<polyline fill="none" stroke="black" points="692.5,-41.25 803.5,-41.25 "/>
<text text-anchor="middle" x="748" y="-26.05" font-family="Times,serif" font-size="14.00">next = [6]</text>
</g>
<!-- element4&#45;&gt;element5 -->
<g id="edge5" class="edge"><title>element4&#45;&gt;element5</title>
<path fill="none" stroke="none" d="M655.531,-48.8333C655.531,-48.8333 682.158,-48.8333 682.158,-48.8333"/>
<polygon fill="none" stroke="none" points="682.158,-52.3334 692.158,-48.8333 682.158,-45.3334 682.158,-52.3334"/>
</g>
<!-- element4&#45;&gt;element5 -->
<g id="edge15" class="edge"><title>element4&#45;&gt;element5</title>
<path fill="none" stroke="green" d="M655.531,-79.6667C655.531,-79.6667 682.158,-79.6667 682.158,-79.6667"/>
<polygon fill="green" stroke="green" points="682.158,-83.1668 692.158,-79.6667 682.158,-76.1668 682.158,-83.1668"/>
</g>
<!-- element6 -->
<g id="node7" class="node"><title>element6</title>
<path fill="#99ff66" stroke="black" d="M852.5,-18.25C852.5,-18.25 939.5,-18.25 939.5,-18.25 945.5,-18.25 951.5,-24.25 951.5,-30.25 951.5,-30.25 951.5,-98.25 951.5,-98.25 951.5,-104.25 945.5,-110.25 939.5,-110.25 939.5,-110.25 852.5,-110.25 852.5,-110.25 846.5,-110.25 840.5,-104.25 840.5,-98.25 840.5,-98.25 840.5,-30.25 840.5,-30.25 840.5,-24.25 846.5,-18.25 852.5,-18.25"/>
<text text-anchor="middle" x="896" y="-95.05" font-family="Times,serif" font-size="14.00">idx = [6]</text>
<polyline fill="none" stroke="black" points="840.5,-87.25 951.5,-87.25 "/>
<text text-anchor="middle" x="896" y="-72.05" font-family="Times,serif" font-size="14.00">data = [&#45;666]</text>
<polyline fill="none" stroke="black" points="840.5,-64.25 951.5,-64.25 "/>
<text text-anchor="middle" x="896" y="-49.05" font-family="Times,serif" font-size="14.00">prev = [&#45;1]</text>
<polyline fill="none" stroke="black" points="840.5,-41.25 951.5,-41.25 "/>
<text text-anchor="middle" x="896" y="-26.05" font-family="Times,serif" font-size="14.00">next = [7]</text>
</g>
<!-- element5&#45;&gt;element6 -->
<g id="edge6" class="edge"><title>element5&#45;&gt;element6</title>
<path fill="none" stroke="none" d="M803.531,-48.8333C803.531,-48.8333 830.158,-48.8333 830.158,-48.8333"/>
<polygon fill="none" stroke="none" points="830.158,-52.3334 840.158,-48.8333 830.158,-45.3334 830.158,-52.3334"/>
</g>
<!-- element5&#45;&gt;element6 -->
<g id="edge16" class="edge"><title>element5&#45;&gt;element6</title>
<path fill="none" stroke="green" d="M803.531,-79.6667C803.531,-79.6667 830.158,-79.6667 830.158,-79.6667"/>
<polygon fill="green" stroke="green" points="830.158,-83.1668 840.158,-79.6667 830.158,-76.1668 830.158,-83.1668"/>
</g>
<!-- element7 -->
<g id="node8" class="node"><title>element7</title>
<path fill="#99ff66" stroke="black" d="M1000.5,-18.25C1000.5,-18.25 1087.5,-18.25 1087.5,-18.25 1093.5,-18.25 1099.5,-24.25 1099.5,-30.25 1099.5,-30.25 1099.5,-98.25 1099.5,-98.25 1099.5,-104.25 1093.5,-110.25 1087.5,-110.25 1087.5,-110.25 1000.5,-110.25 1000.5,-110.25 994.5,-110.25 988.5,-104.25 988.5,-98.25 988.5,-98.25 988.5,-30.25 988.5,-30.25 988.5,-24.25 994.5,-18.25 1000.5,-18.25"/>
<text text-anchor="middle" x="1044" y="-95.05" font-family="Times,serif" font-size="14.00">idx = [7]</text>
<polyline fill="none" stroke="black" points="988.5,-87.25 1099.5,-87.25 "/>
<text text-anchor="middle" x="1044" y="-72.05" font-family="Times,serif" font-size="14.00">data = [&#45;666]</text>
<polyline fill="none" stroke="black" points="988.5,-64.25 1099.5,-64.25 "/>
<text text-anchor="middle" x="1044" y="-49.05" font-family="Times,serif" font-size="14.00">prev = [&#45;1]</text>
<polyline fill="none" stroke="black" points="988.5,-41.25 1099.5,-41.25 "/>
<text text-anchor="middle" x="1044" y="-26.05" font-family="Times,serif" font-size="14.00">next = [8]</text>
</g>
<!-- element6&#45;&gt;element7 -->
<g id="edge7" class="edge"><title>element6&#45;&gt;element7</title>
<path fill="none" stroke="none" d="M951.531,-48.8333C951.531,-48.8333 978.158,-48.8333 978.158,-48.8333"/>
<polygon fill="none" stroke="none" points="978.158,-52.3334 988.158,-48.8333 978.158,-45.3334 978.158,-52.3334"/>
</g>
<!-- element6&#45;&gt;element7 -->
<g id="edge17" class="edge"><title>element6&#45;&gt;element7</title>
<path fill="none" stroke="green" d="M951.531,-79.6667C951.531,-79.6667 978.158,-79.6667 978.158,-79.6667"/>
<polygon fill="green" stroke="green" points="978.158,-83.1668 988.158,-79.6667 978.158,-76.1668 978.158,-83.1668"/>
</g>
<!-- element8 -->
<g id="node9" class="node"><title>element8</title>
<path fill="#99ff66" stroke="black" d="M1148.5,-18.25C1148.5,-18.25 1235.5,-18.25 1235.5,-18.25 1241.5,-18.25 1247.5,-24.25 1247.5,-30.25 1247.5,-30.25 1247.5,-98.25 1247.5,-98.25 1247.5,-104.25 1241.5,-110.25 1235.5,-110.25 1235.5,-110.25 1148.5,-110.25 1148.5,-110.25 1142.5,-110.25 1136.5,-104.25 1136.5,-98.25 1136.5,-98.25 1136.5,-30.25 1136.5,-30.25 1136.5,-24.25 1142.5,-18.25 1148.5,-18.25"/>
<text text-anchor="middle" x="1192" y="-95.05" font-family="Times,serif" font-size="14.00">idx = [8]</text>
<polyline fill="none" stroke="black" points="1136.5,-87.25 1247.5,-87.25 "/>
<text text-anchor="middle" x="1192" y="-72.05" font-family="Times,serif" font-size="14.00">data = [&#45;666]</text>
<polyline fill="none" stroke="black" points="1136.5,-64.25 1247.5,-64.25 "/>
<text text-anchor="middle" x="1192" y="-49.05" font-family="Times,serif" font-size="14.00">prev = [&#45;1]</text>
<polyline fill="none" stroke="black" points="1136.5,-41.25 1247.5,-41.25 "/>
<text text-anchor="middle" x="1192" y="-26.05" font-family="Times,serif" font-size="14.00">next = [9]</text>
</g>
<!-- element7&#45;&gt;element8 -->
<g id="edge8" class="edge"><title>element7&#45;&gt;element8</title>
<path fill="none" stroke="none" d="M1099.53,-48.8333C1099.53,-48.8333 1126.16,-48.8333 1126.16,-48.8333"/>
<polygon fill="none" stroke="none" points="1126.16,-52.3334 1136.16,-48.8333 1126.16,-45.3334 1126.16,-52.3334"/>
</g>
<!-- element7&#45;&gt;element8 -->
<g id="edge18" class="edge"><title>element7&#45;&gt;element8</title>
<path fill="none" stroke="green" d="M1099.53,-79.6667C1099.53,-79.6667 1126.16,-79.6667 1126.16,-79.6667"/>
<polygon fill="green" stroke="green" points="1126.16,-83.1668 1136.16,-79.6667 1126.16,-76.1668 1126.16,-83.1668"/>
</g>
<!-- element9 -->
<g id="node10" class="node"><title>element9</title>
<path fill="#99ff66" stroke="black" d="M1296.5,-18.25C1296.5,-18.25 1383.5,-18.25 1383.5,-18.25 1389.5,-18.25 1395.5,-24.25 1395.5,-30.25 1395.5,-30.25 1395.5,-98.25 1395.5,-98.25 1395.5,-104.25 1389.5,-110.25 1383.5,-110.25 1383.5,-110.25 1296.5,-110.25 1296.5,-110.25 1290.5,-110.25 1284.5,-104.25 1284.5,-98.25 1284.5,-98.25 1284.5,-30.25 1284.5,-30.25 1284.5,-24.25 1290.5,-18.25 1296.5,-18.25"/>
<text text-anchor="middle" x="1340" y="-95.05" font-family="Times,serif" font-size="14.00">idx = [9]</text>
<polyline fill="none" stroke="black" points="1284.5,-87.25 1395.5,-87.25 "/>
<text text-anchor="middle" x="1340" y="-72.05" font-family="Times,serif" font-size="14.00">data = [&#45;666]</text>
<polyline fill="none" stroke="black" points="1284.5,-64.25 1395.5,-64.25 "/>
<text text-anchor="middle" x="1340" y="-49.05" font-family="Times,serif" font-size="14.00">prev = [&#45;1]</text>
<polyline fill="none" stroke="black" points="1284.5,-41.25 1395.5,-41.25 "/>
<text text-anchor="middle" x="1340" y="-26.05" font-family="Times,serif" font-size="14.00">next = [10]</text>
</g>
<!-- element8&#45;&gt;element9 -->
<g id="edge9" class="edge"><title>element8&#45;&gt;element9</title>
<path fill="none" stroke="none" d="M1247.53,-48.8333C1247.53,-48.8333 1274.16,-48.8333 1274.16,-48.8333"/>
<polygon fill="none" stroke="none" points="1274.16,-52.3334 1284.16,-48.8333 1274.16,-45.3334 1274.16,-52.3334"/>
</g>
<!-- element8&#45;&gt;element9 -->
<g id="edge19" class="edge"><title>element8&#45;&gt;element9</title>
<path fill="none" stroke="green" d="M1247.53,-79.6667C1247.53,-79.6667 1274.16,-79.6667 1274.16,-79.6667"/>
<polygon fill="green" stroke="green" points="1274.16,-83.1668 1284.16,-79.6667 1274.16,-76.1668 1274.16,-83.1668"/>
</g>
<!-- element10 -->
<g id="node11" class="node"><title>element10</title>
<path fill="#99ff66" stroke="black" d="M1444.5,-18.25C1444.5,-18.25 1531.5,-18.25 1531.5,-18.25 1537.5,-18.25 1543.5,-24.25 1543.5,-30.25 1543.5,-30.25 1543.5,-98.25 1543.5,-98.25 1543.5,-104.25 1537.5,-110.25 1531.5,-110.25 1531.5,-110.25 1444.5,-110.25 1444.5,-110.25 1438.5,-110.25 1432.5,-104.25 1432.5,-98.25 1432.5,-98.25 1432.5,-30.25 1432.5,-30.25 1432.5,-24.25 1438.5,-18.25 1444.5,-18.25"/>
<text text-anchor="middle" x="1488" y="-95.05" font-family="Times,serif" font-size="14.00">idx = [10]</text>
<polyline fill="none" stroke="black" points="1432.5,-87.25 1543.5,-87.25 "/>
<text text-anchor="middle" x="1488" y="-72.05" font-family="Times,serif" font-size="14.00">data = [&#45;666]</text>
<polyline fill="none" stroke="black" points="1432.5,-64.25 1543.5,-64.25 "/>
<text text-anchor="middle" x="1488" y="-49.05" font-family="Times,serif" font-size="14.00">prev = [&#45;1]</text>
<polyline fill="none" stroke="black" points="1432.5,-41.25 1543.5,-41.25 "/>
<text text-anchor="middle" x="1488" y="-26.05" font-family="Times,serif" font-size="14.00">next = [0]</text>
</g>
<!-- element9&#45;&gt;element10 -->
<g id="edge10" class="edge"><title>element9&#45;&gt;element10</title>
<path fill="none" stroke="none" d="M1395.53,-48.8333C1395.53,-48.8333 1422.16,-48.8333 1422.16,-48.8333"/>
<polygon fill="none" stroke="none" points="1422.16,-52.3334 1432.16,-48.8333 1422.16,-45.3334 1422.16,-52.3334"/>
</g>
<!-- element9&#45;&gt;element10 -->
<g id="edge20" class="edge"><title>element9&#45;&gt;element10</title>
<path fill="none" stroke="green" d="M1395.53,-79.6667C1395.53,-79.6667 1422.16,-79.6667 1422.16,-79.6667"/>
<polygon fill="green" stroke="green" points="1422.16,-83.1668 1432.16,-79.6667 1422.16,-76.1668 1422.16,-83.1668"/>
</g>
</g>
</svg>
