<?xml version="1.0" encoding="UTF-8" standalone="no"?>
<!DOCTYPE svg PUBLIC "-//W3C//DTD SVG 1.1//EN"
 "http://www.w3.org/Graphics/SVG/1.1/DTD/svg11.dtd">
<!-- Generated by graphviz version 2.30.1 (20201013.1554)
 -->
<!-- Title: G Pages: 1 -->
<svg width="1548pt" height="118pt"
 viewBox="0.00 0.00 1548.00 118.25" xmlns="http://www.w3.org/2000/svg" xmlns:xlink="http://www.w3.org/1999/xlink">
<g id="graph0" class="graph" transform="scale(1 1) rotate(0) translate(4 114.25)">
<title>G</title>
<polygon fill="white" stroke="white" points="-4,5 -4,-114.25 1545,-114.25 1545,5 -4,5"/>
<!-- element0 -->
<g id="node1" class="node"><title>element0</title>
<path fill="#ebebe0" stroke="black" d="M12.5,-18.25C12.5,-18.25 77.5,-18.25 77.5,-18.25 83.5,-18.25 89.5,-24.25 89.5,-30.25 89.5,-30.25 89.5,-98.25 89.5,-98.25 89.5,-104.25 83.5,-110.25 77.5,-110.25 77.5,-110.25 12.5,-110.25 12.5,-110.25 6.5,-110.25 0.5,-104.25 0.5,-98.25 0.5,-98.25 0.5,-30.25 0.5,-30.25 0.5,-24.25 6.5,-18.25 12.5,-18.25"/>
<text text-anchor="middle" x="45" y="-95.05" font-family="Times,serif" font-size="14.00">idx = [0]</text>
<polyline fill="none" stroke="black" points="0.5,-87.25 89.5,-87.25 "/>
<text text-anchor="middle" x="45" y="-72.05" font-family="Times,serif" font-size="14.00">data = [0]</text>
<polyline fill="none" stroke="black" points="0.5,-64.25 89.5,-64.25 "/>
<text text-anchor="middle" x="45" y="-49.05" font-family="Times,serif" font-size="14.00">prev = [3]</text>
<polyline fill="none" stroke="black" points="0.5,-41.25 89.5,-41.25 "/>
<text text-anchor="middle" x="45" y="-26.05" font-family="Times,serif" font-size="14.00">next = [1]</text>
</g>
<!-- element1 -->
<g id="node2" class="node"><title>element1</title>
<path fill="#cc99ff" stroke="black" d="M138.5,-18.25C138.5,-18.25 203.5,-18.25 203.5,-18.25 209.5,-18.25 215.5,-24.25 215.5,-30.25 215.5,-30.25 215.5,-98.25 215.5,-98.25 215.5,-104.25 209.5,-110.25 203.5,-110.25 203.5,-110.25 138.5,-110.25 138.5,-110.25 132.5,-110.25 126.5,-104.25 126.5,-98.25 126.5,-98.25 126.5,-30.25 126.5,-30.25 126.5,-24.25 132.5,-18.25 138.5,-18.25"/>
<text text-anchor="middle" x="171" y="-95.05" font-family="Times,serif" font-size="14.00">idx = [1]</text>
<polyline fill="none" stroke="black" points="126.5,-87.25 215.5,-87.25 "/>
<text text-anchor="middle" x="171" y="-72.05" font-family="Times,serif" font-size="14.00">data = [0]</text>
<polyline fill="none" stroke="black" points="126.5,-64.25 215.5,-64.25 "/>
<text text-anchor="middle" x="171" y="-49.05" font-family="Times,serif" font-size="14.00">prev = [0]</text>
<polyline fill="none" stroke="black" points="126.5,-41.25 215.5,-41.25 "/>
<text text-anchor="middle" x="171" y="-26.05" font-family="Times,serif" font-size="14.00">next = [2]</text>
</g>
<!-- element0&#45;&gt;element1 -->
<g id="edge1" class="edge"><title>element0&#45;&gt;element1</title>
<path fill="none" stroke="none" d="M89.7777,-48.8333C89.7777,-48.8333 116.367,-48.8333 116.367,-48.8333"/>
<polygon fill="none" stroke="none" points="116.367,-52.3334 126.367,-48.8333 116.366,-45.3334 116.367,-52.3334"/>
</g>
<!-- element0&#45;&gt;element1 -->
<g id="edge11" class="edge"><title>element0&#45;&gt;element1</title>
<path fill="none" stroke="black" d="M99.7777,-79.6667C99.7777,-79.6667 116.367,-79.6667 116.367,-79.6667"/>
<polygon fill="black" stroke="black" points="116.367,-83.1667 126.367,-79.6667 116.367,-76.1667 116.367,-83.1667"/>
<polygon fill="black" stroke="black" points="99.7777,-76.1667 89.7777,-79.6667 99.7776,-83.1667 99.7777,-76.1667"/>
</g>
<!-- element2 -->
<g id="node3" class="node"><title>element2</title>
<path fill="#66ccff" stroke="black" d="M264.5,-18.25C264.5,-18.25 347.5,-18.25 347.5,-18.25 353.5,-18.25 359.5,-24.25 359.5,-30.25 359.5,-30.25 359.5,-98.25 359.5,-98.25 359.5,-104.25 353.5,-110.25 347.5,-110.25 347.5,-110.25 264.5,-110.25 264.5,-110.25 258.5,-110.25 252.5,-104.25 252.5,-98.25 252.5,-98.25 252.5,-30.25 252.5,-30.25 252.5,-24.25 258.5,-18.25 264.5,-18.25"/>
<text text-anchor="middle" x="306" y="-95.05" font-family="Times,serif" font-size="14.00">idx = [2]</text>
<polyline fill="none" stroke="black" points="252.5,-87.25 359.5,-87.25 "/>
<text text-anchor="middle" x="306" y="-72.05" font-family="Times,serif" font-size="14.00">data = [101]</text>
<polyline fill="none" stroke="black" points="252.5,-64.25 359.5,-64.25 "/>
<text text-anchor="middle" x="306" y="-49.05" font-family="Times,serif" font-size="14.00">prev = [1]</text>
<polyline fill="none" stroke="black" points="252.5,-41.25 359.5,-41.25 "/>
<text text-anchor="middle" x="306" y="-26.05" font-family="Times,serif" font-size="14.00">next = [3]</text>
</g>
<!-- element1&#45;&gt;element2 -->
<g id="edge2" class="edge"><title>element1&#45;&gt;element2</title>
<path fill="none" stroke="none" d="M215.578,-48.8333C215.578,-48.8333 242.068,-48.8333 242.068,-48.8333"/>
<polygon fill="none" stroke="none" points="242.069,-52.3334 252.068,-48.8333 242.068,-45.3334 242.069,-52.3334"/>
</g>
<!-- element1&#45;&gt;element2 -->
<g id="edge12" class="edge"><title>element1&#45;&gt;element2</title>
<path fill="none" stroke="black" d="M225.578,-79.6667C225.578,-79.6667 242.068,-79.6667 242.068,-79.6667"/>
<polygon fill="black" stroke="black" points="242.068,-83.1667 252.068,-79.6667 242.068,-76.1667 242.068,-83.1667"/>
<polygon fill="black" stroke="black" points="225.578,-76.1667 215.578,-79.6667 225.578,-83.1667 225.578,-76.1667"/>
</g>
<!-- element3 -->
<g id="node4" class="node"><title>element3</title>
<path fill="#66ccff" stroke="black" d="M408.5,-18.25C408.5,-18.25 491.5,-18.25 491.5,-18.25 497.5,-18.25 503.5,-24.25 503.5,-30.25 503.5,-30.25 503.5,-98.25 503.5,-98.25 503.5,-104.25 497.5,-110.25 491.5,-110.25 491.5,-110.25 408.5,-110.25 408.5,-110.25 402.5,-110.25 396.5,-104.25 396.5,-98.25 396.5,-98.25 396.5,-30.25 396.5,-30.25 396.5,-24.25 402.5,-18.25 408.5,-18.25"/>
<text text-anchor="middle" x="450" y="-95.05" font-family="Times,serif" font-size="14.00">idx = [3]</text>
<polyline fill="none" stroke="black" points="396.5,-87.25 503.5,-87.25 "/>
<text text-anchor="middle" x="450" y="-72.05" font-family="Times,serif" font-size="14.00">data = [202]</text>
<polyline fill="none" stroke="black" points="396.5,-64.25 503.5,-64.25 "/>
<text text-anchor="middle" x="450" y="-49.05" font-family="Times,serif" font-size="14.00">prev = [2]</text>
<polyline fill="none" stroke="black" points="396.5,-41.25 503.5,-41.25 "/>
<text text-anchor="middle" x="450" y="-26.05" font-family="Times,serif" font-size="14.00">next = [0]</text>
</g>
<!-- element2&#45;&gt;element3 -->
<g id="edge3" class="edge"><title>element2&#45;&gt;element3</title>
<path fill="none" stroke="none" d="M359.62,-48.8333C359.62,-48.8333 386.335,-48.8333 386.335,-48.8333"/>
<polygon fill="none" stroke="none" points="386.335,-52.3334 396.335,-48.8333 386.335,-45.3334 386.335,-52.3334"/>
</g>
<!-- element2&#45;&gt;element3 -->
<g id="edge13" class="edge"><title>element2&#45;&gt;element3</title>
<path fill="none" stroke="black" d="M369.62,-79.6667C369.62,-79.6667 386.335,-79.6667 386.335,-79.6667"/>
<polygon fill="black" stroke="black" points="386.335,-83.1667 396.335,-79.6667 386.335,-76.1667 386.335,-83.1667"/>
<polygon fill="black" stroke="black" points="369.62,-76.1667 359.62,-79.6667 369.62,-83.1667 369.62,-76.1667"/>
</g>
<!-- element4 -->
<g id="node5" class="node"><title>element4</title>
<path fill="#33cc33" stroke="black" d="M552.5,-18.25C552.5,-18.25 639.5,-18.25 639.5,-18.25 645.5,-18.25 651.5,-24.25 651.5,-30.25 651.5,-30.25 651.5,-98.25 651.5,-98.25 651.5,-104.25 645.5,-110.25 639.5,-110.25 639.5,-110.25 552.5,-110.25 552.5,-110.25 546.5,-110.25 540.5,-104.25 540.5,-98.25 540.5,-98.25 540.5,-30.25 540.5,-30.25 540.5,-24.25 546.5,-18.25 552.5,-18.25"/>
<text text-anchor="middle" x="596" y="-95.05" font-family="Times,serif" font-size="14.00">idx = [4]</text>
<polyline fill="none" stroke="black" points="540.5,-87.25 651.5,-87.25 "/>
<text text-anchor="middle" x="596" y="-72.05" font-family="Times,serif" font-size="14.00">data = [&#45;666]</text>
<polyline fill="none" stroke="black" points="540.5,-64.25 651.5,-64.25 "/>
<text text-anchor="middle" x="596" y="-49.05" font-family="Times,serif" font-size="14.00">prev = [&#45;1]</text>
<polyline fill="none" stroke="black" points="540.5,-41.25 651.5,-41.25 "/>
<text text-anchor="middle" x="596" y="-26.05" font-family="Times,serif" font-size="14.00">next = [5]</text>
</g>
<!-- element3&#45;&gt;element4 -->
<g id="edge4" class="edge"><title>element3&#45;&gt;element4</title>
<path fill="none" stroke="none" d="M503.536,-64.25C503.536,-64.25 530.019,-64.25 530.019,-64.25"/>
<polygon fill="none" stroke="none" points="530.019,-67.7501 540.019,-64.25 530.019,-60.7501 530.019,-67.7501"/>
</g>
<!-- element3&#45;&gt;element0 -->
<g id="edge14" class="edge"><title>element3&#45;&gt;element0</title>
<path fill="none" stroke="black" d="M450,-8.23961C450,-8.23961 450,-0 450,-0 450,-0 45,-0 45,-0 45,-0 45,-8.23961 45,-8.23961"/>
<polygon fill="black" stroke="black" points="446.5,-8.23958 450,-18.2396 453.5,-8.23965 446.5,-8.23958"/>
<polygon fill="black" stroke="black" points="41.5001,-8.23958 45,-18.2396 48.5001,-8.23965 41.5001,-8.23958"/>
</g>
<!-- element5 -->
<g id="node6" class="node"><title>element5</title>
<path fill="#99ff66" stroke="black" d="M700.5,-18.25C700.5,-18.25 787.5,-18.25 787.5,-18.25 793.5,-18.25 799.5,-24.25 799.5,-30.25 799.5,-30.25 799.5,-98.25 799.5,-98.25 799.5,-104.25 793.5,-110.25 787.5,-110.25 787.5,-110.25 700.5,-110.25 700.5,-110.25 694.5,-110.25 688.5,-104.25 688.5,-98.25 688.5,-98.25 688.5,-30.25 688.5,-30.25 688.5,-24.25 694.5,-18.25 700.5,-18.25"/>
<text text-anchor="middle" x="744" y="-95.05" font-family="Times,serif" font-size="14.00">idx = [5]</text>
<polyline fill="none" stroke="black" points="688.5,-87.25 799.5,-87.25 "/>
<text text-anchor="middle" x="744" y="-72.05" font-family="Times,serif" font-size="14.00">data = [&#45;666]</text>
<polyline fill="none" stroke="black" points="688.5,-64.25 799.5,-64.25 "/>
<text text-anchor="middle" x="744" y="-49.05" font-family="Times,serif" font-size="14.00">prev = [&#45;1]</text>
<polyline fill="none" stroke="black" points="688.5,-41.25 799.5,-41.25 "/>
<text text-anchor="middle" x="744" y="-26.05" font-family="Times,serif" font-size="14.00">next = [6]</text>
</g>
<!-- element4&#45;&gt;element5 -->
<g id="edge5" class="edge"><title>element4&#45;&gt;element5</title>
<path fill="none" stroke="none" d="M651.531,-48.8333C651.531,-48.8333 678.158,-48.8333 678.158,-48.8333"/>
<polygon fill="none" stroke="none" points="678.158,-52.3334 688.158,-48.8333 678.158,-45.3334 678.158,-52.3334"/>
</g>
<!-- element4&#45;&gt;element5 -->
<g id="edge15" class="edge"><title>element4&#45;&gt;element5</title>
<path fill="none" stroke="green" d="M651.531,-79.6667C651.531,-79.6667 678.158,-79.6667 678.158,-79.6667"/>
<polygon fill="green" stroke="green" points="678.158,-83.1668 688.158,-79.6667 678.158,-76.1668 678.158,-83.1668"/>
</g>
<!-- element6 -->
<g id="node7" class="node"><title>element6</title>
<path fill="#99ff66" stroke="black" d="M848.5,-18.25C848.5,-18.25 935.5,-18.25 935.5,-18.25 941.5,-18.25 947.5,-24.25 947.5,-30.25 947.5,-30.25 947.5,-98.25 947.5,-98.25 947.5,-104.25 941.5,-110.25 935.5,-110.25 935.5,-110.25 848.5,-110.25 848.5,-110.25 842.5,-110.25 836.5,-104.25 836.5,-98.25 836.5,-98.25 836.5,-30.25 836.5,-30.25 836.5,-24.25 842.5,-18.25 848.5,-18.25"/>
<text text-anchor="middle" x="892" y="-95.05" font-family="Times,serif" font-size="14.00">idx = [6]</text>
<polyline fill="none" stroke="black" points="836.5,-87.25 947.5,-87.25 "/>
<text text-anchor="middle" x="892" y="-72.05" font-family="Times,serif" font-size="14.00">data = [&#45;666]</text>
<polyline fill="none" stroke="black" points="836.5,-64.25 947.5,-64.25 "/>
<text text-anchor="middle" x="892" y="-49.05" font-family="Times,serif" font-size="14.00">prev = [&#45;1]</text>
<polyline fill="none" stroke="black" points="836.5,-41.25 947.5,-41.25 "/>
<text text-anchor="middle" x="892" y="-26.05" font-family="Times,serif" font-size="14.00">next = [7]</text>
</g>
<!-- element5&#45;&gt;element6 -->
<g id="edge6" class="edge"><title>element5&#45;&gt;element6</title>
<path fill="none" stroke="none" d="M799.531,-48.8333C799.531,-48.8333 826.158,-48.8333 826.158,-48.8333"/>
<polygon fill="none" stroke="none" points="826.158,-52.3334 836.158,-48.8333 826.158,-45.3334 826.158,-52.3334"/>
</g>
<!-- element5&#45;&gt;element6 -->
<g id="edge16" class="edge"><title>element5&#45;&gt;element6</title>
<path fill="none" stroke="green" d="M799.531,-79.6667C799.531,-79.6667 826.158,-79.6667 826.158,-79.6667"/>
<polygon fill="green" stroke="green" points="826.158,-83.1668 836.158,-79.6667 826.158,-76.1668 826.158,-83.1668"/>
</g>
<!-- element7 -->
<g id="node8" class="node"><title>element7</title>
<path fill="#99ff66" stroke="black" d="M996.5,-18.25C996.5,-18.25 1083.5,-18.25 1083.5,-18.25 1089.5,-18.25 1095.5,-24.25 1095.5,-30.25 1095.5,-30.25 1095.5,-98.25 1095.5,-98.25 1095.5,-104.25 1089.5,-110.25 1083.5,-110.25 1083.5,-110.25 996.5,-110.25 996.5,-110.25 990.5,-110.25 984.5,-104.25 984.5,-98.25 984.5,-98.25 984.5,-30.25 984.5,-30.25 984.5,-24.25 990.5,-18.25 996.5,-18.25"/>
<text text-anchor="middle" x="1040" y="-95.05" font-family="Times,serif" font-size="14.00">idx = [7]</text>
<polyline fill="none" stroke="black" points="984.5,-87.25 1095.5,-87.25 "/>
<text text-anchor="middle" x="1040" y="-72.05" font-family="Times,serif" font-size="14.00">data = [&#45;666]</text>
<polyline fill="none" stroke="black" points="984.5,-64.25 1095.5,-64.25 "/>
<text text-anchor="middle" x="1040" y="-49.05" font-family="Times,serif" font-size="14.00">prev = [&#45;1]</text>
<polyline fill="none" stroke="black" points="984.5,-41.25 1095.5,-41.25 "/>
<text text-anchor="middle" x="1040" y="-26.05" font-family="Times,serif" font-size="14.00">next = [8]</text>
</g>
<!-- element6&#45;&gt;element7 -->
<g id="edge7" class="edge"><title>element6&#45;&gt;element7</title>
<path fill="none" stroke="none" d="M947.531,-48.8333C947.531,-48.8333 974.158,-48.8333 974.158,-48.8333"/>
<polygon fill="none" stroke="none" points="974.158,-52.3334 984.158,-48.8333 974.158,-45.3334 974.158,-52.3334"/>
</g>
<!-- element6&#45;&gt;element7 -->
<g id="edge17" class="edge"><title>element6&#45;&gt;element7</title>
<path fill="none" stroke="green" d="M947.531,-79.6667C947.531,-79.6667 974.158,-79.6667 974.158,-79.6667"/>
<polygon fill="green" stroke="green" points="974.158,-83.1668 984.158,-79.6667 974.158,-76.1668 974.158,-83.1668"/>
</g>
<!-- element8 -->
<g id="node9" class="node"><title>element8</title>
<path fill="#99ff66" stroke="black" d="M1144.5,-18.25C1144.5,-18.25 1231.5,-18.25 1231.5,-18.25 1237.5,-18.25 1243.5,-24.25 1243.5,-30.25 1243.5,-30.25 1243.5,-98.25 1243.5,-98.25 1243.5,-104.25 1237.5,-110.25 1231.5,-110.25 1231.5,-110.25 1144.5,-110.25 1144.5,-110.25 1138.5,-110.25 1132.5,-104.25 1132.5,-98.25 1132.5,-98.25 1132.5,-30.25 1132.5,-30.25 1132.5,-24.25 1138.5,-18.25 1144.5,-18.25"/>
<text text-anchor="middle" x="1188" y="-95.05" font-family="Times,serif" font-size="14.00">idx = [8]</text>
<polyline fill="none" stroke="black" points="1132.5,-87.25 1243.5,-87.25 "/>
<text text-anchor="middle" x="1188" y="-72.05" font-family="Times,serif" font-size="14.00">data = [&#45;666]</text>
<polyline fill="none" stroke="black" points="1132.5,-64.25 1243.5,-64.25 "/>
<text text-anchor="middle" x="1188" y="-49.05" font-family="Times,serif" font-size="14.00">prev = [&#45;1]</text>
<polyline fill="none" stroke="black" points="1132.5,-41.25 1243.5,-41.25 "/>
<text text-anchor="middle" x="1188" y="-26.05" font-family="Times,serif" font-size="14.00">next = [9]</text>
</g>
<!-- element7&#45;&gt;element8 -->
<g id="edge8" class="edge"><title>element7&#45;&gt;element8</title>
<path fill="none" stroke="none" d="M1095.53,-48.8333C1095.53,-48.8333 1122.16,-48.8333 1122.16,-48.8333"/>
<polygon fill="none" stroke="none" points="1122.16,-52.3334 1132.16,-48.8333 1122.16,-45.3334 1122.16,-52.3334"/>
</g>
<!-- element7&#45;&gt;element8 -->
<g id="edge18" class="edge"><title>element7&#45;&gt;element8</title>
<path fill="none" stroke="green" d="M1095.53,-79.6667C1095.53,-79.6667 1122.16,-79.6667 1122.16,-79.6667"/>
<polygon fill="green" stroke="green" points="1122.16,-83.1668 1132.16,-79.6667 1122.16,-76.1668 1122.16,-83.1668"/>
</g>
<!-- element9 -->
<g id="node10" class="node"><title>element9</title>
<path fill="#99ff66" stroke="black" d="M1292.5,-18.25C1292.5,-18.25 1379.5,-18.25 1379.5,-18.25 1385.5,-18.25 1391.5,-24.25 1391.5,-30.25 1391.5,-30.25 1391.5,-98.25 1391.5,-98.25 1391.5,-104.25 1385.5,-110.25 1379.5,-110.25 1379.5,-110.25 1292.5,-110.25 1292.5,-110.25 1286.5,-110.25 1280.5,-104.25 1280.5,-98.25 1280.5,-98.25 1280.5,-30.25 1280.5,-30.25 1280.5,-24.25 1286.5,-18.25 1292.5,-18.25"/>
<text text-anchor="middle" x="1336" y="-95.05" font-family="Times,serif" font-size="14.00">idx = [9]</text>
<polyline fill="none" stroke="black" points="1280.5,-87.25 1391.5,-87.25 "/>
<text text-anchor="middle" x="1336" y="-72.05" font-family="Times,serif" font-size="14.00">data = [&#45;666]</text>
<polyline fill="none" stroke="black" points="1280.5,-64.25 1391.5,-64.25 "/>
<text text-anchor="middle" x="1336" y="-49.05" font-family="Times,serif" font-size="14.00">prev = [&#45;1]</text>
<polyline fill="none" stroke="black" points="1280.5,-41.25 1391.5,-41.25 "/>
<text text-anchor="middle" x="1336" y="-26.05" font-family="Times,serif" font-size="14.00">next = [10]</text>
</g>
<!-- element8&#45;&gt;element9 -->
<g id="edge9" class="edge"><title>element8&#45;&gt;element9</title>
<path fill="none" stroke="none" d="M1243.53,-48.8333C1243.53,-48.8333 1270.16,-48.8333 1270.16,-48.8333"/>
<polygon fill="none" stroke="none" points="1270.16,-52.3334 1280.16,-48.8333 1270.16,-45.3334 1270.16,-52.3334"/>
</g>
<!-- element8&#45;&gt;element9 -->
<g id="edge19" class="edge"><title>element8&#45;&gt;element9</title>
<path fill="none" stroke="green" d="M1243.53,-79.6667C1243.53,-79.6667 1270.16,-79.6667 1270.16,-79.6667"/>
<polygon fill="green" stroke="green" points="1270.16,-83.1668 1280.16,-79.6667 1270.16,-76.1668 1270.16,-83.1668"/>
</g>
<!-- element10 -->
<g id="node11" class="node"><title>element10</title>
<path fill="#99ff66" stroke="black" d="M1440.5,-18.25C1440.5,-18.25 1527.5,-18.25 1527.5,-18.25 1533.5,-18.25 1539.5,-24.25 1539.5,-30.25 1539.5,-30.25 1539.5,-98.25 1539.5,-98.25 1539.5,-104.25 1533.5,-110.25 1527.5,-110.25 1527.5,-110.25 1440.5,-110.25 1440.5,-110.25 1434.5,-110.25 1428.5,-104.25 1428.5,-98.25 1428.5,-98.25 1428.5,-30.25 1428.5,-30.25 1428.5,-24.25 1434.5,-18.25 1440.5,-18.25"/>
<text text-anchor="middle" x="1484" y="-95.05" font-family="Times,serif" font-size="14.00">idx = [10]</text>
<polyline fill="none" stroke="black" points="1428.5,-87.25 1539.5,-87.25 "/>
<text text-anchor="middle" x="1484" y="-72.05" font-family="Times,serif" font-size="14.00">data = [&#45;666]</text>
<polyline fill="none" stroke="black" points="1428.5,-64.25 1539.5,-64.25 "/>
<text text-anchor="middle" x="1484" y="-49.05" font-family="Times,serif" font-size="14.00">prev = [&#45;1]</text>
<polyline fill="none" stroke="black" points="1428.5,-41.25 1539.5,-41.25 "/>
<text text-anchor="middle" x="1484" y="-26.05" font-family="Times,serif" font-size="14.00">next = [0]</text>
</g>
<!-- element9&#45;&gt;element10 -->
<g id="edge10" class="edge"><title>element9&#45;&gt;element10</title>
<path fill="none" stroke="none" d="M1391.53,-48.8333C1391.53,-48.8333 1418.16,-48.8333 1418.16,-48.8333"/>
<polygon fill="none" stroke="none" points="1418.16,-52.3334 1428.16,-48.8333 1418.16,-45.3334 1418.16,-52.3334"/>
</g>
<!-- element9&#45;&gt;element10 -->
<g id="edge20" class="edge"><title>element9&#45;&gt;element10</title>
<path fill="none" stroke="green" d="M1391.53,-79.6667C1391.53,-79.6667 1418.16,-79.6667 1418.16,-79.6667"/>
<polygon fill="green" stroke="green" points="1418.16,-83.1668 1428.16,-79.6667 1418.16,-76.1668 1418.16,-83.1668"/>
</g>
</g>
</svg>
